<svg xmlns="http://www.w3.org/2000/svg" width="1024" height="1024"><defs><linearGradient id="a" x1=".07" x2=".589" y1=".496" y2=".501" gradientUnits="objectBoundingBox" spreadMethod="pad"><stop offset="0" stop-color="#3a58dd" stop-opacity="0"/><stop offset="1" stop-color="#4164ff" stop-opacity=".847"/></linearGradient><linearGradient id="b" x1=".392" x2=".615" y1="-.137" y2=".989" gradientUnits="objectBoundingBox" spreadMethod="pad"><stop offset="0" stop-color="#3a5edf"/><stop offset=".544" stop-color="#3a5edf"/><stop offset="1" stop-color="#b6d5ff"/></linearGradient><linearGradient id="c" x1=".392" x2=".615" y1="-.137" y2=".989" gradientUnits="objectBoundingBox" spreadMethod="pad"><stop offset="0" stop-color="#3a5edf"/><stop offset=".544" stop-color="#3a5edf"/><stop offset="1" stop-color="#b6d5ff"/></linearGradient><linearGradient id="d" x1=".771" x2="0" y1=".51" y2=".5" gradientUnits="objectBoundingBox" spreadMethod="pad"><stop offset="0" stop-color="#d9eaff"/><stop offset="1" stop-color="#9bbffe"/></linearGradient><linearGradient id="e" x1=".771" x2="0" y1=".51" y2=".5" gradientUnits="objectBoundingBox" spreadMethod="pad"><stop offset="0" stop-color="#d9eaff"/><stop offset="1" stop-color="#9bbffe"/></linearGradient><linearGradient id="f" x1=".497" x2=".515" y1=".943" y2="-.013" gradientUnits="objectBoundingBox" spreadMethod="pad"><stop offset="0" stop-color="#cae1ff"/><stop offset=".319" stop-color="#a5c7f9"/><stop offset="1" stop-color="#3258e8"/><stop offset="1" stop-color="#3258e8"/></linearGradient><linearGradient id="g" x1=".497" x2=".515" y1=".943" y2="-.013" gradientUnits="objectBoundingBox" spreadMethod="pad"><stop offset="0" stop-color="#cae1ff"/><stop offset=".319" stop-color="#a5c7f9"/><stop offset="1" stop-color="#3258e8"/><stop offset="1" stop-color="#3258e8"/></linearGradient><linearGradient id="h" x1=".663" x2=".344" y1=".579" y2=".71" gradientUnits="objectBoundingBox" spreadMethod="pad"><stop offset="0" stop-color="#9bbffe"/><stop offset="1" stop-color="#d9eaff"/></linearGradient><linearGradient id="i" x1=".663" x2=".344" y1=".579" y2=".71" gradientUnits="objectBoundingBox" spreadMethod="pad"><stop offset="0" stop-color="#9bbffe"/><stop offset="1" stop-color="#d9eaff"/></linearGradient><linearGradient id="j" x1=".588" x2=".433" y1="1.016" y2=".118" gradientUnits="objectBoundingBox" spreadMethod="pad"><stop offset="0" stop-color="#d9eaff"/><stop offset="1" stop-color="#9bbffe"/></linearGradient><linearGradient id="k" x1=".388" x2=".62" y1="-.137" y2=".989" gradientUnits="objectBoundingBox" spreadMethod="pad"><stop offset="0" stop-color="#3a5edf"/><stop offset=".544" stop-color="#3a5edf"/><stop offset="1" stop-color="#b6d5ff"/></linearGradient><linearGradient id="l" x1="1" x2=".02" y1=".506" y2=".516" gradientUnits="objectBoundingBox" spreadMethod="pad"><stop offset="0" stop-color="#d9eaff"/><stop offset="1" stop-color="#9bbffe"/></linearGradient><linearGradient id="m" x1="1" x2=".02" y1=".506" y2=".516" gradientUnits="objectBoundingBox" spreadMethod="pad"><stop offset="0" stop-color="#d9eaff"/><stop offset="1" stop-color="#9bbffe"/></linearGradient><linearGradient id="n" x1="1" x2=".02" y1=".506" y2=".515" gradientUnits="objectBoundingBox" spreadMethod="pad"><stop offset="0" stop-color="#d9eaff"/><stop offset="1" stop-color="#9bbffe"/></linearGradient><linearGradient id="o" x1="1" x2=".02" y1=".506" y2=".515" gradientUnits="objectBoundingBox" spreadMethod="pad"><stop offset="0" stop-color="#d9eaff"/><stop offset="1" stop-color="#9bbffe"/></linearGradient><linearGradient id="p" x1=".5" x2=".5" y1="0" y2="1" gradientUnits="objectBoundingBox" spreadMethod="pad"><stop offset="0" stop-color="#fbe214"/><stop offset="1" stop-color="#efbe64"/></linearGradient><radialGradient id="q" cx=".362" cy=".593" r=".634" fx=".362" fy=".593" gradientUnits="objectBoundingBox" spreadMethod="pad"><stop offset="0" stop-color="#bfd7ff"/><stop offset="1" stop-color="#7195ff"/></radialGradient></defs><path fill="#fff" fill-rule="evenodd" d="M0 0h1024v1024H0Z"/><path fill="#f1f5fd" fill-rule="evenodd" d="m956 687-.2 4-.7 4.1-1.2 4-1.6 4.1-2.2 4.1-2.7 4.2-3.5 4.5-4.2 4.6-5 4.6-5.8 4.8-6.7 4.8-8.3 5.3-9.5 5.4-10.8 5.4-12.2 5.5-12 4.8-13.2 4.8-14.4 4.7-15.8 4.7-32 8.2-35.7 7.4-36.8 6.2-39.6 5.3-26.7 2.8-27.7 2.4-28.5 1.9-28.5 1.3-29 .8-29.5.3-29.5-.3-29-.8-28.5-1.3-28.5-1.9-27.7-2.4-26.7-2.8-39.6-5.3-36.8-6.2-35.7-7.4-32-8.2-15.8-4.7-14.4-4.7-13.2-4.8-12-4.8-12.2-5.5-10.8-5.4-9.5-5.4-8.3-5.3-6.7-4.8-5.8-4.8-5-4.6-4.2-4.6-3.5-4.5-2.7-4.2-2.2-4.1-1.6-4.1-1.2-4-.7-4.1-.2-4 .2-4 .7-4 1.2-4.1 1.6-4.1 2.2-4.1 2.7-4.2 3.5-4.5 4.2-4.6 5-4.6 5.8-4.8 6.7-4.8 8.3-5.3 9.5-5.4 10.8-5.4 12.2-5.5 12-4.8 13.2-4.8 14.4-4.7 15.8-4.7 32-8.2 35.7-7.4 36.8-6.2 39.6-5.3 26.7-2.8 27.7-2.4 28.5-1.9 28.5-1.3 29-.8 29.5-.3 29.5.3 29 .8 28.5 1.3 28.5 1.9 27.7 2.4 26.7 2.8 39.6 5.3 36.8 6.2 35.7 7.4 32 8.2 15.8 4.7 14.4 4.7 13.2 4.8 12 4.8 12.2 5.5 10.8 5.4 9.5 5.4 8.3 5.3 6.7 4.8 5.8 4.8 5 4.6 4.2 4.6 3.5 4.5 2.7 4.2 2.2 4.1 1.6 4.1 1.2 4.1.7 4z"/><path fill="url(#a)" fill-rule="evenodd" d="M49.8 650v21l-38.5 12 280.2 12.4 192 8 124.6 4.8 75.3 2.4 41 1h19.1l7-.3 1.5-.3 5.8-4.1 4.3-3.9 1.3-2.5v-1.1l-.4-.9-1.1-1-1.9-1-7.8-3-11.3-3.4-16.6-4-10.3-2.2-27.9-4.9-18.1-2.8-43.6-6-56.1-6.7-188.7-11.6-54.5-3-136.5-6.8-82.6-3.6h-5.3l-6.6.6-8.1 1.3-10 2.2-11.9 3.1z"/><path fill="url(#b)" fill-rule="evenodd" d="m321 396.5 29 4.5-81.2 164.2 80.8 8.6V492l26.4 3.9v80.7l8 .9V610l-8-.9V671l-26.4-3v-61.8L236 593.8v-32z"/><path fill="url(#c)" fill-rule="evenodd" d="m697 436.5 29 4.5-81.2 164.2 80.8 8.6V532l26.4 3.9v80.7l8 .9V650l-8-.9V711l-26.4-3v-61.8L612 633.8v-32z"/><path fill="url(#d)" fill-rule="evenodd" d="m349.8 574-84.5-9 18.2-8 66.3 7Z"/><path fill="#7a7a7a" fill-rule="evenodd" d="m725.8 614-84.5-9 18.2-8 66.3 7Z"/><path fill="url(#e)" fill-rule="evenodd" d="m725.8 614-84.5-9 18.2-8 66.3 7Z"/><path fill="url(#f)" fill-rule="evenodd" d="m376.1 495.8 13.2-8.4-.1 175.2L376 671Z"/><path fill="url(#g)" fill-rule="evenodd" d="m752.1 535.8 13.2-8.4-.1 175.2L752 711Z"/><path fill="url(#h)" fill-rule="evenodd" d="m349.7 400.8 13.8-8-80 164.2-18.2 8Z"/><path fill="#b4b4b4" fill-rule="evenodd" d="m725.7 440.8 13.8-8-80 164.2-18.2 8Z"/><path fill="url(#i)" fill-rule="evenodd" d="m725.7 440.8 13.8-8-80 164.2-18.2 8Z"/><path fill="url(#j)" d="m512.8 415.5 6.5.6 6.2 1 6 1.4 5.7 1.8 5.4 2.1 5.3 2.6 5 2.8 4.7 3.2 4.4 3.4 4.1 3.8 3.8 4.1 3.4 4.3 3.1 4.6 2.7 4.9 2.4 5.1 1.9 5.2 1.5 5.4 1.2 5.7.6 5.9.3 6.1v120l-.3 6.1-.7 5.9-1.1 5.7-1.6 5.5-2.1 5.4-2.4 5.2-2.8 4.9-3.2 4.7-3.5 4.4-3.8 4.2-4.2 3.8-4.4 3.5-4.7 3.2-4.9 2.8-5.2 2.4-5.4 2.1-5.5 1.6-5.7 1.1-5.9.7-13.6.3-7.2-.5-6.4-1.5-6.1-2-5.7-2.5-5.5-3-5.2-3.5-4.8-3.8-4.4-4.3-4.2-4.7-3.7-5.1-3.2-5.3-2.8-5.6-2.4-6-1.9-6.1-1.4-6.3-.8-6.5-.3-6.8v-120l.2-6.8.6-6.6 1-6.3 1.4-6 1.8-6.1 2.2-5.6 2.6-5.3 3-5 3.4-4.7 3.8-4.3 4.2-3.8 4.6-3.5 4.9-3 5.3-2.5 5.9-2 6.4-1.5 3.5-.5 11.1-.6zm.7 34.6-8 .8-7.3 2.3-6.7 3.6-5.9 4.8-4.8 5.9-3.6 6.7-2.3 7.3-.8 8v120l.8 8 1 3.7 3 7.1 4.2 6.3 5.3 5.3 6.3 4.2 7.1 3 7.6 1.6 4.1.2 8-.8 7.3-2.3 6.7-3.6 5.9-4.8 4.8-5.9 3.6-6.7 2.3-7.3.8-8v-120l-.8-8-1-3.7-3-7.1-4.2-6.3-5.3-5.3-6.3-4.2-7.1-3-7.6-1.6z"/><path fill="url(#k)" d="m500.5 416 6.1.3 5.9.7 5.7 1.1 5.5 1.6 5.4 2.1 5.2 2.4 4.9 2.8 4.7 3.2 4.4 3.5 4.2 3.8 3.8 4.2 3.5 4.4 3.2 4.7 2.8 4.9 2.4 5.2 2.1 5.4 1.6 5.5 1.1 5.7.7 5.9.3 6.1v120l-.3 6.1-.7 5.9-1.1 5.7-1.6 5.5-2.1 5.4-2.4 5.2-2.8 4.9-3.2 4.7-3.5 4.4-3.8 4.2-4.2 3.8-4.4 3.5-4.7 3.2-4.9 2.8-5.2 2.4-5.4 2.1-5.5 1.6-5.7 1.1-5.9.7-6.1.3-6.1-.3-5.9-.7-5.7-1.1-5.5-1.6-5.4-2.1-5.2-2.4-4.9-2.8-4.7-3.2-4.4-3.5-4.2-3.8-3.8-4.2-3.5-4.4-3.2-4.7-2.8-4.9-2.4-5.2-2.1-5.4-1.6-5.5-1.1-5.7-.7-5.9-.3-6.1v-120l.3-6.1.7-5.9 1.1-5.7 1.6-5.5 2.1-5.4 2.4-5.2 2.8-4.9 3.2-4.7 3.5-4.4 3.8-4.2 4.2-3.8 4.4-3.5 4.7-3.2 4.9-2.8 5.2-2.4 5.4-2.1 5.5-1.6 5.7-1.1 5.9-.7zm0 34.1-8 .8-7.3 2.3-6.7 3.6-5.9 4.8-4.8 5.9-3.6 6.7-2.3 7.3-.8 8v120l.8 8 1 3.7 3 7.1 4.2 6.3 5.3 5.3 6.3 4.2 7.1 3 7.6 1.6 4.1.2 8-.8 7.3-2.3 6.7-3.6 5.9-4.8 4.8-5.9 3.6-6.7 2.3-7.3.8-8v-120l-.8-8-1-3.7-3-7.1-4.2-6.3-5.3-5.3-6.3-4.2-7.1-3-7.6-1.6z"/><path fill="url(#l)" fill-rule="evenodd" d="m366.3 485 23 2.5L376 496l-26.4-3.7Z"/><path fill="#7a7a7a" fill-rule="evenodd" d="m742.3 525 23 2.5L752 536l-26.4-3.7Z"/><path fill="url(#m)" fill-rule="evenodd" d="m742.3 525 23 2.5L752 536l-26.4-3.7Z"/><path fill="#7a7a7a" fill-rule="evenodd" d="m333.8 389.5 29.7 3.3-13.9 8.2-28.6-4.4Z"/><path fill="url(#n)" fill-rule="evenodd" d="m333.8 389.5 29.7 3.3-13.9 8.2-28.6-4.4Z"/><path fill="#7a7a7a" fill-rule="evenodd" d="m709.8 429.5 29.7 3.3-13.9 8.2-28.6-4.4Z"/><path fill="url(#o)" fill-rule="evenodd" d="m709.8 429.5 29.7 3.3-13.9 8.2-28.6-4.4Z"/><path fill="none" stroke="#60a3ff" stroke-dasharray="2.9999998 1.9999999" stroke-width="2" d="m411.3 298.5 6.7 9.1 3.9 4.3 6.1 6.3 6.4 5.8 12.8 10.5 20.3 15 8.1 5.1 7.5 4.3 7.7 3.8 13 5.3 11.4 3.2 9.5 1.4 6.5.2 14.5-.6 7.6-.8 15.2-2.5 6.9-1.5 6.5-1.9 5.2-1.9 3.2-1.6 4-3 2.3-3.1 1.9-3.5 1.5-3.6.8-3.5-.1-4.3-.5-1.9-.9-1.6-1.3-1.3-1.8-1-2-.5-2.7-.1-3.5.4-3.2 1.6-1.9 1.7-3.5 4.4-3.2 6-1.4 3.4-2 7.4-.6 3.9-.2 4.1.2 4 .7 4 1.2 4 1.6 3.9 2.3 3.7 3.1 3.7 5.5 4.8 7.7 4.4 7.2 3 7.7 2.6 8.3 2.1 9 1.6 9.5 1.1 10.3.6"/><path fill="url(#p)" fill-rule="evenodd" d="m351 260.5 26 44 34-36.5Z"/><path fill="#c09332" fill-rule="evenodd" d="m387.3 293.3 9.2 5.2 1-16.5Z"/><path fill="#c09332" fill-rule="evenodd" d="m381 277.5 16.5 5-5 5Z"/><path fill="url(#q)" fill-rule="evenodd" d="m123 568-.3 3.3-.8 3-1.4 2.8-1.7 2.5-2.2 2.2-2.5 1.7-2.8 1.4-3 .8-3.3.3-3.3-.3-3-.8-2.8-1.4-2.5-1.7-2.2-2.2-1.7-2.5-1.4-2.8-.8-3-.3-3.3.3-3.3.8-3 1.4-2.8 1.7-2.5 2.2-2.2 2.5-1.7 2.8-1.4 3-.8 3.3-.3 3.3.3 3 .8 2.8 1.4 2.5 1.7 2.2 2.2 1.7 2.5 1.4 2.8.8 3z"/></svg>