<svg xmlns="http://www.w3.org/2000/svg" width="890" height="68"><defs><linearGradient id="a" x1="1.1%" x2="93.693%" y1="23.417%" y2="72.084%"><stop offset="0%" stop-color="#274261"/><stop offset="99.31%" stop-color="#30465C"/></linearGradient><linearGradient id="b" x1="0%" x2="94.578%" y1="29.648%" y2="67.561%"><stop offset="0%" stop-color="#CFEAFC" stop-opacity=".62"/><stop offset="54.91%" stop-color="#A4C5EB" stop-opacity=".878"/><stop offset="100%" stop-color="#355E8C"/></linearGradient><linearGradient id="c" x1="1.1%" x2="93.694%" y1="23.417%" y2="72.084%"><stop offset="0%" stop-color="#274261"/><stop offset="99.31%" stop-color="#30465C"/></linearGradient><linearGradient id="d" x1="43.69%" x2="43.69%" y1="106.667%" y2="0%"><stop offset="0%" stop-color="#2AA7FA" stop-opacity=".4"/><stop offset="100%" stop-color="#2AA7FA" stop-opacity="0"/></linearGradient><linearGradient id="e" x1="46.719%" x2="46.719%" y1="100%" y2="0%"><stop offset="0%" stop-color="#6DC0F7"/><stop offset="100%" stop-color="#6DC0F7" stop-opacity="0"/></linearGradient><linearGradient id="g" x1="46.719%" x2="46.719%" y1="100%" y2="0%"><stop offset="0%" stop-color="#38FFF8"/><stop offset="100%" stop-color="#6DC0F7" stop-opacity="0"/></linearGradient><linearGradient id="h" x1="43.986%" x2="43.986%" y1="100%" y2="0%"><stop offset="0%" stop-color="#2AA7FA" stop-opacity=".278"/><stop offset="100%" stop-color="#16B0F2" stop-opacity="0"/></linearGradient></defs><g fill="none" fill-rule="evenodd"><path d="M890 0v68H0V0z"/><path fill="url(#a)" d="M49.592 38.389c3.673 4.278 6.735 7.333 10.408 11.61C48.796 48.9 22.54 49.39.5 6c7.347 7.15 25.214 29.944 49.092 32.389"/><path fill="url(#b)" d="M49.59 32.278c3.673 4.278 6.734 7.333 10.408 11.61C48.794 42.789 22.65 40.223.61 6c7.347 7.15 25.102 23.833 48.98 26.278"/><path fill="url(#c)" d="M879.092 38.389c3.673 4.278 6.735 7.333 10.408 11.61C878.296 48.9 852.04 49.39 830 6c7.347 7.15 25.214 29.944 49.092 32.389" transform="matrix(-1 0 0 1 1719.5 0)"/><path fill="url(#b)" d="M878.982 32.278c3.673 4.278 6.735 7.333 10.408 11.61-11.204-1.1-37.347-3.666-59.388-37.888 7.347 7.15 25.102 23.833 48.98 26.278" transform="matrix(-1 0 0 1 1719.392 0)"/><path fill="#1170AC" d="m271.3 65.43 2.57-5.14h-23.16l2.57 5.14zm365.42 0 2.57-5.14h-23.16l2.57 5.14z"/><path fill="url(#d)" stroke="url(#e)" stroke-dasharray="0,0" d="m68 20.713 19.3 23.445h106.796L207.606 60h202.947l9.007-7.604h51.174l9.65 7.604h202.654l14.796-15.842h107.44L822 20.713V0H68z"/><path fill="url(#d)" stroke="url(#g)" stroke-dasharray="0,0" d="m68 20.713 19.3 23.445h106.796L207.606 60h202.947l9.007-7.604h51.174l9.65 7.604h202.654l14.796-15.842h107.44L822 20.713V0H68z"/><path fill="url(#h)" d="M91.45 56.9A16 16 0 0 0 106.68 68h679.374a16 16 0 0 0 15.176-10.93l4.069-12.181L87.3 44z"/><path stroke="#63D8FF" stroke-dasharray="0,0" stroke-width="2" d="m120 56 10 .1m632-.1 10 .1"/><path stroke="#FFE563" stroke-dasharray="0,0" stroke-width="2" d="m144 56 10 .1m584-.1 10 .1"/><path stroke="#2BA0FF" stroke-dasharray="0,0" stroke-width="2" d="m168 56 10 .1m536-.1 10 .1"/><path fill="#FFAC0F" d="m474.34 61-4.48-4h-48.933l-4.587 4z"/></g></svg>