<svg xmlns="http://www.w3.org/2000/svg" xmlns:xlink="http://www.w3.org/1999/xlink" width="258" height="234"><defs><linearGradient id="f" x1="60.338%" x2="60.338%" y1="0%" y2="100%"><stop offset="0%" stop-color="#1ABCFF" stop-opacity=".204"/><stop offset="100%" stop-color="#1ABCFF" stop-opacity="0"/></linearGradient><linearGradient id="l" x1="50%" x2="50%" y1="0%" y2="80.379%"><stop offset="0%" stop-color="#01E6FE" stop-opacity=".3"/><stop offset="100%" stop-color="#01E6FE" stop-opacity="0"/></linearGradient><linearGradient id="m" x1="50%" x2="50%" y1="-10.3%" y2="77.405%"><stop offset="0%" stop-color="#0A3045"/><stop offset="100%" stop-color="#1ABCFF"/></linearGradient><linearGradient id="n" x1="50%" x2="50%" y1="0%" y2="120.946%"><stop offset="0%" stop-color="#0A3045"/><stop offset="100%" stop-color="#1ABCFF"/></linearGradient><linearGradient id="o" x1="18.62%" x2="61.967%" y1="44.881%" y2="57.467%"><stop offset="0%" stop-color="#01E6FE" stop-opacity=".6"/><stop offset="31.819%" stop-color="#01E6FE" stop-opacity="0"/><stop offset="100%" stop-color="#01E6FE" stop-opacity=".496"/></linearGradient><linearGradient id="p" x1="56.548%" x2="50%" y1="41.402%" y2="58.598%"><stop offset="0%" stop-color="#1ABCFF" stop-opacity="0"/><stop offset="46.118%" stop-color="#1ABCFF"/><stop offset="100%" stop-color="#1ABCFF" stop-opacity="0"/></linearGradient><linearGradient id="s" x1="50%" x2="50%" y1="6.575%" y2="84.15%"><stop offset="0%" stop-color="#01E6FE" stop-opacity="0"/><stop offset="50.09%" stop-color="#01E6FE" stop-opacity=".728"/><stop offset="100%" stop-color="#01E6FE" stop-opacity=".6"/><stop offset="100%" stop-color="#01E6FE" stop-opacity=".6"/></linearGradient><linearGradient id="t" x1="50%" x2="50%" y1="0%" y2="100%"><stop offset="0%" stop-color="#02F4FF"/><stop offset="100%" stop-color="#6CD4FF"/></linearGradient><linearGradient id="u" x1="50.002%" x2="50.002%" y1="12.404%" y2="100%"><stop offset="0%" stop-color="#2494F0" stop-opacity="0"/><stop offset="57.584%" stop-color="#24B2F0" stop-opacity=".454"/><stop offset="100%" stop-color="#2494F0" stop-opacity="0"/></linearGradient><linearGradient id="v" x1="50.002%" x2="50.002%" y1="12.404%" y2="100%"><stop offset="0%" stop-color="#2494F0" stop-opacity="0"/><stop offset="57.584%" stop-color="#01E6FE" stop-opacity=".496"/><stop offset="100%" stop-color="#2494F0" stop-opacity="0"/></linearGradient><filter id="e" width="110.3%" height="150.2%" x="-5.2%" y="-21.3%" filterUnits="objectBoundingBox"><feMorphology in="SourceAlpha" operator="dilate" radius="1" result="shadowSpreadOuter1"/><feOffset dy="2" in="shadowSpreadOuter1" result="shadowOffsetOuter1"/><feMorphology in="SourceAlpha" radius="1" result="shadowInner"/><feOffset dy="2" in="shadowInner" result="shadowInner"/><feComposite in="shadowOffsetOuter1" in2="shadowInner" operator="out" result="shadowOffsetOuter1"/><feGaussianBlur in="shadowOffsetOuter1" result="shadowBlurOuter1" stdDeviation="4"/><feColorMatrix in="shadowBlurOuter1" values="0 0 0 0 0.00392156863 0 0 0 0 0.901960784 0 0 0 0 0.996078431 0 0 0 0.599531694 0"/></filter><filter id="h" width="533.3%" height="406.6%" x="-216.7%" y="-129.7%" filterUnits="objectBoundingBox"><feOffset dy="2" in="SourceAlpha" result="shadowOffsetOuter1"/><feGaussianBlur in="shadowOffsetOuter1" result="shadowBlurOuter1" stdDeviation="4"/><feColorMatrix in="shadowBlurOuter1" values="0 0 0 0 0.996078431 0 0 0 0 0.786695404 0 0 0 0 0.00392156863 0 0 0 0.599531694 0"/></filter><filter id="j" width="533.3%" height="406.6%" x="-216.7%" y="-129.7%" filterUnits="objectBoundingBox"><feOffset dy="2" in="SourceAlpha" result="shadowOffsetOuter1"/><feGaussianBlur in="shadowOffsetOuter1" result="shadowBlurOuter1" stdDeviation="4"/><feColorMatrix in="shadowBlurOuter1" values="0 0 0 0 0.00392156863 0 0 0 0 0.901960784 0 0 0 0 0.996078431 0 0 0 0.599531694 0"/></filter><filter id="r" width="110.6%" height="126.2%" x="-5.3%" y="-11.2%" filterUnits="objectBoundingBox"><feMorphology in="SourceAlpha" operator="dilate" radius="1" result="shadowSpreadOuter1"/><feOffset dy="2" in="shadowSpreadOuter1" result="shadowOffsetOuter1"/><feMorphology in="SourceAlpha" radius="1" result="shadowInner"/><feOffset dy="2" in="shadowInner" result="shadowInner"/><feComposite in="shadowOffsetOuter1" in2="shadowInner" operator="out" result="shadowOffsetOuter1"/><feGaussianBlur in="shadowOffsetOuter1" result="shadowBlurOuter1" stdDeviation="4"/><feColorMatrix in="shadowBlurOuter1" values="0 0 0 0 0.00392156863 0 0 0 0 0.901960784 0 0 0 0 0.996078431 0 0 0 1 0"/></filter><filter id="x" width="399%" height="398.6%" x="-172.5%" y="-126.3%" filterUnits="objectBoundingBox"><feOffset dx="-2" dy="2" in="SourceAlpha" result="shadowOffsetOuter1"/><feGaussianBlur in="shadowOffsetOuter1" result="shadowBlurOuter1" stdDeviation="4"/><feColorMatrix in="shadowBlurOuter1" values="0 0 0 0 0.00392156863 0 0 0 0 0.901960784 0 0 0 0 0.996078431 0 0 0 1 0"/></filter><filter id="z" width="674%" height="673.3%" x="-331.2%" y="-242.5%" filterUnits="objectBoundingBox"><feOffset dx="-2" dy="2" in="SourceAlpha" result="shadowOffsetOuter1"/><feGaussianBlur in="shadowOffsetOuter1" result="shadowBlurOuter1" stdDeviation="4"/><feColorMatrix in="shadowBlurOuter1" values="0 0 0 0 0.00392156863 0 0 0 0 0.901960784 0 0 0 0 0.996078431 0 0 0 1 0"/></filter><filter id="B" width="674%" height="673.3%" x="-331.2%" y="-242.5%" filterUnits="objectBoundingBox"><feOffset dx="-2" dy="2" in="SourceAlpha" result="shadowOffsetOuter1"/><feGaussianBlur in="shadowOffsetOuter1" result="shadowBlurOuter1" stdDeviation="4"/><feColorMatrix in="shadowBlurOuter1" values="0 0 0 0 0.00392156863 0 0 0 0 0.901960784 0 0 0 0 0.996078431 0 0 0 1 0"/></filter><path id="a" d="M193.5 0 258 53.444V86.96l-.643-.001-63.857 52.913h-129L.642 86.959 0 86.96V53.444L64.5 0z"/><path id="c" d="m262 68.513-66.203 55.328H63.392L-2.811 68.513"/><path id="g" d="m209.5 101.952 6-5.481v3l-6 5.481z"/><path id="i" d="m221.5 92.952 6-5.481v3l-6 5.481z"/><path id="k" d="m258 53.444-64.5 53.444h-129L0 53.444 64.5 0h129z"/><path id="q" d="m258 53.493-64.5 53.493h-129L0 53.493 64.5 0h129z"/><ellipse id="w" cx="159.479" cy="39.504" rx="4.348" ry="4.354"/><ellipse id="y" cx="2.265" cy="6.803" rx="2.265" ry="2.268"/><ellipse id="A" cx="185.704" cy="2.268" rx="2.265" ry="2.268"/></defs><g fill="none" fill-rule="evenodd"><g transform="translate(0 93.626)"><mask id="b" fill="#fff"><use xlink:href="#a"/></mask><use xlink:href="#a" fill="#1D435C"/><path stroke="#000" stroke-linejoin="bevel" stroke-width="6" d="m262 68.513-66.203 55.328H63.392L-2.811 68.513" mask="url(#b)"/><g stroke-linejoin="bevel" mask="url(#b)"><use xlink:href="#c" fill="#000" filter="url(#e)"/><use xlink:href="#c" stroke="#FFE7B9" stroke-width="2"/></g></g><path fill="url(#f)" d="M64 107.952h129V142H64z" transform="translate(0 91.498)"/><g transform="translate(0 91.498)"><use xlink:href="#g" fill="#000" filter="url(#h)"/><use xlink:href="#g" fill="#FFCC39"/></g><g transform="translate(0 91.498)"><use xlink:href="#i" fill="#000" filter="url(#j)"/><use xlink:href="#i" fill="#39C5FF"/></g><g transform="translate(0 91.498)"><use xlink:href="#k" fill="#0B2E42" fill-opacity=".896"/><use xlink:href="#k" fill="url(#l)"/></g><path fill="url(#m)" d="M192.616 39.595 144.462 79.19H48.154L0 39.595 48.154 0h96.308z" transform="translate(32.192 105.905)"/><path fill="url(#n)" d="m180.388 51.21-36.597 30.092H50.597L14 51.21l36.597-30.093h93.194z" transform="translate(32.192 105.905)"/><path stroke="url(#o)" d="m193.32 34.5 63.897 52.993-63.897 52.993H64.68L.783 87.493 64.68 34.5z" transform="translate(0 58.535)"/><path stroke="url(#p)" stroke-dasharray="2,2" stroke-linejoin="bevel" stroke-width="2" d="m258 70.493-64.5 53.493h-129L0 70.493 64.5 17h129z" opacity=".8" transform="translate(0 58.535)"/><g stroke-linecap="square" stroke-linejoin="bevel" opacity=".5" transform="translate(0 58.535)"><use xlink:href="#q" fill="#000" filter="url(#r)"/><use xlink:href="#q" stroke="url(#s)" stroke-width="2"/></g><path stroke="url(#t)" stroke-linecap="square" stroke-linejoin="bevel" stroke-width="2" d="M94.379 140.986H65.657l-8.758-7.264m143.143 1.399-7.072 5.865h-28.861M14.592 98.636 2 88.193l12.592-10.444m229.448.005 12.586 10.439L244.04 98.63m-79.931-63.232h28.86l12.515 10.379m-152.418.063 12.59-10.442H94.38" transform="translate(0 58.535)"/><path fill="url(#u)" d="M0 0h226.866v173.552H0z" opacity=".502" transform="matrix(-1 0 0 1 242.433 0)"/><path fill="url(#v)" d="M26.773 34.591h173.32v132.59H26.773z" opacity=".503" transform="matrix(-1 0 0 1 242.433 0)"/><g transform="matrix(-1 0 0 1 217.776 105.132)"><use xlink:href="#w" fill="#000" filter="url(#x)"/><use xlink:href="#w" fill="#FFF"/></g><g transform="matrix(-1 0 0 1 217.776 105.132)"><use xlink:href="#y" fill="#000" filter="url(#z)"/><use xlink:href="#y" fill="#FFF"/></g><g opacity=".3" transform="matrix(-1 0 0 1 217.776 105.132)"><use xlink:href="#A" fill="#000" filter="url(#B)"/><use xlink:href="#A" fill="#FFF"/></g></g></svg>