<svg xmlns="http://www.w3.org/2000/svg" xmlns:xlink="http://www.w3.org/1999/xlink" width="258" height="223"><defs><linearGradient id="f" x1="100%" x2="0%" y1="41.593%" y2="33.686%"><stop offset="0%" stop-color="#1ABCFF" stop-opacity=".204"/><stop offset="100%" stop-color="#1ABCFF" stop-opacity="0"/></linearGradient><linearGradient id="l" x1="50%" x2="50%" y1="0%" y2="80.379%"><stop offset="0%" stop-color="#01E6FE" stop-opacity=".3"/><stop offset="100%" stop-color="#01E6FE" stop-opacity="0"/></linearGradient><linearGradient id="m" x1="33.436%" x2="61.967%" y1="45.332%" y2="56.87%"><stop offset="0%" stop-color="#01E6FE" stop-opacity=".496"/><stop offset="68.181%" stop-color="#01E6FE" stop-opacity="0"/><stop offset="100%" stop-color="#01E6FE" stop-opacity=".6"/></linearGradient><linearGradient id="n" x1="50%" x2="50%" y1="0%" y2="100%"><stop offset="0%" stop-color="#02F4FF"/><stop offset="100%" stop-color="#6CD4FF"/></linearGradient><linearGradient id="o" x1="50%" x2="50%" y1="-10.3%" y2="77.405%"><stop offset="0%" stop-color="#0A3045"/><stop offset="100%" stop-color="#1ABCFF"/></linearGradient><linearGradient id="p" x1="50%" x2="50%" y1="0%" y2="120.946%"><stop offset="0%" stop-color="#0A3045"/><stop offset="100%" stop-color="#1ABCFF"/></linearGradient><linearGradient id="s" x1="50%" x2="50%" y1="6.575%" y2="84.15%"><stop offset="0%" stop-color="#01E6FE" stop-opacity="0"/><stop offset="50.09%" stop-color="#01E6FE" stop-opacity=".728"/><stop offset="100%" stop-color="#01E6FE" stop-opacity=".6"/><stop offset="100%" stop-color="#01E6FE" stop-opacity=".6"/></linearGradient><linearGradient id="t" x1="50.002%" x2="50.002%" y1="12.404%" y2="100%"><stop offset="0%" stop-color="#2494F0" stop-opacity="0"/><stop offset="57.584%" stop-color="#24B2F0" stop-opacity=".454"/><stop offset="100%" stop-color="#2494F0" stop-opacity="0"/></linearGradient><linearGradient id="u" x1="50.002%" x2="50.002%" y1="12.404%" y2="100%"><stop offset="0%" stop-color="#2494F0" stop-opacity="0"/><stop offset="57.584%" stop-color="#01E6FE" stop-opacity=".496"/><stop offset="100%" stop-color="#2494F0" stop-opacity="0"/></linearGradient><filter id="e" width="110%" height="203.4%" x="-5%" y="-44.3%" filterUnits="objectBoundingBox"><feMorphology in="SourceAlpha" operator="dilate" radius="1" result="shadowSpreadOuter1"/><feOffset dy="2" in="shadowSpreadOuter1" result="shadowOffsetOuter1"/><feMorphology in="SourceAlpha" radius="1" result="shadowInner"/><feOffset dy="2" in="shadowInner" result="shadowInner"/><feComposite in="shadowOffsetOuter1" in2="shadowInner" operator="out" result="shadowOffsetOuter1"/><feGaussianBlur in="shadowOffsetOuter1" result="shadowBlurOuter1" stdDeviation="4"/><feColorMatrix in="shadowBlurOuter1" values="0 0 0 0 0.00392156863 0 0 0 0 0.901960784 0 0 0 0 0.996078431 0 0 0 0.599531694 0"/></filter><filter id="h" width="845%" height="521.3%" x="-372.5%" y="-178.3%" filterUnits="objectBoundingBox"><feOffset dy="2" in="SourceAlpha" result="shadowOffsetOuter1"/><feGaussianBlur in="shadowOffsetOuter1" result="shadowBlurOuter1" stdDeviation="4"/><feColorMatrix in="shadowBlurOuter1" values="0 0 0 0 0.996078431 0 0 0 0 0.786695404 0 0 0 0 0.00392156863 0 0 0 0.599531694 0"/></filter><filter id="j" width="845%" height="521.3%" x="-372.5%" y="-178.3%" filterUnits="objectBoundingBox"><feOffset dy="2" in="SourceAlpha" result="shadowOffsetOuter1"/><feGaussianBlur in="shadowOffsetOuter1" result="shadowBlurOuter1" stdDeviation="4"/><feColorMatrix in="shadowBlurOuter1" values="0 0 0 0 0.00392156863 0 0 0 0 0.901960784 0 0 0 0 0.996078431 0 0 0 0.599531694 0"/></filter><filter id="r" width="112%" height="130.1%" x="-6%" y="-12.9%" filterUnits="objectBoundingBox"><feMorphology in="SourceAlpha" operator="dilate" radius="1" result="shadowSpreadOuter1"/><feOffset dy="2" in="shadowSpreadOuter1" result="shadowOffsetOuter1"/><feMorphology in="SourceAlpha" radius="1" result="shadowInner"/><feOffset dy="2" in="shadowInner" result="shadowInner"/><feComposite in="shadowOffsetOuter1" in2="shadowInner" operator="out" result="shadowOffsetOuter1"/><feGaussianBlur in="shadowOffsetOuter1" result="shadowBlurOuter1" stdDeviation="4"/><feColorMatrix in="shadowBlurOuter1" values="0 0 0 0 0.00392156863 0 0 0 0 0.901960784 0 0 0 0 0.996078431 0 0 0 1 0"/></filter><filter id="w" width="439.1%" height="438.7%" x="-195.7%" y="-143.3%" filterUnits="objectBoundingBox"><feOffset dx="-2" dy="2" in="SourceAlpha" result="shadowOffsetOuter1"/><feGaussianBlur in="shadowOffsetOuter1" result="shadowBlurOuter1" stdDeviation="4"/><feColorMatrix in="shadowBlurOuter1" values="0 0 0 0 0.00392156863 0 0 0 0 0.901960784 0 0 0 0 0.996078431 0 0 0 1 0"/></filter><filter id="y" width="751.1%" height="750.3%" x="-375.7%" y="-275.1%" filterUnits="objectBoundingBox"><feOffset dx="-2" dy="2" in="SourceAlpha" result="shadowOffsetOuter1"/><feGaussianBlur in="shadowOffsetOuter1" result="shadowBlurOuter1" stdDeviation="4"/><feColorMatrix in="shadowBlurOuter1" values="0 0 0 0 0.00392156863 0 0 0 0 0.901960784 0 0 0 0 0.996078431 0 0 0 1 0"/></filter><filter id="A" width="751.1%" height="750.3%" x="-375.7%" y="-275.1%" filterUnits="objectBoundingBox"><feOffset dx="-2" dy="2" in="SourceAlpha" result="shadowOffsetOuter1"/><feGaussianBlur in="shadowOffsetOuter1" result="shadowBlurOuter1" stdDeviation="4"/><feColorMatrix in="shadowBlurOuter1" values="0 0 0 0 0.00392156863 0 0 0 0 0.901960784 0 0 0 0 0.996078431 0 0 0 1 0"/></filter><path id="a" d="m256.88 112.3-128.44 25.405L0 112.299V25.405L128.44 0l128.44 25.405z"/><path id="c" d="m259.468 87.62-131.5 27.034-131.5-27.034"/><path id="g" d="m205.204 85.488 3.49-.924v5.246l-3.49.925z"/><path id="i" d="m216.275 82.797 3.49-.925v5.246l-3.49.925z"/><path id="k" d="m129.532.49 128 25.405v50.811l-128 25.406-128-25.406v-50.81z"/><path id="q" d="M128.991.51h-.199L12.275 23.538l-.383.444v46.056l.383.444L128.792 93.51h.2l116.516-23.028.384-.444V23.982l-.384-.444zm-.1 1 116 22.886v45.228l-116 22.886-116-22.886V24.396z"/><ellipse id="v" cx="140.594" cy="34.826" rx="3.833" ry="3.838"/><ellipse id="x" cx="1.997" cy="5.998" rx="1.997" ry="1.999"/><ellipse id="z" cx="163.713" cy="1.999" rx="1.997" ry="1.999"/></defs><g fill="none" fill-rule="evenodd"><g transform="translate(0 85.295)"><mask id="b" fill="#fff"><use xlink:href="#a"/></mask><use xlink:href="#a" fill="#1D435C"/><path stroke="#000" stroke-linejoin="bevel" stroke-width="6" d="m259.468 87.62-131.5 27.034-131.5-27.034" mask="url(#b)"/><g stroke-linejoin="bevel" mask="url(#b)"><use xlink:href="#c" fill="#000" filter="url(#e)"/><use xlink:href="#c" stroke="#FFE7B9" stroke-width="2"/></g></g><path fill="url(#f)" d="m128.44 64.58 128.018 24.724v48.4L128.44 112.357z" transform="matrix(-1 0 0 1 384.898 85.295)"/><g transform="translate(0 85.295)"><use xlink:href="#g" fill="#000" filter="url(#h)"/><use xlink:href="#g" fill="#FFCC39"/></g><g transform="translate(0 85.295)"><use xlink:href="#i" fill="#000" filter="url(#j)"/><use xlink:href="#i" fill="#39C5FF"/></g><g transform="translate(.056 73)"><use xlink:href="#k" fill="#0B2E42" fill-opacity=".896"/><use xlink:href="#k" fill="url(#l)"/></g><path fill="url(#m)" fill-rule="nonzero" d="M129.081 0h-.219L.422 25.405l-.422.49v50.811l.423.49 128.44 25.405h.218l128.44-25.405.423-.49v-50.81l-.423-.49zm-.11 1.002 127.908 25.3v49.997L128.97 101.6 1.063 76.299V26.301z" transform="translate(.056 73)"/><path stroke="url(#n)" stroke-linecap="square" stroke-linejoin="bevel" stroke-width="2" d="m146.217 98.601-17.685 3.51-17.686-3.51m145.685-31.35v9.455l-21.591 4.285m-216.363-.703L.532 76.706V63.67m0-21.68V25.895l14.832-2.944m225.938-.079 15.23 3.023v12.22M109.358 4.295 128.532.49l19.172 3.805" transform="translate(.056 73)"/><path fill="url(#o)" d="m129.532 15.255 105.16 18.924v34.243l-105.16 18.924-105.16-18.924V34.18z" transform="translate(.056 73)"/><path fill="url(#p)" d="m129.532 31.288 105.16 18.924v18.21l-105.16 18.924-105.16-18.924v-18.21z" transform="translate(.056 73)"/><g stroke-linecap="square" stroke-linejoin="bevel" opacity=".5" transform="translate(0 56)"><use xlink:href="#q" fill="#000" filter="url(#r)"/><use xlink:href="#q" stroke="url(#s)" stroke-width="2"/></g><path fill="url(#t)" d="M0 0h200v153H0z" opacity=".502" transform="matrix(-1 0 0 1 229 0)"/><path fill="url(#u)" d="M23.602 30.495h152.795v116.888H23.602z" opacity=".503" transform="matrix(-1 0 0 1 229 0)"/><g transform="matrix(-1 0 0 1 207.263 92.682)"><use xlink:href="#v" fill="#000" filter="url(#w)"/><use xlink:href="#v" fill="#FFF"/></g><g transform="matrix(-1 0 0 1 207.263 92.682)"><use xlink:href="#x" fill="#000" filter="url(#y)"/><use xlink:href="#x" fill="#FFF"/></g><g opacity=".3" transform="matrix(-1 0 0 1 207.263 92.682)"><use xlink:href="#z" fill="#000" filter="url(#A)"/><use xlink:href="#z" fill="#FFF"/></g></g></svg>