<svg xmlns="http://www.w3.org/2000/svg" xmlns:xlink="http://www.w3.org/1999/xlink" width="258" height="236"><defs><linearGradient id="g" x1="50%" x2="50%" y1="0%" y2="80.379%"><stop offset="0%" stop-color="#01E6FE" stop-opacity=".3"/><stop offset="100%" stop-color="#01E6FE" stop-opacity="0"/></linearGradient><linearGradient id="h" x1="21.07%" x2="61.967%" y1="42.033%" y2="55.052%"><stop offset="0%" stop-color="#01E6FE" stop-opacity=".6"/><stop offset="31.819%" stop-color="#01E6FE" stop-opacity="0"/><stop offset="100%" stop-color="#01E6FE" stop-opacity=".496"/></linearGradient><linearGradient id="n" x1="50%" x2="50%" y1="0%" y2="80.379%"><stop offset="0%" stop-color="#01E6FE" stop-opacity=".3"/><stop offset="100%" stop-color="#01E6FE" stop-opacity="0"/></linearGradient><linearGradient id="p" x1="50%" x2="50%" y1="-10.3%" y2="77.405%"><stop offset="0%" stop-color="#0A3045"/><stop offset="100%" stop-color="#1ABCFF"/></linearGradient><linearGradient id="q" x1="50%" x2="50%" y1="0%" y2="120.946%"><stop offset="0%" stop-color="#0A3045"/><stop offset="100%" stop-color="#1ABCFF"/></linearGradient><linearGradient id="s" x1="33.436%" x2="61.967%" y1="46.623%" y2="54.97%"><stop offset="0%" stop-color="#01E6FE" stop-opacity=".496"/><stop offset="68.181%" stop-color="#01E6FE" stop-opacity="0"/><stop offset="100%" stop-color="#01E6FE" stop-opacity=".6"/></linearGradient><linearGradient id="v" x1="56.548%" x2="50%" y1="45.247%" y2="54.753%"><stop offset="0%" stop-color="#1ABCFF" stop-opacity="0"/><stop offset="46.118%" stop-color="#1ABCFF"/><stop offset="100%" stop-color="#1ABCFF" stop-opacity="0"/></linearGradient><linearGradient id="w" x1="50.002%" x2="50.002%" y1="12.404%" y2="100%"><stop offset="0%" stop-color="#2494F0" stop-opacity="0"/><stop offset="57.584%" stop-color="#24B2F0" stop-opacity=".454"/><stop offset="100%" stop-color="#2494F0" stop-opacity="0"/></linearGradient><linearGradient id="x" x1="50.002%" x2="50.002%" y1="12.404%" y2="100%"><stop offset="0%" stop-color="#2494F0" stop-opacity="0"/><stop offset="57.584%" stop-color="#01E6FE" stop-opacity=".496"/><stop offset="100%" stop-color="#2494F0" stop-opacity="0"/></linearGradient><path id="a" d="m0 44 .017-.728C1.157 19.307 58.467 0 129 0c71.245 0 129 19.7 129 44v44c0 24.3-57.755 44-129 44S0 112.3 0 88z"/><path id="c" d="M0 0c0 25.405 60.218 46 134.5 46 50.308 0 94.164-9.446 117.234-23.435C262.727 15.898 269 8.199 269 0"/><path id="f" d="M129 88c48.25 0 90.314-9.036 112.44-22.417C251.984 59.207 258 51.843 258 44c0-24.3-57.755-44-129-44S0 19.7 0 44s57.755 44 129 44"/><path id="i" d="M41.002 105.895v2.938A384 384 0 0 1 35 110.885l.001-2.916c1.933-.65 3.94-1.343 6-2.074"/><path id="k" d="M29 102.059v2.784a381 381 0 0 1-6 2.207v-2.76a412 412 0 0 0 6-2.231"/><path id="m" d="M100.5 68c37.59 0 70.36-6.982 87.598-17.322C196.313 45.751 201 40.06 201 34c0-18.778-44.995-34-100.5-34S0 15.222 0 34s44.995 34 100.5 34"/><path id="o" d="M100.5 58c30.484 0 57.059-5.134 71.037-12.737C178.2 41.64 182 37.456 182 33c0-13.807-36.489-25-81.5-25S19 19.193 19 33s36.489 25 81.5 25"/><path id="t" d="M0 48c0 18.778 44.995 34 100.5 34 37.59 0 70.36-6.982 87.598-17.322C196.313 59.751 201 54.06 201 48"/><filter id="d" width="110.4%" height="158.7%" x="-5.2%" y="-23.9%" filterUnits="objectBoundingBox"><feMorphology in="SourceAlpha" operator="dilate" radius="1" result="shadowSpreadOuter1"/><feOffset dy="2" in="shadowSpreadOuter1" result="shadowOffsetOuter1"/><feMorphology in="SourceAlpha" radius="1" result="shadowInner"/><feOffset dy="2" in="shadowInner" result="shadowInner"/><feComposite in="shadowOffsetOuter1" in2="shadowInner" operator="out" result="shadowOffsetOuter1"/><feGaussianBlur in="shadowOffsetOuter1" result="shadowBlurOuter1" stdDeviation="4"/><feColorMatrix in="shadowBlurOuter1" values="0 0 0 0 0.00392156863 0 0 0 0 0.901960784 0 0 0 0 0.996078431 0 0 0 0.599531694 0"/></filter><filter id="j" width="533.4%" height="619.8%" x="-216.7%" y="-222.1%" filterUnits="objectBoundingBox"><feOffset dy="2" in="SourceAlpha" result="shadowOffsetOuter1"/><feGaussianBlur in="shadowOffsetOuter1" result="shadowBlurOuter1" stdDeviation="4"/><feColorMatrix in="shadowBlurOuter1" values="0 0 0 0 0.00392156863 0 0 0 0 0.901960784 0 0 0 0 0.996078431 0 0 0 0.599531694 0"/></filter><filter id="l" width="533.3%" height="619.8%" x="-216.7%" y="-218.8%" filterUnits="objectBoundingBox"><feOffset dy="2" in="SourceAlpha" result="shadowOffsetOuter1"/><feGaussianBlur in="shadowOffsetOuter1" result="shadowBlurOuter1" stdDeviation="4"/><feColorMatrix in="shadowBlurOuter1" values="0 0 0 0 0.996078431 0 0 0 0 0.786695404 0 0 0 0 0.00392156863 0 0 0 0.599531694 0"/></filter><filter id="u" width="113.9%" height="179.4%" x="-7%" y="-32.4%" filterUnits="objectBoundingBox"><feMorphology in="SourceAlpha" operator="dilate" radius="1" result="shadowSpreadOuter1"/><feOffset dy="2" in="shadowSpreadOuter1" result="shadowOffsetOuter1"/><feMorphology in="SourceAlpha" radius="1" result="shadowInner"/><feOffset dy="2" in="shadowInner" result="shadowInner"/><feComposite in="shadowOffsetOuter1" in2="shadowInner" operator="out" result="shadowOffsetOuter1"/><feGaussianBlur in="shadowOffsetOuter1" result="shadowBlurOuter1" stdDeviation="4"/><feColorMatrix in="shadowBlurOuter1" values="0 0 0 0 0.00392156863 0 0 0 0 0.901960784 0 0 0 0 0.996078431 0 0 0 0.599531694 0"/></filter><filter id="z" width="439.1%" height="438.7%" x="-195.7%" y="-143.3%" filterUnits="objectBoundingBox"><feOffset dx="-2" dy="2" in="SourceAlpha" result="shadowOffsetOuter1"/><feGaussianBlur in="shadowOffsetOuter1" result="shadowBlurOuter1" stdDeviation="4"/><feColorMatrix in="shadowBlurOuter1" values="0 0 0 0 0.00392156863 0 0 0 0 0.901960784 0 0 0 0 0.996078431 0 0 0 1 0"/></filter><filter id="B" width="751.1%" height="750.3%" x="-375.7%" y="-275.1%" filterUnits="objectBoundingBox"><feOffset dx="-2" dy="2" in="SourceAlpha" result="shadowOffsetOuter1"/><feGaussianBlur in="shadowOffsetOuter1" result="shadowBlurOuter1" stdDeviation="4"/><feColorMatrix in="shadowBlurOuter1" values="0 0 0 0 0.00392156863 0 0 0 0 0.901960784 0 0 0 0 0.996078431 0 0 0 1 0"/></filter><filter id="D" width="751.1%" height="750.3%" x="-375.7%" y="-275.1%" filterUnits="objectBoundingBox"><feOffset dx="-2" dy="2" in="SourceAlpha" result="shadowOffsetOuter1"/><feGaussianBlur in="shadowOffsetOuter1" result="shadowBlurOuter1" stdDeviation="4"/><feColorMatrix in="shadowBlurOuter1" values="0 0 0 0 0.00392156863 0 0 0 0 0.901960784 0 0 0 0 0.996078431 0 0 0 1 0"/></filter><ellipse id="y" cx="140.594" cy="34.826" rx="3.833" ry="3.838"/><ellipse id="A" cx="1.997" cy="5.998" rx="1.997" ry="1.999"/><ellipse id="C" cx="163.713" cy="1.999" rx="1.997" ry="1.999"/></defs><g fill="none" fill-rule="evenodd"><g transform="translate(0 104)"><mask id="b" fill="#fff"><use xlink:href="#a"/></mask><use xlink:href="#a" fill="#1D435C"/><g stroke-linejoin="bevel" mask="url(#b)"><path stroke="#000" stroke-width="6" d="M-6 62c0 25.405 60.218 46 134.5 46 50.308 0 94.164-9.446 117.234-23.435C256.727 77.898 263 70.199 263 62"/><g transform="translate(-6 62)"><use xlink:href="#c" fill="#000" filter="url(#d)"/><use xlink:href="#c" stroke="#FFE7B9" stroke-width="2"/></g></g></g><g transform="translate(0 104)"><use xlink:href="#f" fill="#0B2E42" fill-opacity=".896"/><use xlink:href="#f" fill="url(#g)"/></g><path stroke="url(#h)" stroke-linecap="square" stroke-linejoin="bevel" stroke-width="2" d="M129 88c48.25 0 90.314-9.036 112.44-22.417C251.984 59.207 258 51.843 258 44c0-24.3-57.755-44-129-44S0 19.7 0 44s57.755 44 129 44Z" transform="translate(0 104)"/><g transform="matrix(-1 0 0 1 76 104)"><use xlink:href="#i" fill="#000" filter="url(#j)"/><use xlink:href="#i" fill="#39C5FF"/></g><g transform="matrix(-1 0 0 1 52 104)"><use xlink:href="#k" fill="#000" filter="url(#l)"/><use xlink:href="#k" fill="#FFCC39"/></g><g transform="translate(28 83)"><path fill="#1D435C" d="M100.5 0C156.005 0 201 15.222 201 34v27c0 18.778-44.995 34-100.5 34S0 79.778 0 61V34l.013-.562C.901 14.919 45.55 0 100.5 0"/><use xlink:href="#m" fill="#0B2E42" fill-opacity=".896"/><use xlink:href="#m" fill="url(#n)"/><mask id="r" fill="#fff"><use xlink:href="#o"/></mask><use xlink:href="#o" fill="url(#p)"/><path fill="url(#q)" d="M100.5 63c30.484 0 57.059-4.518 71.037-11.208C178.2 48.603 182 44.922 182 41c0-12.15-36.489-22-81.5-22S19 28.85 19 41s36.489 22 81.5 22" mask="url(#r)"/><path stroke="url(#s)" stroke-linecap="square" stroke-linejoin="bevel" d="M100.5 68c37.59 0 70.36-6.982 87.598-17.322C196.313 45.751 201 40.06 201 34c0-18.778-44.995-34-100.5-34S0 15.222 0 34s44.995 34 100.5 34Z"/><g stroke-linejoin="bevel"><use xlink:href="#t" fill="#000" filter="url(#u)"/><use xlink:href="#t" stroke="#FFE7B9" stroke-width="2"/></g></g><path stroke="url(#v)" stroke-dasharray="2,2" stroke-linejoin="bevel" stroke-width="2" d="M129 101c44.884 0 84.013-7.598 104.595-18.85C243.404 76.787 249 70.595 249 64c0-20.435-53.726-37-120-37S9 43.565 9 64s53.726 37 120 37Z" opacity=".8" transform="translate(0 83)"/><path fill="url(#w)" d="M0 0h200v153H0z" opacity=".502" transform="translate(29)"/><path fill="url(#x)" d="M23.602 30.495h152.795v116.888H23.602z" opacity=".503" transform="translate(29)"/><g transform="translate(50.736 92.682)"><use xlink:href="#y" fill="#000" filter="url(#z)"/><use xlink:href="#y" fill="#FFF"/></g><g transform="translate(50.736 92.682)"><use xlink:href="#A" fill="#000" filter="url(#B)"/><use xlink:href="#A" fill="#FFF"/></g><g opacity=".3" transform="translate(50.736 92.682)"><use xlink:href="#C" fill="#000" filter="url(#D)"/><use xlink:href="#C" fill="#FFF"/></g></g></svg>