<svg xmlns="http://www.w3.org/2000/svg" xmlns:xlink="http://www.w3.org/1999/xlink" width="234.545" height="240"><defs><linearGradient id="a" x1="49.968%" x2="49.968%" y1="100%" y2="0%"><stop offset="0%" stop-color="#0A5BFF" stop-opacity=".5"/><stop offset="100%" stop-color="#076AFF" stop-opacity="0"/></linearGradient><linearGradient id="b" x1="49.968%" x2="49.968%" y1="101.254%" y2="42.333%"><stop offset="0%" stop-color="#049FFF" stop-opacity=".5"/><stop offset="100%" stop-color="#023BFF" stop-opacity="0"/></linearGradient><linearGradient id="e" x1="49.968%" x2="49.968%" y1="100%" y2="0%"><stop offset="0%" stop-color="#0A5BFF" stop-opacity=".5"/><stop offset="100%" stop-color="#076AFF" stop-opacity="0"/></linearGradient><linearGradient id="f" x1="49.968%" x2="49.968%" y1="101.254%" y2="-1.254%"><stop offset=".422%" stop-color="#069AFA"/><stop offset="100%" stop-color="#0074FF" stop-opacity=".004"/></linearGradient><linearGradient id="g" x1="49.968%" x2="49.968%" y1="100%" y2="0%"><stop offset="0%" stop-color="#0A5BFF" stop-opacity=".5"/><stop offset="100%" stop-color="#076AFF" stop-opacity="0"/></linearGradient><linearGradient id="h" x1="49.968%" x2="49.968%" y1="101.254%" y2="-1.254%"><stop offset="0%" stop-color="#067CFA"/><stop offset="100%" stop-color="#0074FF" stop-opacity=".004"/></linearGradient><linearGradient id="i" x1="50.004%" x2="50.004%" y1="100.122%" y2=".122%"><stop offset="0%" stop-color="#2FE8F7" stop-opacity=".5"/><stop offset="100%" stop-color="#5CFBFF" stop-opacity=".2"/></linearGradient><linearGradient id="k" x1="49.968%" x2="49.968%" y1="100%" y2="0%"><stop offset="0%" stop-color="#0A5BFF" stop-opacity=".5"/><stop offset="100%" stop-color="#076AFF" stop-opacity="0"/></linearGradient><linearGradient id="m" x1="49.968%" x2="49.968%" y1="101.254%" y2="-1.254%"><stop offset="0%" stop-color="#00FAFF"/><stop offset="100%" stop-color="#0074FF" stop-opacity=".004"/></linearGradient><linearGradient id="n" x1="50.015%" x2="50.015%" y1="100.007%" y2="3.298%"><stop offset="0%" stop-color="#2F73F7" stop-opacity=".5"/><stop offset="52.355%" stop-color="#407FFA" stop-opacity=".122"/><stop offset="100%" stop-color="#5CA3FF" stop-opacity="0"/></linearGradient><radialGradient id="l" cx="50%" cy="100%" r="66.238%" fx="50%" fy="100%" gradientTransform="matrix(0 -1 .69454 0 -.195 1.5)"><stop offset="0%" stop-color="#4DFFFD" stop-opacity=".735"/><stop offset="100%" stop-color="#00C7FF" stop-opacity="0"/></radialGradient><radialGradient id="o" cx="50%" cy="50%" r="35.053%" fx="50%" fy="50%"><stop offset="0%" stop-color="#68D1FF"/><stop offset="100%" stop-color="#6EEBFF"/></radialGradient><filter id="c" width="121.9%" height="155.1%" x="-11%" y="-27.6%" filterUnits="objectBoundingBox"><feGaussianBlur in="SourceGraphic" stdDeviation="7"/></filter><path id="j" d="M232.006 144.194 122.41 187.601a8.2 8.2 0 0 1-5.79.101L2.654 146.882A3.99 3.99 0 0 1 0 143.215a3.98 3.98 0 0 1 2.52-3.757l109.596-43.421a8.2 8.2 0 0 1 5.79-.102l113.967 40.82a3.99 3.99 0 0 1 2.672 3.675 3.98 3.98 0 0 1-2.539 3.765"/></defs><g fill="none"><path fill="url(#a)" stroke="url(#b)" stroke-width="1.6" d="m216.026 202.481-93.029 37.023c-1.57.63-3.322.66-4.914.087l-96.74-34.817a3.4 3.4 0 0 1-2.252-3.129 3.4 3.4 0 0 1 2.14-3.205l93.028-37.035a6.92 6.92 0 0 1 4.915-.087l96.74 34.817a3.4 3.4 0 0 1 2.268 3.135 3.4 3.4 0 0 1-2.156 3.211Z" filter="url(#c)" opacity=".499"/><path fill="url(#e)" stroke="url(#f)" stroke-width="1.6" d="M112.731 124.102a5.86 5.86 0 0 1 4.864-.09l108.673 46.806c.588.263 1.074.727 1.422 1.306.368.61.582 1.348.601 2.13a4.4 4.4 0 0 1-.503 2.17c-.32.601-.783 1.097-1.355 1.4l-104.57 49.887a5.8 5.8 0 0 1-4.86.087L8.316 180.988c-.603-.258-1.102-.728-1.457-1.317a4.34 4.34 0 0 1-.606-2.175c-.011-.8.184-1.565.542-2.203.34-.605.826-1.098 1.424-1.382Z" opacity=".2"/><path fill="url(#g)" stroke="url(#h)" stroke-width="1.6" d="M112.724 107.725a6.02 6.02 0 0 1 4.878-.087l108.673 45.605c.586.255 1.072.707 1.42 1.27a4.1 4.1 0 0 1 .596 2.056 4.2 4.2 0 0 1-.498 2.098c-.32.583-.782 1.064-1.353 1.359l-104.57 48.607a5.95 5.95 0 0 1-4.875.086L8.31 163.109c-.601-.251-1.1-.708-1.455-1.28a4.1 4.1 0 0 1-.6-2.102 4.15 4.15 0 0 1 .536-2.127c.339-.59.825-1.067 1.422-1.344Z" opacity=".5"/><path fill="url(#i)" d="m200.025 157.164-77.743 30.649a5.87 5.87 0 0 1-4.097 0l-80.848-28.824a2.815 2.815 0 0 1-1.882-2.592 2.81 2.81 0 0 1 1.793-2.652l77.742-30.649a5.87 5.87 0 0 1 4.097 0l80.849 28.824a2.815 2.815 0 0 1 1.882 2.592 2.81 2.81 0 0 1-1.793 2.652"/><use xlink:href="#j" fill="url(#k)"/><path fill="url(#l)" fill-rule="evenodd" stroke="url(#m)" stroke-linejoin="square" stroke-width="1.6" d="M112.413 96.779a7.4 7.4 0 0 1 5.223-.092l113.97 40.82a3.24 3.24 0 0 1 1.537 1.146c.372.512.59 1.132.603 1.79a3.14 3.14 0 0 1-.538 1.81c-.356.527-.871.95-1.496 1.197l-109.598 43.408a7.4 7.4 0 0 1-5.224.091L2.925 146.13a3.24 3.24 0 0 1-1.527-1.146A3.14 3.14 0 0 1 .8 143.2a3.14 3.14 0 0 1 .533-1.803 3.2 3.2 0 0 1 1.482-1.196Z"/><path fill="url(#n)" d="M234.545 0H2.755v142.85a3.865 3.865 0 0 0 2.554 4.093l112.62 40.717a8.07 8.07 0 0 0 5.707 0l108.396-43.377a19.4 19.4 0 0 0 2.513-1.494z" opacity=".6"/><g fill="url(#o)" transform="translate(19.09 8.182)"><circle cx="30" cy="87.273" r="2.727"/><circle cx="35.455" cy="122.727" r="2.727"/><circle cx="173.182" cy="31.364" r="1.364"/><circle cx="163.636" cy="95.455" r="2.727"/><circle cx="189.545" cy="31.364" r="1.364"/><circle cx="177.273" cy="57.273" r="2.727"/><circle cx="36.818" cy="1.364" r="1.364"/><circle cx="47.727" cy="77.727" r="1.364"/><circle cx="173.182" cy="1.364" r="1.364"/><circle cx="9.545" cy="47.727" r="1.364"/><circle cx="1.364" cy="9.545" r="1.364"/><circle cx="121.364" cy="140.455" r="1.364"/><circle cx="45" cy="39.545" r="1.364"/></g></g></svg>