<svg xmlns="http://www.w3.org/2000/svg" width="300" height="258.684"><defs><linearGradient id="a" x1="49.991%" x2="49.991%" y1="100%" y2="0%"><stop offset="0%" stop-color="#1786DB" stop-opacity="0"/><stop offset="89%" stop-color="#27C5FB" stop-opacity=".36"/><stop offset="100%" stop-color="#29CDFF" stop-opacity=".4"/></linearGradient><linearGradient id="b" x1="50.009%" x2="50.009%" y1="100%" y2="0%"><stop offset="0%" stop-color="#1786DB" stop-opacity="0"/><stop offset="89%" stop-color="#27C5FB" stop-opacity=".36"/><stop offset="100%" stop-color="#29CDFF" stop-opacity=".4"/></linearGradient><linearGradient id="c" x1="50%" x2="50%" y1="100%" y2="0%"><stop offset="0%" stop-color="#1786DB" stop-opacity=".3"/><stop offset="66%" stop-color="#23B4F3" stop-opacity=".63"/><stop offset="100%" stop-color="#29CDFF" stop-opacity=".8"/></linearGradient><linearGradient id="d" x1="50%" x2="50%" y1="0%" y2="100%"><stop offset="0%" stop-color="#2FD8F4"/><stop offset="100%" stop-color="#6FF2FF"/></linearGradient><linearGradient id="e" x1="50%" x2="50%" y1="0%" y2="99.975%"><stop offset="32%" stop-color="#1786DB" stop-opacity=".3"/><stop offset="77%" stop-color="#23B4F3" stop-opacity=".63"/><stop offset="100%" stop-color="#29CDFF" stop-opacity=".8"/></linearGradient><linearGradient id="f" x1="50%" x2="50%" y1="0%" y2="100%"><stop offset="0%" stop-color="#00BEFF" stop-opacity=".1"/><stop offset="100%" stop-color="#29CDFF" stop-opacity=".8"/></linearGradient><linearGradient id="g" x1="50%" x2="50%" y1="0%" y2="100%"><stop offset="0%" stop-color="#00FDFF" stop-opacity="0"/><stop offset="100%" stop-color="#29CDFF" stop-opacity=".5"/></linearGradient><linearGradient id="i" x1="50%" x2="50%" y1="27%" y2="100%"><stop offset="0%" stop-color="#0027AA" stop-opacity="0"/><stop offset="100%" stop-color="#29CDFF" stop-opacity=".2"/></linearGradient><linearGradient id="j" x1="50%" x2="50%" y1="0%" y2="100%"><stop offset="0%" stop-color="#2CFBFD" stop-opacity="0"/><stop offset="100%" stop-color="#00B8FF"/></linearGradient><radialGradient id="l" cx="50%" cy="50%" r="35.053%" fx="50%" fy="50%"><stop offset="0%" stop-color="#68FFFE"/><stop offset="100%" stop-color="#6EE0FF" stop-opacity="0"/></radialGradient><radialGradient id="m" cx="50%" cy="50%" r="50%" fx="50%" fy="50%"><stop offset="0%" stop-color="#68FFFE"/><stop offset="70.105%" stop-color="#6EE0FF" stop-opacity="0"/></radialGradient><filter id="h" width="107.7%" height="140.8%" x="-3.8%" y="-20.4%" filterUnits="objectBoundingBox"><feGaussianBlur in="SourceGraphic" stdDeviation="2"/></filter></defs><g fill="none"><path fill="#29CDFF" d="M75.4 209.431.78 178.16 75.4 146.9h149.226l74.62 31.259-74.62 31.271zm149.61-62.683H74.99L.09 178.12H0l74.888 31.387h150.07l74.953-31.31H300l-74.888-31.374h-.09"/><path fill="url(#a)" d="M75.476 186.735v48.946L.933 204.447v-48.945z" transform="translate(0 23.003)"/><path fill="url(#b)" d="M299.093 155.502v48.945l-74.543 31.234v-48.946z" transform="translate(0 23.003)"/><path fill="url(#c)" d="M0 0h149.086v48.946H0z" opacity=".8" transform="translate(75.476 209.738)"/><path fill="url(#d)" d="m222.645 178.94-145.316-.013-68.511-27.323.818-.37L77.508 178.3h145.01l67.757-27.016.83.358z" transform="translate(0 23.003)"/><path fill="url(#e)" d="M220.179 121.316H80.307l-60.281 25.47 62.53 24.946h133.29l63.196-25.214z" opacity=".8" transform="translate(0 23.003)"/><path fill="#29CDFF" d="m215.91 195.054-133.47-.025-62.67-24.997.843-.358 62.007 24.741h133.163l62.837-25.06.843.345z"/><path fill="url(#f)" d="M211.668 117.572H89.01L38.99 138.62l51.885 20.613H208.09l52.448-20.92z" transform="translate(0 23.003)"/><path fill="url(#g)" d="M193.438 121.406H106.9l-35.29 14.85 36.607 14.543h82.697l37.002-14.76z" filter="url(#h)" transform="translate(0 23.003)"/><path fill="#29CDFF" d="m208.153 182.53-117.393-.012-51.987-20.754.614-.307 51.54 20.485h117.111l52.128-20.792.767.332z"/><path fill="url(#i)" stroke="url(#j)" d="m259.115 139.227-.096.4h-.896l-50.25 20.117H90.727L41.74 139.627h-.912l-.096-.4L6.648 0H293.39z" transform="translate(0 23.003)"/><g transform="translate(26.837)"><circle cx="22.237" cy="115.066" r="5.37" fill="url(#l)" opacity=".6"/><circle cx="60.085" cy="143.188" r="10.739" fill="url(#m)" opacity=".1"/><circle cx="136.795" cy="50.9" r="3.58" fill="url(#m)" opacity=".6"/><circle cx="225.507" cy="97.679" r="5.37" fill="url(#m)" opacity=".1"/><circle cx="60.146" cy="54.73" r="3.58" fill="url(#m)" opacity=".5"/><circle cx="235.215" cy="31.709" r="10.739" fill="url(#m)"/><circle cx="156.988" cy="5.37" r="5.37" fill="url(#m)" opacity=".1"/><circle cx="41.446" cy="13.811" r="3.58" fill="url(#m)" opacity=".2"/><circle cx="199.171" cy="14.319" r="3.58" fill="url(#m)" opacity=".5"/><circle cx="19.187" cy="58.296" r="3.58" fill="url(#m)" opacity=".2"/><circle cx="3.58" cy="16.882" r="3.58" fill="url(#m)"/><circle cx="209.359" cy="136.53" r="10.739" fill="url(#m)" opacity=".2"/><circle cx="169.517" cy="143.188" r="3.58" fill="url(#m)"/></g></g></svg>