<svg xmlns="http://www.w3.org/2000/svg" xmlns:xlink="http://www.w3.org/1999/xlink" width="258" height="249"><defs><path id="a" d="M0 59.05 129 0l129 60.63v5.32a4 4 0 0 1-2.302 3.621L136.21 125.6c-3.982 1.867-10.438 1.867-14.42 0L2.302 69.57A4 4 0 0 1 0 65.95z"/><path id="e" d="M0 59.05 129 0l129 60.63v21.32a4 4 0 0 1-2.302 3.621L136.21 141.6c-3.982 1.867-10.438 1.867-14.42 0L2.302 85.57A4 4 0 0 1 0 81.95z"/><path id="j" d="m162 136.842 3-1.842v5.158L162 142z"/><path id="m" d="m170 132.842 3-1.842v5.158L170 138z"/><path id="o" d="M2.907 135.195 121.481 79.37c3.876-1.825 10.162-1.825 14.038 0l118.574 55.826c3.876 1.825 3.876 4.785 0 6.61L135.519 197.63c-3.876 1.825-10.162 1.825-14.038 0L2.907 141.805c-3.876-1.825-3.876-4.785 0-6.61"/><path id="r" d="M2.907 144.195 121.481 88.37c3.876-1.825 10.162-1.825 14.038 0l118.574 55.826c3.876 1.825 3.876 4.785 0 6.61L135.519 206.63c-3.876 1.825-10.162 1.825-14.038 0L2.907 150.805c-3.876-1.825-3.876-4.785 0-6.61"/><path id="v" d="M0 52.461 114.607 0l114.608 53.865v36.426a4 4 0 0 1-2.302 3.622l-105.9 49.657c-3.538 1.659-9.273 1.659-12.81 0L2.301 93.913A4 4 0 0 1 0 90.29z"/><path id="z" d="M0 52.461 114.607 0l114.608 53.865v36.426a4 4 0 0 1-2.302 3.622l-105.9 49.657c-3.538 1.659-9.273 1.659-12.81 0L2.301 93.913A4 4 0 0 1 0 90.29z"/><path id="B" d="m143.926 122.463 2.665-1.637v4.583l-2.665 1.636z"/><path id="D" d="m151.033 118.91 2.665-1.637v4.582l-2.665 1.637z"/><path id="F" d="M233.657 70.186a3.82 3.82 0 0 1-2.215 3.462L121.68 124.876c-3.66 1.708-9.596 1.708-13.257 0L-1.338 73.648a3.82 3.82 0 0 1-2.216-3.462"/><path id="H" d="m2.583 120.111 105.344-49.597c3.444-1.622 9.028-1.622 12.472 0l105.344 49.597c3.444 1.622 3.444 4.251 0 5.873L120.4 175.58c-3.444 1.622-9.028 1.622-12.472 0L2.583 125.984c-3.444-1.622-3.444-4.251 0-5.873"/><path id="N" d="M73.514 0c40.6 0 73.514 12.27 73.514 27.405v21.762c0 15.135-32.914 27.405-73.514 27.405S0 64.302 0 49.167V27.405l.01-.453C.659 12.025 33.32 0 73.514 0"/><path id="P" d="M-.29 40.687c0 13.807 32.906 25 73.5 25 27.49 0 51.457-5.134 64.064-12.736 6.007-3.624 9.435-7.808 9.435-12.264"/><path id="R" d="M73.514 54.81c27.497 0 51.468-5.628 64.076-13.962 6.01-3.972 9.438-8.558 9.438-13.443C147.028 12.27 114.114 0 73.514 0S0 12.27 0 27.405s32.913 27.404 73.514 27.404"/><path id="T" d="M59.616 40.301c22.298 0 41.737-4.138 51.962-10.266 4.873-2.92 7.653-6.293 7.653-9.884C119.231 9.02 92.541 0 59.616 0S0 9.022 0 20.15c0 11.13 26.69 20.151 59.616 20.151"/><linearGradient id="p" x1="50%" x2="50%" y1="0%" y2="80.379%"><stop offset="0%" stop-color="#01E6FE" stop-opacity=".3"/><stop offset="100%" stop-color="#01E6FE" stop-opacity="0"/></linearGradient><linearGradient id="q" x1="33.436%" x2="61.967%" y1="43.46%" y2="59.626%"><stop offset="0%" stop-color="#01E6FE" stop-opacity=".496"/><stop offset="68.181%" stop-color="#01E6FE" stop-opacity="0"/><stop offset="100%" stop-color="#01E6FE" stop-opacity=".6"/></linearGradient><linearGradient id="t" x1="50%" x2="50%" y1="7.429%" y2="100%"><stop offset="0%" stop-opacity="0"/><stop offset="46.118%" stop-color="#01E6FE" stop-opacity=".684"/><stop offset="100%" stop-color="#E3FCFF" stop-opacity="0"/></linearGradient><linearGradient id="I" x1="50%" x2="50%" y1="0%" y2="80.379%"><stop offset="0%" stop-color="#01E6FE" stop-opacity=".3"/><stop offset="100%" stop-color="#01E6FE" stop-opacity="0"/></linearGradient><linearGradient id="J" x1="33.436%" x2="61.967%" y1="43.46%" y2="59.626%"><stop offset="0%" stop-color="#01E6FE" stop-opacity=".496"/><stop offset="68.181%" stop-color="#01E6FE" stop-opacity="0"/><stop offset="100%" stop-color="#01E6FE" stop-opacity=".6"/></linearGradient><linearGradient id="K" x1="50%" x2="50%" y1="0%" y2="100%"><stop offset="0%" stop-color="#02F4FF" stop-opacity=".098"/><stop offset="100%" stop-color="#6CD4FF"/></linearGradient><linearGradient id="L" x1="50%" x2="50%" y1="7.429%" y2="100%"><stop offset="0%" stop-opacity="0"/><stop offset="46.118%" stop-color="#01E6FE" stop-opacity=".684"/><stop offset="100%" stop-color="#E3FCFF" stop-opacity="0"/></linearGradient><linearGradient id="S" x1="50%" x2="50%" y1="0%" y2="80.379%"><stop offset="0%" stop-color="#01E6FE" stop-opacity=".3"/><stop offset="100%" stop-color="#01E6FE" stop-opacity="0"/></linearGradient><linearGradient id="U" x1="50%" x2="50%" y1="-10.3%" y2="77.405%"><stop offset="0%" stop-color="#0A3045"/><stop offset="100%" stop-color="#1ABCFF"/></linearGradient><linearGradient id="V" x1="50%" x2="50%" y1="0%" y2="120.946%"><stop offset="0%" stop-color="#0A3045"/><stop offset="100%" stop-color="#1ABCFF"/></linearGradient><linearGradient id="X" x1="33.436%" x2="61.967%" y1="45.9%" y2="56.034%"><stop offset="0%" stop-color="#01E6FE" stop-opacity=".496"/><stop offset="68.181%" stop-color="#01E6FE" stop-opacity="0"/><stop offset="100%" stop-color="#01E6FE" stop-opacity=".6"/></linearGradient><linearGradient id="Y" x1="50.002%" x2="50.002%" y1="12.404%" y2="100%"><stop offset="0%" stop-color="#2494F0" stop-opacity="0"/><stop offset="57.584%" stop-color="#24B2F0" stop-opacity=".454"/><stop offset="100%" stop-color="#2494F0" stop-opacity="0"/></linearGradient><linearGradient id="Z" x1="50.002%" x2="50.002%" y1="12.404%" y2="100%"><stop offset="0%" stop-color="#2494F0" stop-opacity="0"/><stop offset="57.584%" stop-color="#01E6FE" stop-opacity=".496"/><stop offset="100%" stop-color="#2494F0" stop-opacity="0"/></linearGradient><filter id="l" width="966.7%" height="471.4%" x="-433.3%" y="-157.1%" filterUnits="objectBoundingBox"><feOffset dy="2" in="SourceAlpha" result="shadowOffsetOuter1"/><feGaussianBlur in="shadowOffsetOuter1" result="shadowBlurOuter1" stdDeviation="4"/><feColorMatrix in="shadowBlurOuter1" values="0 0 0 0 0.996078431 0 0 0 0 0.786695404 0 0 0 0 0.00392156863 0 0 0 0.599531694 0"/></filter><filter id="n" width="966.7%" height="471.4%" x="-433.3%" y="-157.1%" filterUnits="objectBoundingBox"><feOffset dy="2" in="SourceAlpha" result="shadowOffsetOuter1"/><feGaussianBlur in="shadowOffsetOuter1" result="shadowBlurOuter1" stdDeviation="4"/><feColorMatrix in="shadowBlurOuter1" values="0 0 0 0 0.00392156863 0 0 0 0 0.901960784 0 0 0 0 0.996078431 0 0 0 0.599531694 0"/></filter><filter id="s" width="110.9%" height="123.1%" x="-5.4%" y="-9.9%" filterUnits="objectBoundingBox"><feMorphology in="SourceAlpha" operator="dilate" radius="1" result="shadowSpreadOuter1"/><feOffset dy="2" in="shadowSpreadOuter1" result="shadowOffsetOuter1"/><feMorphology in="SourceAlpha" radius="1" result="shadowInner"/><feOffset dy="2" in="shadowInner" result="shadowInner"/><feComposite in="shadowOffsetOuter1" in2="shadowInner" operator="out" result="shadowOffsetOuter1"/><feGaussianBlur in="shadowOffsetOuter1" result="shadowBlurOuter1" stdDeviation="4"/><feColorMatrix in="shadowBlurOuter1" values="0 0 0 0 0.00392156863 0 0 0 0 0.901960784 0 0 0 0 0.996078431 0 0 0 0.599531694 0"/></filter><filter id="u" width="103.2%" height="106.7%" x="-1.6%" y="-3.4%" filterUnits="objectBoundingBox"><feGaussianBlur in="SourceGraphic" stdDeviation="1"/></filter><filter id="C" width="1075.5%" height="518.1%" x="-487.8%" y="-176.9%" filterUnits="objectBoundingBox"><feOffset dy="2" in="SourceAlpha" result="shadowOffsetOuter1"/><feGaussianBlur in="shadowOffsetOuter1" result="shadowBlurOuter1" stdDeviation="4"/><feColorMatrix in="shadowBlurOuter1" values="0 0 0 0 0.996078431 0 0 0 0 0.786695404 0 0 0 0 0.00392156863 0 0 0 0.599531694 0"/></filter><filter id="E" width="1075.5%" height="518.1%" x="-487.8%" y="-176.9%" filterUnits="objectBoundingBox"><feOffset dy="2" in="SourceAlpha" result="shadowOffsetOuter1"/><feGaussianBlur in="shadowOffsetOuter1" result="shadowBlurOuter1" stdDeviation="4"/><feColorMatrix in="shadowBlurOuter1" values="0 0 0 0 0.00392156863 0 0 0 0 0.901960784 0 0 0 0 0.996078431 0 0 0 0.599531694 0"/></filter><filter id="G" width="111.8%" height="148.2%" x="-5.9%" y="-19.7%" filterUnits="objectBoundingBox"><feMorphology in="SourceAlpha" operator="dilate" radius="1" result="shadowSpreadOuter1"/><feOffset dy="2" in="shadowSpreadOuter1" result="shadowOffsetOuter1"/><feMorphology in="SourceAlpha" radius="1" result="shadowInner"/><feOffset dy="2" in="shadowInner" result="shadowInner"/><feComposite in="shadowOffsetOuter1" in2="shadowInner" operator="out" result="shadowOffsetOuter1"/><feGaussianBlur in="shadowOffsetOuter1" result="shadowBlurOuter1" stdDeviation="4"/><feColorMatrix in="shadowBlurOuter1" values="0 0 0 0 0.00392156863 0 0 0 0 0.901960784 0 0 0 0 0.996078431 0 0 0 0.599531694 0"/></filter><filter id="M" width="103.5%" height="107.6%" x="-1.8%" y="-3.8%" filterUnits="objectBoundingBox"><feGaussianBlur in="SourceGraphic" stdDeviation="1"/></filter><filter id="Q" width="118.4%" height="206%" x="-9.2%" y="-44%" filterUnits="objectBoundingBox"><feMorphology in="SourceAlpha" operator="dilate" radius=".5" result="shadowSpreadOuter1"/><feOffset dy="2" in="shadowSpreadOuter1" result="shadowOffsetOuter1"/><feMorphology in="SourceAlpha" radius="1" result="shadowInner"/><feOffset dy="2" in="shadowInner" result="shadowInner"/><feComposite in="shadowOffsetOuter1" in2="shadowInner" operator="out" result="shadowOffsetOuter1"/><feGaussianBlur in="shadowOffsetOuter1" result="shadowBlurOuter1" stdDeviation="4"/><feColorMatrix in="shadowBlurOuter1" values="0 0 0 0 0.00392156863 0 0 0 0 0.901960784 0 0 0 0 0.996078431 0 0 0 0.599531694 0"/></filter><filter id="ab" width="439.1%" height="512.4%" x="-195.7%" y="-174.5%" filterUnits="objectBoundingBox"><feOffset dx="-2" dy="2" in="SourceAlpha" result="shadowOffsetOuter1"/><feGaussianBlur in="shadowOffsetOuter1" result="shadowBlurOuter1" stdDeviation="4"/><feColorMatrix in="shadowBlurOuter1" values="0 0 0 0 0.00392156863 0 0 0 0 0.901960784 0 0 0 0 0.996078431 0 0 0 1 0"/></filter><filter id="ad" width="751.1%" height="891.8%" x="-375.7%" y="-335%" filterUnits="objectBoundingBox"><feOffset dx="-2" dy="2" in="SourceAlpha" result="shadowOffsetOuter1"/><feGaussianBlur in="shadowOffsetOuter1" result="shadowBlurOuter1" stdDeviation="4"/><feColorMatrix in="shadowBlurOuter1" values="0 0 0 0 0.00392156863 0 0 0 0 0.901960784 0 0 0 0 0.996078431 0 0 0 1 0"/></filter><filter id="af" width="751.1%" height="891.8%" x="-375.7%" y="-335%" filterUnits="objectBoundingBox"><feOffset dx="-2" dy="2" in="SourceAlpha" result="shadowOffsetOuter1"/><feGaussianBlur in="shadowOffsetOuter1" result="shadowBlurOuter1" stdDeviation="4"/><feColorMatrix in="shadowBlurOuter1" values="0 0 0 0 0.00392156863 0 0 0 0 0.901960784 0 0 0 0 0.996078431 0 0 0 1 0"/></filter><radialGradient id="b" cx="50%" cy="93.02%" r="21.326%" fx="50%" fy="93.02%" gradientTransform="matrix(0 1 -1.44402 0 1.843 .43)"><stop offset="0%" stop-color="#4688B6"/><stop offset="100%" stop-color="#33607B" stop-opacity="0"/></radialGradient><radialGradient id="c" cx="0%" cy="54.725%" r="49.136%" fx="0%" fy="54.725%" gradientTransform="matrix(.45362 .3881 -.08948 .43169 .049 .311)"><stop offset="0%" stop-color="#01E6FE" stop-opacity=".404"/><stop offset="100%" stop-color="#35ACF5" stop-opacity="0"/></radialGradient><radialGradient id="d" cx="100%" cy="57.11%" r="53.307%" fx="100%" fy="57.11%" gradientTransform="matrix(-.45542 .37932 -.04707 -.23326 1.482 .325)"><stop offset="0%" stop-color="#01E6FE" stop-opacity=".404"/><stop offset="100%" stop-color="#35ACF5" stop-opacity="0"/></radialGradient><radialGradient id="f" cx="50%" cy="93.02%" r="21.326%" fx="50%" fy="93.02%" gradientTransform="matrix(0 1 -1.6262 0 2.013 .43)"><stop offset="0%" stop-color="#4688B6"/><stop offset="100%" stop-color="#33607B" stop-opacity="0"/></radialGradient><radialGradient id="g" cx="0%" cy="54.725%" r="44.51%" fx="0%" fy="54.725%" gradientTransform="matrix(.50085 .42844 -.11124 .42323 .06 .316)"><stop offset="0%" stop-color="#01E6FE" stop-opacity=".404"/><stop offset="100%" stop-color="#35ACF5" stop-opacity="0"/></radialGradient><radialGradient id="h" cx="100%" cy="57.11%" r="48.246%" fx="100%" fy="57.11%" gradientTransform="matrix(-.50327 .41911 -.05857 -.22889 1.537 .283)"><stop offset="0%" stop-color="#01E6FE" stop-opacity=".404"/><stop offset="100%" stop-color="#35ACF5" stop-opacity="0"/></radialGradient><radialGradient id="w" cx="50%" cy="93.02%" r="21.326%" fx="50%" fy="93.02%" gradientTransform="matrix(0 1 -1.85357 0 2.224 .43)"><stop offset="0%" stop-color="#4688B6"/><stop offset="100%" stop-color="#33607B" stop-opacity="0"/></radialGradient><radialGradient id="x" cx="0%" cy="54.725%" r="40.107%" fx="0%" fy="54.725%" gradientTransform="matrix(.55581 .47548 -.14071 .41207 .077 .322)"><stop offset="0%" stop-color="#01E6FE" stop-opacity=".404"/><stop offset="100%" stop-color="#35ACF5" stop-opacity="0"/></radialGradient><radialGradient id="y" cx="100%" cy="57.11%" r="43.425%" fx="100%" fy="57.11%" gradientTransform="matrix(-.55912 .46565 -.07417 -.2231 1.601 .233)"><stop offset="0%" stop-color="#01E6FE" stop-opacity=".404"/><stop offset="100%" stop-color="#35ACF5" stop-opacity="0"/></radialGradient><ellipse id="aa" cx="140.594" cy="28.6" rx="3.833" ry="3.152"/><ellipse id="ac" cx="1.997" cy="4.925" rx="1.997" ry="1.642"/><ellipse id="ae" cx="163.713" cy="1.642" rx="1.997" ry="1.642"/></defs><g fill="none" fill-rule="evenodd"><g transform="translate(0 104.885)"><use xlink:href="#a" fill="#1D435C"/><use xlink:href="#a" fill="url(#b)" fill-opacity=".6"/><use xlink:href="#a" fill="url(#c)" fill-opacity=".6"/><use xlink:href="#a" fill="url(#d)" fill-opacity=".6"/></g><g transform="translate(0 105.885)"><mask id="i" fill="#fff"><use xlink:href="#e"/></mask><use xlink:href="#e" fill="#1D435C"/><use xlink:href="#e" fill="url(#f)" fill-opacity=".6"/><use xlink:href="#e" fill="url(#g)" fill-opacity=".6"/><use xlink:href="#e" fill="url(#h)" fill-opacity=".6"/><g mask="url(#i)"><use xlink:href="#j" fill="#000" filter="url(#l)"/><use xlink:href="#j" fill="#FFCC39"/></g><g mask="url(#i)"><use xlink:href="#m" fill="#000" filter="url(#n)"/><use xlink:href="#m" fill="#39C5FF"/></g></g><g transform="translate(0 25.885)"><use xlink:href="#o" fill="#0B2E42" fill-opacity=".896"/><use xlink:href="#o" fill="url(#p)"/></g><path stroke="url(#q)" stroke-linecap="square" stroke-linejoin="bevel" d="M2.907 135.195 121.481 79.37c3.876-1.825 10.162-1.825 14.038 0l118.574 55.826c3.876 1.825 3.876 4.785 0 6.61L135.519 197.63c-3.876 1.825-10.162 1.825-14.038 0L2.907 141.805c-3.876-1.825-3.876-4.785 0-6.61Z" transform="translate(0 25.885)"/><g stroke-linejoin="bevel" transform="translate(0 25.885)"><use xlink:href="#r" fill="#000" filter="url(#s)"/><use xlink:href="#r" stroke="#1ABCFF" stroke-width="2"/></g><path stroke="url(#t)" stroke-linejoin="bevel" d="m19.512 137.16 102.425-47.983c3.348-1.57 8.778-1.57 12.126 0l102.425 47.983c3.35 1.568 3.35 4.112 0 5.68l-102.425 47.983c-3.348 1.57-8.778 1.57-12.126 0L19.512 142.84c-3.35-1.568-3.35-4.112 0-5.68Z" filter="url(#u)" opacity=".2" transform="translate(0 25.885)"/><g transform="translate(14.393 70.186)"><use xlink:href="#v" fill="#1D435C"/><use xlink:href="#v" fill="url(#w)" fill-opacity=".6"/><use xlink:href="#v" fill="url(#x)" fill-opacity=".6"/><use xlink:href="#v" fill="url(#y)" fill-opacity=".6"/></g><g transform="translate(14.393 70.186)"><mask id="A" fill="#fff"><use xlink:href="#z"/></mask><use xlink:href="#z" fill="#1D435C"/><use xlink:href="#z" fill="url(#w)" fill-opacity=".6"/><use xlink:href="#z" fill="url(#x)" fill-opacity=".6"/><use xlink:href="#z" fill="url(#y)" fill-opacity=".6"/><g mask="url(#A)"><use xlink:href="#B" fill="#000" filter="url(#C)"/><use xlink:href="#B" fill="#FFCC39"/></g><g mask="url(#A)"><use xlink:href="#D" fill="#000" filter="url(#E)"/><use xlink:href="#D" fill="#39C5FF"/></g><path stroke="#000" stroke-linejoin="bevel" stroke-width="6" d="M233.657 70.186a3.82 3.82 0 0 1-2.215 3.462L121.68 124.876c-3.66 1.708-9.596 1.708-13.257 0L-1.338 73.648a3.82 3.82 0 0 1-2.216-3.462" mask="url(#A)"/><g stroke-linejoin="bevel" mask="url(#A)"><use xlink:href="#F" fill="#000" filter="url(#G)"/><use xlink:href="#F" stroke="#FFE7B9" stroke-width="2"/></g></g><g transform="translate(14.393)"><use xlink:href="#H" fill="#0B2E42" fill-opacity=".896"/><use xlink:href="#H" fill="url(#I)"/></g><path stroke="url(#J)" stroke-linecap="square" stroke-linejoin="bevel" d="m2.583 120.111 105.344-49.597c3.444-1.622 9.028-1.622 12.472 0l105.344 49.597c3.444 1.622 3.444 4.251 0 5.873L120.4 175.58c-3.444 1.622-9.028 1.622-12.472 0L2.583 125.984c-3.444-1.622-3.444-4.251 0-5.873Z" transform="translate(14.393)"/><path stroke="url(#K)" stroke-linecap="square" stroke-linejoin="bevel" stroke-width="2" d="m134.153 169.69-13.27 5.944c-3.466 1.551-9.084 1.551-12.55 0l-13.271-5.944m-85.29-39.98-7.09-3.25c-3.576-1.639-3.576-4.297 0-5.936l7.09-3.251m209.67 0 6.18 2.808c3.606 1.638 3.606 4.295 0 5.934l-6.18 2.807M97.727 75.517l10.18-4.957c3.455-1.683 9.059-1.683 12.515 0l10.177 4.957" transform="translate(14.393)"/><path stroke="url(#L)" stroke-linejoin="bevel" d="m17.335 121.857 90.997-42.63c2.975-1.394 7.799-1.394 10.774 0l90.997 42.63c2.975 1.393 2.975 3.653 0 5.047l-90.997 42.63c-2.975 1.393-7.799 1.393-10.774 0l-90.997-42.63c-2.975-1.394-2.975-3.654 0-5.047Z" filter="url(#M)" opacity=".2" transform="translate(14.393)"/><g transform="translate(54.29 75.313)"><mask id="O" fill="#fff"><use xlink:href="#N"/></mask><use xlink:href="#N" fill="#1D435C"/><g stroke-linejoin="bevel" mask="url(#O)"><use xlink:href="#P" fill="#000" filter="url(#Q)"/><use xlink:href="#P" stroke="#A7E5FF"/></g></g><g transform="translate(54.29 75.313)"><use xlink:href="#R" fill="#0B2E42" fill-opacity=".896"/><use xlink:href="#R" fill="url(#S)"/></g><g transform="translate(68.189 81.761)"><mask id="W" fill="#fff"><use xlink:href="#T"/></mask><use xlink:href="#T" fill="url(#U)"/><path fill="url(#V)" d="M59.616 44.331c22.298 0 41.737-3.641 51.962-9.034 4.873-2.57 7.653-5.538 7.653-8.698 0-9.794-26.69-17.733-59.615-17.733S0 16.806 0 26.6s26.69 17.73 59.616 17.73" mask="url(#W)"/></g><path stroke="url(#X)" stroke-linecap="square" stroke-linejoin="bevel" d="M73.514 54.81c27.497 0 51.468-5.628 64.076-13.962 6.01-3.972 9.438-8.558 9.438-13.443C147.028 12.27 114.114 0 73.514 0S0 12.27 0 27.405s32.913 27.404 73.514 27.404Z" transform="translate(54.29 75.313)"/><path fill="url(#Y)" d="M0 0h200v125.648H0z" opacity=".502" transform="translate(27.393 4.885)"/><path fill="url(#Z)" d="M23.602 25.043h152.795v95.992H23.602z" opacity=".503" transform="translate(27.393 4.885)"/><g transform="translate(49.13 80.998)"><use xlink:href="#aa" fill="#000" filter="url(#ab)"/><use xlink:href="#aa" fill="#FFF"/></g><g transform="translate(49.13 80.998)"><use xlink:href="#ac" fill="#000" filter="url(#ad)"/><use xlink:href="#ac" fill="#FFF"/></g><g opacity=".3" transform="translate(49.13 80.998)"><use xlink:href="#ae" fill="#000" filter="url(#af)"/><use xlink:href="#ae" fill="#FFF"/></g></g></svg>