<svg xmlns="http://www.w3.org/2000/svg" xmlns:xlink="http://www.w3.org/1999/xlink" width="258" height="240"><defs><linearGradient id="o" x1="50%" x2="50%" y1="0%" y2="80.379%"><stop offset="0%" stop-color="#01E6FE" stop-opacity=".3"/><stop offset="100%" stop-color="#01E6FE" stop-opacity="0"/></linearGradient><linearGradient id="p" x1="50%" x2="50%" y1="-10.3%" y2="77.405%"><stop offset="0%" stop-color="#0A3045"/><stop offset="100%" stop-color="#1ABCFF"/></linearGradient><linearGradient id="q" x1="50%" x2="50%" y1="0%" y2="120.946%"><stop offset="0%" stop-color="#0A3045"/><stop offset="100%" stop-color="#1ABCFF"/></linearGradient><linearGradient id="r" x1="33.436%" x2="61.967%" y1="43.46%" y2="59.626%"><stop offset="0%" stop-color="#01E6FE" stop-opacity=".496"/><stop offset="68.181%" stop-color="#01E6FE" stop-opacity="0"/><stop offset="100%" stop-color="#01E6FE" stop-opacity=".6"/></linearGradient><linearGradient id="s" x1="56.548%" x2="50%" y1="38.917%" y2="61.083%"><stop offset="0%" stop-color="#1ABCFF" stop-opacity="0"/><stop offset="46.118%" stop-color="#1ABCFF"/><stop offset="100%" stop-color="#1ABCFF" stop-opacity="0"/></linearGradient><linearGradient id="v" x1="50%" x2="50%" y1="6.575%" y2="84.15%"><stop offset="0%" stop-color="#01E6FE" stop-opacity="0"/><stop offset="50.09%" stop-color="#01E6FE" stop-opacity=".728"/><stop offset="100%" stop-color="#01E6FE" stop-opacity=".6"/><stop offset="100%" stop-color="#01E6FE" stop-opacity=".6"/></linearGradient><linearGradient id="w" x1="50%" x2="50%" y1="0%" y2="100%"><stop offset="0%" stop-color="#02F4FF" stop-opacity=".098"/><stop offset="100%" stop-color="#6CD4FF"/></linearGradient><linearGradient id="x" x1="50%" x2="50%" y1="7.429%" y2="100%"><stop offset="0%" stop-opacity="0"/><stop offset="46.118%" stop-color="#01E6FE" stop-opacity=".684"/><stop offset="100%" stop-color="#E3FCFF" stop-opacity="0"/></linearGradient><linearGradient id="z" x1="50.002%" x2="50.002%" y1="12.404%" y2="100%"><stop offset="0%" stop-color="#2494F0" stop-opacity="0"/><stop offset="57.584%" stop-color="#24B2F0" stop-opacity=".454"/><stop offset="100%" stop-color="#2494F0" stop-opacity="0"/></linearGradient><linearGradient id="A" x1="50.002%" x2="50.002%" y1="12.404%" y2="100%"><stop offset="0%" stop-color="#2494F0" stop-opacity="0"/><stop offset="57.584%" stop-color="#01E6FE" stop-opacity=".496"/><stop offset="100%" stop-color="#2494F0" stop-opacity="0"/></linearGradient><filter id="i" width="966.7%" height="471.4%" x="-433.3%" y="-157.1%" filterUnits="objectBoundingBox"><feOffset dy="2" in="SourceAlpha" result="shadowOffsetOuter1"/><feGaussianBlur in="shadowOffsetOuter1" result="shadowBlurOuter1" stdDeviation="4"/><feColorMatrix in="shadowBlurOuter1" values="0 0 0 0 0.996078431 0 0 0 0 0.786695404 0 0 0 0 0.00392156863 0 0 0 0.599531694 0"/></filter><filter id="k" width="966.7%" height="471.4%" x="-433.3%" y="-157.1%" filterUnits="objectBoundingBox"><feOffset dy="2" in="SourceAlpha" result="shadowOffsetOuter1"/><feGaussianBlur in="shadowOffsetOuter1" result="shadowBlurOuter1" stdDeviation="4"/><feColorMatrix in="shadowBlurOuter1" values="0 0 0 0 0.00392156863 0 0 0 0 0.901960784 0 0 0 0 0.996078431 0 0 0 0.599531694 0"/></filter><filter id="m" width="110.5%" height="142.9%" x="-5.2%" y="-17.5%" filterUnits="objectBoundingBox"><feMorphology in="SourceAlpha" operator="dilate" radius="1" result="shadowSpreadOuter1"/><feOffset dy="2" in="shadowSpreadOuter1" result="shadowOffsetOuter1"/><feMorphology in="SourceAlpha" radius="1" result="shadowInner"/><feOffset dy="2" in="shadowInner" result="shadowInner"/><feComposite in="shadowOffsetOuter1" in2="shadowInner" operator="out" result="shadowOffsetOuter1"/><feGaussianBlur in="shadowOffsetOuter1" result="shadowBlurOuter1" stdDeviation="4"/><feColorMatrix in="shadowBlurOuter1" values="0 0 0 0 0.00392156863 0 0 0 0 0.901960784 0 0 0 0 0.996078431 0 0 0 0.599531694 0"/></filter><filter id="u" width="110.9%" height="123.1%" x="-5.4%" y="-9.9%" filterUnits="objectBoundingBox"><feMorphology in="SourceAlpha" operator="dilate" radius="1" result="shadowSpreadOuter1"/><feOffset dy="2" in="shadowSpreadOuter1" result="shadowOffsetOuter1"/><feMorphology in="SourceAlpha" radius="1" result="shadowInner"/><feOffset dy="2" in="shadowInner" result="shadowInner"/><feComposite in="shadowOffsetOuter1" in2="shadowInner" operator="out" result="shadowOffsetOuter1"/><feGaussianBlur in="shadowOffsetOuter1" result="shadowBlurOuter1" stdDeviation="4"/><feColorMatrix in="shadowBlurOuter1" values="0 0 0 0 0.00392156863 0 0 0 0 0.901960784 0 0 0 0 0.996078431 0 0 0 1 0"/></filter><filter id="y" width="103.2%" height="106.7%" x="-1.6%" y="-3.4%" filterUnits="objectBoundingBox"><feGaussianBlur in="SourceGraphic" stdDeviation="1"/></filter><filter id="C" width="439.1%" height="438.7%" x="-195.7%" y="-143.3%" filterUnits="objectBoundingBox"><feOffset dx="-2" dy="2" in="SourceAlpha" result="shadowOffsetOuter1"/><feGaussianBlur in="shadowOffsetOuter1" result="shadowBlurOuter1" stdDeviation="4"/><feColorMatrix in="shadowBlurOuter1" values="0 0 0 0 0.00392156863 0 0 0 0 0.901960784 0 0 0 0 0.996078431 0 0 0 1 0"/></filter><filter id="E" width="751.1%" height="750.3%" x="-375.7%" y="-275.1%" filterUnits="objectBoundingBox"><feOffset dx="-2" dy="2" in="SourceAlpha" result="shadowOffsetOuter1"/><feGaussianBlur in="shadowOffsetOuter1" result="shadowBlurOuter1" stdDeviation="4"/><feColorMatrix in="shadowBlurOuter1" values="0 0 0 0 0.00392156863 0 0 0 0 0.901960784 0 0 0 0 0.996078431 0 0 0 1 0"/></filter><filter id="G" width="751.1%" height="750.3%" x="-375.7%" y="-275.1%" filterUnits="objectBoundingBox"><feOffset dx="-2" dy="2" in="SourceAlpha" result="shadowOffsetOuter1"/><feGaussianBlur in="shadowOffsetOuter1" result="shadowBlurOuter1" stdDeviation="4"/><feColorMatrix in="shadowBlurOuter1" values="0 0 0 0 0.00392156863 0 0 0 0 0.901960784 0 0 0 0 0.996078431 0 0 0 1 0"/></filter><path id="a" d="M0 59.05 129 0l129 60.63v41.32a4 4 0 0 1-2.302 3.621L136.21 161.6c-3.982 1.867-10.438 1.867-14.42 0L2.302 105.57A4 4 0 0 1 0 101.95z"/><path id="e" d="M0 59.05 129 0l129 60.63v41.32a4 4 0 0 1-2.302 3.621L136.21 161.6c-3.982 1.867-10.438 1.867-14.42 0L2.302 105.57A4 4 0 0 1 0 101.95z"/><path id="g" d="m162 137.842 3-1.842v5.158L162 143z"/><path id="j" d="m170 133.842 3-1.842v5.158L170 139z"/><path id="l" d="M263 79a4.3 4.3 0 0 1-2.494 3.897l-123.545 57.66c-4.12 1.924-10.802 1.924-14.922 0L-1.506 82.898A4.3 4.3 0 0 1-4 79"/><path id="n" d="M2.907 57.195 121.481 1.37c3.876-1.825 10.162-1.825 14.038 0l118.574 55.826c3.876 1.825 3.876 4.785 0 6.61L135.519 119.63c-3.876 1.825-10.162 1.825-14.038 0L2.907 63.805c-3.876-1.825-3.876-4.785 0-6.61"/><path id="t" d="M2.907 57.195 121.481 1.37c3.876-1.825 10.162-1.825 14.038 0l118.574 55.826c3.876 1.825 3.876 4.785 0 6.61L135.519 119.63c-3.876 1.825-10.162 1.825-14.038 0L2.907 63.805c-3.876-1.825-3.876-4.785 0-6.61"/><radialGradient id="b" cx="50%" cy="93.02%" r="21.326%" fx="50%" fy="93.02%" gradientTransform="matrix(0 1 -1.85357 0 2.224 .43)"><stop offset="0%" stop-color="#4688B6"/><stop offset="100%" stop-color="#33607B" stop-opacity="0"/></radialGradient><radialGradient id="c" cx="0%" cy="54.725%" r="40.107%" fx="0%" fy="54.725%" gradientTransform="matrix(.55581 .47548 -.14071 .41207 .077 .322)"><stop offset="0%" stop-color="#01E6FE" stop-opacity=".404"/><stop offset="100%" stop-color="#35ACF5" stop-opacity="0"/></radialGradient><radialGradient id="d" cx="100%" cy="57.11%" r="43.425%" fx="100%" fy="57.11%" gradientTransform="matrix(-.55912 .46565 -.07417 -.2231 1.601 .233)"><stop offset="0%" stop-color="#01E6FE" stop-opacity=".404"/><stop offset="100%" stop-color="#35ACF5" stop-opacity="0"/></radialGradient><ellipse id="B" cx="140.594" cy="34.826" rx="3.833" ry="3.838"/><ellipse id="D" cx="1.997" cy="5.998" rx="1.997" ry="1.999"/><ellipse id="F" cx="163.713" cy="1.999" rx="1.997" ry="1.999"/></defs><g fill="none" fill-rule="evenodd"><g transform="translate(0 77)"><use xlink:href="#a" fill="#1D435C"/><use xlink:href="#a" fill="url(#b)" fill-opacity=".6"/><use xlink:href="#a" fill="url(#c)" fill-opacity=".6"/><use xlink:href="#a" fill="url(#d)" fill-opacity=".6"/></g><g transform="translate(0 77)"><mask id="f" fill="#fff"><use xlink:href="#e"/></mask><use xlink:href="#e" fill="#1D435C"/><use xlink:href="#e" fill="url(#b)" fill-opacity=".6"/><use xlink:href="#e" fill="url(#c)" fill-opacity=".6"/><use xlink:href="#e" fill="url(#d)" fill-opacity=".6"/><g mask="url(#f)"><use xlink:href="#g" fill="#000" filter="url(#i)"/><use xlink:href="#g" fill="#FFCC39"/></g><g mask="url(#f)"><use xlink:href="#j" fill="#000" filter="url(#k)"/><use xlink:href="#j" fill="#39C5FF"/></g><path stroke="#000" stroke-linejoin="bevel" stroke-width="6" d="M263 79a4.3 4.3 0 0 1-2.494 3.897l-123.545 57.66c-4.12 1.924-10.802 1.924-14.922 0L-1.506 82.898A4.3 4.3 0 0 1-4 79" mask="url(#f)"/><g stroke-linejoin="bevel" mask="url(#f)"><use xlink:href="#l" fill="#000" filter="url(#m)"/><use xlink:href="#l" stroke="#FFE7B9" stroke-width="2"/></g></g><g transform="translate(0 76)"><use xlink:href="#n" fill="#0B2E42" fill-opacity=".896"/><use xlink:href="#n" fill="url(#o)"/></g><path fill="url(#p)" d="m29.33 57.85 95.044-44.753c3.107-1.463 8.145-1.463 11.252 0l95.043 44.754c3.108 1.463 3.108 3.835 0 5.298l-95.043 44.754c-3.107 1.463-8.145 1.463-11.252 0L29.33 63.149c-3.108-1.463-3.108-3.835 0-5.298" transform="translate(0 76)"/><path fill="url(#q)" d="m42.991 67.233 81.202-38.294c2.655-1.252 6.96-1.252 9.614 0l81.202 38.294c2.655 1.252 2.655 3.282 0 4.534l-81.202 38.294c-2.655 1.252-6.96 1.252-9.614 0L42.991 71.767c-2.655-1.252-2.655-3.282 0-4.534" transform="translate(0 76)"/><g stroke-linejoin="bevel"><path stroke="url(#r)" stroke-linecap="square" d="M2.907 94.195 121.481 38.37c3.876-1.825 10.162-1.825 14.038 0l118.574 55.826c3.876 1.825 3.876 4.785 0 6.61L135.519 156.63c-3.876 1.825-10.162 1.825-14.038 0L2.907 100.805c-3.876-1.825-3.876-4.785 0-6.61Z" transform="translate(0 39)"/><path stroke="url(#s)" stroke-dasharray="2,2" stroke-width="2" d="M2.907 73.195 121.481 17.37c3.876-1.825 10.162-1.825 14.038 0l118.574 55.826c3.876 1.825 3.876 4.785 0 6.61L135.519 135.63c-3.876 1.825-10.162 1.825-14.038 0L2.907 79.805c-3.876-1.825-3.876-4.785 0-6.61Z" opacity=".8" transform="translate(0 39)"/><g stroke-linecap="square" opacity=".5" transform="translate(0 39)"><use xlink:href="#t" fill="#000" filter="url(#u)"/><use xlink:href="#t" stroke="url(#v)" stroke-width="2"/></g><path stroke="url(#w)" stroke-linecap="square" stroke-width="2" d="m151 150-14.936 6.69c-3.901 1.747-10.225 1.747-14.126 0L107 150m-96-45-7.981-3.658c-4.025-1.845-4.025-4.837 0-6.682L11 91m236 0 6.956 3.16c4.059 1.845 4.059 4.835 0 6.68L247 104M110 44l11.457-5.58c3.89-1.894 10.197-1.894 14.087 0L147 44" transform="translate(0 39)"/></g><path stroke="url(#x)" stroke-linejoin="bevel" d="m19.512 96.16 102.425-47.983c3.348-1.57 8.778-1.57 12.126 0L236.488 96.16c3.35 1.568 3.35 4.112 0 5.68l-102.425 47.983c-3.348 1.57-8.778 1.57-12.126 0L19.512 101.84c-3.35-1.568-3.35-4.112 0-5.68Z" filter="url(#y)" opacity=".2" transform="translate(0 39)"/><path fill="url(#z)" d="M0 0h200v153H0z" opacity=".502" transform="translate(29)"/><path fill="url(#A)" d="M23.602 30.495h152.795v116.888H23.602z" opacity=".503" transform="translate(29)"/><g transform="translate(50.736 92.682)"><use xlink:href="#B" fill="#000" filter="url(#C)"/><use xlink:href="#B" fill="#FFF"/></g><g transform="translate(50.736 92.682)"><use xlink:href="#D" fill="#000" filter="url(#E)"/><use xlink:href="#D" fill="#FFF"/></g><g opacity=".3" transform="translate(50.736 92.682)"><use xlink:href="#F" fill="#000" filter="url(#G)"/><use xlink:href="#F" fill="#FFF"/></g></g></svg>