<svg xmlns="http://www.w3.org/2000/svg" width="320" height="270.046"><defs><linearGradient id="a" x1="53.99%" x2="50%" y1="45.103%" y2="70.27%"><stop offset="0%" stop-color="#03E7FF" stop-opacity="0"/><stop offset="100%" stop-color="#006EFF"/></linearGradient><linearGradient id="c" x1="50%" x2="76.363%" y1="29.73%" y2="66.513%"><stop offset="0%" stop-color="#03ADFF" stop-opacity=".2"/><stop offset="100%" stop-color="#18CCFF"/></linearGradient><linearGradient id="d" x1="50%" x2="81.721%" y1="32.927%" y2="62.687%"><stop offset="0%" stop-color="#03ADFF" stop-opacity=".2"/><stop offset="100%" stop-color="#18CCFF"/></linearGradient><linearGradient id="e" x1="50%" x2="90.725%" y1="32.927%" y2="62.223%"><stop offset="0%" stop-color="#03ADFF" stop-opacity=".234"/><stop offset="100%" stop-color="#18CCFF"/></linearGradient><linearGradient id="f" x1="50%" x2="85.742%" y1="32.927%" y2="63.665%"><stop offset="0%" stop-color="#03ADFF" stop-opacity=".2"/><stop offset="100%" stop-color="#18CCFF"/></linearGradient><linearGradient id="g" x1="50%" x2="50%" y1="0%" y2="98.205%"><stop offset="0%" stop-color="#03ADFF" stop-opacity=".2"/><stop offset="100%" stop-color="#18CCFF"/></linearGradient><linearGradient id="h" x1="34.269%" x2="85.592%" y1="28.174%" y2="65.785%"><stop offset="0%" stop-color="#0053FF" stop-opacity="0"/><stop offset="100%" stop-color="#44EBFF"/></linearGradient><linearGradient id="i" x1="46.595%" x2="87.825%" y1="27.078%" y2="57.23%"><stop offset="0%" stop-color="#00CBFF" stop-opacity=".297"/><stop offset="100%" stop-color="#00C5FF"/></linearGradient><linearGradient id="j" x1="62.648%" x2="85.905%" y1="29.73%" y2="61.143%"><stop offset="0%" stop-color="#0090FF" stop-opacity=".327"/><stop offset="100%" stop-color="#3DEAFF"/></linearGradient><linearGradient id="k" x1="50%" x2="50%" y1=".542%" y2="98.089%"><stop offset="0%" stop-color="#02FAD2"/><stop offset="100%" stop-color="#005CFF"/></linearGradient><linearGradient id="m" x1="50%" x2="50%" y1=".542%" y2="98.089%"><stop offset="0%" stop-color="#02DDFA"/><stop offset="100%" stop-color="#0080FF"/></linearGradient><filter id="b" width="151.8%" height="181.3%" x="-25.9%" y="-40.7%" filterUnits="objectBoundingBox"><feGaussianBlur in="SourceGraphic" stdDeviation="17"/></filter><filter id="l" width="292.3%" height="292.3%" x="-96.1%" y="-96.1%" filterUnits="objectBoundingBox"><feGaussianBlur in="SourceGraphic" stdDeviation="6"/></filter><filter id="n" width="313.7%" height="313.7%" x="-106.8%" y="-106.8%" filterUnits="objectBoundingBox"><feGaussianBlur in="SourceGraphic" stdDeviation="4"/></filter></defs><g fill="none" fill-rule="evenodd"><ellipse cx="141.043" cy="145.774" stroke="url(#a)" stroke-width="20" filter="url(#b)" rx="88.504" ry="52.718" transform="rotate(30 141.043 145.774)"/><g transform="translate(36.567 53.028)"><ellipse cx="104.476" cy="92.746" stroke="url(#c)" rx="87.712" ry="55.665" transform="rotate(30 104.476 92.746)"/><ellipse cx="99.872" cy="97.442" stroke="url(#d)" opacity=".8" rx="77.195" ry="44.9" transform="rotate(30 99.872 97.442)"/><ellipse cx="97.766" cy="100.589" stroke="url(#e)" opacity=".6" rx="63.578" ry="36.943" transform="rotate(30 97.766 100.589)"/><ellipse cx="94.958" cy="104.951" stroke="url(#f)" opacity=".4" rx="47.559" ry="27.583" transform="rotate(30 94.958 104.951)"/><ellipse cx="92.739" cy="109.181" stroke="url(#g)" opacity=".2" rx="32.731" ry="18.918" transform="rotate(30 92.739 109.18)"/></g><ellipse cx="141.043" cy="144.838" stroke="url(#h)" stroke-width="3" rx="117.586" ry="74.323" transform="rotate(30 141.043 144.838)"/><path fill="url(#i)" fill-rule="nonzero" d="m168.957 42.144-.283 16.696c-46.08 0-83.143 26.657-83.143 51.109 0 24.451 45.076 49.06 83.426 47.141 38.35-1.918 78.97-22.618 79.679-46.778l.01-.733 24.794.9c0 39.03-50.756 71.101-107.689 71.101s-98.25-32.277-98.25-71.308c0-38.64 50.464-66.84 99.751-68.12z" transform="rotate(30 170.47 111.862)"/><ellipse cx="170.764" cy="107.984" stroke="url(#j)" stroke-width="2" rx="92.358" ry="58.441" transform="rotate(30 170.764 107.984)"/><circle cx="310.639" cy="155.596" r="9.361" fill="url(#k)" filter="url(#l)"/><circle cx="71.938" cy="10.503" r="5.617" fill="url(#m)" filter="url(#n)"/></g></svg>