<svg xmlns="http://www.w3.org/2000/svg" xmlns:xlink="http://www.w3.org/1999/xlink" width="300" height="259.787"><defs><linearGradient id="b" x1="50%" x2="50%" y1="36.084%" y2="100.626%"><stop offset="0%" stop-color="#009BFF" stop-opacity="0"/><stop offset="100%" stop-color="#36E3E3"/></linearGradient><linearGradient id="e" x1="50%" x2="50%" y1="36.084%" y2="100.626%"><stop offset="0%" stop-color="#009BFF" stop-opacity="0"/><stop offset="100%" stop-color="#36E3E3" stop-opacity=".2"/></linearGradient><linearGradient id="f" x1="8.101%" x2="88.35%" y1="43.589%" y2="54.133%"><stop offset="0%" stop-color="#00DBFF"/><stop offset="100%" stop-color="#36E3E3"/></linearGradient><linearGradient id="h" x1="-3.217%" x2="-2.611%" y1="41.588%" y2="65.174%"><stop offset="0%" stop-color="#009BFF" stop-opacity="0"/><stop offset="100%" stop-color="#36E3E3"/></linearGradient><linearGradient id="k" x1="50%" x2="50%" y1="0%" y2="100%"><stop offset="0%" stop-color="#01DBFE" stop-opacity="0"/><stop offset="100%" stop-color="#00DAFE" stop-opacity=".1"/></linearGradient><linearGradient id="m" x1="50%" x2="50%" y1="10.192%" y2="101.321%"><stop offset="0%" stop-color="#36E3E3" stop-opacity="0"/><stop offset="100%" stop-color="#FFF"/></linearGradient><radialGradient id="d" cx="27.944%" cy="93.865%" r="21.879%" fx="27.944%" fy="93.865%" gradientTransform="matrix(-.19459 .93778 -1.09458 -.72322 1.361 1.355)"><stop offset="0%" stop-color="#FFF"/><stop offset="100%" stop-color="#00CBFF" stop-opacity="0"/></radialGradient><radialGradient id="i" cx="97.961%" cy="64.858%" r="20.078%" fx="97.961%" fy="64.858%" gradientTransform="matrix(.3516 .76606 -.71931 1.10339 1.102 -.817)"><stop offset="0%" stop-color="#FFF"/><stop offset="100%" stop-color="#00CBFF" stop-opacity="0"/></radialGradient><radialGradient id="l" cx="50%" cy="100%" r="27.131%" fx="50%" fy="100%" gradientTransform="matrix(0 1 -1.72545 0 2.225 .5)"><stop offset="0%" stop-color="#2EE7FF" stop-opacity=".366"/><stop offset="100%" stop-color="#34C0FF" stop-opacity="0"/></radialGradient><ellipse id="a" cx="150" cy="153.574" rx="150" ry="84.066"/><ellipse id="g" cx="150" cy="145.147" rx="141.507" ry="77.404"/><ellipse id="j" cx="150" cy="129.088" rx="87.491" ry="44"/></defs><g fill="none" fill-rule="evenodd"><use xlink:href="#a" stroke="url(#b)" stroke-width="2"/><use xlink:href="#a" stroke="url(#d)" stroke-width="3"/><ellipse cx="152.206" cy="204.64" stroke="url(#e)" stroke-width="2" rx="117.757" ry="55.147"/><g fill-rule="nonzero"><path fill="#36E3E3" d="M150.882 65.846h-11.227l3.11 9.529h15.154l3.441.176 3.42.552 5.338-9.42-4.743-.33-4.787-.22-4.83-.155h-4.876m-24.044 1.059c-2.448.264-4.875.53-7.257.86-2.382.331-4.765.662-7.103 1.059s-4.654.816-6.926 1.257-4.412.949-6.75 1.478l13.897 8.228c1.698-.397 3.375-.794 5.095-1.147s3.42-.684 5.162-.97c1.743-.287 3.485-.574 5.25-.817a144 144 0 0 1 5.294-.617l-6.618-9.331m55.986.926-8.824 9.088c1.743.243 3.485.508 5.184.817s3.441.617 5.118.97c1.676.353 3.397.728 5.051 1.147s3.331.839 4.963 1.302l15.442-7.875a362 362 0 0 0-6.618-1.655 178 178 0 0 0-6.618-1.456 255 255 0 0 0-6.86-1.279q-3.474-.596-7.015-1.059M87.838 74.58l-5.823 1.832a186 186 0 0 0-5.625 2.007c-1.831.684-3.684 1.412-5.47 2.206-1.788.794-3.53 1.5-5.25 2.206l21.198 6.132a99 99 0 0 1 4.169-1.919 63 63 0 0 1 4.412-1.765c1.566-.551 2.911-1.125 4.411-1.632s3-1.015 4.412-1.5L87.904 74.56m132.353 2.006-17.933 7.258c1.478.507 2.911 1.058 4.411 1.61 1.5.551 2.846 1.147 4.236 1.765s2.757 1.235 4.103 1.897 2.69 1.323 3.992 2.029l22.213-5.735a116 116 0 0 0-4.985-2.427c-1.698-.772-3.419-1.544-5.162-2.206s-3.551-1.433-5.36-2.206-3.662-1.345-5.537-1.985M57.53 87a223 223 0 0 0-4.412 2.493 74 74 0 0 0-4.147 2.625c-1.346.904-2.67 1.83-3.949 2.757-1.28.926-2.537 1.92-3.75 2.89l26.096 3.86a50 50 0 0 1 2.978-2.449 69 69 0 0 1 3.154-2.36c1.08-.772 2.206-1.5 3.33-2.206 1.126-.706 2.207-1.434 3.464-2.206zm191.426 2.713-23.78 5.052c1.103.728 2.206 1.456 3.265 2.206s2.206 1.544 3.11 2.338c.905.794 1.986 1.61 2.934 2.426s1.853 1.699 2.736 2.56l26.823-3.42c-1.103-1.015-2.206-2.007-3.463-2.978-1.257-.97-2.404-1.941-3.662-2.868a101 101 0 0 0-3.882-2.713 107 107 0 0 0-4.081-2.603M35.691 102.816a74 74 0 0 0-2.912 3 71 71 0 0 0-2.669 3.11c-.86 1.06-1.654 2.206-2.426 3.243s-1.478 2.206-2.206 3.331l29.58 1.368a44 44 0 0 1 3.507-5.647 48 48 0 0 1 2.075-2.67 269 269 0 0 1 2.206-2.58zm233.537 3.243-27.926 2.691c.705.882 1.39 1.765 2.029 2.647a46 46 0 0 1 3.441 5.603c.507.97.949 1.941 1.368 2.934l30.11-.86c-.573-1.17-1.213-2.206-1.875-3.42s-1.368-2.205-2.206-3.308-1.544-2.206-2.382-3.199-1.72-2.073-2.625-3.088" opacity=".1"/><path fill="url(#f)" d="M3.64 55.434a18 18 0 0 0-.42.97c-.132.331-.242.64-.374.971-.133.33-.243.64-.375.97l-.331.971q-.42 1.302-.794 2.581c-.221.86-.442 1.72-.618 2.58-.177.861-.33 1.722-.441 2.604S.067 68.8 0 69.684l31.92-1.522v-2.206c0-.728.11-1.456.22-2.206s.198-1.478.353-2.206.286-1.478.485-2.206c0-.287.154-.573.22-.838.067-.265.177-.551.243-.838l.265-.816c0-.287.198-.552.287-.839l-30.397-.551M32.36 73.544.044 76.081q.167 1.944.53 3.86c.242 1.28.529 2.581.904 3.86a37 37 0 0 0 1.28 3.839 48 48 0 0 0 1.654 3.838l32.625-5.184c-.596-1.037-1.125-2.206-1.633-3.132-.507-.927-.926-2.206-1.323-3.177-.397-.97-.728-2.206-1.015-3.22a32 32 0 0 1-.684-3.22m60.927 48.11v.11c2.228.551 4.478 1.036 6.772 1.5s4.61.882 6.97 1.235 4.765.64 7.17.904c2.404.265 4.853.464 7.323.618l-5.051 18.574a231 231 0 0 1-21.33-2.36c-3.487-.552-6.84-1.192-10.104-1.832-3.265-.64-6.485-1.39-9.618-2.205zM60.86 108.86l-.022.022c1.61.927 3.243 1.831 4.941 2.714 1.699.882 3.464 1.853 5.25 2.558 1.787.706 3.64 1.478 5.515 2.206a77 77 0 0 0 5.824 2.206l-22.06 14.956a161 161 0 0 1-7.83-3c-2.515-1.037-4.941-2.14-7.302-3.243a114 114 0 0 1-6.772-3.463 119 119 0 0 1-6.22-3.684zM40.72 91.743c.839.992 1.743 2.14 2.692 3.198.948 1.059 1.897 2.074 3.044 3.11s2.184 2.03 3.353 3.023a71 71 0 0 0 3.684 2.911l-30.31 9.75a96 96 0 0 1-4.41-3.75c-1.39-1.257-2.648-2.58-3.927-3.86-1.28-1.28-2.405-2.603-3.486-3.926a61 61 0 0 1-3-4.015zm122.502 31.687 14.682 17.195a230 230 0 0 1-10.125 1.787c-3.44.53-6.97.948-10.522 1.345-3.551.397-7.235.684-10.83.905-3.596.22-7.302.397-11.03.397l-1.103-18.728c2.515-.022 5.03-.132 7.5-.265 2.47-.132 4.897-.33 7.324-.573s4.808-.53 7.169-.883 4.787-.75 6.992-1.19zm34.646-11.702 27.22 12.42c-2.206 1.3-4.5 2.448-6.904 3.506-2.405 1.06-4.897 2.228-7.478 3.265s-5.206 2.052-7.985 3c-2.78.949-5.603 1.853-8.537 2.713l-19.434-15.926c2.096-.574 4.17-1.081 6.176-1.853 2.008-.772 4.015-1.456 5.934-2.206s3.816-1.544 5.647-2.36a100 100 0 0 0 5.36-2.56" transform="translate(18.882 65.846)"/><path fill="#36E3E3" d="M280.677 124.985h-30.883v.155q.402 1.527.64 3.088c.346 2.033.5 4.093.463 6.154 0 1.037 0 2.074-.198 3.089l32.205 2.205a40.4 40.4 0 0 0-.463-7.301 35 35 0 0 0-.728-3.618 37 37 0 0 0-1.059-3.595v-.199m-30.86 17.957a33 33 0 0 1-1.08 3.264c-.42 1.059-.861 2.206-1.368 3.198-.508.993-1.081 2.206-1.699 3.177-.618.97-1.301 2.206-2.007 3.132l32.492 6c.772-1.28 1.5-2.559 2.206-3.86.706-1.302 1.236-2.559 1.743-3.86q.776-1.916 1.346-3.905a42 42 0 0 0 .97-3.904l-32.537-3.243m-10.522 18.155a49 49 0 0 1-3.11 3.176 52 52 0 0 1-3.441 3.044c-1.235.993-2.47 1.985-3.794 2.934a96 96 0 0 1-4.103 2.801l29.316 10.743c1.743-1.191 3.397-2.426 5.007-3.662s3.089-2.514 4.522-3.794a74 74 0 0 0 7.632-7.897z" opacity=".1"/></g><use xlink:href="#g" stroke="url(#h)" stroke-width="2"/><use xlink:href="#g" stroke="url(#i)" stroke-width="3"/><use xlink:href="#j" fill="url(#k)"/><use xlink:href="#j" fill="url(#l)" stroke="url(#m)" stroke-width="2"/></g></svg>