<?xml version="1.0" standalone="no"?><!DOCTYPE svg PUBLIC "-//W3C//DTD SVG 1.1//EN" "http://www.w3.org/Graphics/SVG/1.1/DTD/svg11.dtd"><svg height="194" node-id="1" sillyvg="true" template-height="194" template-width="200" version="1.1" viewBox="0 0 200 194" width="200" xmlns="http://www.w3.org/2000/svg" xmlns:xlink="http://www.w3.org/1999/xlink"><defs node-id="28"></defs><g node-id="99"><g node-id="100"><path d="M 70.80 142.40 L 58.90 137.20 L 75.10 100.00 L 87.00 105.20 Z" fill="#eceef0" fill-rule="nonzero" group-id="1,2" node-id="35" stroke="none" target-height="42.399994" target-width="28.099998" target-x="58.9" target-y="100"></path></g><path d="M 75.10 100.00 L 70.80 142.40 L 59.00 137.20 L 75.10 100.00 Z" fill="#ffffff" fill-rule="nonzero" group-id="1" node-id="38" stroke="none" target-height="42.399994" target-width="16.099998" target-x="59" target-y="100"></path><g node-id="101"><path d="M 7.50 152.00 L 7.50 139.10 L 62.00 139.20 L 62.00 152.10 Z" fill="#eceef0" fill-rule="nonzero" group-id="1,3" node-id="42" stroke="none" target-height="13" target-width="54.5" target-x="7.5" target-y="139.1"></path></g><g node-id="102"><path d="M 87.30 89.00 L 89.40 90.10 L 91.10 91.50 L 92.60 93.20 L 94.50 97.20 L 95.00 101.60 L 94.70 103.80 L 94.00 106.10 L 92.80 108.20 L 91.40 109.90 L 87.80 112.50 L 83.50 113.80 L 81.30 113.90 L 79.10 113.50 L 76.80 112.80 L 74.70 111.60 L 73.00 110.20 L 71.50 108.50 L 69.60 104.50 L 69.10 100.10 L 69.40 97.90 L 70.20 95.60 L 71.30 93.50 L 72.70 91.80 L 76.30 89.20 L 80.60 88.00 L 82.80 87.90 L 85.00 88.20 L 87.30 89.00 Z" fill="#161616" fill-rule="nonzero" group-id="1,4" node-id="47" stroke="none" target-height="26" target-width="25.900002" target-x="69.1" target-y="87.9"></path></g><path d="M 53.50 139.10 L 7.50 152.00 L 56.00 152.10 L 53.50 139.10 Z" fill="#ffffff" fill-rule="nonzero" group-id="1" node-id="50" stroke="none" target-height="13" target-width="48.5" target-x="7.5" target-y="139.1"></path><g node-id="103"><path d="M 74.80 143.50 L 75.00 145.90 L 74.80 148.10 L 74.10 150.30 L 71.90 154.10 L 68.40 156.90 L 66.40 157.80 L 64.10 158.40 L 61.70 158.60 L 59.50 158.40 L 55.30 156.80 L 52.00 153.90 L 50.70 152.10 L 49.80 150.00 L 49.20 147.70 L 49.00 145.30 L 49.20 143.10 L 50.80 138.90 L 53.70 135.60 L 55.60 134.30 L 57.60 133.40 L 59.90 132.80 L 62.30 132.60 L 64.50 132.90 L 66.70 133.50 L 70.50 135.70 L 73.30 139.20 L 74.20 141.20 L 74.80 143.50 Z" fill="#161616" fill-rule="nonzero" group-id="1,5" node-id="54" stroke="none" target-height="26" target-width="26" target-x="49" target-y="132.6"></path></g><g node-id="104"><path d="M 10.30 164.90 L 7.50 164.90 L 7.50 123.30 L 11.70 123.60 L 12.90 124.40 L 13.70 125.60 L 14.00 127.00 L 14.00 161.30 L 13.70 162.70 L 12.90 163.90 L 11.70 164.60 L 10.30 164.90 Z" fill="#000000" fill-rule="nonzero" group-id="1,6" node-id="59" stroke="none" target-height="41.59999" target-width="6.5" target-x="7.5" target-y="123.3"></path></g><g node-id="105"><path d="M 3.80 172.20 L 1.10 172.20 L 1.10 116.10 L 5.30 116.40 L 6.40 117.10 L 7.20 118.30 L 7.50 119.80 L 7.50 168.50 L 7.20 170.00 L 6.40 171.10 L 5.30 171.90 L 3.80 172.20 Z" fill="#161616" fill-rule="nonzero" group-id="1,7" node-id="64" stroke="none" target-height="56.1" target-width="6.4" target-x="1.1" target-y="116.1"></path></g><path d="M 35.20 41.40 L 33.00 48.40 L 32.00 54.60 L 32.00 57.60 L 32.50 60.00 L 33.30 61.40 L 43.60 72.40 L 54.10 82.60 L 97.80 123.20 L 100.80 107.20 L 40.10 40.50 Z" fill="#d8d9dd" fill-rule="nonzero" group-id="1" node-id="67" stroke="none" target-height="82.7" target-width="68.8" target-x="32" target-y="40.5"></path><path d="M 198.90 72.90 L 185.20 107.10 L 183.60 108.30 L 182.20 108.60 L 180.60 108.50 L 176.80 106.70 L 172.70 103.00 L 174.40 69.70 L 181.20 67.50 L 184.20 66.90 L 189.70 66.90 L 193.90 68.10 L 195.80 69.20 L 197.40 70.80 L 198.90 72.90 Z" fill="#232323" fill-rule="nonzero" group-id="1" node-id="69" stroke="none" target-height="41.699997" target-width="26.199997" target-x="172.7" target-y="66.9"></path><g node-id="106"><path d="M 171.60 121.50 L 98.20 121.50 L 97.00 121.20 L 96.10 120.60 L 95.50 119.70 L 95.30 118.60 L 95.30 69.10 L 95.50 68.00 L 96.10 67.00 L 97.00 66.40 L 98.20 66.20 L 171.60 66.20 L 172.80 66.40 L 173.70 67.00 L 174.30 68.00 L 174.50 69.10 L 174.50 118.60 L 174.30 119.70 L 173.70 120.60 L 172.80 121.20 L 171.60 121.50 Z" fill="#333333" fill-rule="nonzero" group-id="1,8" node-id="73" stroke="none" target-height="55.300003" target-width="79.2" target-x="95.3" target-y="66.2"></path></g><g node-id="107"><path d="M 162.40 113.30 L 115.40 113.30 L 114.10 112.80 L 113.50 111.50 L 113.50 79.80 L 113.70 79.10 L 114.70 78.10 L 162.40 78.00 L 163.70 78.50 L 164.30 79.80 L 164.30 111.50 L 163.70 112.80 L 162.40 113.30 Z" fill="#090909" fill-rule="nonzero" group-id="1,9" node-id="78" stroke="none" target-height="35.300003" target-width="50.800003" target-x="113.5" target-y="78"></path></g><path d="M 198.90 72.90 L 199.00 71.30 L 197.90 68.80 L 194.40 65.40 L 191.20 63.40 L 156.80 47.90 L 95.70 21.70 L 36.30 21.70 L 34.60 21.90 L 32.30 23.50 L 31.20 25.10 L 30.40 27.20 L 29.90 30.60 L 30.20 34.80 L 30.70 36.40 L 32.00 38.50 L 38.40 44.00 L 41.60 49.60 L 44.20 55.90 L 45.30 60.00 L 46.20 65.80 L 91.00 109.90 L 93.70 110.50 L 97.20 110.60 L 98.80 110.00 L 100.40 108.50 L 105.20 94.30 L 112.00 76.70 L 112.60 75.40 L 114.90 72.80 L 118.30 70.90 L 123.10 69.90 L 126.70 69.70 L 190.80 69.70 L 194.50 70.50 L 198.90 72.90 Z" fill="#eceef0" fill-rule="nonzero" group-id="1" node-id="81" stroke="none" target-height="88.899994" target-width="169.1" target-x="29.9" target-y="21.7"></path><path d="M 129.50 94.50 L 130.20 98.20 L 132.30 101.20 L 135.40 103.30 L 139.10 104.10 L 142.70 103.30 L 145.80 101.20 L 147.90 98.10 L 148.60 94.50 L 147.90 90.80 L 145.80 87.70 L 142.70 85.60 L 139.00 84.90 L 135.70 85.50 L 134.20 86.20 L 132.30 87.70 L 130.80 89.70 L 130.10 91.10 L 129.50 94.50 Z" fill="#4d4d4d" fill-rule="nonzero" group-id="1" node-id="83" stroke="none" target-height="19.199997" target-width="19.100006" target-x="129.5" target-y="84.9"></path><g node-id="108"><path d="M 106.00 72.80 L 97.30 96.90 L 95.70 99.60 L 94.40 100.70 L 92.20 101.40 L 90.80 101.30 L 87.70 100.00 L 83.50 96.70 L 78.20 90.70 L 80.70 92.60 L 84.90 94.30 L 87.50 94.50 L 89.30 94.30 L 93.40 92.60 L 95.30 91.20 L 97.40 89.00 L 99.70 86.00 L 103.80 78.40 L 106.00 72.80 Z" fill="#c3c5c4" fill-rule="nonzero" group-id="1,10" node-id="87" stroke="none" target-height="28.599998" target-width="27.800003" target-x="78.2" target-y="72.8"></path></g><g node-id="109"><path d="M 144.80 91.60 L 143.70 89.70 L 142.50 88.70 L 140.80 88.00 L 138.20 87.70 L 136.70 87.90 L 134.30 89.00 L 132.90 90.50 L 132.00 92.30 L 131.50 94.30 L 131.70 96.30 L 132.10 97.60 L 134.00 100.00 L 133.40 96.50 L 133.60 95.00 L 134.00 93.40 L 134.80 91.90 L 136.30 90.50 L 138.00 89.50 L 139.50 89.20 L 141.00 89.30 L 143.30 90.40 L 144.80 91.60 Z" fill="#c3c5c4" fill-opacity="0.54" fill-rule="nonzero" group-id="1,11" node-id="92" stroke="none" target-height="12.300003" target-width="13.300003" target-x="131.5" target-y="87.7"></path></g><path d="M 39.30 45.30 L 38.40 44.00 L 32.00 38.50 L 30.70 36.40 L 30.20 34.80 L 29.90 30.60 L 30.40 27.20 L 31.20 25.10 L 32.30 23.50 L 34.60 21.90 L 36.30 21.70 L 95.70 21.70 L 103.30 24.90 L 96.40 25.10 L 90.10 25.80 L 82.30 27.40 L 75.90 30.00 L 73.30 31.70 L 71.20 33.60 L 68.90 36.40 L 66.90 39.50 L 65.30 43.10 L 62.80 50.60 L 61.90 54.80 L 61.00 61.00 L 60.50 67.40 L 60.50 79.90 L 46.20 65.80 L 45.30 60.00 L 44.20 55.90 L 42.90 52.20 L 39.30 45.30 Z" fill="#ffffff" fill-opacity="0.52" fill-rule="nonzero" group-id="1,12" node-id="97" stroke="none" target-height="58.2" target-width="73.4" target-x="29.9" target-y="21.7"></path></g></svg>