<svg xmlns="http://www.w3.org/2000/svg" xml:space="preserve" id="a" x="0" y="0" version="1.1" viewBox="0 0 2048 2048"><style>.st0{fill:#88c4c3}.st1{fill:#688698}.st2{fill:#c8dddb}.st3{fill:#6e8e91}</style><path id="path1" d="M1862.7 529c0 16.7-10.7 30.9-25.6 36.2v355l-25.5 13.1V565.1c-14.9-5.3-25.6-19.5-25.6-36.2 0-21.2 17.2-38.4 38.4-38.4s38.3 17.3 38.3 38.5" class="st0"/><path id="polygon1" d="m977.6 1983.1 759.2-438.4 22.5 3.9-774.5 447.1z" class="st0"/><path id="rect1" d="M1303.6 299h32.8v290h-32.8z" class="st1" transform="rotate(-60 1320.02 443.968)"/><path id="polygon2" d="m600.9 1784.5-469.3-270.9 12.8-22 478.1 276z" class="st2"/><path id="path2" d="M1014.4 2008.6c-10.6 18.4-34 24.6-52.4 14.1-14.5-8.3-21.4-24.7-18.5-40.3L790 1893.8l6.8-25.5 159.4 92c12-10.3 29.6-12.5 44.1-4.1 18.4 10.6 24.7 34.1 14.1 52.4" class="st1"/><path id="polygon3" d="M1811.6 1418.9v-319.6l25.5 11.1v330.1z" class="st1"/><path id="path3" d="M1828 522.7 1002.7 46.2c1.7-8.9-2.3-18.2-10.6-23-10.5-6.1-23.9-2.5-29.9 8-6.1 10.5-2.5 23.9 8 29.9 8.3 4.8 18.3 3.5 25.2-2.3l825.3 476.5z" class="st2"/><path id="polygon4" d="M715.2 183.1 975.7 32.7l11 18.9-273.1 157.6z" class="st2"/><path id="polygon5" d="M1176.7 279.1 981.2 166.3 792.6 275.2l-31-53.7L981.2 94.7l226.4 130.8z" class="st0"/><path id="path5" d="m1509 460.5-19.2-11.1.1-.1 21.8-37.7 19.2 11.1-.1.1zm-37.9-21.9-19.2-11.2.1-.1 21.8-37.7 19.2 11.1-.1.2zm-37.9-21.9-19.3-11.1.1-.2 21.8-37.7 19.3 11.1-.1.1zm-37.8-21.8-19.2-11.1.1-.1 21.8-37.7 19.2 11.1-.1.1zm-37.9-21.9-19.2-11.2.1-.1 21.8-37.7 19.2 11.1-.1.2zm-37.9-21.9-19.2-11.1.1-.2 21.8-37.7 19.2 11.1-.1.1zm-37.8-21.8-19.3-11.1.1-.1 21.8-37.7 19.2 11.1-.1.1zm-37.9-21.9-19.2-11.2.1-.1 21.8-37.7 19.2 11.1-.1.2zm-37.9-21.9-19.2-11.1.1-.2 21.8-37.7 19.2 11.1-.1.1z" class="st1"/><path id="polygon6" d="m1531.6 420.9-23.7 41.1 216.3 124.8v173.3h47.3V559.5z" class="st1"/><path id="polygon7" d="M1762.4 1199.7h-29.1v-134.2l29.1 12.6z" class="st1"/><path id="path7" d="M1791.7 760.1c0 19.1-12.2 35.3-29.3 41.3v157l-29.2 14.9v-172c-17-6-29.3-22.2-29.3-41.3 0-24.2 19.6-43.8 43.8-43.8 24.3 0 44 19.7 44 43.9" class="st1"/><path id="polygon8" d="m1670.6 1524-18.2-31.5 30-17.4 14.3 33.8z" class="st0"/><path id="polygon9" d="M1729.6 1349.6v-149.9h36.5v180.7z" class="st0"/><path id="rect9" d="M1474 1527.5h201v61.9h-201z" class="st2" transform="rotate(-30 1574.389 1558.562)"/><path id="rect10" d="M1327 1637.2h172v29.2h-172z" class="st3" transform="rotate(-30 1412.867 1651.802)"/><path id="rect11" d="M1141.5 1716.6h211.1v61.9h-211.1z" class="st0" transform="rotate(-30 1246.973 1747.567)"/><path id="polygon11" d="m650.4 1745.8-81.4-47 31-53.6 103 59.5z" class="st1"/><path id="polygon12" d="m1171.1 1827.1-189.9 109.7-175.5-101.3 16.5-62 159 91.8 159-91.8z" class="st1"/><path id="path12" d="m569.2 1698.9-8.8-5.1.1-.2 30.9-53.5 8.8 5.1-.1.2zm-27.4-15.8-19.3-11.2.1-.1 30.9-53.5 19.3 11.1-.1.2zm-37.9-21.9-19.2-11.1.1-.2 30.9-53.5 19.2 11.1-.1.1zm-37.9-21.8-19.2-11.2.1-.1 30.9-53.5 19.2 11.1-.1.2zm-37.9-21.9-19.2-11.1.1-.2 30.9-53.5 19.2 11.1-.1.1zm-37.8-21.8-19.3-11.2.1-.1 30.9-53.5 19.3 11.1-.1.2zm-37.9-21.9-19.3-11.1.1-.2 30.9-53.5 19.3 11.1-.1.1zm-37.9-21.9-19.2-11.2.1-.1 30.9-53.5 19.2 11.1-.1.2z" class="st0"/><path id="polygon13" d="m295.4 1540.9-111.9-64.6V991.4h62v449.1l80.9 46.8z" class="st2"/><path id="rect13" d="M199.9 766.4h29.2v225h-29.2z" class="st1"/><path id="polygon14" d="M240 766.4h-51v-208l92.1-53.1 25.5 44.2-66.6 38.4z" class="st1"/><path id="rect14" d="M367.4 407.9h159.2v61.9H367.4z" class="st1" transform="rotate(-30 446.98 438.933)"/><path id="polygon15" d="m523.2 411.7-14.5-25.2 34.8-20.1 16.2 24.3z" class="st1"/><path id="polygon16" d="m709.8 270.4 60-34.7 14.6 25.2-76.9 44.4z" class="st1"/><path id="polygon17" d="m439.7 575.7-12.8-22.1L601 453.1l14.1 21.3z" class="st1"/><path id="polygon18" d="m701.9 394.8 22.7-13 12.7 22-37.3 21.6z" class="st1"/><path id="rect18" d="M303.8 882.7h25.5v302.8h-25.5z" class="st1"/><path id="path18" d="M345.3 884.2c0-15.9-12.9-28.8-28.8-28.8s-28.8 12.9-28.8 28.8 12.9 28.8 28.8 28.8c15.9-.1 28.8-13 28.8-28.8" class="st1"/><path id="polygon19" d="m369.9 1464-82.5-47.7v-230.8h58.3v197.2l53.4 30.8z" class="st0"/><path id="rect19" d="M466.7 1385h21.9v215.1h-21.9z" class="st3" transform="rotate(-60 477.63 1492.563)"/><path id="polygon20" d="m747.9 1669.5-186.2-107.4 18.2-31.6 198.9 114.8z" class="st2"/><path id="path20" d="M1151.7 1732.2c-14 8.1-30.7 7-43.3-1.4l-127.2 73.4-144.9-83.6 9.7-36.4 135.1 78 109-62.9c-1-15.1 6.4-30.1 20.4-38.2 19.6-11.3 44.8-4.6 56.2 15.1 11.4 19.5 4.6 44.7-15 56" class="st2"/><path id="rect20" d="M1148.7 1597.8H1418v21.9h-269.3z" class="st0" transform="rotate(-30 1283.272 1608.79)"/><path id="rect21" d="M1625.8 820h40.1v282.5h-40.1z" class="st3"/><path id="path21" d="M1483.2 523.5c2.9-15.5-4-31.9-18.5-40.3-18.3-10.6-41.8-4.3-52.4 14s-4.3 41.8 14 52.4c14.5 8.4 32.1 6.2 44.1-4.1l162.6 93.9V820h25.5V624.7z" class="st0"/><path id="polygon21" d="m744.6 416.5-27.3-47.4 263.9-152.3 226.9 131-27.3 47.3-199.6-115.2z" class="st3"/><path id="rect22" d="M382.3 624.7h162.8v21.9H382.3z" class="st0" transform="rotate(-30 463.617 635.614)"/><path id="path22" d="M415.1 676.3c0-12.1-9.8-21.9-21.9-21.9s-21.9 9.8-21.9 21.9c0 9.5 6.1 17.6 14.6 20.7v309.3h14.6V697c8.5-3.1 14.6-11.2 14.6-20.7" class="st2"/><path id="path23" d="m451.1 1399.3-19.2-11.2 9.1-15.7 19.2 11.1zm-37.9-21.9-19.2-11.1 9.1-15.8 19.2 11.1zm-10.9-37.4-18.2-.2.2-22 18 .2zm0-43.8-18.2-.2.2-22.1 18 .2zm0-43.7-18.2-.2.2-22.1 18 .2zm0-43.7-18.2-.2.2-22.1 18 .2zm0-43.8-18.2-.2.2-22.1 18 .2z" class="st1"/><path id="rect23" d="M681.5 1419.2h29.2v221.9h-29.2z" class="st1" transform="rotate(-60 696.057 1530.174)"/><path id="polygon23" d="m981.2 1703.2-109.1-63 7.2-12.7 101.9 58.8 165.9-95.8 7.3 12.6z" class="st1"/><path id="rect24" d="M1139.7 1540.9h165.5v29.2h-165.5z" class="st1" transform="rotate(-30 1222.353 1555.54)"/><path id="rect25" d="M1285 1465.1h137.2v29.2H1285z" class="st2" transform="rotate(-30 1353.478 1479.758)"/><path id="polygon25" d="m1503.5 1405.8-11-18.9 65.8-37.9v-246.4h21.8v259z" class="st0"/><path id="rect26" d="M1440 604.6h29.2v10.9H1440z" class="st0" transform="rotate(-60 1454.558 610.081)"/><path id="polygon26" d="m1452.2 625.6-.3-.2.1-.1 14.4-25.2.4.3-.1.1z" class="st0"/><path id="path26" d="m1552.6 683.6-.4-.3.1-.1 14.5-25.1.4.2zm-20.1-11.7-.2-.1-20.2-11.7.1-.2 14.5-25.1 20.4 11.8zm-40.1-23.1-.2-.1L1472 637l.1-.1 14.5-25.1.2.1 20.2 11.7-.1.2z" class="st0"/><path id="polygon27" d="M1554.6 676.3h2l10.4-18.1 16.8 9.7v19.3h-20.9l-1 1.7-2.9-1.7h-4.4v-2.5l-2.2-1.2 2.2-3.8z" class="st0"/><path id="polygon28" d="m1554.8 687.1 28.9.3-.1.1-29-.4z" class="st0"/><path id="path28" d="m1583.7 854.1-29.1-.5zm-.1-23.9-28.9-.2.2-24 28.9.2zm0-47.6-28.9-.2.2-24 28.9.2zm0-47.5-28.9-.2.2-24 28.9.2z" class="st0"/><path id="rect28" d="M1554.6 853.9h29.2v10.9h-29.2z" class="st0"/><path id="polygon29" d="M1331.7 549.7 981.2 347.3 775.6 466l-9.1-15.8 214.7-123.9 359.6 207.6z" class="st2"/><path id="polygon30" d="m826.3 1645.2-250 195.6L726 2020.9z" class="st3"/><path id="polygon31" d="m455.2 180.3 211 318.4 19.3-306.9z" class="st2"/><path id="polygon32" d="M1915.2 912.9 1704 1021.1l158.7 68.6z" class="st2"/><path id="polygon33" d="m1629.1 1293.3 96.3 227.2 217.5 38z" class="st0"/><path id="path33" d="M147.1 1476.8V529h-18.2v947.8c-10.6 3.8-18.3 13.9-18.3 25.8 0 15.1 12.3 27.4 27.4 27.4s27.4-12.3 27.4-27.4c0-11.9-7.6-22.1-18.3-25.8" class="st0"/><path id="path34" d="m515.3 323.7-345 199.2c2.5 13.3-3.5 27.4-15.9 34.5-15.7 9.1-35.8 3.7-44.9-12s-3.7-35.9 12.1-44.9c12.4-7.1 27.5-5.3 37.8 3.5l343.8-198.5z" class="st3"/></svg>