<svg xmlns="http://www.w3.org/2000/svg" viewBox="0 0 1024 1024"><path fill="#FD9" d="M997.961 762.493c0 31.698-25.94 57.616-57.637 57.616H83.668c-31.698 0-57.629-25.922-57.629-57.616V74.603c0-31.69 25.926-57.616 57.629-57.616h856.656c31.698 0 57.637 25.927 57.637 57.616z"/><path fill="#823D3D" d="M114.185 146.679c-23.268 0-42.205-18.932-42.205-42.2s18.933-42.2 42.205-42.2c23.268 0 42.2 18.932 42.2 42.2s-18.932 42.2-42.2 42.2m0-75.907c-18.588 0-33.711 15.123-33.711 33.707s15.123 33.706 33.71 33.706c18.585 0 33.707-15.122 33.707-33.706s-15.122-33.707-33.706-33.707"/><path fill="#823D3D" d="M153.777 146.679c-23.268 0-42.204-18.932-42.204-42.2s18.932-42.2 42.204-42.2c23.268 0 42.2 18.932 42.2 42.2s-18.932 42.2-42.2 42.2m0-75.907c-18.588 0-33.71 15.123-33.71 33.707s15.122 33.706 33.71 33.706c18.584 0 33.707-15.122 33.707-33.706s-15.123-33.707-33.707-33.707"/><path fill="#823D3D" d="M193.378 146.679c-23.268 0-42.2-18.932-42.2-42.2s18.932-42.2 42.2-42.2 42.205 18.932 42.205 42.2-18.937 42.2-42.205 42.2m0-75.907c-18.583 0-33.706 15.123-33.706 33.707s15.123 33.706 33.706 33.706c18.588 0 33.711-15.122 33.711-33.706s-15.123-33.707-33.71-33.707"/><path fill="#823D3D" d="M232.984 146.679c-23.268 0-42.2-18.932-42.2-42.2s18.932-42.2 42.2-42.2 42.204 18.932 42.204 42.2-18.936 42.2-42.204 42.2m0-75.907c-18.584 0-33.707 15.123-33.707 33.707s15.123 33.706 33.707 33.706c18.588 0 33.71-15.122 33.71-33.706s-15.122-33.707-33.71-33.707"/><path fill="#823D3D" d="M272.593 146.679c-23.268 0-42.2-18.932-42.2-42.2s18.932-42.2 42.2-42.2 42.204 18.932 42.204 42.2-18.936 42.2-42.204 42.2m0-75.907c-18.584 0-33.706 15.123-33.706 33.707s15.122 33.706 33.706 33.706c18.588 0 33.71-15.122 33.71-33.706s-15.122-33.707-33.71-33.707"/><path fill="#823D3D" d="M312.198 146.679c-23.268 0-42.204-18.932-42.204-42.2s18.932-42.2 42.204-42.2c23.268 0 42.2 18.932 42.2 42.2s-18.932 42.2-42.2 42.2m0-75.907c-18.588 0-33.71 15.123-33.71 33.707s15.122 33.706 33.71 33.706c18.584 0 33.707-15.122 33.707-33.706s-15.123-33.707-33.707-33.707"/><path fill="#823D3D" d="M351.791 146.679c-23.268 0-42.204-18.932-42.204-42.2s18.932-42.2 42.204-42.2c23.268 0 42.2 18.932 42.2 42.2s-18.932 42.2-42.2 42.2m0-75.907c-18.588 0-33.71 15.123-33.71 33.707s15.122 33.706 33.71 33.706c18.584 0 33.707-15.122 33.707-33.706s-15.123-33.707-33.707-33.707"/><path fill="#823D3D" d="M391.392 146.679c-23.268 0-42.2-18.932-42.2-42.2s18.932-42.2 42.2-42.2 42.204 18.932 42.204 42.2-18.936 42.2-42.204 42.2m0-75.907c-18.584 0-33.707 15.123-33.707 33.707s15.123 33.706 33.707 33.706c18.588 0 33.71-15.122 33.71-33.706s-15.126-33.707-33.71-33.707"/><path fill="#823D3D" d="M430.997 146.679c-23.268 0-42.2-18.932-42.2-42.2s18.932-42.2 42.2-42.2 42.205 18.932 42.205 42.2-18.937 42.2-42.205 42.2m0-75.907c-18.584 0-33.706 15.123-33.706 33.707s15.122 33.706 33.706 33.706c18.588 0 33.711-15.122 33.711-33.706s-15.123-33.707-33.71-33.707"/><path fill="#823D3D" d="M470.594 146.679c-23.268 0-42.2-18.932-42.2-42.2s18.932-42.2 42.2-42.2 42.204 18.932 42.204 42.2-18.936 42.2-42.204 42.2m0-75.907c-18.584 0-33.706 15.123-33.706 33.707s15.122 33.706 33.706 33.706c18.588 0 33.71-15.122 33.71-33.706s-15.122-33.707-33.71-33.707"/><path fill="#823D3D" d="M510.204 146.679c-23.268 0-42.205-18.932-42.205-42.2s18.932-42.2 42.205-42.2 42.2 18.932 42.2 42.2-18.928 42.2-42.2 42.2m0-75.907c-18.588 0-33.711 15.123-33.711 33.707s15.123 33.706 33.71 33.706c18.584 0 33.707-15.122 33.707-33.706s-15.123-33.707-33.706-33.707"/><path fill="#823D3D" d="M549.809 146.683c-23.272 0-42.209-18.932-42.209-42.208s18.937-42.209 42.209-42.209 42.204 18.932 42.204 42.209-18.928 42.208-42.204 42.208m0-75.923c-18.592 0-33.715 15.126-33.715 33.715s15.127 33.715 33.715 33.715 33.71-15.127 33.71-33.715-15.122-33.715-33.71-33.715"/><path fill="#823D3D" d="M589.406 146.679c-23.268 0-42.205-18.932-42.205-42.2s18.932-42.2 42.205-42.2 42.2 18.932 42.2 42.2-18.928 42.2-42.2 42.2m0-75.907c-18.588 0-33.711 15.123-33.711 33.707s15.123 33.706 33.71 33.706c18.585 0 33.707-15.122 33.707-33.706s-15.122-33.707-33.706-33.707"/><path fill="#823D3D" d="M629.015 146.683c-23.272 0-42.204-18.932-42.204-42.208s18.932-42.209 42.204-42.209 42.209 18.932 42.209 42.209-18.937 42.208-42.209 42.208m0-75.923c-18.588 0-33.71 15.126-33.71 33.715s15.126 33.715 33.71 33.715c18.593 0 33.715-15.127 33.715-33.715S647.608 70.76 629.015 70.76"/><path fill="#823D3D" d="M668.604 146.679c-23.268 0-42.2-18.932-42.2-42.2s18.927-42.2 42.2-42.2 42.204 18.932 42.204 42.2-18.936 42.2-42.204 42.2m0-75.907c-18.584 0-33.707 15.123-33.707 33.707s15.123 33.706 33.707 33.706c18.588 0 33.71-15.122 33.71-33.706s-15.122-33.707-33.71-33.707"/><path fill="#823D3D" d="M708.209 146.683c-23.272 0-42.209-18.932-42.209-42.208s18.937-42.209 42.209-42.209 42.204 18.932 42.204 42.209-18.928 42.208-42.204 42.208m0-75.923c-18.593 0-33.715 15.126-33.715 33.715s15.127 33.715 33.715 33.715 33.71-15.127 33.71-33.715-15.122-33.715-33.71-33.715"/><path fill="#823D3D" d="M747.797 146.679c-23.268 0-42.204-18.932-42.204-42.2s18.932-42.2 42.204-42.2 42.2 18.932 42.2 42.2-18.928 42.2-42.2 42.2m0-75.907c-18.588 0-33.71 15.123-33.71 33.707s15.122 33.706 33.71 33.706c18.584 0 33.707-15.122 33.707-33.706s-15.123-33.707-33.707-33.707"/><path fill="#823D3D" d="M787.398 146.683c-23.268 0-42.2-18.932-42.2-42.2.004-23.276 18.936-42.217 42.2-42.217 23.272 0 42.209 18.936 42.209 42.217 0 23.272-18.937 42.2-42.209 42.2m0-75.923c-18.58 0-33.702 15.126-33.706 33.723 0 18.584 15.122 33.707 33.706 33.707 18.592 0 33.715-15.123 33.715-33.707 0-18.592-15.127-33.723-33.715-33.723"/><path fill="#823D3D" d="M827.012 146.679c-23.268 0-42.2-18.932-42.2-42.2s18.928-42.2 42.2-42.2 42.204 18.932 42.204 42.2-18.936 42.2-42.204 42.2m0-75.907c-18.584 0-33.707 15.123-33.707 33.707s15.123 33.706 33.707 33.706c18.588 0 33.71-15.122 33.71-33.706s-15.122-33.707-33.71-33.707"/><path fill="#823D3D" d="M866.604 146.679c-23.268 0-42.2-18.932-42.2-42.2s18.928-42.2 42.2-42.2 42.205 18.932 42.205 42.2-18.937 42.2-42.205 42.2m0-75.907c-18.583 0-33.706 15.123-33.706 33.707s15.123 33.706 33.706 33.706c18.589 0 33.711-15.122 33.711-33.706s-15.122-33.707-33.71-33.707"/><path fill="#823D3D" d="M906.222 146.683c-23.272 0-42.204-18.932-42.204-42.2a41.9 41.9 0 0 1 12.354-29.842 41.94 41.94 0 0 1 29.85-12.362c23.268 0 42.2 18.932 42.2 42.204s-18.927 42.2-42.2 42.2m0-75.91a33.5 33.5 0 0 0-23.845 9.873 33.5 33.5 0 0 0-9.865 23.837c0 18.584 15.127 33.707 33.71 33.707 18.584 0 33.707-15.123 33.707-33.707 0-18.588-15.123-33.71-33.707-33.71M114.185 767.385c-23.272 0-42.209-18.936-42.209-42.208s18.937-42.209 42.209-42.209 42.204 18.936 42.204 42.209-18.932 42.208-42.204 42.208m0-75.928c-18.593 0-33.715 15.127-33.715 33.715s15.127 33.716 33.715 33.716 33.71-15.127 33.71-33.716-15.118-33.715-33.71-33.715"/><path fill="#823D3D" d="M153.777 767.385c-23.272 0-42.208-18.936-42.208-42.208s18.936-42.209 42.208-42.209 42.205 18.936 42.205 42.209-18.932 42.208-42.205 42.208m0-75.928c-18.592 0-33.715 15.127-33.715 33.715s15.127 33.716 33.715 33.716 33.711-15.127 33.711-33.716-15.118-33.715-33.71-33.715"/><path fill="#823D3D" d="M193.378 767.385c-23.272 0-42.204-18.936-42.204-42.208s18.932-42.209 42.204-42.209 42.209 18.936 42.209 42.209-18.936 42.208-42.209 42.208m0-75.928c-18.588 0-33.71 15.127-33.71 33.715s15.122 33.716 33.71 33.716c18.593 0 33.715-15.127 33.715-33.716s-15.127-33.715-33.715-33.715"/><path fill="#823D3D" d="M232.984 767.385c-23.273 0-42.205-18.936-42.205-42.208s18.932-42.209 42.205-42.209 42.208 18.936 42.208 42.209-18.936 42.208-42.208 42.208m0-75.928c-18.588 0-33.711 15.127-33.711 33.715s15.123 33.716 33.71 33.716c18.593 0 33.716-15.127 33.716-33.716s-15.123-33.715-33.715-33.715"/><path fill="#823D3D" d="M272.593 767.385c-23.272 0-42.204-18.936-42.204-42.208s18.932-42.209 42.204-42.209 42.209 18.936 42.209 42.209-18.937 42.208-42.209 42.208m0-75.928c-18.588 0-33.71 15.127-33.71 33.715s15.122 33.716 33.71 33.716c18.592 0 33.715-15.127 33.715-33.716s-15.123-33.715-33.715-33.715"/><path fill="#823D3D" d="M312.198 767.385c-23.272 0-42.208-18.936-42.208-42.208s18.936-42.209 42.208-42.209 42.205 18.936 42.205 42.209-18.932 42.208-42.205 42.208m0-75.928c-18.592 0-33.715 15.127-33.715 33.715s15.127 33.716 33.715 33.716 33.711-15.127 33.711-33.716-15.122-33.715-33.71-33.715"/><path fill="#823D3D" d="M351.791 767.385c-23.272 0-42.209-18.936-42.209-42.208s18.937-42.209 42.209-42.209 42.204 18.936 42.204 42.209-18.932 42.208-42.204 42.208m0-75.928c-18.592 0-33.715 15.127-33.715 33.715s15.127 33.716 33.715 33.716 33.71-15.127 33.71-33.716-15.118-33.715-33.71-33.715"/><path fill="#823D3D" d="M391.392 767.385c-23.272 0-42.204-18.936-42.204-42.208s18.932-42.209 42.204-42.209 42.209 18.936 42.209 42.209-18.937 42.208-42.209 42.208m0-75.928c-18.588 0-33.71 15.127-33.71 33.715s15.122 33.716 33.71 33.716c18.592 0 33.715-15.127 33.715-33.716s-15.127-33.715-33.715-33.715"/><path fill="#823D3D" d="M430.997 767.385c-23.272 0-42.204-18.936-42.204-42.208s18.932-42.209 42.204-42.209 42.209 18.936 42.209 42.209-18.936 42.208-42.209 42.208m0-75.928c-18.588 0-33.71 15.127-33.71 33.715s15.122 33.716 33.71 33.716c18.593 0 33.715-15.127 33.715-33.716s-15.122-33.715-33.715-33.715"/><path fill="#823D3D" d="M470.594 767.385c-23.272 0-42.204-18.936-42.204-42.208s18.932-42.209 42.204-42.209 42.209 18.936 42.209 42.209-18.937 42.208-42.209 42.208m0-75.928c-18.588 0-33.71 15.127-33.71 33.715s15.122 33.716 33.71 33.716c18.592 0 33.715-15.127 33.715-33.716s-15.123-33.715-33.715-33.715"/><path fill="#823D3D" d="M510.204 767.385c-23.273 0-42.209-18.936-42.209-42.208s18.936-42.209 42.209-42.209 42.204 18.936 42.204 42.209-18.928 42.208-42.204 42.208m0-75.928c-18.593 0-33.715 15.127-33.715 33.715s15.127 33.716 33.715 33.716 33.71-15.127 33.71-33.716-15.122-33.715-33.71-33.715"/><path fill="#823D3D" d="M549.809 767.385c-23.272 0-42.209-18.936-42.209-42.208s18.937-42.209 42.209-42.209 42.204 18.936 42.204 42.209-18.928 42.208-42.204 42.208m0-75.928c-18.592 0-33.715 15.127-33.715 33.715s15.127 33.716 33.715 33.716 33.71-15.127 33.71-33.716-15.122-33.715-33.71-33.715"/><path fill="#823D3D" d="M589.406 767.385c-23.273 0-42.209-18.936-42.209-42.208s18.936-42.209 42.209-42.209 42.204 18.936 42.204 42.209-18.928 42.208-42.204 42.208m0-75.928c-18.593 0-33.715 15.127-33.715 33.715s15.127 33.716 33.715 33.716 33.71-15.127 33.71-33.716-15.122-33.715-33.71-33.715"/><path fill="#823D3D" d="M629.015 767.385c-23.272 0-42.204-18.936-42.204-42.208s18.932-42.209 42.204-42.209 42.209 18.936 42.209 42.209-18.937 42.208-42.209 42.208m0-75.928c-18.588 0-33.71 15.127-33.71 33.715s15.126 33.716 33.71 33.716c18.593 0 33.715-15.127 33.715-33.716s-15.122-33.715-33.715-33.715"/><path fill="#823D3D" d="M668.604 767.385c-23.273 0-42.205-18.936-42.205-42.208s18.932-42.209 42.205-42.209 42.208 18.936 42.208 42.209-18.936 42.208-42.208 42.208m0-75.928c-18.589 0-33.711 15.127-33.711 33.715s15.127 33.716 33.71 33.716c18.593 0 33.716-15.127 33.716-33.716s-15.123-33.715-33.715-33.715"/><path fill="#823D3D" d="M708.209 767.385c-23.272 0-42.209-18.936-42.209-42.208s18.937-42.209 42.209-42.209 42.204 18.936 42.204 42.209-18.928 42.208-42.204 42.208m0-75.928c-18.593 0-33.715 15.127-33.715 33.715s15.127 33.716 33.715 33.716 33.71-15.127 33.71-33.716-15.122-33.715-33.71-33.715"/><path fill="#823D3D" d="M747.797 767.385c-23.272 0-42.208-18.936-42.208-42.208s18.936-42.209 42.208-42.209 42.204 18.936 42.204 42.209-18.927 42.208-42.204 42.208m0-75.928c-18.592 0-33.715 15.127-33.715 33.715s15.127 33.716 33.715 33.716 33.71-15.127 33.71-33.716-15.122-33.715-33.71-33.715"/><path fill="#823D3D" d="M787.398 767.385c-23.268 0-42.2-18.936-42.2-42.213.004-23.272 18.936-42.204 42.2-42.204 23.272 0 42.209 18.932 42.209 42.204 0 23.277-18.937 42.213-42.209 42.213m0-75.928c-18.58 0-33.702 15.127-33.706 33.711 0 18.593 15.122 33.72 33.706 33.72 18.592 0 33.715-15.127 33.715-33.72 0-18.584-15.127-33.71-33.715-33.71"/><path fill="#823D3D" d="M827.012 767.385c-23.272 0-42.204-18.936-42.204-42.208s18.932-42.209 42.204-42.209 42.208 18.936 42.208 42.209-18.936 42.208-42.208 42.208m0-75.928c-18.588 0-33.71 15.127-33.71 33.715s15.126 33.716 33.71 33.716c18.592 0 33.715-15.127 33.715-33.716s-15.123-33.715-33.715-33.715"/><path fill="#823D3D" d="M866.604 767.385c-23.272 0-42.204-18.936-42.204-42.208s18.932-42.209 42.204-42.209 42.209 18.936 42.209 42.209-18.936 42.208-42.209 42.208m0-75.928c-18.588 0-33.71 15.127-33.71 33.715s15.127 33.716 33.71 33.716c18.593 0 33.715-15.127 33.715-33.716s-15.122-33.715-33.715-33.715"/><path fill="#823D3D" d="M906.222 767.385c-23.272 0-42.208-18.936-42.208-42.208s18.936-42.209 42.208-42.209 42.209 18.936 42.209 42.209-18.936 42.208-42.209 42.208m0-75.928c-18.592 0-33.715 15.127-33.715 33.715s15.127 33.716 33.715 33.716 33.716-15.127 33.716-33.716-15.123-33.715-33.716-33.715M114.185 183.613c-23.268 0-42.205-18.932-42.205-42.2s18.933-42.2 42.205-42.2c23.268 0 42.2 18.932 42.2 42.2s-18.932 42.2-42.2 42.2m0-75.907c-18.588 0-33.711 15.123-33.711 33.707s15.123 33.706 33.71 33.706c18.585 0 33.707-15.122 33.707-33.706s-15.122-33.707-33.706-33.707"/><path fill="#823D3D" d="M114.185 222.59c-23.272 0-42.209-18.932-42.209-42.209s18.937-42.208 42.209-42.208 42.204 18.932 42.204 42.208-18.932 42.209-42.204 42.209m0-75.924c-18.593 0-33.715 15.127-33.715 33.715s15.127 33.715 33.715 33.715 33.71-15.127 33.71-33.715-15.118-33.715-33.71-33.715"/><path fill="#823D3D" d="M114.185 261.562c-23.272 0-42.205-18.932-42.205-42.204s18.933-42.204 42.205-42.204c23.268 0 42.204 18.932 42.204 42.204s-18.932 42.204-42.204 42.204m0-75.915c-18.588 0-33.711 15.123-33.711 33.71s15.123 33.712 33.71 33.712 33.712-15.123 33.712-33.711-15.123-33.71-33.711-33.71"/><path fill="#823D3D" d="M114.185 300.535c-23.272 0-42.209-18.932-42.209-42.209s18.937-42.208 42.209-42.208 42.204 18.932 42.204 42.208-18.932 42.209-42.204 42.209m0-75.924c-18.593 0-33.715 15.127-33.715 33.715s15.127 33.715 33.715 33.715 33.71-15.127 33.71-33.715-15.118-33.715-33.71-33.715"/><path fill="#823D3D" d="M114.185 339.503c-23.272 0-42.205-18.932-42.205-42.204s18.933-42.205 42.205-42.205c23.268 0 42.204 18.932 42.204 42.205s-18.932 42.204-42.204 42.204m0-75.915c-18.588 0-33.711 15.123-33.711 33.71s15.123 33.711 33.71 33.711 33.712-15.122 33.712-33.71-15.123-33.711-33.711-33.711"/><path fill="#823D3D" d="M114.185 378.463c-23.272 0-42.205-18.932-42.205-42.205s18.933-42.204 42.205-42.204c23.268 0 42.204 18.932 42.204 42.204s-18.932 42.205-42.204 42.205m0-75.915c-18.588 0-33.711 15.122-33.711 33.71s15.123 33.711 33.71 33.711 33.712-15.122 33.712-33.71-15.123-33.711-33.711-33.711"/><path fill="#823D3D" d="M114.185 417.448c-23.277 0-42.213-18.936-42.213-42.213s18.936-42.213 42.213-42.213c23.272 0 42.208 18.937 42.208 42.213s-18.932 42.213-42.208 42.213m0-75.932c-18.593 0-33.72 15.127-33.72 33.72s15.127 33.718 33.72 33.718 33.715-15.126 33.715-33.719-15.123-33.72-33.715-33.72"/><path fill="#823D3D" d="M114.185 456.416c-23.272 0-42.209-18.932-42.209-42.208s18.937-42.209 42.209-42.209 42.204 18.932 42.204 42.209-18.932 42.208-42.204 42.208m0-75.923c-18.593 0-33.715 15.127-33.715 33.715s15.127 33.715 33.715 33.715 33.71-15.127 33.71-33.715-15.118-33.715-33.71-33.715"/><path fill="#823D3D" d="M114.185 495.38c-23.272 0-42.205-18.932-42.205-42.204s18.933-42.204 42.205-42.204c23.268 0 42.204 18.932 42.204 42.204s-18.932 42.204-42.204 42.204m0-75.915c-18.588 0-33.711 15.123-33.711 33.711s15.123 33.71 33.71 33.71 33.712-15.122 33.712-33.71-15.123-33.71-33.711-33.71"/><path fill="#823D3D" d="M114.185 534.336c-23.268 0-42.205-18.932-42.205-42.204 0-23.268 18.933-42.2 42.205-42.2 23.268 0 42.2 18.932 42.2 42.2 0 23.272-18.932 42.204-42.2 42.204m0-75.907c-18.588 0-33.711 15.123-33.711 33.707 0 18.588 15.123 33.71 33.71 33.71 18.585 0 33.707-15.122 33.707-33.71 0-18.584-15.122-33.707-33.706-33.707"/><path fill="#823D3D" d="M114.185 573.321c-23.272 0-42.209-18.936-42.209-42.208s18.937-42.205 42.209-42.205 42.204 18.932 42.204 42.205c.004 23.272-18.932 42.208-42.204 42.208m0-75.923c-18.593 0-33.715 15.122-33.715 33.71 0 18.593 15.127 33.715 33.715 33.715s33.71-15.127 33.71-33.715c.005-18.588-15.118-33.71-33.71-33.71"/><path fill="#823D3D" d="M114.185 612.285c-23.272 0-42.205-18.932-42.205-42.204s18.933-42.204 42.205-42.204c23.268 0 42.204 18.932 42.204 42.204s-18.932 42.204-42.204 42.204m0-75.915c-18.588 0-33.711 15.127-33.711 33.71s15.123 33.712 33.71 33.712 33.712-15.123 33.712-33.711-15.123-33.711-33.711-33.711"/><path fill="#823D3D" d="M114.185 651.27c-23.272 0-42.205-18.932-42.205-42.204s18.933-42.204 42.205-42.204c23.268 0 42.204 18.932 42.204 42.204s-18.932 42.204-42.204 42.204m0-75.919c-18.588 0-33.711 15.127-33.711 33.71s15.123 33.712 33.71 33.712 33.712-15.127 33.712-33.711-15.123-33.711-33.711-33.711"/><path fill="#823D3D" d="M114.185 690.222c-23.272 0-42.205-18.932-42.205-42.205s18.933-42.204 42.205-42.204c23.268 0 42.204 18.932 42.204 42.204s-18.932 42.205-42.204 42.205m0-75.911c-18.588 0-33.711 15.123-33.711 33.71s15.123 33.711 33.71 33.711 33.712-15.122 33.712-33.71-15.123-33.711-33.711-33.711"/><path fill="#823D3D" d="M114.185 729.211c-23.272 0-42.205-18.932-42.205-42.204 0-23.268 18.933-42.204 42.205-42.204 23.268 0 42.204 18.932 42.204 42.204s-18.932 42.204-42.204 42.204m0-75.915c-18.588 0-33.711 15.123-33.711 33.71s15.123 33.712 33.71 33.712 33.712-15.127 33.712-33.711-15.123-33.71-33.711-33.71m792.037-469.684c-23.272 0-42.204-18.932-42.204-42.2a41.92 41.92 0 0 1 12.354-29.842 41.94 41.94 0 0 1 29.85-12.362c23.268 0 42.2 18.932 42.2 42.204 0 23.268-18.927 42.2-42.2 42.2m0-75.91a33.52 33.52 0 0 0-23.845 9.873 33.5 33.5 0 0 0-9.865 23.837c0 18.584 15.127 33.706 33.71 33.706 18.584 0 33.707-15.122 33.707-33.706 0-18.588-15.123-33.71-33.707-33.71"/><path fill="#823D3D" d="M906.222 222.59c-23.272 0-42.208-18.932-42.208-42.209s18.936-42.208 42.208-42.208 42.209 18.932 42.209 42.208-18.936 42.209-42.209 42.209m0-75.924c-18.592 0-33.715 15.127-33.715 33.715s15.127 33.715 33.715 33.715 33.716-15.127 33.716-33.715-15.123-33.715-33.716-33.715"/><path fill="#823D3D" d="M906.222 261.566c-23.272 0-42.204-18.932-42.204-42.204a41.9 41.9 0 0 1 12.354-29.842 41.94 41.94 0 0 1 29.85-12.362c23.268 0 42.2 18.932 42.2 42.204s-18.927 42.204-42.2 42.204m0-75.915a33.5 33.5 0 0 0-23.845 9.874 33.5 33.5 0 0 0-9.865 23.837c0 18.588 15.127 33.71 33.71 33.71 18.584 0 33.707-15.122 33.707-33.71s-15.123-33.71-33.707-33.71"/><path fill="#823D3D" d="M906.222 300.535c-23.272 0-42.208-18.932-42.208-42.209s18.936-42.208 42.208-42.208 42.209 18.932 42.209 42.208-18.936 42.209-42.209 42.209m0-75.924c-18.592 0-33.715 15.127-33.715 33.715s15.127 33.715 33.715 33.715 33.716-15.127 33.716-33.715-15.123-33.715-33.716-33.715"/><path fill="#823D3D" d="M906.222 339.503c-23.272 0-42.204-18.932-42.204-42.204s18.932-42.205 42.204-42.205 42.205 18.932 42.205 42.205-18.932 42.204-42.205 42.204m0-75.915c-18.588 0-33.71 15.123-33.71 33.71s15.127 33.711 33.71 33.711 33.711-15.122 33.711-33.71-15.122-33.711-33.71-33.711"/><path fill="#823D3D" d="M906.222 378.467c-23.272 0-42.204-18.932-42.204-42.204a41.92 41.92 0 0 1 12.354-29.847 41.95 41.95 0 0 1 29.85-12.358c23.268 0 42.2 18.932 42.2 42.205s-18.927 42.204-42.2 42.204m0-75.915a33.52 33.52 0 0 0-23.845 9.87 33.5 33.5 0 0 0-9.865 23.84c0 18.589 15.127 33.711 33.71 33.711 18.584 0 33.707-15.122 33.707-33.71s-15.123-33.711-33.707-33.711"/><path fill="#823D3D" d="M906.222 417.448c-23.276 0-42.212-18.936-42.212-42.213s18.936-42.213 42.212-42.213 42.213 18.937 42.213 42.213-18.936 42.213-42.213 42.213m0-75.932c-18.592 0-33.719 15.127-33.719 33.72s15.127 33.718 33.72 33.718 33.719-15.126 33.719-33.719-15.127-33.72-33.72-33.72"/><path fill="#823D3D" d="M906.222 456.416c-23.272 0-42.208-18.932-42.208-42.208s18.936-42.209 42.208-42.209 42.209 18.932 42.209 42.209-18.936 42.208-42.209 42.208m0-75.923c-18.592 0-33.715 15.127-33.715 33.715s15.127 33.715 33.715 33.715 33.716-15.127 33.716-33.715-15.123-33.715-33.716-33.715"/><path fill="#823D3D" d="M906.222 495.38c-23.272 0-42.204-18.932-42.204-42.204a41.92 41.92 0 0 1 12.354-29.842 41.95 41.95 0 0 1 29.85-12.358c23.268 0 42.2 18.932 42.2 42.2 0 23.272-18.927 42.204-42.2 42.204m0-75.91a33.5 33.5 0 0 0-23.845 9.873 33.5 33.5 0 0 0-9.865 23.833c0 18.588 15.127 33.71 33.71 33.71 18.584 0 33.707-15.122 33.707-33.71s-15.123-33.707-33.707-33.707"/><path fill="#823D3D" d="M906.222 534.34c-23.272 0-42.204-18.932-42.204-42.204a41.92 41.92 0 0 1 12.354-29.838 41.95 41.95 0 0 1 29.85-12.362c23.268 0 42.2 18.932 42.2 42.2 0 23.272-18.927 42.204-42.2 42.204m0-75.91a33.52 33.52 0 0 0-23.845 9.873 33.5 33.5 0 0 0-9.865 23.833c0 18.588 15.127 33.71 33.71 33.71 18.584 0 33.707-15.122 33.707-33.71 0-18.584-15.123-33.707-33.707-33.707"/><path fill="#823D3D" d="M906.222 573.321c-23.272 0-42.208-18.936-42.208-42.208s18.936-42.205 42.208-42.205 42.209 18.932 42.209 42.205-18.936 42.208-42.209 42.208m0-75.923c-18.592 0-33.715 15.122-33.715 33.71 0 18.593 15.127 33.715 33.715 33.715s33.716-15.127 33.716-33.715-15.123-33.71-33.716-33.71"/><path fill="#823D3D" d="M906.222 612.285c-23.272 0-42.204-18.932-42.204-42.204a41.9 41.9 0 0 1 12.354-29.838 41.93 41.93 0 0 1 29.85-12.366c23.268 0 42.2 18.932 42.2 42.204s-18.927 42.204-42.2 42.204m0-75.915a33.5 33.5 0 0 0-23.84 9.878 33.48 33.48 0 0 0-9.87 23.833c0 18.588 15.127 33.71 33.71 33.71 18.584 0 33.707-15.122 33.707-33.71s-15.123-33.711-33.707-33.711"/><path fill="#823D3D" d="M906.222 651.27c-23.272 0-42.204-18.932-42.204-42.204s18.932-42.204 42.204-42.204 42.205 18.932 42.205 42.204-18.932 42.204-42.205 42.204m0-75.919c-18.588 0-33.71 15.127-33.71 33.71s15.127 33.712 33.71 33.712 33.711-15.127 33.711-33.711-15.122-33.711-33.71-33.711"/><path fill="#823D3D" d="M906.222 690.222c-23.272 0-42.204-18.928-42.204-42.2-.004-11.271 4.383-21.871 12.354-29.842s18.571-12.363 29.85-12.363c23.268 0 42.2 18.932 42.2 42.205s-18.927 42.2-42.2 42.2m0-75.911c-9.007 0-17.475 3.508-23.84 9.874s-9.87 14.833-9.87 23.837c0 18.583 15.127 33.706 33.71 33.706 18.584 0 33.707-15.123 33.707-33.706s-15.123-33.711-33.707-33.711"/><path fill="#823D3D" d="M906.222 729.211c-23.272 0-42.204-18.932-42.204-42.204 0-23.268 18.932-42.204 42.204-42.204s42.205 18.932 42.205 42.204-18.932 42.204-42.205 42.204m0-75.915c-18.588 0-33.71 15.123-33.71 33.71s15.127 33.712 33.71 33.712 33.711-15.127 33.711-33.711-15.122-33.71-33.71-33.71"/><path fill="#FFF8EB" d="M145.934 115.873a24.996 24.996 0 0 0-24.971 24.97v546.95a24.996 24.996 0 0 0 24.97 24.97H871.91a25 25 0 0 0 24.975-24.97V140.84a25.005 25.005 0 0 0-24.975-24.976H145.934z"/><path fill="#6E6E96" d="M871.909 729.75H145.934c-23.137 0-41.958-18.821-41.958-41.957v-546.95c0-23.136 18.821-41.957 41.958-41.957l725.975-.009c23.136 0 41.962 18.826 41.962 41.963v546.953c0 23.136-18.826 41.957-41.962 41.957M145.934 132.851c-4.4 0-7.984 3.589-7.984 7.993v546.949c0 4.4 3.58 7.983 7.984 7.983h725.975a7.997 7.997 0 0 0 7.988-7.983V140.84a7.997 7.997 0 0 0-7.988-7.989z"/><path fill="#5A534A" d="M296.405 200.6v12.473h-5.844c-.705-3.232-1.788-5.619-3.27-7.16-1.499-1.533-3.448-2.302-5.856-2.302-4.523 0-7.959 2.174-10.286 6.527-2.318 4.345-3.482 10.787-3.482 19.331 0 7.95 1.053 13.968 3.185 18.053 2.123 4.082 5.228 6.124 9.326 6.124 2.102 0 3.805-.352 5.13-1.053 1.312-.705 2.374-1.754 3.164-3.16.79-1.405 1.47-3.384 2.047-5.945h5.898v13.042c-3.155.747-6.034 1.29-8.65 1.635a62 62 0 0 1-8.137.518c-5.958 0-10.833-1.079-14.6-3.236q-5.657-3.23-8.345-9.734c-1.788-4.34-2.697-9.852-2.697-16.498 0-6.226 1.053-11.64 3.168-16.236 2.107-4.603 5.211-8.162 9.305-10.655 4.106-2.501 9.007-3.746 14.715-3.746 2.896 0 5.516.162 7.87.48 2.352.306 4.802.837 7.359 1.542m50.455-1.338v13.688h-5.89c-.951-2.718-1.75-4.566-2.4-5.53a7.7 7.7 0 0 0-2.373-2.272c-.926-.565-2.48-.836-4.689-.836h-9.385v20.656h5.682q1.899 0 2.956-.548c.722-.357 1.317-.955 1.788-1.78.476-.84.93-2.127 1.346-3.877h4.863v17.463h-4.863c-.395-1.656-.845-2.922-1.325-3.797a4.6 4.6 0 0 0-1.741-1.877c-.68-.365-1.682-.56-3.036-.56h-5.67v22.966h9.33c1.007 0 1.852-.072 2.536-.19.692-.124 1.32-.345 1.855-.663a6.7 6.7 0 0 0 1.567-1.287 10.8 10.8 0 0 0 1.325-1.767c.387-.628.799-1.465 1.224-2.497.441-1.032.908-2.45 1.422-4.26h5.895l-.82 15.697h-42.285v-2.833c1.074-.289 1.907-.603 2.527-.934a3.2 3.2 0 0 0 1.376-1.376c.293-.582.488-1.33.582-2.23.089-.896.131-2.038.131-3.418v-37.092a49 49 0 0 0-.106-3.384 5.9 5.9 0 0 0-.556-2.234 3.5 3.5 0 0 0-1.376-1.401 10.3 10.3 0 0 0-2.565-.969v-2.845zm30.802 58.724h-22.588v-2.832c1.057-.28 1.902-.595 2.514-.926a3.16 3.16 0 0 0 1.372-1.376c.293-.59.488-1.33.581-2.238.09-.9.132-2.043.132-3.414v-37.087c0-1.347-.038-2.485-.102-3.398a6 6 0 0 0-.565-2.22 3.45 3.45 0 0 0-1.371-1.415 11.4 11.4 0 0 0-2.566-.964v-2.837h25.07c3.4 0 6.276.234 8.633.714a21.8 21.8 0 0 1 6.217 2.178 13 13 0 0 1 3.788 3.032 13.1 13.1 0 0 1 2.387 4.264c.556 1.622.832 3.5.832 5.657 0 2.807-.492 5.22-1.482 7.224a14.4 14.4 0 0 1-3.992 5.02c-1.682 1.333-3.932 2.581-6.74 3.753v.442c2.137.917 3.878 2.14 5.275 3.678 1.393 1.529 2.637 3.474 3.763 5.83l2.718 5.848c1.193 2.604 2.395 4.566 3.58 5.865 1.193 1.308 2.611 2.11 4.246 2.391v2.841h-16.558c-1.66-2.297-3.542-5.712-5.631-10.239l-3.355-7.35c-1.006-2.184-1.864-3.734-2.586-4.651-.718-.917-1.453-1.546-2.213-1.894s-1.92-.518-3.508-.518H373v13.853c0 2.157.09 3.665.298 4.522a3.86 3.86 0 0 0 1.15 2.064c.586.51 1.64.986 3.194 1.38v2.829h.013v-.017h.004v-.009zm-4.658-53.594v23.905h4.272c2.285 0 4.183-.31 5.673-.925 1.487-.62 2.676-1.474 3.555-2.574.87-1.1 1.465-2.404 1.8-3.894.323-1.5.497-3.13.497-4.905 0-3.89-.921-6.816-2.747-8.77-1.852-1.94-4.57-2.917-8.184-2.917-2.454-.005-4.085.03-4.866.08m48.922 53.594v-2.832a11 11 0 0 0 2.858-.794 3.5 3.5 0 0 0 1.576-1.393q.53-.913.645-2.302a39 39 0 0 0 .136-3.465v-42.888h-3.49c-1.712 0-3.033.195-3.954.607a6.1 6.1 0 0 0-2.396 1.898c-.662.85-1.235 2.013-1.728 3.453a48 48 0 0 0-1.206 4.11h-5.89v-15.105h50.63v15.106h-5.89a86 86 0 0 0-1.292-4.302 11.7 11.7 0 0 0-1.061-2.34 7.5 7.5 0 0 0-1.228-1.614c-.429-.442-.883-.773-1.371-1.036s-1.092-.45-1.835-.582a17 17 0 0 0-2.858-.187h-3.104v42.888c0 1.508.05 2.667.135 3.466q.134 1.171.476 1.898a3.6 3.6 0 0 0 .837 1.189c.322.301.781.573 1.363.811.586.246 1.38.446 2.387.586v2.837h-23.744v-.009zm62.067-10.795c0 .998.03 1.924.085 2.79.076.87.174 1.567.365 2.115a3.6 3.6 0 0 0 .751 1.38 4.4 4.4 0 0 0 1.347.969q.858.407 2.098.713v2.833h-22.576v-2.833c1.061-.28 1.898-.594 2.514-.926a3.25 3.25 0 0 0 1.372-1.376c.293-.581.492-1.329.581-2.23s.124-2.05.124-3.414v-37.129c0-1.376-.039-2.506-.102-3.406a6.1 6.1 0 0 0-.561-2.208 3.33 3.33 0 0 0-1.38-1.406 12 12 0 0 0-2.557-.943v-2.845h22.585v2.845c-1.181.319-2.039.654-2.6 1.011a3.63 3.63 0 0 0-1.265 1.317 5.6 5.6 0 0 0-.607 2.017 29 29 0 0 0-.162 3.66v37.07zm30.818 0c0 1.508.043 2.667.128 3.466.08.785.23 1.414.467 1.902a3.7 3.7 0 0 0 .837 1.19c.318.3.798.572 1.367.81.59.247 1.38.446 2.387.582v2.841h-23.128v-2.84a10.4 10.4 0 0 0 2.505-.901 3.36 3.36 0 0 0 1.385-1.402c.284-.573.475-1.333.569-2.246a37 37 0 0 0 .136-3.44v-37.045c0-1.342-.047-2.475-.11-3.384a6.1 6.1 0 0 0-.561-2.238 3.65 3.65 0 0 0-1.393-1.393 10 10 0 0 0-2.548-.968v-2.846h41.597v13.688h-5.89c-.943-2.718-1.754-4.557-2.4-5.53a7.5 7.5 0 0 0-2.378-2.272c-.913-.565-2.476-.84-4.688-.84h-8.294v21.896h5.508c1.35 0 2.39-.2 3.117-.625.73-.42 1.325-1.104 1.809-2.085.463-.977.862-2.352 1.172-4.14h4.863v18.762h-4.863c-.335-1.792-.756-3.206-1.253-4.187-.471-1.003-1.078-1.682-1.796-2.098-.726-.395-1.746-.6-3.058-.6h-5.508v15.943zm48.55 0c0 .998.02 1.924.088 2.79.051.87.17 1.567.349 2.115a4.1 4.1 0 0 0 .734 1.38c.336.366.799.693 1.364.969s1.295.51 2.11.713v2.833h-22.592v-2.833c1.061-.28 1.906-.594 2.522-.926a3.2 3.2 0 0 0 1.372-1.376c.301-.581.492-1.329.594-2.23.09-.9.12-2.05.12-3.414v-37.129c0-1.376-.043-2.506-.107-3.406a5.9 5.9 0 0 0-.573-2.208 3.3 3.3 0 0 0-1.372-1.406 12 12 0 0 0-2.56-.943v-2.845h22.58v2.845q-1.758.477-2.591 1.011a3.74 3.74 0 0 0-1.279 1.317 5.7 5.7 0 0 0-.603 2.017 29 29 0 0 0-.174 3.66v37.07zm55.585-46.591v12.473h-5.852c-.7-3.232-1.78-5.619-3.27-7.16-1.49-1.533-3.452-2.302-5.848-2.302-4.522 0-7.937 2.174-10.294 6.527-2.314 4.345-3.465 10.787-3.465 19.331 0 7.95 1.066 13.968 3.18 18.053 2.133 4.082 5.228 6.124 9.348 6.124q3.14 0 5.121-1.053c1.321-.705 2.379-1.754 3.168-3.16.782-1.405 1.466-3.384 2.035-5.945h5.89v13.042c-3.155.747-6.052 1.29-8.655 1.635a62 62 0 0 1-8.128.518c-5.967 0-10.85-1.079-14.6-3.236-3.772-2.153-6.562-5.398-8.358-9.734-1.784-4.34-2.688-9.852-2.688-16.498q.002-9.34 3.176-16.236c2.102-4.603 5.198-8.162 9.3-10.655 4.111-2.501 8.995-3.746 14.703-3.746 2.917 0 5.533.162 7.878.48 2.348.306 4.803.837 7.36 1.542m38.365 39.193H638.94l-1.419 4.077a34 34 0 0 0-.985 3.338 14.8 14.8 0 0 0-.39 3.419c0 2.811 1.499 4.319 4.476 4.518v2.837h-18.376v-2.837c1.053-.114 2.004-.48 2.79-1.117.811-.637 1.533-1.494 2.2-2.577.658-1.083 1.359-2.663 2.115-4.693l17.934-47.789h11.487l14.197 48.188c.624 2.14 1.16 3.678 1.58 4.57.442.913.99 1.639 1.686 2.2.684.56 1.656.968 2.892 1.227v2.84h-23.752v-2.84c1.49-.162 2.603-.586 3.312-1.249.718-.658 1.075-1.596 1.075-2.794 0-.892-.106-1.898-.302-2.973a43 43 0 0 0-.99-4.123zm-16.732-5.045h15.484l-6.88-24.22zm48.655 23.238v-2.832a11.3 11.3 0 0 0 2.858-.794 3.4 3.4 0 0 0 1.567-1.393 5.2 5.2 0 0 0 .625-2.302c.093-.943.14-2.094.14-3.465v-42.888h-3.487c-1.711 0-3.049.195-3.962.607a6.1 6.1 0 0 0-2.387 1.898c-.658.85-1.24 2.013-1.737 3.453a48 48 0 0 0-1.201 4.11h-5.9v-15.105h50.64v15.106h-5.9c-.556-1.95-.976-3.38-1.303-4.302a11.5 11.5 0 0 0-1.05-2.34 8.5 8.5 0 0 0-1.21-1.614 5.9 5.9 0 0 0-1.384-1.036 6 6 0 0 0-1.822-.582 17 17 0 0 0-2.858-.187h-3.096v42.888c0 1.508.026 2.667.106 3.466.098.78.264 1.414.484 1.898a3.8 3.8 0 0 0 .837 1.189c.327.306.79.573 1.363.811.586.246 1.376.446 2.391.586v2.837H689.2v-.009zm86.808-58.724v13.688h-5.886c-.951-2.718-1.758-4.566-2.416-5.53a7.7 7.7 0 0 0-2.366-2.272c-.904-.565-2.488-.836-4.696-.836h-9.382v20.656h5.691c1.261 0 2.255-.183 2.964-.548.705-.357 1.313-.955 1.784-1.78.484-.84.934-2.127 1.363-3.877h4.867v17.463h-4.867c-.408-1.656-.85-2.922-1.346-3.797a4.54 4.54 0 0 0-1.733-1.877c-.68-.365-1.686-.56-3.028-.56h-5.695v22.966h9.348c1.006 0 1.847-.072 2.522-.19.705-.124 1.312-.345 1.86-.663s1.075-.74 1.567-1.287c.489-.54.952-1.138 1.325-1.767s.794-1.465 1.228-2.497q.629-1.547 1.405-4.26h5.895l-.82 15.7h-42.285v-2.832c1.066-.288 1.907-.603 2.51-.934a3.1 3.1 0 0 0 1.38-1.376 6.1 6.1 0 0 0 .586-2.23 36 36 0 0 0 .123-3.418v-37.091c0-1.33-.038-2.485-.097-3.385a5.8 5.8 0 0 0-.578-2.234 3.36 3.36 0 0 0-1.367-1.401 10.3 10.3 0 0 0-2.553-.968v-2.846z"/><path fill="#6E6E96" d="M190.236 374.246h640.602v8.493H190.236zm171.943-52.783h313.088v8.493H362.179zM316.08 425.186h407.2v8.493h-407.2zm55.709 57.62h288.109v8.493H371.789z"/><path fill="#6E6E96" d="M940.32 837.096H83.668c-41.143 0-74.616-33.469-74.616-74.603V74.603C9.052 33.464 42.525 0 83.668 0h856.656c41.147 0 74.624 33.464 74.624 74.603v687.89c0 41.134-33.477 74.603-74.628 74.603M83.668 33.974c-22.41 0-40.642 18.227-40.642 40.629v687.89c0 22.402 18.231 40.629 40.637 40.629H940.32c22.414 0 40.65-18.227 40.65-40.629V74.603c0-22.402-18.236-40.629-40.65-40.629z"/><path fill="#F99" d="m656.827 778.61.663 228.403 68.398-69.078 69.086 68.377-.688-228.382"/><path fill="#6E6E96" d="M657.486 1024a17 17 0 0 1-16.983-16.936l-.659-228.404a16.987 16.987 0 0 1 16.937-17.038h.05a16.987 16.987 0 0 1 16.988 16.937l.539 187.277 39.46-39.851a16.987 16.987 0 0 1 24.02-.12l40.026 39.615-.565-187.5a16.987 16.987 0 0 1 16.936-17.037h.051a16.987 16.987 0 0 1 16.987 16.936l.688 228.382a16.991 16.991 0 0 1-28.933 12.12l-57.017-56.426-56.448 57.008a17 17 0 0 1-12.077 5.037"/><path fill="#FFD28F" d="M911.374 641.465c0 104.117-84.405 188.505-188.53 188.505-104.106 0-188.523-84.388-188.523-188.505 0-104.127 84.417-188.518 188.522-188.518 104.126 0 188.53 84.391 188.53 188.518"/><path fill="#FFF" d="M565.025 651.262c0-92.002 74.59-166.592 166.596-166.592 40.302 0 86.048 14.312 114.845 38.127-30.542-36.993-85.555-60.554-137.268-60.554-91.997 0-166.592 74.564-166.592 166.587 0 51.713 23.549 103.8 60.534 134.334-23.803-28.797-38.115-71.596-38.115-111.902"/><path fill="#E8B76D" d="M759.578 456.556C831.942 477 885.01 543.496 885.01 622.435c0 95.195-77.193 172.389-172.406 172.389-95.2 0-172.397-77.202-172.397-172.39 0-17.908 2.722-35.158 7.78-51.38a188.2 188.2 0 0 0-13.666 70.402c0 104.11 84.417 188.497 188.535 188.497 104.113 0 188.518-84.38 188.518-188.497 0-91.552-65.243-167.82-151.796-184.9"/><path fill="#8B5C29" d="M669.784 661.913c0-33.337 27.8-60.342 62.109-60.342 13.314 0 25.595 4.085 35.732 11.024-10.48-18.894-31.04-31.702-54.66-31.702-34.3 0-62.104 27.014-62.104 60.334 0 20.393 10.421 38.429 26.35 49.343a58.84 58.84 0 0 1-7.427-28.657"/><path fill="#6E6E96" d="M715.386 705.625c-34.178 0-61.994-27.795-61.994-61.995 0-16.54 6.45-32.118 18.155-43.81a61.5 61.5 0 0 1 43.818-18.158c16.545 0 32.126 6.45 43.8 18.159a61.4 61.4 0 0 1 18.173 43.81 14.634 14.634 0 0 0 14.642 14.647 14.647 14.647 0 0 0 14.639-14.648 90.64 90.64 0 0 0-26.73-64.538 90.6 90.6 0 0 0-64.533-26.733c-24.389 0-47.313 9.483-64.542 26.733a90.7 90.7 0 0 0-26.738 64.538c0 50.342 40.939 91.263 91.28 91.263a14.63 14.63 0 0 0 14.647-14.63 14.61 14.61 0 0 0-14.617-14.638"/><path fill="#FFF" d="M759.136 767.742a16.996 16.996 0 0 1-3.984-33.503c39.015-9.444 57.714-54.477 57.897-54.936a17.013 17.013 0 0 1 22.087-9.394 16.97 16.97 0 0 1 9.453 22.028c-1.002 2.514-25.183 61.706-81.448 75.32a17 17 0 0 1-4.005.485"/><path fill="#6E6E96" d="M651.616 842.192c2.735 1.393 68.05 34.046 147.567.365l-9.313-22.02c-69.367 29.376-126.77.655-127.344.366z"/><path fill="#6E6E96" d="M722.843 846.957c-113.32 0-205.51-92.185-205.51-205.492 0-113.317 92.19-205.505 205.51-205.505 113.325 0 205.518 92.188 205.518 205.505 0 113.307-92.193 205.492-205.518 205.492m0-377.023c-94.584 0-171.535 76.947-171.535 171.53 0 94.576 76.947 171.519 171.535 171.519s171.544-76.943 171.544-171.518c0-94.584-76.952-171.531-171.544-171.531"/></svg>