<svg xmlns="http://www.w3.org/2000/svg" viewBox="0 0 200 200"><path fill="#F2F2F2" d="M77.08 46.08V66.6c0 9.6 6.73 17.62 15.74 19.61l-.01 10.84H43.03V58.48l.01-1.42.01-1.61.01-1.02.01-.49.01-.72.02-.93.01-.67.01-.44.02-.64.01-.41.01-.41.02-.6.02-.58v-.07l.01-.31.02-.46v-.09l.02-.36.03-.54.04-.7.03-.51.04-.5.03-.33.04-.48.03-.3v-.02l.01-.09.04-.38.05-.47.05-.46.02-.16.02-.15.04-.3.02-.17.02-.13v-.03l.05-.43.04-.29v-.01l.04-.31.03-.22c.04-.25.07-.5.11-.75v-.01l.06-.4c.03-.2.06-.39.1-.58.03-.16.05-.31.08-.47.03-.15.06-.3.09-.46l.09-.45.09-.45.09-.43c.03-.15.07-.29.1-.43s.06-.28.1-.42.07-.28.11-.41.07-.27.11-.4c.04-.14.08-.27.11-.4.04-.13.07-.26.11-.38l.12-.39c.04-.12.08-.25.12-.37.04-.13.09-.25.13-.38l.12-.36c.04-.12.09-.24.13-.36.04-.11.08-.23.13-.34.05-.12.1-.24.14-.35s.09-.22.13-.32c.05-.12.1-.23.15-.35.05-.1.09-.21.14-.31.05-.12.11-.23.16-.34.05-.1.09-.2.14-.29.06-.12.12-.23.18-.34.05-.09.09-.18.14-.26l.21-.36c.04-.07.08-.14.13-.21.09-.15.18-.29.27-.43.03-.04.05-.08.08-.12l.36-.54c1.87-2.64 4.55-4.81 8.52-6.6l.32-.14c.12-.05.25-.11.38-.16.32-.14.65-.27.98-.4l.15-.06c.35-.13.7-.27 1.05-.39.01 0 .02-.01.03-.01 4.15-1.47 9.28-2.55 15.44-3.2l.64-.07c.37-.04.73-.07 1.1-.1.16-.02.33-.03.49-.04.33-.03.67-.05 1-.08.16-.01.31-.03.47-.04.4-.03.8-.05 1.2-.08.1-.01.2-.01.29-.02l1.56-.09.72-.03c.42-.02.84-.03 1.26-.05.2-.01.4-.02.61-.02l1.17-.03c.19 0 .37-.01.56-.02.45-.01.9-.02 1.35-.02.14 0 .28-.01.42-.01.6-.01 1.21-.01 1.82-.01h3.12v.47l-.01 10.25c-9.04 1.96-15.81 10-15.81 19.62"/><path fill="#BFBFBF" d="M106.79 86.16c8.87-2.08 15.48-10.05 15.48-19.55V46.08c0-9.48-6.58-17.43-15.42-19.54l.01-10.8h3.75c.4 0 .79 0 1.18.01l.78.01 1.3.03.51.01c.39.01.77.02 1.16.04.17.01.33.01.5.02l.78.03c.79.03 1.59.07 2.38.12l.7.04.57.04.57.04.56.04.56.04.55.05.55.05.54.05.54.05.53.05.26.03.52.06.23.03h.03l.52.06.26.03.51.06.5.07h.01c.16.02.33.04.49.07l.49.07.04.01.21.03.49.07c.29.04.57.09.86.14.03.01.06.01.09.02l.47.08.23.04.46.08.23.04.46.09.9.18c.17.04.34.07.5.1.25.05.5.11.75.17.15.04.3.07.45.1.27.06.53.13.79.2l.37.09c.38.1.76.2 1.12.3l.39.11.06.02.14.04.27.08.12.04c.13.04.25.08.38.12h.01l.38.12c.14.04.28.09.42.14.35.12.7.23 1.04.36 4.2 1.51 7.23 3.35 9.45 5.56.46.45.88.93 1.29 1.44.16.2.31.4.46.6l.22.31c1.38 1.98 2.45 4.42 3.25 7.46l.09.34.09.35c.05.2.09.4.14.6.03.11.05.22.07.33.04.17.07.35.11.52.02.11.04.21.07.32.04.19.07.38.11.57.02.1.04.2.05.29.05.29.1.59.15.89l.06.4.01.04c.04.25.08.51.11.77l.06.42.06.47.04.31.04.31.05.47.04.31.03.31.05.47.04.48.03.32.03.33.03.33.04.5.04.51.02.34.03.53.03.54.03.55.03.56.03.58v.03l.02.56.02.57v.03l.02.63.02.65.01.44.02.68.01.46.02.96.01.75.01.77.01.8.01 1.11.01 1.75v37.7h-50.2z"/><path fill="#F2F2F2" d="M108.3 45.98V66.6c0 3.34-2.68 6.06-6.01 6.11h-5.12c-3.34 0-6.06-2.68-6.11-6.01V46.08c0-3.34 2.68-6.06 6.01-6.11h5.12c3.34 0 6.05 2.68 6.11 6.01"/><path fill="#8A8A8A" d="M90.18 1.77h2.73v-.01l6.99.01h9.93c60.91 0 61.12 27.37 61.12 61.12v74.22c0 33.76-27.37 61.13-61.13 61.13H90.18c-33.76 0-61.13-27.37-61.13-61.13V60.88c.02-32.83 1.01-59.11 61.13-59.11m2.7 24.69.01-10.25v-.47h-3.12c-.61 0-1.22.01-1.82.01-.14 0-.28 0-.42.01-.46.01-.91.01-1.35.02-.19 0-.37.01-.56.02l-1.17.03c-.21.01-.41.02-.61.02-.42.02-.85.03-1.26.05l-.72.03c-.53.03-1.04.05-1.56.09-.1.01-.2.01-.29.02-.4.03-.81.05-1.2.08-.16.01-.31.02-.47.04-.34.03-.67.05-1 .08-.17.01-.33.03-.49.04-.37.03-.74.07-1.1.1l-.64.07c-6.17.65-11.29 1.73-15.44 3.2-.01 0-.02.01-.03.01-.35.12-.71.26-1.05.39l-.15.06c-.33.13-.65.26-.98.4-.13.05-.25.11-.38.16l-.32.14c-3.97 1.79-6.65 3.96-8.52 6.6-.12.18-.24.35-.36.54-.03.04-.05.08-.08.12-.09.14-.18.29-.27.43-.04.07-.08.14-.13.21l-.21.36c-.05.09-.09.17-.14.26-.06.11-.12.22-.18.34-.05.09-.09.19-.14.29-.05.11-.11.22-.16.34-.05.1-.09.21-.14.31-.05.12-.1.23-.15.35-.04.11-.09.22-.13.32-.05.12-.1.23-.14.35-.04.11-.09.23-.13.34-.04.12-.09.24-.13.36l-.12.36c-.04.12-.09.25-.13.38-.04.12-.08.25-.12.37l-.12.39c-.04.12-.07.26-.11.38-.04.13-.08.27-.11.4-.04.13-.07.27-.11.4-.04.14-.07.27-.11.41-.03.14-.07.28-.1.42s-.07.29-.1.43l-.09.43c-.03.15-.06.29-.09.45l-.09.45c-.03.15-.06.3-.09.46-.03.15-.05.31-.08.47-.03.19-.07.38-.1.58l-.06.4v.01c-.04.25-.07.5-.11.75 0 .02-.01.04-.01.06l-.02.16-.04.31v.01l-.04.29-.05.43v.03l-.02.13-.02.17-.04.3-.02.15-.02.16-.05.46-.05.47-.04.38-.01.09v.02l-.03.3-.04.48-.03.33-.04.5-.03.51-.04.7-.03.54-.02.36v.09l-.02.46-.01.31v.07l-.02.58-.02.6-.01.41-.01.41-.02.64-.01.44-.01.67-.02.93-.01.72-.01.49-.01 1.02-.01 1.61-.01 1.42v38.57H92.8l.01-10.84.08.02c-.03-.01-.05-.01-.08-.02-9-1.99-15.74-10.01-15.74-19.61V46.08c.01-9.62 6.78-17.66 15.81-19.62.02 0 .04-.01.06-.01 0-.01-.06.01-.06.01m9.31 13.51h-5.12a6.11 6.11 0 0 0-6.01 6.11V66.7a6.11 6.11 0 0 0 6.11 6.01h5.12a6.11 6.11 0 0 0 6.01-6.11V45.98a6.115 6.115 0 0 0-6.11-6.01m54.79 22.23v-2.85l-.01-1.75-.01-1.11-.01-.8-.01-.77-.01-.75-.02-.96-.01-.46-.02-.68-.01-.44-.02-.64-.02-.63v-.03l-.02-.57-.02-.56v-.03l-.03-.58-.03-.56-.03-.55-.03-.54-.03-.53-.02-.34-.04-.51-.04-.5-.03-.33-.03-.33-.03-.32-.04-.48-.05-.47-.03-.31-.04-.31-.05-.47-.04-.31-.04-.31-.06-.47-.06-.42c-.04-.26-.07-.52-.11-.77l-.01-.04-.06-.4c-.05-.3-.1-.6-.15-.89-.02-.1-.04-.2-.05-.29-.04-.19-.07-.39-.11-.57-.02-.11-.04-.21-.07-.32-.04-.17-.07-.35-.11-.52-.02-.11-.05-.22-.07-.33-.05-.2-.09-.41-.14-.6l-.09-.35-.07-.36c-.8-3.04-1.88-5.47-3.25-7.46-.07-.1-.14-.21-.22-.31-.15-.21-.3-.41-.46-.6-.16-.2-.32-.39-.49-.59-.25-.29-.52-.57-.79-.85-2.22-2.22-5.24-4.05-9.45-5.56-.34-.12-.69-.24-1.04-.36-.14-.05-.28-.09-.42-.14l-.38-.12h-.01c-.12-.04-.25-.08-.38-.12l-.11-.03-.27-.08-.14-.04-.06-.02-.39-.11c-.37-.1-.74-.2-1.12-.3l-.37-.09c-.26-.07-.52-.13-.79-.2-.15-.04-.3-.07-.45-.1-.25-.06-.5-.11-.75-.17-.16-.04-.33-.07-.5-.1-.3-.06-.59-.12-.9-.18l-.46-.09-.23-.04-.46-.08-.23-.04-.47-.08c-.03-.01-.06-.01-.09-.02-.29-.05-.57-.1-.86-.14l-.49-.07-.21-.03-.04-.01-.49-.07c-.16-.02-.33-.04-.49-.07h-.01l-.5-.07-.51-.06-.26-.03-.52-.06h-.03l-.23-.03-.52-.06-.26-.03-.53-.05-.54-.05-.54-.05-.55-.05-.55-.05-.56-.04-.56-.04-.57-.04-.57-.04-.7-.04-2.38-.12-.78-.03c-.17-.01-.33-.01-.5-.02-.38-.01-.77-.03-1.16-.04l-.51-.01-1.3-.03-.78-.01c-.39 0-.79-.01-1.18-.01h-3.75l-.01 10.8-.1-.02.1.03c8.84 2.1 15.42 10.05 15.42 19.54V66.6c0 9.51-6.61 17.47-15.48 19.55-.02 0-.04.01-.06.02l.06-.01-.01 10.9h50.21V62.2zM43.03 137.12l.01.78c.42 25.68 21.37 46.38 47.15 46.38h19.65l.78-.01c25.68-.42 46.38-21.37 46.38-47.15v-26.09H43.03z"/><path fill="#F2F2F2" d="m43.03 137.9-.01-.78v-26.09h113.96v26.09c0 25.78-20.69 46.73-46.38 47.15l-.78.01H90.18c-25.78-.01-46.73-20.7-47.15-46.38"/></svg>