<svg xmlns="http://www.w3.org/2000/svg" xmlns:xlink="http://www.w3.org/1999/xlink" width="140" height="91.271"><defs><linearGradient id="c" x1="60.329%" x2="85.025%" y1="32.206%" y2="63.345%"><stop offset="0%" stop-color="#38CEFF" stop-opacity="0"/><stop offset="100%" stop-color="#DFF8FF"/></linearGradient><linearGradient id="d" x1="0%" x2="68.499%" y1="50%" y2="32.27%"><stop offset="0%" stop-color="#35EAFF" stop-opacity=".633"/><stop offset="100%" stop-color="#1EC9FF" stop-opacity="0"/></linearGradient><linearGradient id="e" x1="50%" x2="50%" y1="0%" y2="100%"><stop offset="0%" stop-color="#00E9FF" stop-opacity="0"/><stop offset="100%" stop-color="#00CFFF"/></linearGradient><linearGradient id="f" x1="50%" x2="50%" y1="0%" y2="100%"><stop offset="0%" stop-color="#00E9FF" stop-opacity="0"/><stop offset="100%" stop-color="#00CFFF"/></linearGradient><linearGradient id="g" x1="53.183%" x2="50%" y1="15.423%" y2="94.947%"><stop offset="0%" stop-color="#00E9FF" stop-opacity="0"/><stop offset="56.828%" stop-color="#00DAFF" stop-opacity=".887"/><stop offset="100%" stop-color="#C4F4FF"/></linearGradient><linearGradient id="h" x1="37.149%" x2="37.149%" y1="10.538%" y2="113.591%"><stop offset="0%" stop-color="#36E3E3" stop-opacity="0"/><stop offset="100%" stop-color="#36E3E3" stop-opacity=".1"/></linearGradient><linearGradient id="i" x1="7.93%" x2="50%" y1="44.736%" y2="56.352%"><stop offset="0%" stop-color="#36E3E3" stop-opacity=".168"/><stop offset="100%" stop-color="#36E3E3" stop-opacity="0"/></linearGradient><linearGradient id="j" x1="50%" x2="50%" y1="0%" y2="100%"><stop offset="0%" stop-color="#40C5F1"/><stop offset="100%" stop-color="#36E3E3"/></linearGradient><linearGradient id="l" x1="5.758%" x2="50%" y1="44.073%" y2="48.351%"><stop offset="0%" stop-color="#FFF"/><stop offset="100%" stop-color="#FFF" stop-opacity="0"/><stop offset="100%" stop-color="#FFF" stop-opacity="0"/></linearGradient><mask id="k" width="135.625" height="48.34" x="0" y="0" fill="#fff" maskContentUnits="userSpaceOnUse" maskUnits="objectBoundingBox"><use xlink:href="#a"/></mask><mask id="m" width="135.625" height="48.34" x="0" y="0" fill="#fff" maskContentUnits="userSpaceOnUse" maskUnits="objectBoundingBox"><use xlink:href="#a"/></mask><mask id="n" width="135.625" height="48.34" x="0" y="0" fill="#fff" maskContentUnits="userSpaceOnUse" maskUnits="objectBoundingBox"><use xlink:href="#b"/></mask><mask id="o" width="135.625" height="48.34" x="0" y="0" fill="#fff" maskContentUnits="userSpaceOnUse" maskUnits="objectBoundingBox"><use xlink:href="#b"/></mask><path id="a" d="M6.202 4.395h127.234a2 2 0 0 1 1.992 2.18l-4.013 44.34a2 2 0 0 1-1.992 1.82H2.189a2 2 0 0 1-1.992-2.18L4.21 6.214a2 2 0 0 1 1.992-1.82"/><path id="b" d="M10.577 0h127.234a2 2 0 0 1 1.992 2.18l-4.013 44.34a2 2 0 0 1-1.992 1.82H6.564a2 2 0 0 1-1.992-2.18L8.585 1.82A2 2 0 0 1 10.577 0"/></defs><g fill="none" fill-rule="evenodd"><g stroke-linejoin="square" transform="translate(48.678 34.48)"><ellipse cx="22.513" cy="46.65" stroke="url(#c)" rx="14.85" ry="9.641"/><ellipse cx="22.513" cy="46.65" stroke="url(#d)" rx="14.85" ry="9.641"/></g><g fill-rule="nonzero"><path fill="url(#e)" d="m0 3.974 18.853 8.177 3.863 30.922zM22.716 0l1.592 12.15-1.592 30.923-1.588-30.922zm22.72 3.974-22.72 39.1 3.862-30.923z" opacity=".2" transform="translate(48.678 34.48)"/><path fill="url(#f)" d="m1.04 8.562 17.992 7.801 3.684 29.513zm21.676-3.793 1.52 11.594-1.52 29.513-1.517-29.513zm21.68 3.793-21.68 37.314 3.688-29.513z" opacity=".5" transform="translate(48.678 34.48)"/><path fill="url(#g)" d="m2.096 13.19 17.114 7.416 3.506 28.072zm20.62-3.612 1.445 11.028-1.445 28.072-1.44-28.072zm20.62 3.611-20.62 35.489 3.506-28.072z" transform="translate(48.678 34.48)"/></g><g stroke-dasharray="0,0" stroke-linejoin="round"><g opacity=".2"><use xlink:href="#a" fill="url(#h)"/><use xlink:href="#a" fill="url(#i)" stroke="url(#j)" stroke-width="2" mask="url(#k)"/><use xlink:href="#a" stroke="url(#l)" stroke-width="2" mask="url(#m)"/></g><use xlink:href="#b" fill="url(#h)"/><use xlink:href="#b" fill="url(#i)" stroke="url(#j)" stroke-width="4" mask="url(#n)"/><use xlink:href="#b" stroke="url(#l)" stroke-width="4" mask="url(#o)"/></g></g></svg>