<?xml version="1.0" encoding="UTF-8"?><svg xmlns="http://www.w3.org/2000/svg" width="586.33" height="762.38" xmlns:xlink="http://www.w3.org/1999/xlink" viewBox="0 0 586.33 762.38"><defs><radialGradient id="b" cx="293.52" cy="654.06" fx="293.52" fy="654.06" r="169.18" gradientUnits="userSpaceOnUse"><stop offset="0" stop-color="#0069ff"/><stop offset=".27" stop-color="#0068ff"/><stop offset=".61" stop-color="aqua"/><stop offset=".65" stop-color="#00deff"/><stop offset=".74" stop-color="#00a2ff"/><stop offset=".83" stop-color="#0073ff"/><stop offset=".9" stop-color="#0052ff"/><stop offset=".96" stop-color="#003dff"/><stop offset="1" stop-color="#0036ff"/></radialGradient><radialGradient id="c" cx="291.31" cy="664.28" fx="291.31" fy="664.28" r="176.32" xlink:href="#b"/><radialGradient id="d" cx="293.52" cy="649.3" fx="293.52" fy="649.3" r="148.59" xlink:href="#b"/><radialGradient id="e" cx="293.52" cy="681.37" fx="293.52" fy="681.37" r="209.85" xlink:href="#b"/><radialGradient id="f" cx="293.16" cy="563.05" fx="293.16" fy="563.05" r="213.55" xlink:href="#b"/><radialGradient id="g" cx="294.22" cy="394.55" fx="294.22" fy="394.55" r="180.68" xlink:href="#b"/><radialGradient id="h" cx="293.69" cy="332.57" fx="293.69" fy="332.57" r="114.75" xlink:href="#b"/><radialGradient id="i" cy="649.92" fy="649.92" r="100.71" xlink:href="#b"/><radialGradient id="j" cx="6404.18" cy="13421.56" fx="6404.18" fy="13421.56" r="447.32" gradientTransform="translate(-3008.34 -1494.01) scale(.52 .16)" gradientUnits="userSpaceOnUse"><stop offset="0" stop-color="#00ffea"/><stop offset=".14" stop-color="#00c4e6"/><stop offset=".3" stop-color="#007fe3"/><stop offset=".42" stop-color="#0055e0"/><stop offset=".48" stop-color="#0045e0"/><stop offset=".51" stop-color="#1b58e3" stop-opacity=".89"/><stop offset=".55" stop-color="#507fe9" stop-opacity=".69"/><stop offset=".6" stop-color="#7fa1ef" stop-opacity=".5"/><stop offset=".65" stop-color="#a6bef4" stop-opacity=".35"/><stop offset=".7" stop-color="#c6d6f8" stop-opacity=".22"/><stop offset=".76" stop-color="#dfe8fb" stop-opacity=".12"/><stop offset=".82" stop-color="#f1f5fd" stop-opacity=".05"/><stop offset=".9" stop-color="#fbfcfe" stop-opacity=".01"/><stop offset="1" stop-color="#fff" stop-opacity="0"/></radialGradient></defs><g style="isolation:isolate;"><g id="a"><path d="M295.06,588.73c19.47,0,38.5.7,56.56,2.03l-4.93,5.29c-16.48-1.23-33.83-1.94-51.63-1.94v-5.37ZM354.53,591.02c18.68,1.41,36.39,3.52,52.77,6.17l-9.52,4.67c-14.98-2.38-31.1-4.32-48.19-5.64l4.93-5.2ZM409.94,597.63c16.48,2.82,31.72,6.08,45.29,9.87l-13.48,3.88c-12.33-3.52-26.25-6.52-41.32-9.07l9.52-4.67ZM457.34,608.11c13.39,3.88,25.02,8.19,34.8,12.86l-16.48,2.73c-8.9-4.32-19.56-8.19-31.81-11.72l13.48-3.88ZM493.64,621.77c9.34,4.67,16.74,9.69,21.85,14.98l-18.33,1.41c-4.67-4.85-11.45-9.43-20-13.74l16.48-2.64ZM516.29,637.54c4.67,5.11,7.22,10.57,7.4,16.12h-19.03c-.09-5.11-2.47-10.04-6.7-14.71l18.33-1.41ZM523.69,654.45c-.18,5.55-2.73,11.01-7.4,16.12l-18.33-1.41c4.23-4.67,6.61-9.6,6.7-14.71h19.03ZM515.49,671.37c-5.11,5.29-12.51,10.31-21.85,14.98l-16.48-2.64c8.55-4.32,15.33-8.9,20-13.74l18.33,1.41ZM492.15,687.14c-9.69,4.67-21.41,8.99-34.8,12.86l-13.48-3.88c12.25-3.52,22.91-7.4,31.81-11.72l16.48,2.73ZM455.23,700.62c-13.57,3.79-28.81,7.05-45.29,9.87l-9.52-4.67c15.07-2.55,28.99-5.55,41.32-9.07l13.48,3.88ZM407.3,710.93c-16.39,2.64-34.1,4.76-52.77,6.17l-4.93-5.2c17.09-1.32,33.21-3.26,48.19-5.64l9.52,4.67ZM351.62,717.36c-18.06,1.32-37.09,2.03-56.56,2.03v-5.37c17.8,0,35.15-.7,51.63-1.94l4.93,5.29ZM291.97,719.39c-19.56,0-38.5-.7-56.56-2.03l4.93-5.29c16.48,1.23,33.83,1.94,51.63,1.94v5.37ZM232.5,717.09c-18.68-1.41-36.39-3.52-52.77-6.17l9.52-4.67c14.98,2.38,31.1,4.32,48.1,5.64l-4.85,5.2ZM177.09,710.49c-16.48-2.82-31.72-6.08-45.29-9.87l13.48-3.88c12.33,3.52,26.25,6.52,41.32,9.07l-9.52,4.67ZM129.69,700c-13.39-3.88-25.11-8.19-34.8-12.86l16.48-2.73c8.9,4.32,19.56,8.19,31.81,11.72l-13.48,3.88ZM93.39,686.35c-9.34-4.67-16.74-9.69-21.85-14.98l18.33-1.41c4.67,4.85,11.45,9.43,20,13.74l-16.48,2.64ZM70.75,670.58c-4.76-5.11-7.31-10.57-7.4-16.12h19.03c.09,5.11,2.47,10.04,6.7,14.71l-18.33,1.41ZM63.35,653.66c.09-5.55,2.64-11.01,7.4-16.12l18.33,1.41c-4.23,4.67-6.61,9.6-6.7,14.71h-19.03ZM71.54,636.74c5.11-5.29,12.51-10.31,21.85-14.98l16.48,2.64c-8.55,4.32-15.33,8.9-20,13.74l-18.33-1.41ZM94.89,620.97c9.69-4.67,21.41-8.99,34.8-12.86l13.48,3.88c-12.25,3.52-22.91,7.4-31.81,11.72l-16.48-2.73ZM131.8,607.49c13.57-3.79,28.81-7.05,45.29-9.87l9.52,4.67c-15.07,2.56-28.99,5.55-41.32,9.07l-13.48-3.88ZM179.73,597.19c16.39-2.64,34.1-4.76,52.77-6.17l4.85,5.2c-17,1.32-33.13,3.26-48.1,5.64l-9.52-4.67ZM235.41,590.75c18.06-1.32,37-2.03,56.56-2.03v5.37c-17.8,0-35.15.7-51.63,1.94l-4.93-5.29Z" style="fill:url(#b); fill-rule:evenodd; stroke-width:0px;"/><path d="M291.36,596.13c66.25,0,126.16,7.67,169.6,20,43.44,12.33,70.22,29.34,70.22,48.19s-26.78,35.77-70.22,48.1c-43.43,12.33-103.35,20-169.6,20s-126.16-7.67-169.6-20c-43.43-12.33-70.31-29.34-70.31-48.1s26.87-35.86,70.31-48.19c43.44-12.33,103.35-20,169.6-20h0ZM459.02,616.66c-42.91-12.16-102.2-19.74-167.66-19.74s-124.75,7.58-167.66,19.74c-42.91,12.16-69.43,28.99-69.43,47.66s26.52,35.42,69.43,47.58c42.91,12.16,102.2,19.74,167.66,19.74s124.75-7.58,167.66-19.74c42.91-12.16,69.43-28.99,69.43-47.58s-26.52-35.51-69.43-47.66h0Z" style="fill:url(#c); stroke-width:0px;"/><path d="M293.47,591.9c111.71,0,202.2,25.73,202.2,57.44s-90.48,57.36-202.2,57.36-202.11-25.73-202.11-57.36,90.48-57.44,202.11-57.44h0ZM293.47,603.44c89.25,0,161.49,20.53,161.49,45.9s-72.24,45.81-161.49,45.81-161.41-20.53-161.41-45.81,72.24-45.9,161.41-45.9h0ZM294.97,594.37v6.7h-2.91v-6.7h2.91ZM336.03,602.65l6.17-6.52c.97,0,1.94.09,2.82.18l-6.17,6.52c-.88-.09-1.85-.18-2.82-.18h0ZM377.17,607.32l11.89-5.81c.79.09,1.67.26,2.47.44l-11.81,5.81c-.88-.18-1.76-.26-2.55-.44h0ZM412.5,614.89l16.83-4.76c.7.18,1.41.44,2.11.62l-16.83,4.76c-.7-.18-1.41-.35-2.11-.62h0ZM439.81,624.85l20.62-3.35c.53.18.97.44,1.5.7l-20.62,3.35c-.44-.26-.97-.44-1.5-.7h0ZM457.17,636.39l22.99-1.67c.26.26.53.53.7.79l-22.91,1.76c-.26-.35-.53-.62-.79-.88h0ZM463.34,648.9h23.7v.79h-23.7v-.79h0ZM457.96,661.41l22.91,1.76c-.18.26-.44.53-.7.79l-22.99-1.76.79-.79h0ZM441.31,673.04l20.62,3.44c-.53.18-.97.44-1.5.7l-20.62-3.44c.53-.18,1.06-.44,1.5-.7h0ZM414.61,683.09l16.83,4.76c-.7.26-1.41.44-2.11.62l-16.83-4.76c.7-.18,1.41-.35,2.11-.62h0ZM379.73,690.84l11.81,5.9c-.79.09-1.67.26-2.47.35l-11.89-5.81c.79-.09,1.67-.26,2.55-.44h0ZM338.85,695.77l6.17,6.52c-.88.09-1.85.18-2.82.26l-6.17-6.52c.97-.09,1.94-.18,2.82-.26h0ZM294.97,697.54v6.7c-.44.09-.97.09-1.5.09-.44,0-.97,0-1.41-.09v-6.7h2.91ZM251.01,696.04l-6.17,6.52c-.97-.09-1.94-.18-2.82-.26l6.08-6.52c.97.09,1.94.18,2.91.26h0ZM209.86,691.28l-11.89,5.81c-.79-.09-1.67-.26-2.56-.35l11.89-5.9c.88.18,1.67.35,2.55.44h0ZM174.44,683.7l-16.74,4.76c-.7-.18-1.41-.35-2.11-.62l16.83-4.76c.7.26,1.41.44,2.03.62h0ZM147.22,673.75l-20.62,3.44c-.53-.26-.97-.53-1.5-.7l20.62-3.44c.44.26.97.53,1.5.7h0ZM129.86,662.21l-22.99,1.76c-.26-.26-.53-.53-.7-.79l22.91-1.76c.26.26.53.53.79.79h0ZM123.7,649.7h-23.7c0-.09-.09-.26-.09-.35,0-.18.09-.35.09-.44h23.7v.79h0ZM129.07,637.27l-22.91-1.76c.18-.26.44-.53.7-.79l22.99,1.67c-.26.26-.53.53-.79.88h0ZM145.72,625.56l-20.62-3.35c.53-.26.97-.53,1.5-.7l20.62,3.35c-.53.26-1.06.44-1.5.7h0ZM172.42,615.51l-16.83-4.76c.7-.18,1.41-.44,2.11-.62l16.74,4.76c-.62.26-1.32.44-2.03.62h0ZM207.31,607.76l-11.89-5.81c.88-.18,1.76-.35,2.56-.44l11.89,5.81c-.88.18-1.67.26-2.55.44h0ZM248.1,602.82l-6.08-6.52c.88-.09,1.85-.18,2.82-.18l6.17,6.52c-.97,0-1.94.09-2.91.18h0Z" style="fill:url(#d); fill-rule:evenodd; stroke-width:0px;"/><path d="M306.42,600.36c16.03.18,31.72.79,46.96,1.67l-11.19,11.89c-11.63-.7-23.61-1.15-35.77-1.32v-12.25ZM378.32,603.88c15.33,1.41,29.96,3.08,44.05,5.11l-21.59,10.57c-10.75-1.5-22.03-2.82-33.57-3.79l11.1-11.89ZM444.83,612.6c13.48,2.38,26.25,5.11,38.15,8.11l-30.57,8.63c-9.16-2.29-18.85-4.32-29.16-6.17l21.59-10.57ZM501.48,625.82c10.92,3.26,20.97,6.87,29.78,10.66l-37.36,6.08c-6.96-2.82-14.54-5.55-22.91-8.11l30.48-8.63ZM544.65,642.74c7.67,3.96,14.1,8.19,19.29,12.51l-41.67,3.26c-4.14-3.35-9.16-6.61-14.98-9.69l37.36-6.08ZM571.17,662.29c3.79,4.49,6.26,8.99,7.31,13.74h-43.17c-.97-3.61-2.91-7.14-5.81-10.57l41.67-3.17ZM579.01,683.35c-.44,4.67-2.2,9.34-5.37,13.83l-41.76-3.17c2.29-3.44,3.7-7.05,4.05-10.66h43.08ZM567.47,704.32c-4.67,4.49-10.75,8.9-18.06,13.04l-37.36-6.08c5.46-3.26,10.13-6.61,13.83-10.13l41.58,3.17ZM536.9,723.79c-8.72,4.05-18.68,7.84-29.69,11.37l-30.57-8.63c8.46-2.82,16.12-5.73,22.91-8.81l37.36,6.08ZM489.24,740.44c-12.16,3.26-25.37,6.17-39.38,8.81l-21.59-10.66c10.84-2.03,20.97-4.32,30.48-6.78l30.48,8.63ZM427.65,752.95c-14.71,2.29-30.22,4.14-46.34,5.64l-11.19-11.89c12.51-1.15,24.49-2.64,35.95-4.32l21.59,10.57ZM356.38,760.53c-16.12.97-32.86,1.67-49.95,1.85v-12.25c13.22-.18,26.25-.7,38.85-1.5l11.1,11.89ZM280.61,762.38c-17.09-.18-33.83-.88-49.95-1.85l11.1-11.89c12.6.79,25.64,1.32,38.85,1.5v12.25ZM205.72,758.59c-16.12-1.5-31.63-3.35-46.34-5.64l21.59-10.57c11.45,1.67,23.44,3.17,35.95,4.32l-11.19,11.89ZM137.18,749.25c-14.01-2.64-27.22-5.55-39.38-8.81l30.48-8.63c9.52,2.47,19.65,4.76,30.48,6.78l-21.59,10.66ZM79.82,735.16c-11.01-3.52-20.97-7.31-29.69-11.37l37.36-6.08c6.78,3.08,14.45,5.99,22.91,8.81l-30.57,8.63ZM37.62,717.36c-7.31-4.14-13.39-8.55-18.06-13.04l41.58-3.17c3.7,3.52,8.37,6.87,13.83,10.13l-37.36,6.08ZM13.39,697.18c-3.17-4.49-4.93-9.16-5.37-13.83h43.08c.35,3.61,1.76,7.22,3.96,10.66l-41.67,3.17ZM8.55,676.04c1.06-4.76,3.52-9.25,7.31-13.74l41.58,3.17c-2.82,3.44-4.76,6.96-5.73,10.57H8.55ZM22.99,655.25c5.29-4.32,11.72-8.55,19.38-12.51l37.36,6.08c-5.81,3.08-10.84,6.34-14.98,9.69l-41.76-3.26ZM55.68,636.48c8.9-3.79,18.94-7.4,29.87-10.66l30.48,8.63c-8.37,2.56-16.03,5.29-22.91,8.11l-37.44-6.08ZM104.05,620.71c11.89-3,24.67-5.73,38.15-8.11l21.59,10.57c-10.31,1.85-20.09,3.88-29.16,6.17l-30.57-8.63ZM164.67,608.99c14.1-2.03,28.72-3.7,43.96-5.11l11.19,11.89c-11.54.97-22.82,2.29-33.57,3.79l-21.59-10.57ZM233.65,602.03c15.24-.88,30.92-1.5,46.96-1.67v12.25c-12.16.18-24.14.62-35.77,1.32l-11.19-11.89Z" style="fill:url(#e); fill-rule:evenodd; stroke-width:0px;"/><path d="M296.64,490.49v3.08h-3.17v-3.08h3.17ZM278.58,490.58l.09,3.08h-.18l-2.91.09-.09-3.08,3-.09h.09ZM259.9,490.93l.09,3.17-3.08.09-.09-3.17,3.08-.09ZM241.31,491.64l.09,3.08-3.08.18-.18-3.17,3.17-.09ZM222.64,492.61l.18,3.08-2.2.18h-.88l-.18-3.08.88-.09,2.2-.09ZM203.96,493.93l.26,3.08-.79.09-2.29.18-.26-3.17,2.29-.18h.79ZM185.37,495.51l.35,3.08-2.47.26-.62.09-.35-3.08.7-.09,2.38-.26ZM166.78,497.54l.35,3.08h0l-3,.35-.44-3.08,3.08-.35h0ZM148.28,499.83l.44,3.08-.35.09-2.73.35-.44-3.08,2.73-.35.35-.09ZM129.78,502.65l.53,3.08-2.64.44-.44.09-.53-3.08.44-.09,2.64-.44ZM111.36,506l.62,3-1.15.26-1.85.35-.62-3.08,1.85-.35,1.15-.18ZM93.13,509.79l.7,3.08-1.41.26-1.67.44-.7-3.08,1.67-.35,1.41-.35ZM74.98,514.37l.79,3-.35.09-2.29.62-.35.09-.88-3,.44-.09,2.29-.62.35-.09ZM57,519.74l.97,3h0l-2.11.7-.79.26-1.06-2.91.88-.35,2.03-.7h.09ZM39.38,526.35l1.32,2.82-1.59.7-1.32.53-1.23-2.82,1.32-.53,1.5-.7ZM22.55,534.72l1.59,2.73-.26.09-1.32.79-1.06.7-1.67-2.64,1.15-.7,1.32-.79.26-.18ZM7.49,546.35l2.29,2.11h0l-.44.44-.35.44-.35.44-.35.35-.26.44-.18.18-2.47-1.94.18-.18.35-.44.35-.44.44-.44.35-.44.44-.44v-.09ZM0,564.24l3.08-.26.09.35v.44l.09.35v.44l.09.44.09.35.09.44h0l-3,.79v-.09l-.18-.44-.09-.53-.09-.53v-.44l-.09-.53-.09-.44v-.35ZM8.99,581.33l2.2-2.2.18.18.44.35.44.44.44.44.44.35.26.26-2.03,2.38-.26-.26-.53-.44-.44-.44-.44-.44-.53-.44-.18-.18ZM24.4,592.43l1.59-2.73.62.44,1.41.79.62.26-1.41,2.73-.62-.26-1.5-.79-.7-.44ZM41.41,600.62l1.15-2.91,1.85.7,1.06.44-1.15,2.91-1.06-.44-1.85-.7ZM59.03,607.05l.97-3h0l2.11.7.79.26-.88,2.91-.88-.26-2.11-.62h0ZM77,612.34l.79-3.08,2.38.7.62.09-.79,3.08-.62-.18-2.38-.62ZM95.15,616.75l.7-3,1.67.35,1.32.26-.62,3.08-1.41-.35-1.67-.35ZM113.48,620.53l.62-3.08,2.2.44.79.18-.53,3.08-.79-.18-2.29-.44ZM131.89,623.79l.53-3.08.97.18,2.11.26-.53,3.08-2.03-.26-1.06-.18ZM150.39,626.52l.44-3.08.62.09,2.47.35-.44,3.08-2.47-.35-.62-.09ZM168.89,628.82l.35-3.08,1.06.18,2.03.18-.35,3.08-2.03-.18-1.06-.18ZM187.48,630.75l.26-3.08,2.2.26.97.09-.35,3.08-.97-.09-2.11-.26ZM206.07,632.34l.26-3.08.44.09,2.64.18-.18,3.08-2.64-.18-.53-.09ZM224.75,633.66l.18-3.17,2.73.18h.35l-.18,3.17-.35-.09-2.73-.09ZM243.43,634.54l.09-3.08,1.94.09,1.15.09-.09,3.08-1.15-.09-1.94-.09ZM262.11,635.25v-3.17l1.59.09h1.59l-.09,3.08h-3.08ZM280.7,635.51l.09-3.08h3.08v3.17h-1.67l-1.5-.09ZM299.37,635.6v-3.08h1.67l1.41-.09.09,3.17h-3.17ZM318.05,635.33v-3.08h1.59l1.5-.09.09,3.17h-3.17ZM336.73,634.81l-.09-3.08h1.23l1.85-.09.09,3.08-1.76.09h-1.32ZM355.41,634.01l-.18-3.08.62-.09,2.47-.09.18,3.08-2.47.18h-.62ZM374.09,632.87l-.26-3.08,3-.18.09-.09.26,3.17h-.18l-2.91.18ZM392.68,631.46l-.26-3.17,1.32-.09,1.76-.18.26,3.08-1.76.18-1.32.18ZM411.27,629.61l-.35-3.08,2.56-.26.53-.09.35,3.08-.53.09-2.56.26ZM429.86,627.41l-.44-3.08,3.08-.35h0l.44,3.08h-.09l-3,.35ZM448.36,624.85l-.53-3.08,2.82-.44h.26l.53,3-.35.09-2.73.44ZM466.77,621.77l-.53-3,1.67-.35,1.32-.26.62,3.08-1.41.26-1.67.26ZM485.1,618.24l-.62-3.08,2.38-.53.62-.09.7,3-.62.18-2.47.53ZM503.33,614.01l-.79-3,1.94-.44,1.06-.35.79,3-1.06.35-1.94.44ZM521.4,609.08l-.88-3h.09l2.11-.7.7-.18.97,2.91-.7.26-2.2.7h-.09ZM539.19,603.09l-1.15-2.91.88-.35,1.85-.7h.18l1.15,2.82-.18.09-1.85.7-.88.35ZM556.46,595.69l-1.41-2.73.97-.53,1.5-.7.26-.18,1.5,2.73-.35.18-1.5.79-.97.44ZM572.67,585.91l-1.94-2.47.7-.53.53-.35.44-.44.53-.44.18-.09,2.03,2.29-.26.26-.44.35-.53.44-.62.44-.62.53ZM585.27,571.37l-2.91-1.23.18-.44.18-.44.18-.35.18-.44.09-.44.09-.35.09-.26,3,.79-.09.26-.09.53-.18.44-.18.53-.18.44-.18.53-.18.44ZM583.86,552.08l-2.64,1.59-.18-.18-.26-.44-.26-.35-.26-.44-.26-.44-.26-.44-.18-.09,2.47-1.94.18.18.35.53.26.44.35.44.26.44.35.53.09.18ZM570.29,538.51l-1.76,2.55-.44-.35-1.15-.79-.88-.53,1.67-2.64.88.62,1.23.79.44.35ZM553.91,529.17l-1.32,2.82-1.32-.62-1.5-.7,1.32-2.82,1.5.7,1.32.62ZM536.55,522.03l-1.06,2.91-.35-.09-2.03-.7-.53-.26.97-2.91.62.18,2.03.7.35.18ZM518.66,516.22l-.79,3-1.76-.53-1.23-.35.79-3,1.32.44,1.67.44ZM500.6,511.37l-.7,3.08-.26-.09-2.47-.62-.26-.09.7-3,.26.09,2.47.62h.26ZM482.37,507.32l-.62,3.08-.18-.09-2.64-.53h-.18l.53-3.08h.26l2.73.62h.09ZM464.04,503.8l-.53,3.08-1.23-.18-1.85-.35.53-3.08,1.85.35,1.23.18ZM445.54,500.89l-.44,3.08-.44-.09-2.64-.44.44-3,2.73.35.35.09ZM427.04,498.33l-.35,3.08-.44-.09-2.64-.26.35-3.08,2.64.26.44.09ZM408.45,496.22l-.26,3.08-1.15-.09-1.94-.26.26-3.08,1.94.18,1.15.18ZM389.86,494.46l-.26,3.08-2.55-.18-.53-.09.26-3.08h.53l2.56.26ZM371.27,493.05l-.18,3.08-1.23-.09-1.85-.09.18-3.08,1.85.09,1.23.09ZM352.59,491.99l-.09,3.08h-.26l-2.91-.18.18-3.08,2.91.09.18.09ZM334,491.2l-.18,3.08-3.08-.09.09-3.08,3.17.09ZM315.32,490.67l-.09,3.17-3-.09h-.09v-3.08h3.17Z" style="fill:url(#f); stroke-width:0px;"/><path d="M296.64,332.88v3.17h-3.17v-3.17h3.17ZM283.78,332.96l.09,3.08h-3.17v-3.08h3.08ZM265.1,333.32l.09,3.08h0l-3.08.09-.09-3.08,3.08-.09h0ZM246.42,334.02l.18,3.08-2.82.09-.26.09-.18-3.17h.26l2.82-.09ZM227.84,335.08l.18,3.08-2.03.09-1.06.09-.26-3.08,1.06-.09,2.11-.09ZM209.16,336.49l.26,3.08-.79.09-2.29.18-.26-3.08,2.29-.18.79-.09ZM190.57,338.34l.35,3.08-1.67.18-1.41.18-.35-3.08,1.41-.18,1.67-.18ZM172.07,340.63l.44,3.08-1.85.26-1.23.18-.44-3.08,1.32-.18,1.76-.26ZM153.56,343.45l.53,3.08-.97.09-2.11.35-.53-3,2.11-.35.97-.18ZM135.15,346.8l.62,3.08-1.41.26-1.59.35-.62-3.08,1.59-.26,1.41-.35ZM116.91,350.94l.7,3-.62.18-2.03.44-.35.09-.7-3,.26-.09,2.11-.53.62-.09ZM98.85,355.87l.88,3-.18.09-1.85.53-.88.26-.97-2.91.88-.26,1.85-.62.26-.09ZM81.14,362.13l1.15,2.91-1.15.44-1.41.62-.26.09-1.23-2.82.26-.18,1.5-.62,1.15-.44ZM64.14,370.32l1.59,2.64-.35.18-1.06.7-1.06.7h-.09l-1.76-2.56.18-.09,1.06-.7,1.15-.7.35-.18ZM49.34,382.48l2.47,1.85-.09.18-.26.35-.26.35-.26.35-.18.35-.26.35-.18.26-.09.18-2.73-1.5.18-.26.18-.35.26-.44.26-.35.26-.44.35-.35.26-.44.09-.09ZM46.25,401.51l2.82-1.32.09.26.18.35.18.35.18.35.18.35.26.35.18.35.18.18-2.64,1.67-.18-.26-.26-.44-.26-.35-.18-.44-.18-.35-.26-.44-.18-.44-.09-.18ZM59.29,415.69l1.76-2.56.18.09.97.7,1.06.7.26.18-1.59,2.64-.35-.26-1.06-.7-1.06-.7-.18-.09ZM75.86,424.77l1.23-2.82,1.15.44,1.5.62.18.18-1.15,2.82-.26-.09-1.5-.62-1.15-.53ZM93.39,431.46l.97-2.91,1.59.44,1.41.53-.97,2.91-1.41-.44-1.59-.53ZM111.36,436.84l.79-3.08.79.26,2.03.53h.18l-.7,3h-.26l-2.03-.53-.79-.18ZM129.6,441.16l.62-3.08,1.85.44,1.23.26-.62,3-1.23-.26-1.85-.35ZM148.01,444.68l.53-3,2.11.35.88.18-.53,3-.88-.09-2.11-.44ZM166.43,447.67l.44-3.08,1.23.18,1.85.26-.44,3.08-1.85-.26-1.23-.18ZM184.93,450.14l.35-3.08,1.23.09,1.85.26-.35,3.08-1.85-.18-1.23-.18ZM203.52,452.08l.26-3.08,2.03.18,1.15.18-.35,3.08-1.06-.09-2.03-.26ZM222.2,453.67l.18-3.08h.7l2.38.18-.18,3.17-2.47-.18-.62-.09ZM240.79,454.81l.18-3.08,2.82.18h.26l-.18,3.08h-.26l-2.82-.18ZM259.46,455.69l.09-3.17,2.56.09h.53l-.09,3.17-.53-.09h-2.56ZM278.14,456.13v-3.17l2.64.09h.53l-.09,3.08h-3.08ZM296.82,456.22v-3.08l3.08-.09h0v3.17h-3.08ZM315.5,455.96l-.09-3.08h.18l2.91-.09.09,3.08-2.91.09h-.18ZM334.18,455.43l-.18-3.17h.18l3-.09.09,3.08-3,.18h-.09ZM352.85,454.46l-.26-3.08,2.56-.18h.62l.18,3.08h-.53l-2.56.18ZM371.44,453.14l-.26-3.08,1.5-.09,1.59-.18.26,3.08-1.59.18-1.5.09ZM390.03,451.46l-.26-3.08,2.56-.26.53-.09.26,3.08-.44.09-2.64.26ZM408.62,449.35l-.44-3.08.26-.09,2.64-.35h.18l.44,3.08h-.18l-2.64.35-.26.09ZM427.12,446.71l-.53-3.08,2.38-.35.7-.09.53,3-.7.18-2.38.35ZM445.54,443.53l-.53-3.08.79-.18,2.2-.35.62,3-2.2.44-.88.18ZM463.86,439.66l-.7-3,.53-.09,2.11-.53.35-.09.79,3-.44.09-2.11.53-.53.09ZM482.01,435.08l-.88-3,.79-.26,1.85-.53.35-.09.88,3-.35.09-1.85.53-.79.26ZM499.9,429.26l-1.15-2.91.79-.26,1.67-.62.44-.18,1.15,2.91-.53.18-1.59.62-.79.26ZM517.17,421.95l-1.41-2.82,1.15-.53,1.23-.7.35-.18,1.5,2.73-.44.18-1.23.7-1.15.62ZM533.11,411.55l-2.11-2.38h.09l.7-.7.79-.7.62-.62,2.2,2.11-.7.7-.7.7-.88.79v.09ZM542.19,394.46h-3.08v-.97l-.09-.35v-.35l-.09-.35v-.35l-.09-.26v-.09l3-.7v.09l.09.44.09.44.09.44v.44l.09.35v1.23ZM532.94,377.46l-2.03,2.38-.62-.53-.79-.7-.88-.7h0l1.85-2.47h.09l.88.79.88.7.62.53ZM516.99,367.15l-1.41,2.73h0l-1.23-.62-1.41-.7h-.09l1.32-2.82.18.09,1.32.62,1.32.7h0ZM499.72,359.75l-1.06,2.91-.7-.26-1.67-.53-.53-.26.97-2.91.62.18,1.67.62.7.26ZM481.84,354.02l-.88,3-.97-.26-1.94-.62h0l.79-3h0l2.03.62.97.26ZM463.69,349.35l-.7,3.08-1.41-.35-1.59-.35.62-3.08,1.59.35,1.5.35ZM445.36,345.56l-.53,3.08-1.32-.26-1.76-.35.53-3.08,1.76.35,1.32.26ZM426.95,342.39l-.44,3.08-2.56-.44-.53-.09.44-3.08.62.18,2.47.35ZM408.45,339.75l-.44,3.08-2.2-.26-.88-.09.44-3.08.88.09,2.2.26ZM389.86,337.63l-.26,3.08-2.82-.26-.26-.09.26-3.08.35.09,2.73.26ZM371.27,335.96l-.26,3.08-1.23-.09-1.85-.18.26-3.08,1.85.09,1.23.18ZM352.59,334.64l-.18,3.08h-.18l-2.91-.18.18-3.08,2.91.18h.18ZM334,333.67l-.18,3.17-2.73-.18h-.35l.09-3.08h.35l2.82.09ZM315.32,333.14l-.09,3.08-2.73-.09h-.35v-3.08h.44l2.73.09Z" style="fill:url(#g); stroke-width:0px;"/><path d="M296.64,293.05v3.08h-3.17v-3.08h3.17ZM281.67,293.14l.09,3.17h-3.08l-.09-3.08,2.91-.09h.18ZM262.99,293.76l.18,3.17h-1.06l-2.03.09-.18-3.08,2.03-.09,1.06-.09ZM244.31,294.99l.26,3.08-.97.09-2.11.18-.26-3.08,2.11-.18.97-.09ZM225.72,296.84l.35,3.08h-.09l-3,.35-.35-3.08,3-.35h.09ZM207.13,299.4l.53,3.08-1.15.18-1.94.26-.53-3,1.94-.35,1.15-.18ZM188.72,302.83l.7,3.08-.53.09-1.41.26-1.06.26-.7-3,1.15-.26,1.32-.35.53-.09ZM170.57,307.59l.97,2.91-.35.09-1.15.35-1.15.44-.35.09-.97-3,.35-.09,1.15-.35,1.15-.35.35-.09ZM152.95,314.29l1.41,2.82h0l-.88.44-.79.35-.7.44-.35.18-1.5-2.73.35-.18.79-.44.79-.44.88-.44h0ZM137.71,326.18l2.73,1.59-.18.26-.18.44-.26.44-.18.35-.18.44-.09.44-.09.09-3-.79.09-.26.18-.53.26-.53.18-.53.26-.53.35-.53.09-.35ZM142.64,344.42l2.03-2.38.18.18.53.44.62.44.53.35.53.35-1.85,2.56-.53-.35-.62-.44-.62-.44-.53-.53-.26-.18ZM159.29,353.67l1.15-2.91.18.09.97.35.97.35.79.35-1.06,2.91-.79-.35-1.06-.35-.97-.44h-.18ZM177.18,359.48l.88-3,.35.09,1.23.35,1.23.35h.09l-.7,3h-.09l-1.32-.35-1.32-.35-.35-.09ZM195.5,363.71l.62-3.08,1.32.26,1.67.35-.53,3.08-1.76-.35-1.32-.26ZM214,366.8l.35-3.08,1.67.26,1.41.18-.35,3.08-1.5-.18-1.59-.26ZM232.5,369.09l.35-3.08h.09l3,.26-.26,3.17-3.08-.35h-.09ZM251.18,370.67l.18-3.08,3.08.18-.18,3.08-3.08-.18ZM269.86,371.64l.09-3.08,3.08.09-.09,3.08-3.08-.09ZM288.54,372.08v-3.08h3.08v3.08h-3.08ZM307.22,371.91l-.09-3.08h2.29l.79-.09.09,3.17h-3.08ZM325.89,371.29l-.18-3.08,3-.18h.09l.26,3.08h-.18l-3,.18ZM344.57,370.06l-.26-3.17,2.73-.18.35-.09.26,3.08-.35.09-2.73.26ZM363.16,368.12l-.35-3.08,1.59-.18,1.5-.18.35,3.08-1.5.18-1.59.18ZM381.75,365.47l-.53-3.08,2.38-.35.62-.18.53,3.08-.62.09-2.38.44ZM400.08,361.86l-.7-3h.09l1.41-.35,1.32-.26.18-.09.79,3-.26.09-1.32.35-1.41.26h-.09ZM418.23,357.02l-.97-2.91.88-.26,1.06-.44.97-.26,1.06,2.91-1.06.35-1.06.35-.88.26ZM435.76,349.97l-1.41-2.73.7-.44.79-.35.7-.44.44-.26,1.59,2.73-.44.26-.79.44-.79.35-.79.44ZM450.21,337.11l-2.82-1.23h0l.18-.44.09-.44.18-.35.09-.44v-.35l.09-.44h0l3.08.18v.18l-.09.53-.09.53-.09.62-.18.53-.18.53-.26.53v.09ZM442.81,319.48l-1.76,2.56-.53-.35-.62-.44-.62-.44-.62-.44h-.09l1.59-2.64.18.09.62.44.7.44.62.44.53.35ZM425.98,310.76l-1.15,2.91-.35-.09-1.06-.35-.97-.44-.53-.18,1.06-2.91.53.18,1.06.35.97.44.44.09ZM408.01,305.12l-.79,3.08-1.06-.35-1.32-.26-.62-.18.7-3,.62.09,1.32.35,1.15.26ZM389.68,301.07l-.53,3.08-2.56-.44-.53-.09.53-3.08.62.09,2.47.44ZM371.18,298.08l-.35,3.08-3.08-.44.35-3.08,3.08.44ZM352.59,295.87l-.26,3.08-1.76-.18-1.32-.09.26-3.08,1.41.09,1.67.18ZM334,294.38l-.18,3.08-1.41-.09-1.67-.09.18-3.08,1.67.09,1.41.09ZM315.32,293.41l-.09,3.17-1.85-.09-1.23-.09.09-3.08,1.23.09h1.85Z" style="fill:url(#h); stroke-width:0px;"/><path d="M293.47,619.56c38.15,0,72.77,3.26,97.79,8.55,25.55,5.37,41.41,13.04,41.41,21.76s-15.86,16.48-41.41,21.85c-25.02,5.29-59.65,8.55-97.79,8.55s-72.69-3.26-97.71-8.55c-25.55-5.37-41.41-13.04-41.41-21.85s15.86-16.39,41.41-21.76c25.02-5.29,59.65-8.55,97.71-8.55h0ZM390.65,630.75c-24.85-5.29-59.21-8.46-97.18-8.46s-72.33,3.17-97.18,8.46c-24.23,5.11-39.21,11.89-39.21,19.12s14.98,14.1,39.21,19.21c24.85,5.2,59.21,8.46,97.18,8.46s72.33-3.26,97.18-8.46c24.32-5.11,39.29-11.89,39.29-19.21s-14.98-14.01-39.29-19.12h0Z" style="fill:url(#i); stroke-width:0px;"/><g style="mix-blend-mode:color-dodge;"><path d="M549.76,277.5c0,22.37-138.76,72.82-255.24,169.56C191.04,533.01,13.39,315.42,13.39,293.05S163.13,0,297.66,0s252.11,255.13,252.11,277.5Z" style="fill:#fff; fill-rule:evenodd; opacity:0; stroke-width:0px;"/><path d="M549.24,278.98c0,22.32-138.43,72.61-254.7,168.97C191.19,533.57,14.03,316.79,14.03,294.47S163.39,2.49,297.65,2.49s251.59,254.17,251.59,276.49Z" style="fill:#feffff; fill-rule:evenodd; opacity:0; stroke-width:0px;"/><path d="M548.71,280.46c0,22.28-138.09,72.41-254.17,168.39C191.34,534.12,14.67,318.17,14.67,295.89S163.65,4.98,297.64,4.98s251.07,253.2,251.07,275.48Z" style="fill:#fdfeff; fill-rule:evenodd; opacity:0; stroke-width:0px;"/><path d="M548.18,281.93c0,22.23-137.76,72.2-253.64,167.8C191.49,534.67,15.31,319.54,15.31,297.31S163.91,7.47,297.63,7.47s250.55,252.24,250.55,274.47Z" style="fill:#fcfeff; fill-rule:evenodd; opacity:.01; stroke-width:0px;"/><path d="M547.65,283.41c0,22.19-137.43,71.99-253.11,167.21C191.65,535.23,15.94,320.91,15.94,298.72S164.17,9.96,297.62,9.96s250.03,251.27,250.03,273.46Z" style="fill:#fbfdff; fill-rule:evenodd; opacity:.02; stroke-width:0px;"/><path d="M547.12,284.89c0,22.14-137.09,71.78-252.57,166.62C191.8,535.78,16.58,322.28,16.58,300.14S164.43,12.44,297.62,12.44s249.51,250.3,249.51,272.45Z" style="fill:#fafdff; fill-rule:evenodd; opacity:.02; stroke-width:0px;"/><path d="M546.59,286.37c0,22.1-136.76,71.58-252.04,166.04C191.95,536.34,17.22,323.66,17.22,301.56S164.69,14.93,297.61,14.93s248.99,249.34,248.99,271.44Z" style="fill:#f9fcff; fill-rule:evenodd; opacity:.02; stroke-width:0px;"/><path d="M546.07,287.85c0,22.05-136.42,71.37-251.51,165.45C192.1,536.89,17.86,325.03,17.86,302.98S164.95,17.42,297.6,17.42s248.47,248.37,248.47,270.43Z" style="fill:#f8fcff; fill-rule:evenodd; opacity:.03; stroke-width:0px;"/><path d="M545.54,289.33c0,22.01-136.09,71.16-250.98,164.86C192.25,537.45,18.5,326.4,18.5,304.39S165.21,19.91,297.59,19.91s247.95,247.41,247.95,269.42Z" style="fill:#f7fbff; fill-rule:evenodd; opacity:.03; stroke-width:0px;"/><path d="M545.01,290.81c0,21.96-135.75,70.95-250.44,164.28C192.4,538,19.13,327.78,19.13,305.81S165.47,22.4,297.58,22.4s247.43,246.44,247.43,268.41Z" style="fill:#f6fbff; fill-rule:evenodd; opacity:.04; stroke-width:0px;"/><path d="M544.48,292.28c0,21.92-135.42,70.75-249.91,163.69C192.55,538.56,19.77,329.15,19.77,307.23S165.73,24.89,297.57,24.89s246.91,245.48,246.91,267.4Z" style="fill:#f5fbff; fill-rule:evenodd; opacity:.04; stroke-width:0px;"/><path d="M543.95,293.76c0,21.87-135.08,70.54-249.38,163.1C192.7,539.11,20.41,330.52,20.41,308.65S166,27.38,297.57,27.38s246.39,244.51,246.39,266.38Z" style="fill:#f4faff; fill-rule:evenodd; opacity:.04; stroke-width:0px;"/><path d="M543.42,295.24c0,21.83-134.75,70.33-248.85,162.51C192.85,539.66,21.05,331.89,21.05,310.06S166.26,29.87,297.56,29.87s245.87,243.54,245.87,265.37Z" style="fill:#f3faff; fill-rule:evenodd; opacity:.05; stroke-width:0px;"/><path d="M542.89,296.72c0,21.79-134.42,70.12-248.31,161.93C193.01,540.22,21.69,333.27,21.69,311.48S166.52,32.36,297.55,32.36s245.35,242.58,245.35,264.36Z" style="fill:#f2f9ff; fill-rule:evenodd; opacity:.05; stroke-width:0px;"/><path d="M542.37,298.2c0,21.74-134.08,69.91-247.78,161.34C193.16,540.77,22.32,334.64,22.32,312.9S166.78,34.84,297.54,34.84s244.83,241.61,244.83,263.35Z" style="fill:#f1f9ff; fill-rule:evenodd; opacity:.05; stroke-width:0px;"/><path d="M541.84,299.68c0,21.7-133.75,69.71-247.25,160.75C193.31,541.33,22.96,336.01,22.96,314.32S167.04,37.33,297.53,37.33s244.31,240.65,244.31,262.34Z" style="fill:#f0f8ff; fill-rule:evenodd; opacity:.06; stroke-width:0px;"/><path d="M541.31,301.16c0,21.65-133.41,69.5-246.72,160.17C193.46,541.88,23.6,337.39,23.6,315.73S167.3,39.82,297.52,39.82s243.79,239.68,243.79,261.33Z" style="fill:#eff8ff; fill-rule:evenodd; opacity:.06; stroke-width:0px;"/><path d="M540.78,302.63c0,21.61-133.08,69.29-246.18,159.58C193.61,542.44,24.24,338.76,24.24,317.15S167.56,42.31,297.52,42.31s243.26,238.72,243.26,260.32Z" style="fill:#eef7ff; fill-rule:evenodd; opacity:.07; stroke-width:0px;"/><path d="M540.25,304.11c0,21.56-132.74,69.08-245.65,158.99C193.76,542.99,24.88,340.13,24.88,318.57S167.82,44.8,297.51,44.8s242.74,237.75,242.74,259.31Z" style="fill:#edf7ff; fill-rule:evenodd; opacity:.07; stroke-width:0px;"/><path d="M539.72,305.59c0,21.52-132.41,68.88-245.12,158.41C193.91,543.55,25.51,341.5,25.51,319.99S168.08,47.29,297.5,47.29s242.22,236.79,242.22,258.3Z" style="fill:#ecf7ff; fill-rule:evenodd; opacity:.07; stroke-width:0px;"/><path d="M539.2,307.07c0,21.47-132.07,68.67-244.59,157.82C194.06,544.1,26.15,342.88,26.15,321.41S168.34,49.78,297.49,49.78s241.7,235.82,241.7,257.29Z" style="fill:#ebf6ff; fill-rule:evenodd; opacity:.08; stroke-width:0px;"/><path d="M538.67,308.55c0,21.43-131.74,68.46-244.05,157.23C194.21,544.65,26.79,344.25,26.79,322.82S168.6,52.27,297.48,52.27s241.18,234.85,241.18,256.28Z" style="fill:#eaf6ff; fill-rule:evenodd; opacity:.08; stroke-width:0px;"/><path d="M538.14,310.03c0,21.38-131.41,68.25-243.52,156.64C194.36,545.21,27.43,345.62,27.43,324.24S168.86,54.76,297.47,54.76s240.66,233.89,240.66,255.27Z" style="fill:#e9f5ff; fill-rule:evenodd; opacity:.09; stroke-width:0px;"/><path d="M537.61,311.51c0,21.34-131.07,68.05-242.99,156.06C194.52,545.76,28.07,347,28.07,325.66S169.12,57.24,297.47,57.24s240.14,232.92,240.14,254.26Z" style="fill:#e8f5ff; fill-rule:evenodd; opacity:.09; stroke-width:0px;"/><path d="M537.08,312.98c0,21.29-130.74,67.84-242.46,155.47C194.67,546.32,28.7,348.37,28.7,327.08S169.38,59.73,297.46,59.73s239.62,231.96,239.62,253.25Z" style="fill:#e7f4ff; fill-rule:evenodd; opacity:.09; stroke-width:0px;"/><path d="M536.55,314.46c0,21.25-130.4,67.63-241.92,154.88C194.82,546.87,29.34,349.74,29.34,328.49S169.64,62.22,297.45,62.22s239.1,230.99,239.1,252.24Z" style="fill:#e6f4ff; fill-rule:evenodd; opacity:.1; stroke-width:0px;"/><path d="M536.02,315.94c0,21.2-130.07,67.42-241.39,154.3C194.97,547.43,29.98,351.11,29.98,329.91S169.9,64.71,297.44,64.71s238.58,230.03,238.58,251.23Z" style="fill:#e5f3ff; fill-rule:evenodd; opacity:.1; stroke-width:0px;"/><path d="M535.5,317.42c0,21.16-129.73,67.21-240.86,153.71C195.12,547.98,30.62,352.49,30.62,331.33S170.16,67.2,297.43,67.2s238.06,229.06,238.06,250.22Z" style="fill:#e4f3ff; fill-rule:evenodd; opacity:.11; stroke-width:0px;"/><path d="M534.97,318.9c0,21.11-129.4,67.01-240.33,153.12C195.27,548.54,31.25,353.86,31.25,332.75S170.42,69.69,297.42,69.69s237.54,228.09,237.54,249.21Z" style="fill:#e3f3ff; fill-rule:evenodd; opacity:.11; stroke-width:0px;"/><path d="M534.44,320.38c0,21.07-128.89,67.03-239.8,152.54C195.58,549.29,31.89,355.23,31.89,334.16S170.68,72.18,297.42,72.18s237.02,227.13,237.02,248.2Z" style="fill:#e2f2ff; fill-rule:evenodd; opacity:.11; stroke-width:0px;"/><path d="M533.91,321.86c0,21.03-128.55,66.83-239.26,151.95-98.91,76.05-262.12-117.2-262.12-138.22S170.95,74.67,297.41,74.67s236.5,226.16,236.5,247.19Z" style="fill:#e1f2ff; fill-rule:evenodd; opacity:.12; stroke-width:0px;"/><path d="M533.38,323.33c0,20.98-128.21,66.63-238.73,151.36-98.76,75.72-261.48-116.72-261.48-137.7S171.21,77.16,297.4,77.16s235.98,225.2,235.98,246.18Z" style="fill:#e0f1ff; fill-rule:evenodd; opacity:.12; stroke-width:0px;"/><path d="M532.85,324.81c0,20.94-127.87,66.43-238.2,150.77-98.61,75.39-260.85-116.23-260.85-137.17S171.47,79.65,297.39,79.65s235.46,224.23,235.46,245.17Z" style="fill:#dff1ff; fill-rule:evenodd; opacity:.13; stroke-width:0px;"/><path d="M532.33,326.29c0,20.89-127.53,66.23-237.67,150.19-98.46,75.06-260.22-115.75-260.22-136.65S171.73,82.13,297.38,82.13s234.94,223.27,234.94,244.16Z" style="fill:#def0ff; fill-rule:evenodd; opacity:.13; stroke-width:0px;"/><path d="M531.8,327.77c0,20.85-127.19,66.03-237.13,149.6-98.31,74.73-259.58-115.27-259.58-136.12S171.99,84.62,297.38,84.62s234.42,222.3,234.42,243.15Z" style="fill:#ddf0ff; fill-rule:evenodd; opacity:.13; stroke-width:0px;"/><path d="M531.27,329.25c0,20.8-126.85,65.83-236.6,149.01-98.16,74.4-258.95-114.79-258.95-135.59S172.25,87.11,297.37,87.11s233.9,221.33,233.9,242.14Z" style="fill:#dcefff; fill-rule:evenodd; opacity:.14; stroke-width:0px;"/><path d="M530.74,330.73c0,20.76-126.51,65.63-236.07,148.43-98,74.07-258.31-114.31-258.31-135.07S172.51,89.6,297.36,89.6s233.38,220.37,233.38,241.13Z" style="fill:#dbefff; fill-rule:evenodd; opacity:.14; stroke-width:0px;"/><path d="M530.21,332.21c0,20.71-126.17,65.43-235.54,147.84-97.85,73.74-257.68-113.83-257.68-134.54S172.77,92.09,297.35,92.09s232.86,219.4,232.86,240.12Z" style="fill:#daefff; fill-rule:evenodd; opacity:.15; stroke-width:0px;"/><path d="M529.68,333.68c0,20.67-125.83,65.22-235,147.25-97.7,73.41-257.05-113.35-257.05-134.01S173.03,94.58,297.34,94.58s232.34,218.44,232.34,239.11Z" style="fill:#d9eeff; fill-rule:evenodd; opacity:.15; stroke-width:0px;"/><path d="M529.16,335.16c0,20.62-125.49,65.02-234.47,146.66-97.55,73.08-256.41-112.87-256.41-133.49S173.29,97.07,297.33,97.07s231.82,217.47,231.82,238.1Z" style="fill:#d8eeff; fill-rule:evenodd; opacity:.15; stroke-width:0px;"/><path d="M528.63,336.64c0,20.58-125.15,64.82-233.94,146.08-97.4,72.75-255.78-112.38-255.78-132.96S173.55,99.56,297.33,99.56s231.3,216.51,231.3,237.09Z" style="fill:#d7edff; fill-rule:evenodd; opacity:.16; stroke-width:0px;"/><path d="M528.1,338.12c0,20.53-124.81,64.62-233.41,145.49-97.25,72.42-255.14-111.9-255.14-132.44S173.81,102.05,297.32,102.05s230.78,215.54,230.78,236.07Z" style="fill:#d6edff; fill-rule:evenodd; opacity:.16; stroke-width:0px;"/><path d="M527.57,339.6c0,20.49-124.48,64.42-232.87,144.9-97.09,72.09-254.51-111.42-254.51-131.91S174.07,104.53,297.31,104.53s230.26,214.58,230.26,235.06Z" style="fill:#d5ecff; fill-rule:evenodd; opacity:.16; stroke-width:0px;"/><path d="M527.04,341.08c0,20.44-124.14,64.22-232.34,144.32-96.94,71.76-253.88-110.94-253.88-131.38S174.33,107.02,297.3,107.02s229.74,213.61,229.74,234.05Z" style="fill:#d4ecff; fill-rule:evenodd; opacity:.17; stroke-width:0px;"/><path d="M526.51,342.56c0,20.4-123.8,64.02-231.81,143.73-96.79,71.43-253.24-110.46-253.24-130.86S174.59,109.51,297.29,109.51s229.22,212.64,229.22,233.04Z" style="fill:#d3ecff; fill-rule:evenodd; opacity:.17; stroke-width:0px;"/><path d="M525.98,344.03c0,20.36-123.46,63.82-231.28,143.14-96.64,71.1-252.61-109.98-252.61-130.33S174.85,112,297.28,112s228.7,211.68,228.7,232.03Z" style="fill:#d2ebff; fill-rule:evenodd; opacity:.18; stroke-width:0px;"/><path d="M525.46,345.51c0,20.31-123.12,63.62-230.74,142.56-96.49,70.77-251.97-109.5-251.97-129.81S175.11,114.49,297.28,114.49s228.18,210.71,228.18,231.02Z" style="fill:#d1ebff; fill-rule:evenodd; opacity:.18; stroke-width:0px;"/><path d="M524.93,346.99c0,20.27-122.78,63.42-230.21,141.97-96.34,70.44-251.34-109.01-251.34-129.28S175.37,116.98,297.27,116.98s227.66,209.75,227.66,230.01Z" style="fill:#d0eaff; fill-rule:evenodd; opacity:.18; stroke-width:0px;"/><path d="M524.4,348.47c0,20.22-122.44,63.22-229.68,141.38-96.19,70.1-250.71-108.53-250.71-128.75S175.63,119.47,297.26,119.47s227.14,208.78,227.14,229Z" style="fill:#cfeaff; fill-rule:evenodd; opacity:.19; stroke-width:0px;"/><path d="M523.87,349.95c0,20.18-122.1,63.02-229.15,140.79-96.04,69.77-250.07-108.05-250.07-128.23S175.9,121.96,297.25,121.96s226.62,207.82,226.62,227.99Z" style="fill:#cee9ff; fill-rule:evenodd; opacity:.19; stroke-width:0px;"/><path d="M523.34,351.43c0,20.13-121.76,62.82-228.61,140.21-95.88,69.44-249.44-107.57-249.44-127.7S176.16,124.45,297.24,124.45s226.1,206.85,226.1,226.98Z" style="fill:#cde9ff; fill-rule:evenodd; opacity:.2; stroke-width:0px;"/><path d="M522.81,352.91c0,20.09-121.42,62.62-228.08,139.62-95.73,69.11-248.8-107.09-248.8-127.18S176.42,126.93,297.23,126.93s225.58,205.88,225.58,225.97Z" style="fill:#cce8ff; fill-rule:evenodd; opacity:.2; stroke-width:0px;"/><path d="M522.29,354.38c0,20.04-121.09,62.42-227.55,139.03-95.58,68.78-248.17-106.61-248.17-126.65s130.11-237.34,250.66-237.34,225.06,204.92,225.06,224.96Z" style="fill:#cbe8ff; fill-rule:evenodd; opacity:.2; stroke-width:0px;"/><path d="M521.76,355.86c0,20-120.75,62.22-227.02,138.45-95.43,68.45-247.54-106.13-247.54-126.12s129.73-236.27,250.01-236.27,224.54,203.95,224.54,223.95Z" style="fill:#cae8ff; fill-rule:evenodd; opacity:.21; stroke-width:0px;"/><path d="M521.23,357.34c0,19.95-120.41,62.02-226.48,137.86-95.28,68.12-246.9-105.65-246.9-125.6s129.36-235.2,249.37-235.2,224.02,202.99,224.02,222.94Z" style="fill:#c9e7ff; fill-rule:evenodd; opacity:.21; stroke-width:0px;"/><path d="M520.7,358.82c0,19.91-120.07,61.82-225.95,137.27-95.13,67.79-246.27-105.16-246.27-125.07s128.98-234.13,248.72-234.13,223.5,202.02,223.5,221.93Z" style="fill:#c8e7ff; fill-rule:evenodd; opacity:.22; stroke-width:0px;"/><path d="M520.17,360.3c0,19.86-119.73,61.62-225.42,136.68-94.98,67.46-245.63-104.68-245.63-124.55s128.6-233.06,248.07-233.06,222.98,201.06,222.98,220.92Z" style="fill:#c7e6ff; fill-rule:evenodd; opacity:.22; stroke-width:0px;"/><path d="M519.64,361.78c0,19.82-119.39,61.42-224.89,136.1-94.83,67.13-245-104.2-245-124.02s128.22-231.99,247.43-231.99,222.46,200.09,222.46,219.91Z" style="fill:#c6e6ff; fill-rule:evenodd; opacity:.22; stroke-width:0px;"/><path d="M519.11,363.26c0,19.77-119.05,61.22-224.35,135.51-94.68,66.8-244.37-103.72-244.37-123.49s127.85-230.92,246.78-230.92,221.94,199.12,221.94,218.9Z" style="fill:#c5e5ff; fill-rule:evenodd; opacity:.23; stroke-width:0px;"/><path d="M518.59,364.73c0,19.73-118.72,61.02-223.82,134.92-94.53,66.47-243.73-103.24-243.73-122.97s127.47-229.84,246.14-229.84,221.42,198.16,221.42,217.89Z" style="fill:#c4e5ff; fill-rule:evenodd; opacity:.23; stroke-width:0px;"/><path d="M518.06,366.21c0,19.68-118.38,60.82-223.29,134.34-94.38,66.14-243.1-102.76-243.1-122.44s127.09-228.77,245.49-228.77,220.9,197.19,220.9,216.88Z" style="fill:#c3e4ff; fill-rule:evenodd; opacity:.24; stroke-width:0px;"/><path d="M517.53,367.69c0,19.64-118.04,60.61-222.76,133.75-94.23,65.81-242.46-102.28-242.46-121.92s126.71-227.7,244.84-227.7,220.38,196.23,220.38,215.87Z" style="fill:#c2e4ff; fill-rule:evenodd; opacity:.24; stroke-width:0px;"/><path d="M517,369.17c0,19.6-117.7,60.41-222.23,133.16-94.08,65.48-241.83-101.79-241.83-121.39s126.34-226.63,244.2-226.63,219.86,195.26,219.86,214.86Z" style="fill:#c1e4ff; fill-rule:evenodd; opacity:.24; stroke-width:0px;"/><path d="M516.47,370.65c0,19.55-117.36,60.21-221.69,132.58-93.93,65.15-241.2-101.31-241.2-120.86s125.96-225.56,243.55-225.56,219.34,194.3,219.34,213.85Z" style="fill:#c0e3ff; fill-rule:evenodd; opacity:.25; stroke-width:0px;"/><path d="M515.94,372.13c0,19.51-117.03,60.01-221.16,131.99-93.77,64.82-240.56-100.83-240.56-120.34s125.58-224.49,242.9-224.49,218.82,193.33,218.82,212.84Z" style="fill:#bfe3ff; fill-rule:evenodd; opacity:.25; stroke-width:0px;"/><path d="M515.42,373.61c0,19.46-116.69,59.81-220.63,131.4-93.62,64.48-239.93-100.35-239.93-119.81s125.2-223.42,242.26-223.42,218.3,192.37,218.3,211.83Z" style="fill:#bee2ff; fill-rule:evenodd; opacity:.25; stroke-width:0px;"/><path d="M514.89,375.08c0,19.42-116.35,59.61-220.1,130.81-93.47,64.15-239.29-99.87-239.29-119.29s124.83-222.35,241.61-222.35,217.78,191.4,217.78,210.82Z" style="fill:#bde2ff; fill-rule:evenodd; opacity:.26; stroke-width:0px;"/><path d="M514.36,376.56c0,19.37-116.01,59.41-219.56,130.23-93.32,63.82-238.66-99.39-238.66-118.76s124.45-221.27,240.97-221.27,217.26,190.43,217.26,209.81Z" style="fill:#bce1ff; fill-rule:evenodd; opacity:.26; stroke-width:0px;"/><path d="M513.83,378.04c0,19.33-115.67,59.21-219.03,129.64-93.17,63.49-238.03-98.91-238.03-118.23s124.07-220.2,240.32-220.2,216.74,189.47,216.74,208.8Z" style="fill:#bbe1ff; fill-rule:evenodd; opacity:.27; stroke-width:0px;"/><path d="M513.3,379.52c0,19.28-115.34,59.01-218.5,129.05-93.02,63.16-237.39-98.42-237.39-117.71s123.69-219.13,239.67-219.13,216.22,188.5,216.22,207.79Z" style="fill:#bae0ff; fill-rule:evenodd; opacity:.27; stroke-width:0px;"/><path d="M512.77,381c0,19.24-115,58.81-217.97,128.47-92.87,62.83-236.76-97.94-236.76-117.18s123.32-218.06,239.03-218.06,215.7,187.54,215.7,206.78Z" style="fill:#b9e0ff; fill-rule:evenodd; opacity:.27; stroke-width:0px;"/><path d="M512.24,382.48c0,19.19-114.66,58.61-217.43,127.88-92.72,62.5-236.12-97.46-236.12-116.66s122.94-216.99,238.38-216.99,215.18,186.57,215.18,205.76Z" style="fill:#b8e0ff; fill-rule:evenodd; opacity:.28; stroke-width:0px;"/><path d="M511.72,383.96c0,19.15-114.32,58.4-216.9,127.29-92.57,62.17-235.49-96.98-235.49-116.13s122.56-215.92,237.73-215.92,214.66,185.61,214.66,204.75Z" style="fill:#b7dfff; fill-rule:evenodd; opacity:.28; stroke-width:0px;"/><path d="M511.19,385.43c0,19.1-113.99,58.2-216.37,126.71-92.42,61.84-234.86-96.5-234.86-115.6s122.18-214.85,237.09-214.85,214.14,184.64,214.14,203.74Z" style="fill:#b6dfff; fill-rule:evenodd; opacity:.29; stroke-width:0px;"/><path d="M510.66,386.91c0,19.06-113.65,58-215.84,126.12-92.27,61.51-234.22-96.02-234.22-115.08s121.81-213.77,236.44-213.77,213.62,183.67,213.62,202.73Z" style="fill:#b5deff; fill-rule:evenodd; opacity:.29; stroke-width:0px;"/><path d="M510.13,388.39c0,19.01-113.31,57.8-215.3,125.53-92.12,61.18-233.59-95.54-233.59-114.55s121.43-212.7,235.8-212.7,213.1,182.71,213.1,201.72Z" style="fill:#b4deff; fill-rule:evenodd; opacity:.29; stroke-width:0px;"/><path d="M509.6,389.87c0,18.97-112.97,57.6-214.77,124.94-91.97,60.85-232.95-95.06-232.95-114.03s121.05-211.63,235.15-211.63,212.58,181.74,212.58,200.71Z" style="fill:#b3ddff; fill-rule:evenodd; opacity:.3; stroke-width:0px;"/><path d="M509.07,391.35c0,18.93-112.64,57.4-214.24,124.36-91.82,60.51-232.32-94.57-232.32-113.5s120.67-210.56,234.5-210.56,212.06,180.78,212.06,199.7Z" style="fill:#b2ddff; fill-rule:evenodd; opacity:.3; stroke-width:0px;"/><path d="M508.55,392.83c0,18.88-112.3,57.2-213.71,123.77-91.67,60.18-231.69-94.09-231.69-112.97s120.3-209.49,233.86-209.49,211.54,179.81,211.54,198.69Z" style="fill:#b1dcff; fill-rule:evenodd; opacity:.31; stroke-width:0px;"/><path d="M508.02,394.31c0,18.84-111.96,57-213.17,123.18-91.53,59.85-231.05-93.61-231.05-112.45s119.92-208.42,233.21-208.42,211.02,178.85,211.02,197.68Z" style="fill:#b0dcff; fill-rule:evenodd; opacity:.31; stroke-width:0px;"/><path d="M507.49,395.78c0,18.79-111.62,56.79-212.64,122.6-91.38,59.52-230.42-93.13-230.42-111.92s119.54-207.35,232.56-207.35,210.5,177.88,210.5,196.67Z" style="fill:#afdcff; fill-rule:evenodd; opacity:.31; stroke-width:0px;"/><path d="M506.96,397.26c0,18.75-111.29,56.59-212.11,122.01-91.23,59.19-229.78-92.65-229.78-111.39s119.16-206.28,231.92-206.28,209.98,176.92,209.98,195.66Z" style="fill:#aedbff; fill-rule:evenodd; opacity:.32; stroke-width:0px;"/><path d="M506.43,398.74c0,18.7-110.95,56.39-211.58,121.42-91.08,58.86-229.15-92.17-229.15-110.87s118.79-205.2,231.27-205.2,209.45,175.95,209.45,194.65Z" style="fill:#addbff; fill-rule:evenodd; opacity:.32; stroke-width:0px;"/><path d="M505.9,400.22c0,18.66-110.61,56.19-211.04,120.83-90.93,58.53-228.52-91.69-228.52-110.34s118.41-204.13,230.63-204.13,208.93,174.98,208.93,193.64Z" style="fill:#acdaff; fill-rule:evenodd; opacity:.33; stroke-width:0px;"/><path d="M505.38,401.7c0,18.61-110.28,55.99-210.51,120.25-90.78,58.2-227.88-91.2-227.88-109.82s118.03-203.06,229.98-203.06,208.41,174.02,208.41,192.63Z" style="fill:#abdaff; fill-rule:evenodd; opacity:.33; stroke-width:0px;"/><path d="M504.85,403.18c0,18.57-109.94,55.79-209.98,119.66-90.63,57.86-227.25-90.72-227.25-109.29s117.65-201.99,229.33-201.99,207.89,173.05,207.89,191.62Z" style="fill:#aad9ff; fill-rule:evenodd; opacity:.33; stroke-width:0px;"/><path d="M504.32,404.66c0,18.52-109.6,55.59-209.45,119.07-90.48,57.53-226.61-90.24-226.61-108.76s117.28-200.92,228.69-200.92,207.37,172.09,207.37,190.61Z" style="fill:#a9d9ff; fill-rule:evenodd; opacity:.34; stroke-width:0px;"/><path d="M503.79,406.13c0,18.48-109.27,55.38-208.91,118.49-90.33,57.2-225.98-89.76-225.98-108.24s116.9-199.85,228.04-199.85,206.85,171.12,206.85,189.6Z" style="fill:#a8d8ff; fill-rule:evenodd; opacity:.34; stroke-width:0px;"/><path d="M503.26,407.61c0,18.43-108.93,55.18-208.38,117.9-90.18,56.87-225.35-89.28-225.35-107.71s116.52-198.78,227.39-198.78,206.33,170.16,206.33,188.59Z" style="fill:#a7d8ff; fill-rule:evenodd; opacity:.35; stroke-width:0px;"/><path d="M502.73,409.09c0,18.39-108.59,54.98-207.85,117.31-90.03,56.54-224.71-88.8-224.71-107.19s116.14-197.7,226.75-197.7,205.81,169.19,205.81,187.58Z" style="fill:#a6d8ff; fill-rule:evenodd; opacity:.35; stroke-width:0px;"/><path d="M502.2,410.57c0,18.34-108.26,54.78-207.32,116.73-89.88,56.21-224.08-88.32-224.08-106.66s115.77-196.63,226.1-196.63,205.29,168.22,205.29,186.57Z" style="fill:#a5d7ff; fill-rule:evenodd; opacity:.35; stroke-width:0px;"/><path d="M501.68,412.05c0,18.3-107.92,54.58-206.79,116.14-89.73,55.88-223.44-87.84-223.44-106.13s115.39-195.56,225.46-195.56,204.77,167.26,204.77,185.56Z" style="fill:#a4d7ff; fill-rule:evenodd; opacity:.36; stroke-width:0px;"/><path d="M501.15,413.53c0,18.25-107.58,54.38-206.25,115.55-89.59,55.54-222.81-87.35-222.81-105.61s115.01-194.49,224.81-194.49,204.25,166.29,204.25,184.55Z" style="fill:#a3d6ff; fill-rule:evenodd; opacity:.36; stroke-width:0px;"/><path d="M500.62,415.01c0,18.21-107.25,54.17-205.72,114.96-89.44,55.21-222.18-86.87-222.18-105.08s114.63-193.42,224.16-193.42,203.73,165.33,203.73,183.54Z" style="fill:#a2d6ff; fill-rule:evenodd; opacity:.36; stroke-width:0px;"/><path d="M500.09,416.48c0,18.17-106.91,53.97-205.19,114.38-89.29,54.88-221.54-86.39-221.54-104.56s114.26-192.35,223.52-192.35,203.21,164.36,203.21,182.53Z" style="fill:#a1d5ff; fill-rule:evenodd; opacity:.37; stroke-width:0px;"/><path d="M499.56,417.96c0,18.12-106.58,53.77-204.66,113.79-89.14,54.55-220.91-85.91-220.91-104.03s113.88-191.28,222.87-191.28,202.69,163.4,202.69,181.52Z" style="fill:#a0d5ff; fill-rule:evenodd; opacity:.37; stroke-width:0px;"/><path d="M499.03,419.44c0,18.08-106.24,53.57-204.12,113.2-88.99,54.22-220.27-85.43-220.27-103.5s113.5-190.21,222.22-190.21,202.17,162.43,202.17,180.51Z" style="fill:#9fd4ff; fill-rule:evenodd; opacity:.38; stroke-width:0px;"/><path d="M498.51,420.92c0,18.03-105.9,53.37-203.59,112.62-88.84,53.89-219.64-84.95-219.64-102.98s113.13-189.13,221.58-189.13,201.65,161.46,201.65,179.5Z" style="fill:#9ed4ff; fill-rule:evenodd; opacity:.38; stroke-width:0px;"/><path d="M497.98,422.4c0,17.99-105.57,53.16-203.06,112.03-88.69,53.55-219.01-84.47-219.01-102.45s112.75-188.06,220.93-188.06,201.13,160.5,201.13,178.49Z" style="fill:#9dd4ff; fill-rule:evenodd; opacity:.38; stroke-width:0px;"/><path d="M497.45,423.88c0,17.94-105.23,52.96-202.53,111.44-88.54,53.22-218.37-83.98-218.37-101.93s112.37-186.99,220.29-186.99,200.61,159.53,200.61,177.48Z" style="fill:#9cd3ff; fill-rule:evenodd; opacity:.39; stroke-width:0px;"/><path d="M496.92,425.36c0,17.9-104.9,52.76-201.99,110.85-88.4,52.89-217.74-83.5-217.74-101.4s111.99-185.92,219.64-185.92,200.09,158.57,200.09,176.46Z" style="fill:#9bd3ff; fill-rule:evenodd; opacity:.39; stroke-width:0px;"/><path d="M496.39,426.83c0,17.85-104.56,52.56-201.46,110.27-88.25,52.56-217.1-83.02-217.1-100.87s111.62-184.85,218.99-184.85,199.57,157.6,199.57,175.45Z" style="fill:#9ad2ff; fill-rule:evenodd; opacity:.4; stroke-width:0px;"/><path d="M495.86,428.31c0,17.81-104.22,52.35-200.93,109.68-88.1,52.23-216.47-82.54-216.47-100.35s111.24-183.78,218.35-183.78,199.05,156.64,199.05,174.44Z" style="fill:#99d2ff; fill-rule:evenodd; opacity:.4; stroke-width:0px;"/><path d="M495.33,429.79c0,17.76-103.89,52.15-200.4,109.09-87.95,51.89-215.84-82.06-215.84-99.82s110.86-182.71,217.7-182.71,198.53,155.67,198.53,173.43Z" style="fill:#98d1ff; fill-rule:evenodd; opacity:.4; stroke-width:0px;"/><path d="M494.81,431.27c0,17.72-103.55,51.95-199.86,108.51-87.8,51.56-215.2-81.58-215.2-99.3s110.48-181.63,217.05-181.63,198.01,154.71,198.01,172.42Z" style="fill:#97d1ff; fill-rule:evenodd; opacity:.41; stroke-width:0px;"/><path d="M494.28,432.75c0,17.67-103.22,51.75-199.33,107.92-87.66,51.23-214.57-81.1-214.57-98.77s110.11-180.56,216.41-180.56,197.49,153.74,197.49,171.41Z" style="fill:#96d0ff; fill-rule:evenodd; opacity:.41; stroke-width:0px;"/><path d="M493.75,434.23c0,17.63-102.88,51.54-198.8,107.33-87.51,50.9-213.93-80.61-213.93-98.24s109.73-179.49,215.76-179.49,196.97,152.77,196.97,170.4Z" style="fill:#95d0ff; fill-rule:evenodd; opacity:.42; stroke-width:0px;"/><path d="M493.22,435.71c0,17.58-102.55,51.34-198.27,106.75-87.36,50.57-213.3-80.13-213.3-97.72s109.35-178.42,215.12-178.42,196.45,151.81,196.45,169.39Z" style="fill:#94d0ff; fill-rule:evenodd; opacity:.42; stroke-width:0px;"/><path d="M492.69,437.18c0,17.54-102.21,51.14-197.73,106.16-87.21,50.23-212.67-79.65-212.67-97.19s108.97-177.35,214.47-177.35,195.93,150.84,195.93,168.38Z" style="fill:#93cfff; fill-rule:evenodd; opacity:.42; stroke-width:0px;"/><path d="M492.16,438.66c0,17.49-101.88,50.94-197.2,105.57-87.06,49.9-212.03-79.17-212.03-96.67s108.6-176.28,213.82-176.28,195.41,149.88,195.41,167.37Z" style="fill:#92cfff; fill-rule:evenodd; opacity:.43; stroke-width:0px;"/><path d="M491.64,440.14c0,17.45-101.54,50.73-196.67,104.98-86.92,49.57-211.4-78.69-211.4-96.14s108.22-175.21,213.18-175.21,194.89,148.91,194.89,166.36Z" style="fill:#91ceff; fill-rule:evenodd; opacity:.43; stroke-width:0px;"/><path d="M491.11,441.62c0,17.41-101.21,50.53-196.14,104.4-86.77,49.24-210.76-78.21-210.76-95.61s107.84-174.14,212.53-174.14,194.37,147.95,194.37,165.35Z" style="fill:#90ceff; fill-rule:evenodd; opacity:.44; stroke-width:0px;"/><path d="M490.58,443.1c0,17.36-100.87,50.33-195.6,103.81-86.62,48.9-210.13-77.73-210.13-95.09s107.46-173.06,211.88-173.06,193.85,146.98,193.85,164.34Z" style="fill:#8fcdff; fill-rule:evenodd; opacity:.44; stroke-width:0px;"/><path d="M490.05,444.58c0,17.32-100.54,50.12-195.07,103.22-86.47,48.57-209.5-77.25-209.5-94.56s107.09-171.99,211.24-171.99,193.33,146.01,193.33,163.33Z" style="fill:#8ecdff; fill-rule:evenodd; opacity:.44; stroke-width:0px;"/><path d="M489.52,446.06c0,17.27-100.2,49.92-194.54,102.64-86.33,48.24-208.86-76.76-208.86-94.04s106.71-170.92,210.59-170.92,192.81,145.05,192.81,162.32Z" style="fill:#8dccff; fill-rule:evenodd; opacity:.45; stroke-width:0px;"/><path d="M488.99,447.53c0,17.23-99.87,49.72-194.01,102.05-86.18,47.91-208.23-76.28-208.23-93.51s106.33-169.85,209.94-169.85,192.29,144.08,192.29,161.31Z" style="fill:#8cccff; fill-rule:evenodd; opacity:.45; stroke-width:0px;"/><path d="M488.46,449.01c0,17.18-99.53,49.51-193.47,101.46-86.03,47.57-207.59-75.8-207.59-92.98s105.95-168.78,209.3-168.78,191.77,143.12,191.77,160.3Z" style="fill:#8bccff; fill-rule:evenodd; opacity:.45; stroke-width:0px;"/><path d="M487.94,450.49c0,17.14-99.2,49.31-192.94,100.88-85.88,47.24-206.96-75.32-206.96-92.46s105.58-167.71,208.65-167.71,191.25,142.15,191.25,159.29Z" style="fill:#8acbff; fill-rule:evenodd; opacity:.46; stroke-width:0px;"/><path d="M487.41,451.97c0,17.09-98.86,49.11-192.41,100.29-85.74,46.91-206.33-74.84-206.33-91.93s105.2-166.64,208.01-166.64,190.73,141.19,190.73,158.28Z" style="fill:#89cbff; fill-rule:evenodd; opacity:.46; stroke-width:0px;"/><path d="M486.88,453.45c0,17.05-98.53,48.9-191.88,99.7-85.59,46.58-205.69-74.36-205.69-91.4s104.82-165.56,207.36-165.56,190.21,140.22,190.21,157.27Z" style="fill:#88caff; fill-rule:evenodd; opacity:.47; stroke-width:0px;"/><path d="M486.35,454.93c0,17-98.2,48.7-191.34,99.11-85.44,46.24-205.06-73.88-205.06-90.88s104.44-164.49,206.71-164.49,189.69,139.25,189.69,156.26Z" style="fill:#87caff; fill-rule:evenodd; opacity:.47; stroke-width:0px;"/><path d="M485.82,456.41c0,16.96-97.86,48.5-190.81,98.53-85.3,45.91-204.42-73.39-204.42-90.35s104.07-163.42,206.07-163.42,189.17,138.29,189.17,155.25Z" style="fill:#86c9ff; fill-rule:evenodd; opacity:.47; stroke-width:0px;"/><path d="M485.29,457.88c0,16.91-97.53,48.29-190.28,97.94-85.15,45.58-203.79-72.91-203.79-89.83s103.69-162.35,205.42-162.35,188.65,137.32,188.65,154.24Z" style="fill:#85c9ff; fill-rule:evenodd; opacity:.48; stroke-width:0px;"/><path d="M484.77,459.36c0,16.87-97.19,48.09-189.75,97.35-85,45.24-203.16-72.43-203.16-89.3s103.31-161.28,204.77-161.28,188.13,136.36,188.13,153.23Z" style="fill:#84c8ff; fill-rule:evenodd; opacity:.48; stroke-width:0px;"/><path d="M484.24,460.84c0,16.82-96.86,47.89-189.22,96.77-84.85,44.91-202.52-71.95-202.52-88.77s102.93-160.21,204.13-160.21,187.61,135.39,187.61,152.22Z" style="fill:#83c8ff; fill-rule:evenodd; opacity:.49; stroke-width:0px;"/><path d="M483.71,462.32c0,16.78-96.52,47.68-188.68,96.18-84.71,44.58-201.89-71.47-201.89-88.25s102.56-159.14,203.48-159.14,187.09,134.43,187.09,151.21Z" style="fill:#82c8ff; fill-rule:evenodd; opacity:.49; stroke-width:0px;"/><path d="M483.18,463.8c0,16.74-96.19,47.48-188.15,95.59-84.56,44.24-201.25-70.99-201.25-87.72s102.18-158.07,202.84-158.07,186.57,133.46,186.57,150.2Z" style="fill:#81c7ff; fill-rule:evenodd; opacity:.49; stroke-width:0px;"/><path d="M482.65,465.28c0,16.69-95.86,47.27-187.62,95-84.41,43.91-200.62-70.51-200.62-87.2s101.8-156.99,202.19-156.99,186.05,132.5,186.05,149.19Z" style="fill:#80c7ff; fill-rule:evenodd; opacity:.5; stroke-width:0px;"/><path d="M482.12,466.76c0,16.65-95.52,47.07-187.09,94.42-84.27,43.58-199.99-70.02-199.99-86.67s101.42-155.92,201.54-155.92,185.53,131.53,185.53,148.18Z" style="fill:#7fc6ff; fill-rule:evenodd; opacity:.5; stroke-width:0px;"/><path d="M481.59,468.23c0,16.6-95.19,46.87-186.55,93.83-84.12,43.24-199.35-69.54-199.35-86.14s101.05-154.85,200.9-154.85,185.01,130.56,185.01,147.17Z" style="fill:#7ec6ff; fill-rule:evenodd; opacity:.51; stroke-width:0px;"/><path d="M481.07,469.71c0,16.56-94.86,46.66-186.02,93.24-83.97,42.91-198.72-69.06-198.72-85.62s100.67-153.78,200.25-153.78,184.49,129.6,184.49,146.15Z" style="fill:#7dc5ff; fill-rule:evenodd; opacity:.51; stroke-width:0px;"/><path d="M480.54,471.19c0,16.51-94.52,46.46-185.49,92.66-83.83,42.58-198.08-68.58-198.08-85.09s100.29-152.71,199.6-152.71,183.97,128.63,183.97,145.14Z" style="fill:#7cc5ff; fill-rule:evenodd; opacity:.51; stroke-width:0px;"/><path d="M480.01,472.67c0,16.47-94.19,46.25-184.96,92.07-83.68,42.24-197.45-68.1-197.45-84.57s99.91-151.64,198.96-151.64,183.45,127.67,183.45,144.13Z" style="fill:#7bc5ff; fill-rule:evenodd; opacity:.52; stroke-width:0px;"/><path d="M479.48,474.15c0,16.42-93.86,46.05-184.42,91.48-83.54,41.91-196.82-67.62-196.82-84.04s99.54-150.57,198.31-150.57,182.93,126.7,182.93,143.12Z" style="fill:#7ac4ff; fill-rule:evenodd; opacity:.52; stroke-width:0px;"/><path d="M478.95,475.63c0,16.38-93.52,45.84-183.89,90.9-83.39,41.57-196.18-67.14-196.18-83.51s99.16-149.49,197.67-149.49,182.41,125.74,182.41,142.11Z" style="fill:#79c4ff; fill-rule:evenodd; opacity:.53; stroke-width:0px;"/><path d="M478.42,477.11c0,16.33-93.19,45.64-183.36,90.31-83.24,41.24-195.55-66.66-195.55-82.99s98.78-148.42,197.02-148.42,181.89,124.77,181.89,141.1Z" style="fill:#78c3ff; fill-rule:evenodd; opacity:.53; stroke-width:0px;"/><path d="M477.9,478.58c0,16.29-92.86,45.43-182.83,89.72-83.1,40.91-194.91-66.17-194.91-82.46s98.4-147.35,196.37-147.35,181.37,123.8,181.37,140.09Z" style="fill:#77c3ff; fill-rule:evenodd; opacity:.53; stroke-width:0px;"/><path d="M477.37,480.06c0,16.24-92.52,45.23-182.29,89.13-82.95,40.57-194.28-65.69-194.28-81.94s98.03-146.28,195.73-146.28,180.85,122.84,180.85,139.08Z" style="fill:#76c2ff; fill-rule:evenodd; opacity:.54; stroke-width:0px;"/><path d="M476.84,481.54c0,16.2-92.19,45.02-181.76,88.55-82.81,40.24-193.65-65.21-193.65-81.41s97.65-145.21,195.08-145.21,180.33,121.87,180.33,138.07Z" style="fill:#75c2ff; fill-rule:evenodd; opacity:.54; stroke-width:0px;"/><path d="M476.31,483.02c0,16.15-91.86,44.82-181.23,87.96-82.66,39.9-193.01-64.73-193.01-80.88s97.27-144.14,194.43-144.14,179.81,120.91,179.81,137.06Z" style="fill:#74c1ff; fill-rule:evenodd; opacity:.55; stroke-width:0px;"/><path d="M475.78,484.5c0,16.11-91.52,44.61-180.7,87.37-82.51,39.57-192.38-64.25-192.38-80.36s96.89-143.07,193.79-143.07,179.29,119.94,179.29,136.05Z" style="fill:#73c1ff; fill-rule:evenodd; opacity:.55; stroke-width:0px;"/><path d="M475.25,485.98c0,16.06-91.19,44.41-180.16,86.79-82.37,39.23-191.74-63.77-191.74-79.83s96.52-142,193.14-142,178.77,118.98,178.77,135.04Z" style="fill:#72c1ff; fill-rule:evenodd; opacity:.55; stroke-width:0px;"/><path d="M474.73,487.46c0,16.02-90.86,44.2-179.63,86.2-82.22,38.9-191.11-63.29-191.11-79.31s96.14-140.92,192.5-140.92,178.25,118.01,178.25,134.03Z" style="fill:#71c0ff; fill-rule:evenodd; opacity:.56; stroke-width:0px;"/><path d="M474.2,488.93c0,15.98-90.53,44-179.1,85.61-82.08,38.56-190.48-62.8-190.48-78.78s95.76-139.85,191.85-139.85,177.73,117.05,177.73,133.02Z" style="fill:#70c0ff; fill-rule:evenodd; opacity:.56; stroke-width:0px;"/><path d="M473.67,490.41c0,15.93-90.19,43.79-178.57,85.02-81.93,38.23-189.84-62.32-189.84-78.25s95.38-138.78,191.2-138.78,177.21,116.08,177.21,132.01Z" style="fill:#6fbfff; fill-rule:evenodd; opacity:.56; stroke-width:0px;"/><path d="M473.14,491.89c0,15.89-89.86,43.58-178.03,84.44-81.79,37.89-189.21-61.84-189.21-77.73s95.01-137.71,190.56-137.71,176.69,115.11,176.69,131Z" style="fill:#6ebfff; fill-rule:evenodd; opacity:.57; stroke-width:0px;"/><path d="M472.61,493.37c0,15.84-89.53,43.38-177.5,83.85-81.64,37.56-188.57-61.36-188.57-77.2s94.63-136.64,189.91-136.64,176.16,114.15,176.16,129.99Z" style="fill:#6dbeff; fill-rule:evenodd; opacity:.57; stroke-width:0px;"/><path d="M472.08,494.9c0,15.8-89.2,43.17-176.97,83.26-81.5,37.22-187.94-60.88-187.94-76.68s94.25-135.57,189.26-135.57,175.64,113.18,175.64,128.98Z" style="fill:#6cbeff; fill-rule:evenodd; opacity:.58; stroke-width:0px;"/><path d="M471.55,496.38c0,15.75-88.86,42.97-176.44,82.68-81.35,36.89-187.31-60.4-187.31-76.15s93.88-134.5,188.62-134.5,175.12,112.22,175.12,127.97Z" style="fill:#6bbdff; fill-rule:evenodd; opacity:.58; stroke-width:0px;"/><path d="M471.03,497.86c0,15.71-88.53,42.76-175.9,82.09-81.21,36.55-186.67-59.92-186.67-75.62s93.5-133.42,187.97-133.42,174.6,111.25,174.6,126.96Z" style="fill:#6abdff; fill-rule:evenodd; opacity:.58; stroke-width:0px;"/><path d="M470.5,499.34c0,15.66-88.2,42.55-175.37,81.5-81.06,36.22-186.04-59.44-186.04-75.1s93.12-132.35,187.33-132.35,174.08,110.29,174.08,125.95Z" style="fill:#69bdff; fill-rule:evenodd; opacity:.59; stroke-width:0px;"/><path d="M469.97,500.82c0,15.62-87.87,42.35-174.84,80.92-80.92,35.88-185.4-58.95-185.4-74.57s92.74-131.28,186.68-131.28,173.56,109.32,173.56,124.94Z" style="fill:#68bcff; fill-rule:evenodd; opacity:.59; stroke-width:0px;"/><path d="M469.44,502.3c0,15.57-87.54,42.14-174.31,80.33-80.77,35.55-184.77-58.47-184.77-74.05s92.37-130.21,186.03-130.21,173.04,108.35,173.04,123.93Z" style="fill:#67bcff; fill-rule:evenodd; opacity:.6; stroke-width:0px;"/><path d="M468.91,503.78c0,15.53-87.2,41.93-173.77,79.74-80.63,35.21-184.14-57.99-184.14-73.52s91.99-129.14,185.39-129.14,172.52,107.39,172.52,122.92Z" style="fill:#6bf; fill-rule:evenodd; opacity:.6; stroke-width:0px;"/><path d="M468.38,505.26c0,15.48-86.87,41.73-173.24,79.15-80.48,34.88-183.5-57.51-183.5-72.99s91.61-128.07,184.74-128.07,172,106.42,172,121.91Z" style="fill:#65bbff; fill-rule:evenodd; opacity:.6; stroke-width:0px;"/><path d="M467.86,506.74c0,15.44-86.54,41.52-172.71,78.57-80.34,34.54-182.87-57.03-182.87-72.47s91.23-127,184.09-127,171.48,105.46,171.48,120.9Z" style="fill:#64baff; fill-rule:evenodd; opacity:.61; stroke-width:0px;"/><path d="M467.33,508.22c0,15.39-86.21,41.31-172.18,77.98-80.19,34.2-182.23-56.55-182.23-71.94s90.86-125.92,183.45-125.92,170.96,104.49,170.96,119.89Z" style="fill:#63baff; fill-rule:evenodd; opacity:.61; stroke-width:0px;"/><path d="M466.8,509.69c0,15.35-85.88,41.11-171.65,77.39-80.05,33.87-181.6-56.07-181.6-71.42s90.48-124.85,182.8-124.85,170.44,103.53,170.44,118.88Z" style="fill:#62b9ff; fill-rule:evenodd; opacity:.62; stroke-width:0px;"/><path d="M466.27,511.17c0,15.3-85.55,40.9-171.11,76.81-79.9,33.53-180.97-55.58-180.97-70.89s90.1-123.78,182.16-123.78,169.92,102.56,169.92,117.87Z" style="fill:#61b9ff; fill-rule:evenodd; opacity:.62; stroke-width:0px;"/><path d="M465.74,512.65c0,15.26-85.22,40.69-170.58,76.22-79.76,33.19-180.33-55.1-180.33-70.36s89.72-122.71,181.51-122.71,169.4,101.59,169.4,116.86Z" style="fill:#60b9ff; fill-rule:evenodd; opacity:.62; stroke-width:0px;"/><path d="M465.21,514.13c0,15.22-84.88,40.48-170.05,75.63-79.61,32.86-179.7-54.62-179.7-69.84s89.35-121.64,180.86-121.64,168.88,100.63,168.88,115.84Z" style="fill:#5fb8ff; fill-rule:evenodd; opacity:.63; stroke-width:0px;"/><path d="M464.68,515.61c0,15.17-84.55,40.28-169.52,75.04-79.47,32.52-179.06-54.14-179.06-69.31s88.97-120.57,180.22-120.57,168.36,99.66,168.36,114.83Z" style="fill:#5eb8ff; fill-rule:evenodd; opacity:.63; stroke-width:0px;"/><path d="M464.16,517.09c0,15.13-84.22,40.07-168.98,74.46-79.33,32.18-178.43-53.66-178.43-68.78s88.59-119.5,179.57-119.5,167.84,98.7,167.84,113.82Z" style="fill:#5db7ff; fill-rule:evenodd; opacity:.64; stroke-width:0px;"/><path d="M463.63,518.57c0,15.08-83.89,39.86-168.45,73.87-79.18,31.85-177.8-53.18-177.8-68.26s88.21-118.43,178.92-118.43,167.32,97.73,167.32,112.81Z" style="fill:#5cb7ff; fill-rule:evenodd; opacity:.64; stroke-width:0px;"/><path d="M463.1,520.05c0,15.04-83.56,39.65-167.92,73.28-79.04,31.51-177.16-52.7-177.16-67.73s87.84-117.35,178.28-117.35,166.8,96.77,166.8,111.8Z" style="fill:#5bb6ff; fill-rule:evenodd; opacity:.64; stroke-width:0px;"/><path d="M462.57,521.53c0,14.99-83.23,39.44-167.39,72.7-78.89,31.17-176.53-52.21-176.53-67.21s87.46-116.28,177.63-116.28,166.28,95.8,166.28,110.79Z" style="fill:#5ab6ff; fill-rule:evenodd; opacity:.65; stroke-width:0px;"/><path d="M462.04,523.01c0,14.95-82.9,39.23-166.85,72.11-78.75,30.84-175.89-51.73-175.89-66.68s87.08-115.21,176.99-115.21,165.76,94.84,165.76,109.78Z" style="fill:#59b5ff; fill-rule:evenodd; opacity:.65; stroke-width:0px;"/><path d="M461.51,524.49c0,14.9-82.57,39.03-166.32,71.52-78.6,30.5-175.26-51.25-175.26-66.15s86.7-114.14,176.34-114.14,165.24,93.87,165.24,108.77Z" style="fill:#58b5ff; fill-rule:evenodd; opacity:.65; stroke-width:0px;"/><path d="M460.99,525.97c0,14.86-82.24,38.82-165.79,70.94-78.46,30.16-174.63-50.77-174.63-65.63s86.33-113.07,175.69-113.07,164.72,92.9,164.72,107.76Z" style="fill:#57b5ff; fill-rule:evenodd; opacity:.66; stroke-width:0px;"/><path d="M460.46,527.45c0,14.81-81.9,38.61-165.26,70.35-78.32,29.82-173.99-50.29-173.99-65.1s85.95-112,175.05-112,164.2,91.94,164.2,106.75Z" style="fill:#56b4ff; fill-rule:evenodd; opacity:.66; stroke-width:0px;"/><path d="M459.93,528.93c0,14.77-81.57,38.4-164.72,69.76-78.17,29.49-173.36-49.81-173.36-64.58s85.57-110.93,174.4-110.93,163.68,90.97,163.68,105.74Z" style="fill:#55b4ff; fill-rule:evenodd; opacity:.67; stroke-width:0px;"/><path d="M459.4,530.41c0,14.72-81.24,38.19-164.19,69.17-78.03,29.15-172.72-49.33-172.72-64.05s85.19-109.85,173.75-109.85,163.16,90.01,163.16,104.73Z" style="fill:#54b3ff; fill-rule:evenodd; opacity:.67; stroke-width:0px;"/><path d="M458.87,531.89c0,14.68-80.91,37.98-163.66,68.59-77.89,28.81-172.09-48.85-172.09-63.52s84.82-108.78,173.11-108.78,162.64,89.04,162.64,103.72Z" style="fill:#53b3ff; fill-rule:evenodd; opacity:.67; stroke-width:0px;"/><path d="M458.34,533.37c0,14.63-80.58,37.77-163.13,68-77.74,28.47-171.46-48.36-171.46-63s84.44-107.71,172.46-107.71,162.12,88.08,162.12,102.71Z" style="fill:#52b2ff; fill-rule:evenodd; opacity:.68; stroke-width:0px;"/><path d="M457.81,534.85c0,14.59-80.25,37.56-162.59,67.41-77.6,28.13-170.82-47.88-170.82-62.47s84.06-106.64,171.82-106.64,161.6,87.11,161.6,101.7Z" style="fill:#51b2ff; fill-rule:evenodd; opacity:.68; stroke-width:0px;"/><path d="M457.29,536.33c0,14.55-79.92,37.35-162.06,66.83-77.46,27.79-170.19-47.4-170.19-61.95s83.68-105.57,171.17-105.57,161.08,86.14,161.08,100.69Z" style="fill:#50b1ff; fill-rule:evenodd; opacity:.69; stroke-width:0px;"/><path d="M456.76,537.81c0,14.5-79.59,37.14-161.53,66.24-77.31,27.45-169.55-46.92-169.55-61.42s83.31-104.5,170.52-104.5,160.56,85.18,160.56,99.68Z" style="fill:#4fb1ff; fill-rule:evenodd; opacity:.69; stroke-width:0px;"/><path d="M456.23,539.29c0,14.46-79.26,36.93-161,65.65-77.17,27.12-168.92-46.44-168.92-60.89s82.93-103.43,169.88-103.43,160.04,84.21,160.04,98.67Z" style="fill:#4eb1ff; fill-rule:evenodd; opacity:.69; stroke-width:0px;"/><path d="M455.7,540.77c0,14.41-78.93,36.72-160.46,65.07-77.03,26.78-168.29-45.96-168.29-60.37s82.55-102.36,169.23-102.36,159.52,83.25,159.52,97.66Z" style="fill:#4db0ff; fill-rule:evenodd; opacity:.7; stroke-width:0px;"/><path d="M455.17,542.25c0,14.37-78.6,36.51-159.93,64.48-76.88,26.44-167.65-45.48-167.65-59.84s82.17-101.28,168.58-101.28,159,82.28,159,96.65Z" style="fill:#4cb0ff; fill-rule:evenodd; opacity:.7; stroke-width:0px;"/><path d="M454.64,543.73c0,14.32-78.27,36.3-159.4,63.89-76.74,26.1-167.02-44.99-167.02-59.32s81.8-100.21,167.94-100.21,158.48,81.32,158.48,95.64Z" style="fill:#4bafff; fill-rule:evenodd; opacity:.71; stroke-width:0px;"/><path d="M454.12,545.21c0,14.28-77.94,36.09-158.87,63.3-76.6,25.76-166.38-44.51-166.38-58.79s81.42-99.14,167.29-99.14,157.96,80.35,157.96,94.63Z" style="fill:#4aafff; fill-rule:evenodd; opacity:.71; stroke-width:0px;"/><path d="M453.59,546.69c0,14.23-77.61,35.88-158.33,62.72-76.45,25.42-165.75-44.03-165.75-58.26s81.04-98.07,166.65-98.07,157.44,79.38,157.44,93.62Z" style="fill:#49aeff; fill-rule:evenodd; opacity:.71; stroke-width:0px;"/><path d="M453.06,548.17c0,14.19-77.28,35.67-157.8,62.13-76.31,25.08-165.12-43.55-165.12-57.74s80.66-97,166-97,156.92,78.42,156.92,92.61Z" style="fill:#48aeff; fill-rule:evenodd; opacity:.72; stroke-width:0px;"/><path d="M452.53,549.65c0,14.14-76.95,35.46-157.27,61.54-76.17,24.74-164.48-43.07-164.48-57.21s80.29-95.93,165.35-95.93,156.4,77.45,156.4,91.6Z" style="fill:#47adff; fill-rule:evenodd; opacity:.72; stroke-width:0px;"/><path d="M452,551.13c0,14.1-76.62,35.24-156.74,60.96-76.02,24.4-163.85-42.59-163.85-56.69s79.91-94.86,164.71-94.86,155.88,76.49,155.88,90.59Z" style="fill:#46adff; fill-rule:evenodd; opacity:.73; stroke-width:0px;"/><path d="M451.47,552.61c0,14.05-76.29,35.03-156.21,60.37-75.88,24.06-163.21-42.11-163.21-56.16s79.53-93.78,164.06-93.78,155.36,75.52,155.36,89.58Z" style="fill:#45adff; fill-rule:evenodd; opacity:.73; stroke-width:0px;"/><path d="M450.94,554.09c0,14.01-75.96,34.82-155.67,59.78-75.74,23.72-162.58-41.62-162.58-55.63s79.15-92.71,163.41-92.71,154.84,74.56,154.84,88.57Z" style="fill:#44acff; fill-rule:evenodd; opacity:.73; stroke-width:0px;"/><path d="M450.42,555.57c0,13.96-75.63,34.61-155.14,59.19-75.59,23.38-161.95-41.14-161.95-55.11s78.78-91.64,162.77-91.64,154.32,73.59,154.32,87.56Z" style="fill:#43acff; fill-rule:evenodd; opacity:.74; stroke-width:0px;"/><path d="M449.89,557.05c0,13.92-75.3,34.4-154.61,58.61-75.45,23.04-161.31-40.66-161.31-54.58s78.4-90.57,162.12-90.57,153.8,72.63,153.8,86.54Z" style="fill:#42abff; fill-rule:evenodd; opacity:.74; stroke-width:0px;"/><path d="M449.36,558.53c0,13.87-74.97,34.18-154.08,58.02-75.31,22.69-160.68-40.18-160.68-54.06s78.02-89.5,161.48-89.5,153.28,71.66,153.28,85.53Z" style="fill:#41abff; fill-rule:evenodd; opacity:.75; stroke-width:0px;"/><path d="M448.83,560.01c0,13.83-74.64,33.97-153.54,57.43-75.17,22.35-160.04-39.7-160.04-53.53s77.64-88.43,160.83-88.43,152.76,70.69,152.76,84.52Z" style="fill:#40aaff; fill-rule:evenodd; opacity:.75; stroke-width:0px;"/><path d="M448.3,561.49c0,13.79-74.31,33.76-153.01,56.85-75.02,22.01-159.41-39.22-159.41-53s77.27-87.36,160.18-87.36,152.24,69.73,152.24,83.51Z" style="fill:#3faaff; fill-rule:evenodd; opacity:.75; stroke-width:0px;"/><path d="M447.77,562.97c0,13.74-73.98,33.54-152.48,56.26-74.88,21.67-158.78-38.74-158.78-52.48s76.89-86.29,159.54-86.29,151.72,68.76,151.72,82.5Z" style="fill:#3ea9ff; fill-rule:evenodd; opacity:.76; stroke-width:0px;"/><path d="M447.25,564.45c0,13.7-73.65,33.33-151.95,55.67s-158.14-38.26-158.14-51.95,76.51-85.21,158.89-85.21,151.2,67.8,151.2,81.49Z" style="fill:#3da9ff; fill-rule:evenodd; opacity:.76; stroke-width:0px;"/><path d="M446.72,565.93c0,13.65-73.32,33.12-151.41,55.09-74.6,20.99-157.51-37.77-157.51-51.43s76.13-84.14,158.24-84.14,150.68,66.83,150.68,80.48Z" style="fill:#3ca9ff; fill-rule:evenodd; opacity:.76; stroke-width:0px;"/><path d="M446.19,567.41c0,13.61-73,32.9-150.88,54.5-74.45,20.64-156.87-37.29-156.87-50.9s75.76-83.07,157.6-83.07,150.16,65.87,150.16,79.47Z" style="fill:#3ba8ff; fill-rule:evenodd; opacity:.77; stroke-width:0px;"/><path d="M445.66,568.89c0,13.56-72.67,32.69-150.35,53.91s-156.24-36.81-156.24-50.37,75.38-82,156.95-82,149.64,64.9,149.64,78.46Z" style="fill:#3aa8ff; fill-rule:evenodd; opacity:.77; stroke-width:0px;"/><path d="M445.13,570.37c0,13.52-72.34,32.48-149.82,53.32-74.17,19.96-155.61-36.33-155.61-49.85s75-80.93,156.31-80.93,149.12,63.93,149.12,77.45Z" style="fill:#39a7ff; fill-rule:evenodd; opacity:.78; stroke-width:0px;"/><path d="M444.6,571.85c0,13.47-72.01,32.26-149.28,52.74s-154.97-35.85-154.97-49.32,74.62-79.86,155.66-79.86,148.6,62.97,148.6,76.44Z" style="fill:#38a7ff; fill-rule:evenodd; opacity:.78; stroke-width:0px;"/><path d="M444.08,573.33c0,13.43-71.68,32.05-148.75,52.15-73.88,19.27-154.34-35.37-154.34-48.8s74.25-78.79,155.01-78.79,148.08,62,148.08,75.43Z" style="fill:#37a6ff; fill-rule:evenodd; opacity:.78; stroke-width:0px;"/><path d="M443.55,574.81c0,13.38-71.35,31.83-148.22,51.56-73.74,18.93-153.7-34.89-153.7-48.27s73.87-77.71,154.37-77.71,147.56,61.04,147.56,74.42Z" style="fill:#36a6ff; fill-rule:evenodd; opacity:.79; stroke-width:0px;"/><path d="M443.02,576.29c0,13.34-71.02,31.62-147.69,50.98-73.6,18.58-153.07-34.4-153.07-47.74s73.49-76.64,153.72-76.64,147.04,60.07,147.04,73.41Z" style="fill:#35a5ff; fill-rule:evenodd; opacity:.79; stroke-width:0px;"/><path d="M442.49,577.77c0,13.29-70.69,31.4-147.15,50.39s-152.44-33.92-152.44-47.22,73.12-75.57,153.07-75.57,146.52,59.11,146.52,72.4Z" style="fill:#34a5ff; fill-rule:evenodd; opacity:.8; stroke-width:0px;"/><path d="M441.96,579.25c0,13.25-70.36,31.19-146.62,49.8-73.31,17.9-151.8-33.44-151.8-46.69s72.74-74.5,152.43-74.5,146,58.14,146,71.39Z" style="fill:#33a5ff; fill-rule:evenodd; opacity:.8; stroke-width:0px;"/><path d="M441.43,580.74c0,13.2-70.03,30.97-146.09,49.21-73.17,17.55-151.17-32.96-151.17-46.16s72.36-73.43,151.78-73.43,145.48,57.18,145.48,70.38Z" style="fill:#32a4ff; fill-rule:evenodd; opacity:.8; stroke-width:0px;"/><path d="M440.9,582.22c0,13.16-69.7,30.75-145.56,48.63-73.03,17.21-150.53-32.48-150.53-45.64s71.98-72.36,151.14-72.36,144.96,56.21,144.96,69.37Z" style="fill:#31a4ff; fill-rule:evenodd; opacity:.81; stroke-width:0px;"/><path d="M440.38,583.7c0,13.12-69.37,30.54-145.02,48.04-72.89,16.86-149.9-32-149.9-45.11s71.61-71.29,150.49-71.29,144.44,55.24,144.44,68.36Z" style="fill:#30a3ff; fill-rule:evenodd; opacity:.81; stroke-width:0px;"/><path d="M439.85,585.18c0,13.07-69.04,30.32-144.49,47.45-72.74,16.52-149.27-31.52-149.27-44.59s71.23-70.22,149.84-70.22,143.92,54.28,143.92,67.35Z" style="fill:#2fa3ff; fill-rule:evenodd; opacity:.82; stroke-width:0px;"/><path d="M439.32,586.66c0,13.03-68.71,30.11-143.96,46.87-72.6,16.17-148.63-31.04-148.63-44.06s70.85-69.14,149.2-69.14,143.4,53.31,143.4,66.34Z" style="fill:#2ea2ff; fill-rule:evenodd; opacity:.82; stroke-width:0px;"/><path d="M438.79,588.14c0,12.98-68.38,29.89-143.43,46.28-72.46,15.83-148-30.55-148-43.53s70.47-68.07,148.55-68.07,142.87,52.35,142.87,65.33Z" style="fill:#2da2ff; fill-rule:evenodd; opacity:.82; stroke-width:0px;"/><path d="M438.26,589.62c0,12.94-68.05,29.67-142.89,45.69-72.32,15.48-147.36-30.07-147.36-43.01s70.1-67,147.9-67,142.35,51.38,142.35,64.32Z" style="fill:#2ca1ff; fill-rule:evenodd; opacity:.83; stroke-width:0px;"/><path d="M437.73,591.1c0,12.89-67.73,29.45-142.36,45.11-72.17,15.13-146.73-29.59-146.73-42.48s69.72-65.93,147.26-65.93,141.83,50.42,141.83,63.31Z" style="fill:#2ba1ff; fill-rule:evenodd; opacity:.83; stroke-width:0px;"/><path d="M437.21,592.58c0,12.85-67.4,29.24-141.83,44.52-72.03,14.79-146.1-29.11-146.1-41.96s69.34-64.86,146.61-64.86,141.31,49.45,141.31,62.3Z" style="fill:#2aa1ff; fill-rule:evenodd; opacity:.84; stroke-width:0px;"/><path d="M436.68,594.06c0,12.8-67.07,29.02-141.3,43.93-71.89,14.44-145.46-28.63-145.46-41.43s68.96-63.79,145.96-63.79,140.79,48.48,140.79,61.29Z" style="fill:#29a0ff; fill-rule:evenodd; opacity:.84; stroke-width:0px;"/><path d="M436.15,595.54c0,12.76-66.74,28.8-140.76,43.34-71.75,14.1-144.83-28.15-144.83-40.9s68.59-62.72,145.32-62.72,140.27,47.52,140.27,60.28Z" style="fill:#28a0ff; fill-rule:evenodd; opacity:.84; stroke-width:0px;"/><path d="M435.62,597.02c0,12.71-66.41,28.58-140.23,42.76-71.6,13.75-144.19-27.67-144.19-40.38s68.21-61.64,144.67-61.64,139.75,46.55,139.75,59.27Z" style="fill:#279fff; fill-rule:evenodd; opacity:.85; stroke-width:0px;"/><path d="M435.09,598.5c0,12.67-66.08,28.36-139.7,42.17-71.46,13.4-143.56-27.18-143.56-39.85s67.83-60.57,144.03-60.57,139.23,45.59,139.23,58.26Z" style="fill:#269fff; fill-rule:evenodd; opacity:.85; stroke-width:0px;"/><path d="M434.56,599.98c0,12.62-65.75,28.15-139.17,41.58-71.32,13.05-142.93-26.7-142.93-39.33s67.45-59.5,143.38-59.5,138.71,44.62,138.71,57.25Z" style="fill:#259eff; fill-rule:evenodd; opacity:.85; stroke-width:0px;"/><path d="M434.03,601.46c0,12.58-65.42,27.93-138.64,41-71.18,12.71-142.29-26.22-142.29-38.8s67.08-58.43,142.73-58.43,138.19,43.66,138.19,56.23Z" style="fill:#249eff; fill-rule:evenodd; opacity:.86; stroke-width:0px;"/><path d="M433.51,602.94c0,12.53-65.09,27.71-138.1,40.41-71.03,12.36-141.66-25.74-141.66-38.27s66.7-57.36,142.09-57.36,137.67,42.69,137.67,55.22Z" style="fill:#239eff; fill-rule:evenodd; opacity:.86; stroke-width:0px;"/><path d="M432.98,604.42c0,12.49-64.76,27.49-137.57,39.82-70.89,12.01-141.02-25.26-141.02-37.75s66.32-56.29,141.44-56.29,137.15,41.72,137.15,54.21Z" style="fill:#229dff; fill-rule:evenodd; opacity:.87; stroke-width:0px;"/><path d="M432.45,605.9c0,12.44-64.43,27.27-137.04,39.24-70.75,11.66-140.39-24.78-140.39-37.22s65.94-55.22,140.79-55.22,136.63,40.76,136.63,53.2Z" style="fill:#219dff; fill-rule:evenodd; opacity:.87; stroke-width:0px;"/><path d="M431.92,607.38c0,12.4-64.1,27.05-136.51,38.65-70.6,11.31-139.76-24.3-139.76-36.7s65.57-54.15,140.15-54.15,136.11,39.79,136.11,52.19Z" style="fill:#209cff; fill-rule:evenodd; opacity:.87; stroke-width:0px;"/><path d="M431.39,608.86c0,12.36-63.77,26.83-135.97,38.06-70.46,10.96-139.12-23.81-139.12-36.17s65.19-53.07,139.5-53.07,135.59,38.83,135.59,51.18Z" style="fill:#1f9cff; fill-rule:evenodd; opacity:.88; stroke-width:0px;"/><path d="M430.86,610.34c0,12.31-63.44,26.61-135.44,37.47-70.32,10.61-138.49-23.33-138.49-35.64s64.81-52,138.86-52,135.07,37.86,135.07,50.17Z" style="fill:#1e9bff; fill-rule:evenodd; opacity:.88; stroke-width:0px;"/><path d="M430.34,611.82c0,12.27-63.11,26.39-134.91,36.89-70.18,10.26-137.85-22.85-137.85-35.12s64.43-50.93,138.21-50.93,134.55,36.9,134.55,49.16Z" style="fill:#1d9bff; fill-rule:evenodd; opacity:.89; stroke-width:0px;"/><path d="M429.81,613.3c0,12.22-62.78,26.16-134.38,36.3-70.03,9.91-137.22-22.37-137.22-34.59s64.06-49.86,137.56-49.86,134.03,35.93,134.03,48.15Z" style="fill:#1c9aff; fill-rule:evenodd; opacity:.89; stroke-width:0px;"/><path d="M429.28,614.78c0,12.18-62.45,25.94-133.84,35.71-69.89,9.56-136.59-21.89-136.59-34.07s63.68-48.79,136.92-48.79,133.51,34.97,133.51,47.14Z" style="fill:#1b9aff; fill-rule:evenodd; opacity:.89; stroke-width:0px;"/><path d="M428.75,616.26c0,12.13-62.12,25.72-133.31,35.13-69.75,9.21-135.95-21.41-135.95-33.54s63.3-47.72,136.27-47.72,132.99,34,132.99,46.13Z" style="fill:#1a9aff; fill-rule:evenodd; opacity:.9; stroke-width:0px;"/><path d="M428.22,617.74c0,12.09-61.79,25.5-132.78,34.54-69.6,8.86-135.32-20.93-135.32-33.01s62.92-46.65,135.62-46.65,132.47,33.03,132.47,45.12Z" style="fill:#1999ff; fill-rule:evenodd; opacity:.9; stroke-width:0px;"/><path d="M427.69,619.22c0,12.04-61.46,25.28-132.25,33.95-69.46,8.51-134.68-20.45-134.68-32.49s62.55-45.57,134.98-45.57,131.95,32.07,131.95,44.11Z" style="fill:#1899ff; fill-rule:evenodd; opacity:.91; stroke-width:0px;"/><path d="M427.16,620.7c0,12-61.13,25.05-131.71,33.36-69.32,8.16-134.05-19.96-134.05-31.96s62.17-44.5,134.33-44.5,131.43,31.1,131.43,43.1Z" style="fill:#1798ff; fill-rule:evenodd; opacity:.91; stroke-width:0px;"/><path d="M426.64,622.18c0,11.95-60.8,24.83-131.18,32.78-69.17,7.81-133.42-19.48-133.42-31.44s61.79-43.43,133.69-43.43,130.91,30.14,130.91,42.09Z" style="fill:#1698ff; fill-rule:evenodd; opacity:.91; stroke-width:0px;"/><path d="M426.11,623.66c0,11.91-60.47,24.61-130.65,32.19-69.03,7.46-132.78-19-132.78-30.91s61.41-42.36,133.04-42.36,130.39,29.17,130.39,41.08Z" style="fill:#1597ff; fill-rule:evenodd; opacity:.92; stroke-width:0px;"/><path d="M425.58,625.14c0,11.86-60.14,24.39-130.12,31.6s-132.15-18.52-132.15-30.38,61.04-41.29,132.39-41.29,129.87,28.21,129.87,40.07Z" style="fill:#1497ff; fill-rule:evenodd; opacity:.92; stroke-width:0px;"/><path d="M425.05,626.61c0,11.82-59.81,24.16-129.58,31.02-68.74,6.75-131.51-18.04-131.51-29.86s60.66-40.22,131.75-40.22,129.35,27.24,129.35,39.06Z" style="fill:#1396ff; fill-rule:evenodd; opacity:.93; stroke-width:0px;"/><path d="M424.52,628.09c0,11.77-59.47,23.94-129.05,30.43-68.6,6.4-130.88-17.56-130.88-29.33s60.28-39.15,131.1-39.15,128.83,26.27,128.83,38.05Z" style="fill:#1296ff; fill-rule:evenodd; opacity:.93; stroke-width:0px;"/><path d="M423.99,629.57c0,11.73-59.14,23.71-128.52,29.84-68.45,6.05-130.25-17.08-130.25-28.81s59.9-38.08,130.45-38.08,128.31,25.31,128.31,37.04Z" style="fill:#1196ff; fill-rule:evenodd; opacity:.93; stroke-width:0px;"/><path d="M423.47,631.05c0,11.68-58.81,23.49-127.99,29.26s-129.61-16.59-129.61-28.28,59.53-37,129.81-37,127.79,24.34,127.79,36.03Z" style="fill:#1095ff; fill-rule:evenodd; opacity:.94; stroke-width:0px;"/><path d="M422.94,632.53c0,11.64-58.48,23.27-127.45,28.67-68.17,5.34-128.98-16.11-128.98-27.75s59.15-35.93,129.16-35.93,127.27,23.38,127.27,35.02Z" style="fill:#0f95ff; fill-rule:evenodd; opacity:.94; stroke-width:0px;"/><path d="M422.41,634c0,11.6-58.15,23.04-126.92,28.08-68.02,4.99-128.34-15.63-128.34-27.23s58.77-34.86,128.52-34.86,126.75,22.41,126.75,34.01Z" style="fill:#0e94ff; fill-rule:evenodd; opacity:.95; stroke-width:0px;"/><path d="M421.88,635.48c0,11.55-57.82,22.81-126.39,27.49-67.88,4.63-127.71-15.15-127.71-26.7s58.39-33.79,127.87-33.79,126.23,21.45,126.23,33Z" style="fill:#0d94ff; fill-rule:evenodd; opacity:.95; stroke-width:0px;"/><path d="M421.35,636.95c0,11.51-57.49,22.59-125.86,26.91-67.73,4.28-127.08-14.67-127.08-26.18s58.02-32.72,127.22-32.72,125.71,20.48,125.71,31.99Z" style="fill:#0c93ff; fill-rule:evenodd; opacity:.95; stroke-width:0px;"/><path d="M420.82,638.43c0,11.46-57.15,22.36-125.32,26.32-67.59,3.92-126.44-14.19-126.44-25.65s57.64-31.65,126.58-31.65,125.19,19.51,125.19,30.98Z" style="fill:#0b93ff; fill-rule:evenodd; opacity:.96; stroke-width:0px;"/><path d="M420.3,639.9c0,11.42-56.82,22.14-124.79,25.73-67.44,3.57-125.81-13.71-125.81-25.12s57.26-30.58,125.93-30.58,124.67,18.55,124.67,29.97Z" style="fill:#0a92ff; fill-rule:evenodd; opacity:.96; stroke-width:0px;"/><path d="M419.77,641.38c0,11.37-56.49,21.91-124.26,25.15-67.3,3.21-125.17-13.22-125.17-24.6s56.88-29.5,125.28-29.5,124.15,17.58,124.15,28.96Z" style="fill:#0992ff; fill-rule:evenodd; opacity:.96; stroke-width:0px;"/><path d="M419.24,642.85c0,11.33-56.16,21.68-123.73,24.56-67.15,2.86-124.54-12.74-124.54-24.07s56.51-28.43,124.64-28.43,123.63,16.62,123.63,27.95Z" style="fill:#0892ff; fill-rule:evenodd; opacity:.97; stroke-width:0px;"/><path d="M418.71,644.32c0,11.28-55.82,21.46-123.19,23.97-67,2.5-123.91-12.26-123.91-23.54s56.13-27.36,123.99-27.36,123.11,15.65,123.11,26.93Z" style="fill:#0791ff; fill-rule:evenodd; opacity:.97; stroke-width:0px;"/><path d="M418.18,645.8c0,11.24-55.49,21.11-122.66,23.38-66.86,2.02-123.27-11.78-123.27-23.02s55.75-26.29,123.35-26.29,122.59,14.69,122.59,25.92Z" style="fill:#0691ff; fill-rule:evenodd; opacity:.98; stroke-width:0px;"/><path d="M417.65,647.26c0,11.19-55.16,20.9-122.13,22.8-66.72,1.69-122.64-11.3-122.64-22.49s55.37-25.22,122.7-25.22,122.07,13.72,122.07,24.91Z" style="fill:#0590ff; fill-rule:evenodd; opacity:.98; stroke-width:0px;"/><path d="M417.12,648.73c0,11.15-54.83,20.69-121.6,22.21-66.57,1.35-122-10.82-122-21.97s55-24.15,122.05-24.15,121.55,12.76,121.55,23.9Z" style="fill:#0490ff; fill-rule:evenodd; opacity:.98; stroke-width:0px;"/><path d="M416.6,650.19c0,11.1-54.49,20.49-121.07,21.62-66.42,1.01-121.37-10.34-121.37-21.44s54.62-23.08,121.41-23.08,121.03,11.79,121.03,22.89Z" style="fill:#038fff; fill-rule:evenodd; opacity:.99; stroke-width:0px;"/><path d="M416.07,651.64c0,11.06-54.16,20.28-120.53,21.04-66.27.67-120.74-9.86-120.74-20.91s54.24-22.01,120.76-22.01,120.51,10.82,120.51,21.88Z" style="fill:#028fff; fill-rule:evenodd; opacity:.99; stroke-width:0px;"/><path d="M415.54,653.06c0,11.01-53.82,20.07-120,20.45-66.13.34-120.1-9.37-120.1-20.39s53.87-20.93,120.11-20.93,119.99,9.86,119.99,20.87Z" style="fill:#018eff; fill-rule:evenodd; opacity:1; stroke-width:0px;"/><ellipse cx="295.54" cy="654.53" rx="119.47" ry="19.86" style="fill:#008eff; stroke-width:0px;"/></g><ellipse cx="294.53" cy="651.37" rx="186.25" ry="35.11" style="fill:url(#j); mix-blend-mode:screen; stroke-width:0px;"/></g></g></svg>