<svg xmlns="http://www.w3.org/2000/svg" xml:space="preserve" id="Layer_1" x="0" y="0" version="1.1" viewBox="0 0 1024 1024"><style>.st2{fill:#4f4e59}.st8{fill:#fff}.st9{fill:#dfbfa2}.st10{fill:#faddc4}.st11{fill:#ff696c}.st14{fill:#e2494b}.st15{fill:#3ec9d7}.st16{fill:#0096a5}.st17{fill:#2b2c2c}.st18{fill:#d9e1f4}.st19{fill:#f2f5fe}.st20{fill:#ffebd8}.st21{fill:#e7e7e7}.st24{fill:#59626b}.st25{fill:#282e33}.st26{fill:#747d84}.st27{fill:#272f3d}.st28{fill:#abc0d2}.st29{fill:#99a3ac}</style><path d="m1023.6 595 .4-19-523.8 305.3V900z" style="fill:#464452"/><path d="M19.2 601.1v18.7l481 280.2v-18.7z" style="fill:#383446"/><path d="m19.2 601.1 480.9 280.2L1024 576.1 543.1 296.3z" class="st2"/><path d="M925.2 519.2v-19L401.3 805.5v18.7z" style="fill:#818181"/><path d="M19.2 582.9v18.7l382.1 222.7v-18.7z" style="fill:#666"/><path d="m19.2 582.9 382.1 222.7 523.8-305.2-382-222.8z" style="fill:#cacaca"/><path d="m933.6 524-8.5-4.7-523.8 305 8.8 5z" style="fill:#ffc411"/><path d="m925.1 500.3-104.5-60.2-523.2 304.5 103.8 60.9z" style="fill:#efeeec"/><path d="m639.8 744.6-5.8-3.4-35.9 20.7 5.8 3.7zm-59.1 34.3-6.2-3.4-35.5 20.6 5.7 3.4zM521.4 813l-6.1-3.4-35.6 20.7 5.8 3.4zm177.3-100.9-6.1-3.4-35.9 20.7 6.1 3.4zm58.5-32.7-6.1-3.4-35.5 20.6 5.7 3.4zm58.6-32.9-5.8-3.4-35.9 20.7 6.1 3.4zm58.9-32.5-6.1-3.7-35.9 21 6.1 3.4zm59.2-33.8-5.7-3.4-35.9 20.7 5.7 3.4z" class="st8"/><path d="m328.5 447.2 220.4 127.5V394.4l-220-127.6z" class="st9"/><path d="m710.9 291.8-81.2-27.3-80.8 129.9v180.3l161.8-93z" class="st10"/><path d="M731.2 289.8 629.7 255 528.2 406.9l11.2 1.8L632.8 270l90.7 30.7z" class="st11"/><path d="m733.2 287.1-103.8-35.5-103.6 155 2.3.3L629.7 255l101.5 34.8z" style="fill:#ff4d4e"/><path d="M513 159.6 409.5 124l220 127.6 103.8 35.5z" style="fill:#c63c3f"/><path d="m525.7 406.6 103.6-155-220-127.6-103.8 155z" class="st14"/><path d="M620.5 487.2V367.4l-59.6 33.4v119.8z" class="st15"/><path d="m620.5 367.4-59.6 33.4v54.8l47.8 26.1z" class="st16"/><path d="m609.4 448.2-48.5 28.2v3l48.5-27.7zm0-42.3-48.5 27.7v3l48.5-27.7zm0 72.1-48.5 28.2v3l48.5-27.7z" class="st17"/><path d="m586.4 386.3-2.3 1.4v112.6l2.3-1.4zm22.3-12.2-2.4 1.4v110.6l2.4-1.4z" class="st17"/><path d="m608.7 481.7 11.8 5.4V367.4l-11.8 6.8z" class="st18"/><path d="m620.5 487.2-11.8-5.4-47.8 26.7v12.2z" class="st19"/><path d="M645.9 352.1v119.8l59.2-33.4V318.6z" class="st15"/><path d="M645.9 352.1v54.8l47.4 26.1 12.2-114.4z" class="st16"/><path d="M645.9 427.6v3l48.1-28v-3.1zm0-42.6v3l48.1-27.7v-3.4zm0 72v3.4l48.1-28v-3.1z" class="st17"/><path d="m671 337.6-2.4 1.4v112.3l2.4-1.4zm22.3-12.2-2.4 1.4v110.6l2.4-1.4z" class="st17"/><path d="m693.3 433 11.8 5.4V318.6l-11.8 6.8z" class="st18"/><path d="M645.9 459.7v12.2l59.2-33.4-11.8-5.4z" class="st19"/><path d="M710.5 481.7v-31.5l-161.8 91.1v33.4z" class="st11"/><path d="M338.9 421.1v31.5l209.8 122.1v-33.4z" class="st14"/><path d="m227.3 540-121.1-70.4.4 134L227.7 674z" class="st9"/><path d="M351.5 327.7 106.1 469.6 227.3 540 473 398.1z" class="st20"/><path d="m473.4 532.1-.4-134L227.3 540l.4 134z" class="st10"/><path d="M456.4 533.9V526l-81.2 47.4v7.4z" class="st8"/><path d="M375.2 580.8v7.9l81.6-47.4-.4-7.4zm81.2-54.8v-7.4l-81.2 47.1v7.7z" class="st21"/><path d="M456.4 518.6v-7.7l-81.2 47v7.9z" class="st8"/><path d="M456.4 510.8v-7.4l-81.2 47v7.4z" class="st21"/><path d="M456.4 503.4v-7.9l-81.6 47.1.4 7.7z" class="st8"/><path d="M456.4 495.6v-7.4l-81.6 47.1v7.4z" class="st21"/><path d="m456.4 488.1-.4-7.7-81.2 47v7.9z" class="st8"/><path d="M456 480.4V473l-81.2 47v7.4z" class="st21"/><path d="M456 472.9V465l-81.2 47.1v7.7z" class="st8"/><path d="M456 465.1v-7.4l-81.2 47.1v7.4z" class="st21"/><path d="M456 457.7V450l-81.2 47.4v7.4z" class="st8"/><path d="M456 449.9v-7.4l-81.2 47v7.9z" class="st21"/><path d="M456 442.5v-7.9l-81.2 47.1v7.7z" class="st8"/><path d="M456 434.6v-7.4l-81.2 47.1v7.7z" class="st8"/><path d="M463.2 429v-9.2L366 475.9v9.2z" class="st21"/><path d="m332.2 597.8-81.5 47.1v7.7l81.5-47.4z" class="st8"/><path d="M332.2 605.2 251 652.6v7.4l81.2-47zm0-15.2-81.5 47.4v7.4l81.5-47.1z" class="st21"/><path d="m331.9 582.6-81.2 47v7.9l81.5-47.4z" class="st8"/><path d="m331.9 574.7-81.2 47.4v7.4l81.2-47z" class="st21"/><path d="m331.9 567.3-81.2 47.1v7.7l81.2-47.4z" class="st8"/><path d="M331.9 559.6 250.7 607v7.4l81.2-47.1z" class="st21"/><path d="m331.9 552.1-81.2 47v7.9l81.2-47.4z" class="st8"/><path d="m331.9 544.3-81.2 47.4v7.4l81.2-47z" class="st21"/><path d="m250.7 591.7 81.2-47.4v-7.4L250.7 584z" class="st8"/><path d="M331.9 536.8v-7.7l-81.5 47.4.3 7.4z" class="st21"/><path d="m331.9 529.4-.4-7.7-81.1 47v7.9z" class="st8"/><path d="M331.5 521.7v-7.9l-81.1 47.4v7.4z" class="st21"/><path d="M331.5 513.8v-7.4l-81.1 47.1v7.7zm0-7.4v-7.7L250.4 546v7.4z" class="st8"/><path d="M338.9 500.7v-9.2l-97.1 56.2v9.2z" class="st21"/><path d="M336 611.7 249.1 662l202.6 114.4 84.2-49.4z" class="st2"/><path d="m355.6 663.8-5.4 3-37.9-22.3-4.1 2.4 37.9 22.3-5.4 3.4 20.3 3zm104.6 60.9-5.5 3-37.9-22.6-4.1 2.7 37.9 22.3-5.4 3 20.4 3.4z" class="st8"/><path d="m656.4 656.6-199.3-115-87.3 50.5 199.7 115.3z" class="st2"/><path d="m476.3 593.7-5 3.1-37.9-22.3-4.1 2.3 37.6 22.7-5.1 3 19.9 3.1zM581 654.6l-5.1 3.1-37.9-22.3-4.1 2.3 38 22.3-5.5 3.4 20 3.1z" class="st8"/><path d="m359.2 764.6-114.7-66.3v5.7l114.7 66.3z" class="st14"/><path d="m359.2 764.6 12.6-7.2L257 690.9l-12.5 7.4z" style="fill:#ff9992"/><path d="M359.2 764.6v5.7l12.6-7v-5.8z" style="fill:#d8564f"/><path d="m359.2 731.8-112.6-65.2V698l112.6 65.4z" class="st10"/><path d="m359.2 731.8 10.8-6.4L257.7 660l-11.1 6.5z" class="st20"/><path d="M359.2 731.8v31.5l10.8-6.5v-31.4z" class="st9"/><path d="M916.4 297.3 914 299l27.1 15.2 2-1.4z" class="st24"/><path d="m946.2 316.9-.8-2-2.3-2-2 1.4 2 3-2 2.4-4.7 1.5-4.7-1.5-26.7-15.2-1.8-1.8v-2l1.1-1.4 3-1.4h5.1v.4l1.6.7 2.4-1.8-2-.9-2.7-.7-5.8.3-4.3 2-1.8 2.4v2l1.4 2 1.4.9 26.8 15.3 7 1.6 6.8-1.6 2.3-1.8z" class="st24"/><path d="m942.8 315.5-1.8 2-3 1.1h-3.8l-2.7-1.1-26.6-15.5-2-2.7v2.4l2 2.7 28 15.8 3.4.7 3.4-.7 2-.9 1.1-1.4z" class="st25"/><path d="m941 312.1-27-15.5-4.3-.9-4.7.9-2 3 2 2.4 26.7 15.6 4.7 1.2 4.7-1.2 1.8-2.7z" class="st26"/><path d="m945.8 320.7.4-3.8-.7 2-1.1 1.1-3.4 1.6-2.3.7H934l-2.7-.7-28.8-16.2-2.7-4.1v3.1l2.7 3.7 28.8 16.6 2.7.7h4.7l2.3-.7 3.4-1.8z" class="st25"/><path d="m832.7 247.2-2.3 1.8 26.7 15.2 2.4-1.6z" class="st24"/><path d="m862.2 266.5-2.7-4.1-2.4 1.6 2 2.7-2 2.7-4.5 1.4-4.6-1.4-28.2-16.2-.7-1.4v-1.4l1.1-1.4 4.3-1.6 3.8.3 2 1.1 2.3-1.8-2-.9-2.7-.7h-3.7l-3.8.7-3 1.6-1.8 3.1.7 2.3 2.4 2 26.7 15.3 7.2 1.6 6.8-1.6 2-1.8z" class="st24"/><path d="m859.1 264.8-.9 2-2.7 1.4-1.4.4-4.5-.4-28.4-16.2-2-2.7v2l2 2.7 27.7 16.2 5.1.4 3.7-1.4 1.4-2.4z" class="st25"/><path d="m857.1 267.5 2-2.7-2-2.7-26.7-15.6-4.5-.9-4.7.9-2 2.7 2 2.7 26.8 15.6 4.6 1.4z" class="st26"/><path d="m862.2 267.5-.4 1.1-1.4 1.4-3 1.6-2.7.7h-4.5l-3-.7-28.4-16.2-3.1-4.1v2.7l.7 2.3 2.4 1.8 26.7 15.6 2.4 1.1 3.7.7h3.1v-.4l2.7-.3 3-1.8 1.4-1.4.7-2v-3z" class="st25"/><path d="m890.9 505.7-.7-2-2-1.6-6.5-1.8-7.4 1.6-2 3.8 2 4.1 7.4 1.8 7.3-1.8z" class="st24"/><path d="M890.9 506.1V503h-18.7v3.1z" class="st24"/><path d="m890.9 502.7-.7-2.2-2-1.6-6.5-1.6-7.4 1.5-2 3.9 2.7 4.1 6.8 1.6 6.5-1.6z" class="st27"/><path d="m887.8 282.8-1.1-3.4-3.7-1.1h-3l-3.2 1.1-1.2 3.4v219.6l1.2 1.6 4.9.8 5-.8 1.1-1.6z" class="st24"/><path d="m887.8 503-1.1-1.6-5-.7-5.3.7-1.1 1.6 1.1 1.6 5.3.8 5-.8z" class="st28"/><path d="m887.8 502.3-.9-1.4-5.1-.7-5 .7-1.1 1.4 1.2 1.6 4.9.8 5-.8z" class="st24"/><path d="m888 282.1-.4.9-.9 1.1-2 .9-3.8.4-3.4-1.1-1.6-2.7-1.4 4.5 2 3 .9.7 2.4.7 5-.3 3.1-1.4 1.4-2z" class="st29"/><path d="m885.9 279.4-4.1-1.1-4.5 1.1-1.6 2.7 1.6 2.3 4.3 1.4 4.2-1.4 1.6-2.3z" class="st28"/><path d="m885.5 275.3-2.3-5.4-3.8-5.4-4.1-4.1-3.4-2.7-4.1-1.8-4.3-.7-5.1.4-6.1 2-4.3 2.4 5-1.6 6.1-.4 4.5.7 4.1 1.8 3.4 2.3 4.7 5.1 4.3 7 2 5.4v2.7l4.1-2.3.4-3.1z" class="st24"/><path d="m883.2 282.1-1.4 2 4.3-2.7 3.8-4.1-4.5 2.7z" class="st25"/><path d="m917.1 295.6-11.5-15.7-8.1-7-3.8-1.6-4.3-.4-2.7 1.1-4.5 2.7 2-1.1h2.7l2.4.4 3.7 1.4 8.1 6.9 11.5 16.1.7 1.6-.7 1.8 4.5-2.7.7-1.4z" class="st24"/><path d="m882.5 283.4 2-2.7 2.6-1.6 3.5.3 2.3 1.4 6.9 6.1 9.7 13.1 1.4 1.4 1.6.4.5-1.5-.8-2.3-11.2-15.7-8.1-6.9-3.7-1.4-4.9-.4-3.9 2.4-4.5-7.7-5-5.5-3.4-2.3-8.9-2.7L848 260l-.9 1.4.9 2.4 1.4 1.6 1.6.4 8.9-2.6 7.7 2.2 2.3 1.8 4.9 5.4 4.6 10.4 1.1.7z" class="st25"/><path d="m98.1 378.2 27.1 15.2 2-1.4-26.8-15.6z" class="st24"/><path d="m130.2 396.1-.7-2-2.3-2-2 1.4 1.9 3-1.9 2.4-4.7 1.5-4.7-1.5L89 383.7l-1.6-1.8v-2l.9-1.4 3.1-1.4h5v.4l1.8.7 2.3-1.8-2-.9-2.7-.7-5.7.3-4.5 2-1.6 2.4v2l1.4 2 1.4.9 26.7 15.3 7.2 1.6 6.8-1.6 2.3-1.8z" class="st24"/><path d="m126.8 394.7-1.6 2-3.1 1.1h-3.7l-2.7-1.1-26.8-15.6-2-2.7v2.4l2 2.7 28.2 15.8 3.4.7 3.4-.7 2-.9.9-1.4z" class="st25"/><path d="m126.8 394-1.6-2.7-27.1-15.6-4.5-.9-4.7.9-2 3 2 2.4 26.8 15.6 4.7 1.2 4.7-1.2z" class="st26"/><path d="m130.2 396.1-.7 2-.9 1.1-3.4 1.6-2.4.7H118l-2.7-.7-28.7-16.2-2.7-4.1v3.1l2.7 3.7 28.7 16.6 2.7.7h4.7l2.4-.7 3.4-1.8 1.4-2z" class="st25"/><path d="m14.5 328.1 26.8 15.2 2.3-1.6-26.7-15.3z" class="st24"/><path d="m46.3 345.7-2.7-4.1-2.3 1.6 2 2.7-2 2.7-4.5 1.4-4.7-1.4-28-16.2-.7-1.4v-1.4l.9-1.4 4.5-1.6 3.7.3 2 1.1 2.4-1.8-2-.9-2.7-.7H8.4l-3.7.7-3.1 1.7-1.6 3.1.7 2.3 2.3 2 26.8 15.3 7 1.6 6.8-1.6 2-1.8z" class="st24"/><path d="m42.9 344.6-.3 1.1-1.4.9-3.1 1.1h-3l-3.1-1.1-26.6-15.5-2-2.7v2l2 2.7 27.7 16.2 1.4.4 5.4-.4 2.7-1.6.7-1.8v-2z" class="st25"/><path d="m41.3 346.7 2-2.7-2-2.7-26.8-15.6-4.3-.9-4.7.9-2 2.7 2 2.7 26.7 15.6 4.7 1.4z" class="st26"/><path d="m46.3 346.7-.3 1.1-1.4 1.4-3.1 1.6-2.7.7h-4.3l-3.1-.7L3 334.5l-3-4.1v2.7l.7 2.3 2.3 1.8 26.8 15.6 2.3 1.1 3.8.7h3v-.4l2.7-.3 3.1-1.8 1.4-1.4.7-2v-3z" class="st25"/><path d="m75 584.9-.5-2-2.2-1.6-6.4-1.8-7.6 1.6-1.9 3.8 2 4.1 7.4 1.8L73 589z" class="st24"/><path d="M75 585.3v-3.1H56.4v3.1z" class="st24"/><path d="m75 581.9-.5-2.2-2.2-1.6-6.4-1.6-7.6 1.5-1.9 3.9 2.7 4.1 6.8 1.6 6.4-1.6z" class="st27"/><path d="m72 362-1.2-3.4-3.5-1.1h-3.1l-3.2 1.1-1.1 3.4v219.6l1.1 1.6 5 .8 5-.8 1.1-1.6V362z" class="st24"/><path d="m72 582.2-1.1-1.6-5-.7-5.3.7-1.2 1.6 1.2 1.6 5.3.8 5-.8z" class="st28"/><path d="m72 581.5-1.1-1.4-5-.7-5 .7-1.1 1.4 1.1 1.6 5 .8 5-.8z" class="st24"/><path d="m72 360.9-.3 1.4-1.1 1.1-3.7 1.4h-2l-3.4-1.1-1.8-2.7-1.4 4.5 2 3 1.1.7 2.3.7 5.1-.3 3-1.4 1.4-2z" class="st29"/><path d="m71.7 361.3-1.8-2.7-4.1-1.1-4.3 1.1-1.8 2.7 1.8 2.3 4.3 1.4 4.1-1.4z" class="st28"/><path d="m70.4 359.9.3-3.1-3.4-7.7-3.7-5.4-4.1-4.1-3.4-2.7-5.4-2-3.1-.4-5 .4-6.1 2-4.5 2.3 5.1-1.6 6.1-.4 4.3.7 4.1 1.8L55 342l4.7 5.1 4.5 7 2 5.4v2.7z" class="st24"/><path d="m66.6 362.6 3.8-2 3.7-4.1-4.3 2.7-2.4 2z" class="st25"/><path d="m101.1 378.2.7-1.4-.7-2.4-11.4-15.3-8.3-7-3.7-1.6-4.5-.4-2.7 1.1-4.3 2.7 2-1.1h2.7l2.3.4 3.8 1.4 8 6.9 11.6 16.1.7 1.6-.7 1.8z" class="st24"/><path d="m66.6 362.6 2-2.7 2.7-1.6 3.4.3 2.4 1.4 6.8 6.1 9.7 13.1 1.4 1.4 1.8.4.5-1.5-.9-2.3-11.2-15.7-8-6.9-3.8-1.4-4.7-.4-4.1 2.4-4.3-7.7-5.1-5.5-3.4-2.3L43 337l-10.8 2.3-.8 1.4.8 2.4 1.4 1.6 1.8.4 8.8-2.6 7.7 2.2 2.4 1.8 4.7 5.4 4.7 10.4.9.7z" class="st25"/><path d="m432.1 580.6 27.1 15.2 2-1.4-26.7-15.6z" class="st24"/><path d="m464.3 598.4-.8-2-2.3-2-2 1.4 2 3-2 2.4-4.7 1.5-4.7-1.5L423 586l-1.8-1.8v-2l1.1-1.4 3-1.4h5.1v.4l1.6.7 2.4-1.8-2-.9-2.7-.7-5.8.3-4.3 2-1.8 2.4v2l1.4 2 1.4.9 26.8 15.3 7 1.6 6.8-1.6 2.3-1.8z" class="st24"/><path d="m460.9 597.1-1.8 2-3 1.1h-3.8l-2.7-1.1-26.6-15.6-2-2.7v2.4l2 2.7 28 15.8 3.4.7 3.4-.7 2-.9 1.1-1.4z" class="st25"/><path d="m460.9 596.4-1.8-2.7-27.1-15.6-4.3-.9-4.7.9-2 3 2 2.4 26.7 15.6 4.7 1.2 4.7-1.2z" class="st26"/><path d="m464.3 598.4-.7 2-1.1 1.1-3.4 1.6-2.3.7h-4.7l-2.7-.7-28.8-16.2-2.7-4.1v3.1l2.7 3.7 28.8 16.6 2.7.7h4.7l2.3-.7 3.4-1.8 1.4-2z" class="st25"/><path d="m348.6 530.5 26.7 15.2 2.4-1.6-26.8-15.3z" class="st24"/><path d="m380.4 548.1-2.7-4.1-2.4 1.6 2 2.7-2 2.7-4.5 1.4-4.6-1.4-28.2-16.2-.7-1.4V532l1.1-1.4 4.3-1.6 3.8.3 2 1.1 2.3-1.8-2-.9-2.7-.7h-3.7l-3.8.7-3 1.6-1.8 3.1.7 2.3 2.4 2 26.7 15.3 7.2 1.6 6.8-1.6 2-1.8z" class="st24"/><path d="m377 547-.4 1.1-1.4.9-3 1.1h-3.1l-3-1.1-26.8-15.6-2-2.7v2l2 2.7 27.7 16.2 1.4.4 5.4-.4 2.7-1.6.7-1.8v-2z" class="st25"/><path d="m375.2 549 2-2.7-2-2.7-26.6-15.6-4.5-.9-4.7.9-2 2.7 2 2.7 26.8 15.6 4.6 1.4z" class="st26"/><path d="m380.4 549-.4 1.1-1.4 1.4-3 1.6-2.7.7h-4.5l-3-.7-28.4-16.3-3.1-4.1v2.7l.7 2.3 2.4 1.8 26.7 15.6 2.4 1.1 3.7.7h3.1v-.4l2.7-.3 3-1.8 1.4-1.4.7-2v-3z" class="st25"/><path d="m409.1 787.3-.7-2-2-1.6-6.4-1.8-7.6 1.6-1.9 3.8 1.9 4.1 7.6 1.8 7.2-1.8z" class="st24"/><path d="M409.1 787.7v-3.1h-18.5v3.1z" class="st24"/><path d="m409.1 784.3-.7-2.2-2-1.6-6.4-1.6-7.6 1.5-1.9 3.9 2.7 4.1 6.8 1.6 6.4-1.6z" class="st27"/><path d="m406.1 564.3-1.2-3.4-3.5-1.1h-3.1l-3.2 1.1-1.1 3.4v219.6l1.1 1.6 5 .8 4.9-.8 1.2-1.6V564.3z" class="st24"/><path d="m406.1 784.5-1.2-1.6-4.9-.7-5.4.7-1.1 1.6 1.1 1.6 5.4.8 4.9-.8z" class="st28"/><path d="m406.1 783.9-1.1-1.4-5-.7-5.1.7-.9 1.4 1.1 1.6 5 .8 4.9-.8z" class="st24"/><path d="m405.9 563.2-.3 1.4-1.1 1.1-3.7 1.4h-2l-3.4-1.1-1.8-2.7-1.4 4.5 2 3 1.1.7 2.3.7 5.1-.3 3-1.4 1.4-2z" class="st29"/><path d="m405.7 563.6-1.8-2.7-4.1-1.1-4.3 1.1-1.8 2.7 1.8 2.3 4.3 1.4 4.1-1.4z" class="st28"/><path d="m404.3 562.3.4-3.1-3.4-7.7-3.8-5.4-4.1-4.1-3.4-2.7-5.4-2-3-.4-5.1.4-6.1 2-4.3 2.3 5-1.6 6.1-.4 4.5.7 4.1 1.8 3.4 2.3 4.7 5.1 4.3 7 2 5.4v2.7z" class="st24"/><path d="m400.7 565 3.7-2 3.8-4.1-4.5 2.7-2.3 2z" class="st25"/><path d="m435.2 580.6.7-1.4-.7-2.4-11.5-15.3-8.1-7-3.8-1.6-4.3-.4-2.7 1.1-4.5 2.7 2-1.1h2.7l2.4.4 3.7 1.4 8.1 6.9 11.5 16.1.7 1.6-.7 1.8z" class="st24"/><path d="m400.7 565 2-2.7 2.6-1.6 3.5.3 2.3 1.4 6.9 6.1 9.7 13.1 1.4 1.4 1.6.4.5-1.5-.8-2.3-11.2-15.7-8.1-6.9-3.7-1.4-4.9-.4-3.9 2.4-4.5-7.7-5-5.5-3.4-2.3-8.9-2.7-10.7 2.3-.9 1.4.9 2.4 1.4 1.6 1.6.4 8.9-2.6 7.7 2.2 2.3 1.8 4.9 5.4 4.6 10.4 1.1.7z" class="st25"/></svg>