<svg xmlns="http://www.w3.org/2000/svg" viewBox="0 0 1117 1024"><path d="M493.382 186.182H27.927A27.927 27.927 0 0 0 0 214.109v781.964A27.927 27.927 0 0 0 27.927 1024h465.455a27.927 27.927 0 0 0 27.927-27.927V214.109a27.927 27.927 0 0 0-27.927-27.927M446.836 921.6a27.927 27.927 0 0 1-27.927 27.927H102.4A27.927 27.927 0 0 1 74.473 921.6V288.582a27.927 27.927 0 0 1 27.927-27.927h316.51a27.927 27.927 0 0 1 27.926 27.927z"/><path d="M251.345 381.673 121.018 642.327H204.8l139.636-260.654zM307.2 567.855 158.255 828.509h90.484L400.29 567.855z"/><path d="m167.564 567.855-46.546 74.472h232.727l46.546-74.472zM186.182 0v130.327h37.236v55.855h111.71v-55.855h37.236V0zm902.982 186.182H623.709a27.927 27.927 0 0 0-27.927 27.927v781.964A27.927 27.927 0 0 0 623.709 1024h465.455a27.927 27.927 0 0 0 27.927-27.927V214.109a27.927 27.927 0 0 0-27.927-27.927M1042.618 921.6a27.927 27.927 0 0 1-27.927 27.927H698.18a27.927 27.927 0 0 1-27.926-27.927V288.582a27.927 27.927 0 0 1 27.927-27.927h316.509a27.927 27.927 0 0 1 27.927 27.927z"/><path d="M847.127 381.673 716.8 642.327h83.782l139.636-260.654zm55.855 186.182L754.036 828.509h90.485l151.552-260.654z"/><path d="M763.345 567.855 716.8 642.327h232.727l46.546-74.472zM781.964 0v130.327H819.2v55.855h111.71v-55.855h37.235V0z"/></svg>