<svg xmlns="http://www.w3.org/2000/svg" xmlns:xlink="http://www.w3.org/1999/xlink" viewBox="0 0 2670.27 2906.51"><defs><linearGradient id="c" x1="1083.99" x2="1242.78" y1="432.07" y2="722.69" gradientUnits="userSpaceOnUse"><stop offset="0" stop-color="#2d2f4f"/><stop offset="1" stop-color="#16192b"/></linearGradient><linearGradient id="a" x1="971.82" x2="1283.83" y1="547.83" y2="547.83" gradientUnits="userSpaceOnUse"><stop offset="0" stop-color="#38aca8"/><stop offset="1" stop-color="#60637b"/></linearGradient><linearGradient xlink:href="#a" id="o" x1="991.37" x2="1264.33" y1="486.91" y2="486.91"/><linearGradient id="k" x1="510.3" x2="2759.58" y1="2128.51" y2="2136.37" gradientUnits="userSpaceOnUse"><stop offset="0" stop-color="#0b0b3a"/><stop offset="1" stop-color="#1f309e"/></linearGradient><linearGradient id="b" x1="1165.57" x2="1775.06" y1="2122.05" y2="2125.98" gradientUnits="userSpaceOnUse"><stop offset="0" stop-color="#c3c3cd"/><stop offset=".45" stop-color="#fff"/><stop offset=".57" stop-color="#9b9da4"/><stop offset="1" stop-color="#787b85"/></linearGradient><linearGradient id="f" x1="2428.19" x2="-95.78" y1="2335.49" y2="1623.51" gradientUnits="userSpaceOnUse"><stop offset="0" stop-color="#babbbb"/><stop offset="1" stop-color="#f4f4f4"/></linearGradient><linearGradient xlink:href="#b" id="p" x1="2090.75" x2="2215.86" y1="459.65" y2="834.99"/><linearGradient xlink:href="#c" id="q" x1="2156.37" x2="2213.52" y1="528.31" y2="1058.73"/><linearGradient xlink:href="#a" id="r" x1="2222.51" x2="2164.16" y1="1105.97" y2="630.62"/><linearGradient id="d" x1="2243.54" x2="2120.86" y1="1068.81" y2="635.69" gradientUnits="userSpaceOnUse"><stop offset="0" stop-color="#80bdff"/><stop offset="1" stop-color="#d6eaff"/></linearGradient><linearGradient xlink:href="#d" id="s" x1="2357.42" x2="2234.75" y1="1036.55" y2="603.44"/><linearGradient xlink:href="#d" id="t" x1="2208.49" x2="2085.82" y1="1078.73" y2="645.62"/><linearGradient xlink:href="#d" id="u" x1="2322.38" x2="2199.7" y1="1046.48" y2="613.36"/><linearGradient xlink:href="#d" id="v" x1="2173.45" x2="2050.77" y1="1088.66" y2="655.54"/><linearGradient xlink:href="#d" id="w" x1="2287.33" x2="2164.66" y1="1056.4" y2="623.29"/><linearGradient xlink:href="#d" id="x" x1="2138.4" x2="2015.73" y1="1098.59" y2="665.47"/><linearGradient xlink:href="#d" id="y" x1="2252.29" x2="2129.61" y1="1066.33" y2="633.21"/><linearGradient xlink:href="#d" id="z" x1="2028.26" x2="2188.56" y1="618.7" y2="912.09"/><linearGradient id="A" x1="2090.93" x2="2055.54" y1="892.86" y2="604.52" gradientUnits="userSpaceOnUse"><stop offset="0" stop-color="#86e2d0"/><stop offset="1" stop-color="#309e98"/></linearGradient><linearGradient xlink:href="#b" id="B" x1="1818.1" x2="1507.55" y1="1682.16" y2="1092.52"/><linearGradient xlink:href="#c" id="C" x1="1278.76" x2="1938.45" y1="1339.34" y2="1339.34"/><linearGradient xlink:href="#a" id="D" x1="1308.23" x2="1908.99" y1="1339.34" y2="1339.34"/><linearGradient xlink:href="#c" id="E" x1="1195.56" x2="1860.81" y1="1760.49" y2="1812.58"/><linearGradient xlink:href="#b" id="F" x1="1195.56" x2="1860.81" y1="1759.21" y2="1811.29"/><linearGradient xlink:href="#f" id="G" x1="1888.61" x2="912.84" y1="1955" y2="1552.78"/><linearGradient xlink:href="#c" id="H" x1="1280.19" x2="1651.63" y1="1455.64" y2="1965.9"/><linearGradient xlink:href="#d" id="I" x1="984.89" x2="1337.2" y1="1087.64" y2="1571.64"/><linearGradient xlink:href="#d" id="J" x1="1026.43" x2="1378.74" y1="1111.69" y2="1595.68"/><linearGradient xlink:href="#d" id="K" x1="1067.97" x2="1420.28" y1="1135.74" y2="1619.73"/><linearGradient xlink:href="#d" id="L" x1="1109.5" x2="1461.82" y1="1159.78" y2="1643.78"/><linearGradient xlink:href="#d" id="M" x1="1151.05" x2="1503.36" y1="1183.83" y2="1667.83"/><linearGradient xlink:href="#d" id="N" x1="1192.59" x2="1544.9" y1="1207.88" y2="1691.88"/><linearGradient xlink:href="#d" id="O" x1="1234.13" x2="1586.44" y1="1231.93" y2="1715.93"/><linearGradient xlink:href="#d" id="P" x1="1275.67" x2="1627.98" y1="1255.98" y2="1739.98"/><linearGradient xlink:href="#d" id="Q" x1="1317.21" x2="1669.52" y1="1280.03" y2="1764.03"/><linearGradient xlink:href="#d" id="R" x1="1358.75" x2="1711.06" y1="1304.08" y2="1788.08"/><linearGradient xlink:href="#d" id="S" x1="1400.29" x2="1752.6" y1="1328.13" y2="1812.13"/><linearGradient xlink:href="#d" id="T" x1="1441.83" x2="1794.14" y1="1352.18" y2="1836.18"/><linearGradient xlink:href="#d" id="U" x1="1483.37" x2="1835.68" y1="1376.23" y2="1860.23"/><linearGradient xlink:href="#d" id="V" x1="573.85" x2="1377.89" y1="571.64" y2="1676.2"/><linearGradient xlink:href="#d" id="W" x1="1034.9" x2="1387.22" y1="1155.49" y2="1639.49"/><linearGradient xlink:href="#d" id="X" x1="1076.44" x2="1428.76" y1="1179.54" y2="1663.54"/><linearGradient xlink:href="#d" id="Y" x1="1117.98" x2="1470.3" y1="1203.59" y2="1687.59"/><linearGradient xlink:href="#d" id="Z" x1="1159.52" x2="1511.84" y1="1227.64" y2="1711.64"/><linearGradient xlink:href="#d" id="aa" x1="1201.06" x2="1553.38" y1="1251.69" y2="1735.69"/><linearGradient xlink:href="#d" id="ab" x1="1242.6" x2="1594.92" y1="1275.74" y2="1759.74"/><linearGradient xlink:href="#d" id="ac" x1="1284.14" x2="1636.46" y1="1299.79" y2="1783.79"/><linearGradient xlink:href="#d" id="ad" x1="1325.68" x2="1678" y1="1323.83" y2="1807.84"/><linearGradient xlink:href="#d" id="ae" x1="1367.22" x2="1719.54" y1="1347.89" y2="1831.89"/><linearGradient xlink:href="#d" id="af" x1="1408.76" x2="1761.08" y1="1371.94" y2="1855.94"/><linearGradient xlink:href="#d" id="ag" x1="1450.3" x2="1802.62" y1="1395.99" y2="1879.99"/><linearGradient xlink:href="#d" id="ah" x1="918.76" x2="1271.07" y1="1127.15" y2="1611.15"/><linearGradient xlink:href="#d" id="ai" x1="960.3" x2="1312.61" y1="1151.2" y2="1635.2"/><linearGradient xlink:href="#d" id="aj" x1="1001.83" x2="1354.15" y1="1175.25" y2="1659.25"/><linearGradient xlink:href="#d" id="ak" x1="1043.37" x2="1395.69" y1="1199.3" y2="1683.3"/><linearGradient xlink:href="#d" id="al" x1="1084.91" x2="1437.23" y1="1223.34" y2="1707.35"/><linearGradient xlink:href="#d" id="am" x1="1126.46" x2="1478.77" y1="1247.4" y2="1731.4"/><linearGradient xlink:href="#d" id="an" x1="1168" x2="1520.31" y1="1271.45" y2="1755.45"/><linearGradient xlink:href="#d" id="ao" x1="1209.54" x2="1561.85" y1="1295.5" y2="1779.5"/><linearGradient xlink:href="#d" id="ap" x1="1251.08" x2="1603.39" y1="1319.55" y2="1803.55"/><linearGradient xlink:href="#d" id="aq" x1="1292.62" x2="1644.93" y1="1343.6" y2="1827.6"/><linearGradient xlink:href="#d" id="ar" x1="1334.16" x2="1686.47" y1="1367.65" y2="1851.65"/><linearGradient xlink:href="#d" id="as" x1="1375.7" x2="1728.01" y1="1391.7" y2="1875.7"/><linearGradient xlink:href="#d" id="at" x1="1417.24" x2="1769.55" y1="1415.75" y2="1899.75"/><linearGradient xlink:href="#d" id="au" x1="885.69" x2="1238" y1="1146.91" y2="1630.91"/><linearGradient xlink:href="#d" id="av" x1="927.23" x2="1279.54" y1="1170.96" y2="1654.96"/><linearGradient xlink:href="#d" id="aw" x1="968.77" x2="1321.08" y1="1195.01" y2="1679.01"/><linearGradient xlink:href="#d" id="ax" x1="1010.31" x2="1362.62" y1="1219.06" y2="1703.06"/><linearGradient xlink:href="#d" id="ay" x1="1051.85" x2="1404.16" y1="1243.11" y2="1727.11"/><linearGradient xlink:href="#d" id="az" x1="1093.39" x2="1445.7" y1="1267.16" y2="1751.16"/><linearGradient xlink:href="#d" id="aA" x1="1134.93" x2="1487.24" y1="1291.21" y2="1775.21"/><linearGradient xlink:href="#d" id="aB" x1="1176.47" x2="1528.78" y1="1315.26" y2="1799.26"/><linearGradient xlink:href="#d" id="aC" x1="1218.01" x2="1570.32" y1="1339.31" y2="1823.31"/><linearGradient xlink:href="#d" id="aD" x1="1259.55" x2="1611.86" y1="1363.36" y2="1847.36"/><linearGradient xlink:href="#d" id="aE" x1="1301.08" x2="1653.4" y1="1387.4" y2="1871.41"/><linearGradient xlink:href="#d" id="aF" x1="964.65" x2="1768.7" y1="875.69" y2="1980.27"/><linearGradient xlink:href="#d" id="aG" x1="852.62" x2="1204.94" y1="1166.67" y2="1650.67"/><linearGradient xlink:href="#d" id="aH" x1="894.16" x2="1246.48" y1="1190.72" y2="1674.72"/><linearGradient xlink:href="#d" id="aI" x1="935.7" x2="1288.02" y1="1214.77" y2="1698.77"/><linearGradient xlink:href="#d" id="aJ" x1="977.24" x2="1329.56" y1="1238.81" y2="1722.82"/><linearGradient xlink:href="#d" id="aK" x1="1018.78" x2="1371.1" y1="1262.87" y2="1746.87"/><linearGradient xlink:href="#d" id="aL" x1="1060.31" x2="1412.64" y1="1286.91" y2="1770.92"/><linearGradient xlink:href="#d" id="bf" x1="1101.86" x2="1454.18" y1="1310.97" y2="1794.97"/><linearGradient xlink:href="#d" id="bg" x1="1143.4" x2="1495.72" y1="1335.02" y2="1819.02"/><linearGradient xlink:href="#d" id="bh" x1="1184.94" x2="1537.26" y1="1359.07" y2="1843.07"/><linearGradient xlink:href="#d" id="bi" x1="1226.48" x2="1578.8" y1="1383.12" y2="1867.12"/><linearGradient xlink:href="#d" id="bj" x1="1268.02" x2="1620.34" y1="1407.17" y2="1891.17"/><linearGradient xlink:href="#d" id="bk" x1="1309.56" x2="1661.88" y1="1431.22" y2="1915.22"/><linearGradient xlink:href="#d" id="bl" x1="1351.1" x2="1703.42" y1="1455.26" y2="1939.27"/><linearGradient xlink:href="#d" id="bm" x1="819.56" x2="1171.87" y1="1186.43" y2="1670.43"/><linearGradient xlink:href="#d" id="bn" x1="861.09" x2="1213.41" y1="1210.48" y2="1694.48"/><linearGradient xlink:href="#d" id="bo" x1="902.64" x2="1254.95" y1="1234.53" y2="1718.53"/><linearGradient xlink:href="#d" id="bp" x1="-567.74" x2="1591.5" y1="-884.48" y2="2081.82"/><linearGradient xlink:href="#d" id="bq" x1="1151.87" x2="1504.19" y1="1378.82" y2="1862.83"/><linearGradient xlink:href="#d" id="br" x1="1193.41" x2="1545.73" y1="1402.87" y2="1886.88"/><linearGradient xlink:href="#d" id="bs" x1="1234.96" x2="1587.27" y1="1426.92" y2="1910.92"/><linearGradient xlink:href="#d" id="bt" x1="1276.49" x2="1628.81" y1="1450.97" y2="1934.98"/><linearGradient xlink:href="#d" id="bu" x1="1318.04" x2="1670.35" y1="1475.02" y2="1959.02"/><linearGradient xlink:href="#a" id="bv" x1="1237.89" x2="1077.17" y1="1263.06" y2="897.59"/><linearGradient xlink:href="#a" id="bw" x1="918.49" x2="1331.04" y1="1063.71" y2="1063.71"/><linearGradient xlink:href="#d" id="bx" x1="1106.7" x2="1115.23" y1="1387.85" y2="1403.46" gradientTransform="matrix(.99664 .63175 .0009 .99512 0 -942.58)"/><linearGradient xlink:href="#d" id="by" x1="1015.17" x2="1022.84" y1="1282.06" y2="1296.09" gradientTransform="matrix(.99664 .63175 .0009 .99512 0 -942.58)"/><linearGradient xlink:href="#d" id="bz" x1="1032.88" x2="1042.27" y1="1235.64" y2="1252.82" gradientTransform="matrix(.99664 .63175 .0009 .99512 0 -942.58)"/><linearGradient xlink:href="#d" id="bA" x1="1026.14" x2="1035.32" y1="1246.02" y2="1262.82" gradientTransform="matrix(.99664 .63175 .0009 .99512 0 -942.58)"/><linearGradient xlink:href="#d" id="bB" x1="1014.81" x2="1021.68" y1="1295.04" y2="1307.61" gradientTransform="matrix(.99664 .63175 .0009 .99512 0 -942.58)"/><linearGradient xlink:href="#d" id="bC" x1="1017.2" x2="1025.51" y1="1269.44" y2="1284.65" gradientTransform="matrix(.99664 .63175 .0009 .99512 0 -942.58)"/><linearGradient xlink:href="#d" id="bD" x1="1040.95" x2="1050.38" y1="1226.39" y2="1243.64" gradientTransform="matrix(.99664 .63175 .0009 .99512 0 -942.58)"/><linearGradient xlink:href="#d" id="bE" x1="1095.62" x2="1105.03" y1="1199.26" y2="1216.5" gradientTransform="matrix(.99664 .63175 .0009 .99512 0 -942.58)"/><linearGradient xlink:href="#d" id="bF" x1="1050.26" x2="1059.56" y1="1218.41" y2="1235.44" gradientTransform="matrix(.99664 .63175 .0009 .99512 0 -942.58)"/><linearGradient xlink:href="#d" id="bG" x1="1083.59" x2="1092.99" y1="1201.72" y2="1218.92" gradientTransform="matrix(.99664 .63175 .0009 .99512 0 -942.58)"/><linearGradient xlink:href="#d" id="bH" x1="1060.69" x2="1069.72" y1="1211.81" y2="1228.33" gradientTransform="matrix(.99664 .63175 .0009 .99512 0 -942.58)"/><linearGradient xlink:href="#d" id="bI" x1="1072.07" x2="1081.28" y1="1205.9" y2="1222.76" gradientTransform="matrix(.99664 .63175 .0009 .99512 0 -942.58)"/><linearGradient xlink:href="#d" id="bJ" x1="1020.88" x2="1029.7" y1="1257.35" y2="1273.5" gradientTransform="matrix(.99664 .63175 .0009 .99512 0 -942.58)"/><linearGradient xlink:href="#d" id="bK" x1="1052.18" x2="1058.49" y1="1370.56" y2="1382.13" gradientTransform="matrix(.99664 .63175 .0009 .99512 0 -942.58)"/><linearGradient xlink:href="#d" id="bL" x1="1061.94" x2="1069.12" y1="1376.61" y2="1389.76" gradientTransform="matrix(.99664 .63175 .0009 .99512 0 -942.58)"/><linearGradient xlink:href="#d" id="bM" x1="1083.88" x2="1092.4" y1="1384.8" y2="1400.4" gradientTransform="matrix(.99664 .63175 .0009 .99512 0 -942.58)"/><linearGradient xlink:href="#d" id="bN" x1="1072.57" x2="1080.48" y1="1381.41" y2="1395.9" gradientTransform="matrix(.99664 .63175 .0009 .99512 0 -942.58)"/><linearGradient xlink:href="#d" id="bO" x1="1095.68" x2="1104.65" y1="1386.76" y2="1403.19" gradientTransform="matrix(.99664 .63175 .0009 .99512 0 -942.58)"/><linearGradient xlink:href="#d" id="bP" x1="1016.08" x2="1022.06" y1="1308.08" y2="1319.03" gradientTransform="matrix(.99664 .63175 .0009 .99512 0 -942.58)"/><linearGradient xlink:href="#d" id="bQ" x1="1043.45" x2="1048.8" y1="1363.33" y2="1373.13" gradientTransform="matrix(.99664 .63175 .0009 .99512 0 -942.58)"/><linearGradient xlink:href="#d" id="bR" x1="1029.6" x2="1032.83" y1="1345.73" y2="1351.65" gradientTransform="matrix(.99664 .63175 .0009 .99512 0 -942.58)"/><linearGradient xlink:href="#d" id="bS" x1="1019.01" x2="1023.98" y1="1321.04" y2="1330.14" gradientTransform="matrix(.99664 .63175 .0009 .99512 0 -942.58)"/><linearGradient xlink:href="#d" id="bT" x1="1023.56" x2="1027.43" y1="1333.67" y2="1340.76" gradientTransform="matrix(.99664 .63175 .0009 .99512 0 -942.58)"/><linearGradient xlink:href="#d" id="bU" x1="1035.9" x2="1040.2" y1="1355.05" y2="1362.91" gradientTransform="matrix(.99664 .63175 .0009 .99512 0 -942.58)"/><linearGradient xlink:href="#d" id="bV" x1="1106.82" x2="1115.44" y1="1199.25" y2="1215.03" gradientTransform="matrix(.99664 .63175 .0009 .99512 0 -942.58)"/><linearGradient id="g" x1="1052.1" x2="1173.11" y1="1063.99" y2="1063.99" gradientTransform="rotate(36.21 1112.577 1063.932)" gradientUnits="userSpaceOnUse"><stop offset="0" stop-color="#991f3c"/><stop offset="1" stop-color="#e25a71"/></linearGradient><linearGradient xlink:href="#b" id="bW" x1="1556.57" x2="1659.61" y1="183.98" y2="535.4"/><linearGradient xlink:href="#c" id="bX" x1="1587.82" x2="1644.97" y1="186.26" y2="716.68"/><linearGradient xlink:href="#a" id="bY" x1="1653.95" x2="1595.6" y1="763.92" y2="288.57"/><linearGradient xlink:href="#d" id="bZ" x1="1675.05" x2="1552.38" y1="731.59" y2="298.47"/><linearGradient xlink:href="#d" id="cA" x1="1788.94" x2="1666.26" y1="699.33" y2="266.22"/><linearGradient xlink:href="#d" id="cB" x1="1640.01" x2="1517.33" y1="741.51" y2="308.4"/><linearGradient xlink:href="#d" id="cC" x1="1753.89" x2="1631.22" y1="709.26" y2="276.14"/><linearGradient xlink:href="#d" id="cD" x1="1604.96" x2="1482.29" y1="751.44" y2="318.33"/><linearGradient xlink:href="#d" id="cE" x1="1718.85" x2="1596.17" y1="719.18" y2="286.07"/><linearGradient xlink:href="#d" id="cF" x1="1569.92" x2="1447.24" y1="761.37" y2="328.25"/><linearGradient xlink:href="#d" id="cG" x1="1683.8" x2="1561.13" y1="729.11" y2="295.99"/><linearGradient xlink:href="#g" id="cH" x1="1434.62" x2="1594.92" y1="263.86" y2="557.25"/><linearGradient id="l" x1="1497.3" x2="1461.9" y1="538.02" y2="249.68" gradientUnits="userSpaceOnUse"><stop offset="0" stop-color="#ff6e9b"/><stop offset="1" stop-color="#e25a71"/></linearGradient><linearGradient id="j" x1="4777.19" x2="4938.05" y1="360.3" y2="360.3" gradientTransform="rotate(4.97 -489.484 -48038.688)" gradientUnits="userSpaceOnUse"><stop offset="0" stop-color="#ffd9d9"/><stop offset="1" stop-color="#efb4b4"/></linearGradient><linearGradient id="i" x1="3667.25" x2="3819.25" y1="909.75" y2="909.75" gradientTransform="matrix(-1 0 0 1 4235.76 0)" gradientUnits="userSpaceOnUse"><stop offset="0" stop-color="#ffac06"/><stop offset="1" stop-color="#f25227"/></linearGradient><linearGradient xlink:href="#i" id="cI" x1="3228.85" x2="3584.82" y1="989.19" y2="989.19"/><linearGradient xlink:href="#j" id="cJ" x1="5260.63" x2="5401.04" y1="1074.81" y2="1074.81" gradientTransform="translate(-4258.45)"/><linearGradient id="cK" x1="4692.92" x2="4692.92" y1="1724.6" y2="2016.52" gradientTransform="matrix(-1 0 0 1 6858.69 0)" gradientUnits="userSpaceOnUse"><stop offset="0" stop-color="#e8af54"/><stop offset="1" stop-color="#d3782d"/></linearGradient><linearGradient id="cL" x1="4764.79" x2="4781.84" y1="1873.46" y2="2105.34" gradientTransform="matrix(-1 0 0 1 6858.69 0)" gradientUnits="userSpaceOnUse"><stop offset="0" stop-color="#edb55d"/><stop offset="1" stop-color="#da8839"/></linearGradient><linearGradient xlink:href="#k" id="cM" x1="1518.77" x2="2114.45" y1="2308.59" y2="2310.67"/><linearGradient xlink:href="#b" id="cN" x1="1541.3" x2="1980.74" y1="2284.18" y2="2335.53"/><linearGradient xlink:href="#f" id="cO" x1="1874.76" x2="1510.99" y1="2389.89" y2="2071.77"/><linearGradient id="n" x1="1552.35" x2="1655.71" y1="2115.21" y2="2115.57" gradientUnits="userSpaceOnUse"><stop offset="0" stop-color="#ff91b3"/><stop offset="1" stop-color="#ffd1df"/></linearGradient><linearGradient xlink:href="#g" id="cP" x1="1588.56" x2="1652.8" y1="2258.38" y2="2097.25"/><linearGradient xlink:href="#l" id="cQ" x1="1565.05" x2="1553.46" y1="2097.36" y2="2265.86"/><linearGradient xlink:href="#n" id="cR" x1="1644.41" x2="1747.77" y1="2122.63" y2="2122.99"/><linearGradient xlink:href="#g" id="cS" x1="1678.49" x2="1742.73" y1="2294.23" y2="2133.11"/><linearGradient xlink:href="#l" id="cT" x1="1658.76" x2="1647.17" y1="2103.8" y2="2272.3"/><linearGradient xlink:href="#n" id="cU" x1="1736.47" x2="1839.82" y1="2087.55" y2="2087.91"/><linearGradient xlink:href="#g" id="cV" x1="1761.1" x2="1825.34" y1="2327.17" y2="2166.04"/><linearGradient xlink:href="#l" id="cW" x1="1751.02" x2="1739.43" y1="2110.14" y2="2278.64"/><linearGradient xlink:href="#n" id="cX" x1="1828.53" x2="1931.88" y1="2200.22" y2="2200.59"/><linearGradient xlink:href="#g" id="cY" x1="1869.13" x2="1933.37" y1="2370.24" y2="2209.11"/><linearGradient xlink:href="#l" id="cZ" x1="1835.73" x2="1835.73" y1="2252.25" y2="2390.46"/><linearGradient id="dA" x1="2332.46" x2="2106.11" y1="1540.5" y2="1274.87" gradientUnits="userSpaceOnUse"><stop offset="0" stop-color="#af4e0c"/><stop offset="1" stop-color="#f25227"/></linearGradient><linearGradient xlink:href="#i" id="dB" x1="2031.91" x2="2321.86" y1="1184.96" y2="1585.29"/></defs><path d="M1006.46 618.65c-9.57-5.5-15.52-15.77-15.52-26.81l-18.48-278.51c0-2.7 20.96-8.33 22.09-8.33.58 0 1.16.17 1.75.5l286.01 164.18c12.73 7.31 20.64 20.97 20.64 35.64v255.99c0 12.25-28.5 28.75-39.12 22.65z" style="fill:url(#c);stroke-width:0"/><path d="M987.34 625.35c-9.57-5.5-15.52-15.77-15.52-26.81V315.31c0-2.7 2.47-3.61 3.61-3.61.58 0 1.16.17 1.75.5l286.01 164.18c12.73 7.31 20.64 20.97 20.64 35.64v255.99c0 12.25-13.25 19.92-23.87 13.82z" style="fill:url(#a);stroke-width:0"/><path d="M1264.33 512.02v249.79L997.04 608.38a11.37 11.37 0 0 1-5.67-9.87V342.85l262.11 150.5c6.65 3.81 10.85 10.95 10.85 18.67" style="fill:#fff;stroke-width:0"/><path d="M1264.33 512.02v118.93l-77.21-121.67-80.43 77.69-63.91-90.11-51.4 50.92V342.85l262.11 150.5c6.65 3.81 10.85 10.95 10.85 18.67Z" style="fill:url(#o);stroke-width:0"/><ellipse cx="1053.11" cy="445.33" rx="21.78" ry="38.27" style="fill:#fff;stroke-width:0" transform="rotate(-37.03 1053.029 445.317)"/><path d="M2145.56 1791.13V1465.9" style="fill:none;stroke:#787b85;stroke-dasharray:0 0 15 15;stroke-miterlimit:10;stroke-width:5px"/><path d="M2670.27 2119.82h-124.26l-1313.63-749.13c-33.04-19.12-73.77-19.2-106.88-.2L111.01 1952.58H0v95.21l.7.38c1.64 13.27 8.71 25.95 21.92 33.6l1416.69 808.77c36.7 21.24 81.93 21.32 118.71.22l1085.81-623.01c19.83-11.38 28.1-32.41 25.62-52.27l.83-.44v-95.21Z" style="fill:url(#k);stroke-width:0"/><path d="M2670.27 2111.58h-124.26l-1313.63-749.13c-33.04-19.12-73.77-19.2-106.88-.2L111.01 1944.34H0v95.21l.7.38c1.64 13.27 8.71 25.95 21.92 33.6l1416.69 808.77c36.7 21.24 81.93 21.32 118.71.22l1085.81-623.01c19.83-11.38 28.1-32.41 25.62-52.27l.83-.44v-95.21Z" style="fill:url(#b);stroke-width:0"/><path d="m22.62 1978.31 1416.69 808.77c36.7 21.24 81.93 21.32 118.71.22l1085.81-623.01c35.18-20.19 35.28-70.9.17-91.22l-1411.61-805.83c-33.04-19.12-73.77-19.2-106.89-.2L22.77 1899.76c-30.3 17.38-30.38 61.06-.15 78.55" style="fill:url(#f);stroke-width:0"/><path d="M2643.83 2152.39 1558.02 2775.4c-36.78 21.1-82.01 21.02-118.71-.22L22.62 1966.41c-13.1-7.58-20.16-20.12-21.88-33.27-2.24 17.12 4.81 35.3 21.88 45.18l1416.69 808.77c36.7 21.24 81.93 21.32 118.71.22l1085.81-623.01c19.61-11.25 27.91-31.94 25.7-51.61-1.77 15.68-10.06 30.73-25.7 39.7" style="fill:#fff;stroke-width:0"/><path d="m2072.53 1095.42 261.1 172.13c9.74 5.59 45.71-19.56 45.71-30.79V608.3c0-19.19-10.26-36.91-26.9-46.46l-263.49-151.25c-12.67-7.27-51.93 8.4-51.93 23.01l13.33 623.5a44.16 44.16 0 0 0 22.19 38.32Z" style="fill:url(#p);stroke-width:0"/><path d="m2053.44 1107.85 274.79 157.74c9.74 5.59 21.88-1.44 21.88-12.67V624.46c0-19.19-10.26-36.91-26.9-46.46l-263.49-151.25c-12.67-7.27-28.47 1.87-28.47 16.49v626.3a44.16 44.16 0 0 0 22.19 38.32Z" style="fill:url(#q);stroke-width:0"/><path d="M2061.26 1094.23c-8.82-5.06-14.3-14.53-14.3-24.7v-626.3c0-2.49 2.28-3.32 3.32-3.32.54 0 1.07.15 1.61.46l263.49 151.25c11.73 6.73 19.01 19.31 19.01 32.84v626.55l-273.14-156.78Z" style="fill:url(#r);stroke-width:0"/><path d="m2323.21 577.99-263.49-151.25c-5.26-3.02-11-3.09-15.98-1.24 4.58-1.24 9.67-.81 14.34 1.87l263.49 151.25a53.56 53.56 0 0 1 26.9 46.46v628.46c0 6.44-4.04 11.39-9.28 13.48 6.04-1.61 10.91-7.01 10.91-14.11V624.45c0-19.19-10.26-36.91-26.9-46.46Z" style="fill:#fff;stroke-width:0"/><g style="opacity:.3"><path d="M2064.09 620.01a10.1 10.1 0 0 1-5.06-8.74v-92.33c0-.88.81-1.18 1.18-1.18.19 0 .38.05.57.16l93.23 53.52c4.15 2.38 6.73 6.83 6.73 11.62v83.44c0 3.99-4.32 6.49-7.78 4.51L2064.09 620Z" style="fill:url(#d);stroke-width:0"/><path d="M2208.92 696.99a10.1 10.1 0 0 1-5.06-8.74v-92.33c0-.88.81-1.18 1.18-1.18.19 0 .38.05.57.16l93.23 53.52c4.15 2.38 6.73 6.83 6.73 11.62v83.44c0 3.99-4.32 6.49-7.78 4.51l-88.87-51.01Z" style="fill:url(#s);stroke-width:0"/><path d="M2064.09 753.67a10.1 10.1 0 0 1-5.06-8.74V652.6c0-.88.81-1.18 1.18-1.18.19 0 .38.05.57.16l93.23 53.52c4.15 2.38 6.73 6.83 6.73 11.62v83.44c0 3.99-4.32 6.49-7.78 4.51l-88.87-51.01Z" style="fill:url(#t);stroke-width:0"/><path d="M2208.92 830.64a10.1 10.1 0 0 1-5.06-8.74v-92.33c0-.88.81-1.18 1.18-1.18.19 0 .38.05.57.16l93.23 53.52c4.15 2.38 6.73 6.83 6.73 11.62v83.44c0 3.99-4.32 6.49-7.78 4.51l-88.87-51.01Z" style="fill:url(#u);stroke-width:0"/><path d="M2064.09 887.33a10.1 10.1 0 0 1-5.06-8.74v-92.33c0-.88.81-1.18 1.18-1.18.19 0 .38.05.57.16l93.23 53.52c4.15 2.38 6.73 6.83 6.73 11.62v83.44c0 3.99-4.32 6.49-7.78 4.51l-88.87-51.01Z" style="fill:url(#v);stroke-width:0"/><path d="M2208.92 964.3a10.1 10.1 0 0 1-5.06-8.74v-92.33c0-.88.81-1.18 1.18-1.18.19 0 .38.05.57.16l93.23 53.52c4.15 2.38 6.73 6.83 6.73 11.62v83.44c0 3.99-4.32 6.49-7.78 4.51l-88.87-51.01Z" style="fill:url(#w);stroke-width:0"/><path d="M2064.09 1020.98a10.1 10.1 0 0 1-5.06-8.74v-92.33c0-.88.81-1.18 1.18-1.18.19 0 .38.05.57.16l93.23 53.52c4.15 2.38 6.73 6.83 6.73 11.62v83.44c0 3.99-4.32 6.49-7.78 4.51l-88.87-51.01Z" style="fill:url(#x);stroke-width:0"/><path d="M2208.92 1097.96a10.1 10.1 0 0 1-5.06-8.74v-92.33c0-.88.81-1.18 1.18-1.18.19 0 .38.05.57.16l93.23 53.52c4.15 2.38 6.73 6.83 6.73 11.62v83.44c0 3.99-4.32 6.49-7.78 4.51l-88.87-51.01Z" style="fill:url(#y);stroke-width:0"/></g><path d="M1949.99 807.06c-9.66-5.55-15.67-15.92-15.67-27.06l-18.66-281.16c0-2.72 21.16-8.41 22.3-8.41.59 0 1.17.17 1.77.51l288.74 165.74c12.85 7.38 20.83 21.17 20.83 35.98v258.43c0 12.37-28.77 29.03-39.5 22.87l-259.82-166.89Z" style="fill:url(#z);stroke-width:0"/><path d="M1930.69 813.82c-9.66-5.55-15.67-15.92-15.67-27.06V500.83c0-2.72 2.5-3.64 3.64-3.64.59 0 1.17.17 1.77.51l288.74 165.74c12.85 7.38 20.83 21.17 20.83 35.98v258.43c0 12.37-13.37 20.11-24.1 13.95l-275.22-157.98Z" style="fill:url(#A);stroke-width:0"/><path d="M2154.99 733.08c-18.41-38.56-49.93-75.35-85.79-96.33-56.76-33.21-102.75-14.12-102.75 42.63 0 56.76 46 129.67 102.75 162.87 28.34 16.58 54.07 20.12 72.69 12.46 18.55-7.77 30.07-26.68 30.07-55.09 0-20.96-6.28-44.08-16.96-66.54Zm-28.27 97.59c-14.76 6.05-35.1 3.25-57.51-9.86-44.89-26.27-81.24-83.94-81.24-128.84 0-44.89 36.34-59.97 81.24-33.71 28.34 16.58 53.31 45.67 67.86 76.18 8.48 17.79 13.45 36.07 13.45 52.62 0 22.48-9.1 37.43-23.79 43.59Z" style="fill:#fff;stroke-width:0"/><path d="m2365.55 918.74 71.56 46.53c29.66 19.29 68.9-2 68.9-37.38V560.26a99.29 99.29 0 0 0-49.02-85.63L1667.05 10.7c-39.27-23.06-88.74 5.25-88.74 50.79v914.33" style="fill:none;stroke:#787b85;stroke-dasharray:0 0 15 15;stroke-miterlimit:10;stroke-width:5px"/><path d="m1342.11 1445.88 572.72 352.42c14.11 8.06 46.12-19.03 46.12-35.28v-477.77c0-38.57-20.67-74.19-54.16-93.33l-563.28-321.88c-18.82-10.76-60.13 1.49-60.13 23.17l17.89 482.27c0 29.1 15.59 55.96 40.85 70.4Z" style="fill:url(#B);stroke-width:0"/><path d="m1319.62 1459.96 587.16 335.52c14.11 8.06 31.67-2.13 31.67-18.38v-477.77c0-38.57-20.67-74.19-54.16-93.33l-563.28-321.88c-18.82-10.76-42.24 2.84-42.24 24.51v480.92c0 29.1 15.59 55.96 40.85 70.4Z" style="fill:url(#C);stroke-width:0"/><path d="M1902.98 1762.87c-1 0-1.98-.28-2.94-.82l-560.01-320c-19.62-11.21-31.8-32.21-31.8-54.81V928.56c0-7.88 6.62-12.76 12.75-12.76 2.16 0 4.27.58 6.27 1.71l537.24 306.99c27.45 15.68 44.5 45.06 44.5 76.68v455.68c0 1.7-.6 3.14-1.78 4.27-1.15 1.11-2.69 1.74-4.23 1.74" style="fill:url(#D);stroke-width:0"/><path d="M1841.63 1410.23c-8.54-17.78-19.63-35.28-32.43-51.21-18.07-22.76-39.97-42.53-63.44-56.33-63.45-37.13-114.8-15.79-114.8 47.65s51.35 144.81 114.8 181.94c25.89 15.08 49.79 20.48 68.99 17.35 4.41-.71 8.39-1.85 12.24-3.41 20.77-8.68 33.57-29.87 33.57-61.59 0-23.47-6.97-49.22-18.92-74.4Z" style="fill:#fff;stroke-width:0"/><g style="opacity:.49"><path d="M1344.11 1125.73c-7.41-4.26-12.02-12.22-12.02-20.77v-9.09c0-2.09 1.92-2.79 2.79-2.79.45 0 .9.13 1.36.39l221.57 127.19c9.86 5.66 15.99 16.24 15.99 27.61v-12.01c0 9.49-10.26 15.43-18.49 10.71l-211.2-121.23Zm0 66.3c-7.41-4.26-12.02-12.22-12.02-20.77v-9.09c0-2.09 1.92-2.79 2.79-2.79.45 0 .9.13 1.36.39l221.57 127.19c9.86 5.66 15.99 16.24 15.99 27.61v-12.01c0 9.49-10.26 15.43-18.49 10.71l-211.2-121.23Zm0 66.3c-7.41-4.26-12.02-12.22-12.02-20.77v-9.09c0-2.09 1.92-2.79 2.79-2.79.45 0 .9.13 1.36.39l221.57 127.19c9.86 5.66 15.99 16.24 15.99 27.61v-12.01c0 9.49-10.26 15.43-18.49 10.71l-211.2-121.23Zm0 66.29c-7.41-4.26-12.02-12.22-12.02-20.77v-9.09c0-2.09 1.92-2.79 2.79-2.79.45 0 .9.13 1.36.39l119.21 70.75c9.86 5.66 15.99 16.24 15.99 27.61v-12.01c0 9.49-10.26 15.43-18.49 10.71l-108.83-64.79Z" style="fill:#fff;stroke-width:0"/></g><path d="M1860.55 1484.62c0 31.72-12.8 52.92-33.57 61.59-3.84 1.56-7.82 2.7-12.24 3.41l-80.37-135.28 74.82-55.34c12.8 15.93 23.9 33.43 32.43 51.21 11.95 25.18 18.92 50.93 18.92 74.4Z" style="fill:#f2b827;stroke-width:0"/><path d="m1310.01 1479.73 596.02 321.33c17.74 10.24 8.87 53.77-8.96 63.85l-361.73 204.62a79.3 79.3 0 0 1-78.71-.36L888.56 1741c-20-11.56-25.64-62.29-5.7-73.96l362.64-187.12a64.17 64.17 0 0 1 64.5-.19Z" style="fill:url(#E);stroke-width:0"/><path d="m1310.01 1478.45 596.02 321.33c17.74 10.24 8.87 53.77-8.96 63.85l-361.73 204.62a79.3 79.3 0 0 1-78.71-.36l-568.07-328.17c-20-11.56-25.64-62.29-5.7-73.96l362.64-187.12a64.17 64.17 0 0 1 64.5-.19Z" style="fill:url(#F);stroke-width:0"/><path d="m1311.07 1452.36 587.27 339.21c17.74 10.24 17.62 35.89-.21 45.97l-361.73 204.62a79.3 79.3 0 0 1-78.71-.36l-568.07-328.17c-20-11.56-20.09-40.4-.15-52.07l357.09-209.01a64.17 64.17 0 0 1 64.5-.19Z" style="fill:url(#G);stroke-width:0"/><path d="m1079.35 1629.29 527.25 309.47a39.71 39.71 0 0 0 40.01.11l206.34-119.63c10.14-5.88 10.13-20.54-.03-26.39l-541.01-311.83a28.87 28.87 0 0 0-29.16.19l-203.46 120.76c-10.38 6.16-10.35 21.21.07 27.32Z" style="fill:url(#H);stroke-width:0"/><path d="M1297.88 1529.62c.71.41 1.6.42 2.31 0l21.15-12.14c.68-.39.69-1.38 0-1.78l-27.5-15.7c-.64-.37-1.44-.37-2.08 0l-21.48 12.33a.883.883 0 0 0 0 1.53z" style="fill:url(#I);stroke-width:0"/><path d="m1311.82 1537.92 27.6 15.76c.72.41 1.6.42 2.31 0l21.15-12.14c.69-.39.69-1.38 0-1.78l-27.5-15.7c-.64-.37-1.44-.37-2.08 0l-21.48 12.33a.883.883 0 0 0 0 1.53" style="fill:url(#J);stroke-width:0"/><path d="m1353.36 1561.97 27.6 15.76c.71.41 1.6.42 2.31 0l21.15-12.14c.69-.39.69-1.38 0-1.78l-27.5-15.7c-.64-.37-1.44-.37-2.08 0l-21.48 12.33a.883.883 0 0 0 0 1.53" style="fill:url(#K);stroke-width:0"/><path d="m1394.9 1586.02 27.6 15.76c.72.41 1.6.42 2.31 0l21.15-12.14c.69-.39.69-1.38 0-1.78l-27.5-15.7c-.64-.37-1.44-.37-2.08 0l-21.48 12.33a.883.883 0 0 0 0 1.53" style="fill:url(#L);stroke-width:0"/><path d="m1436.44 1610.07 27.6 15.76c.71.41 1.6.42 2.31 0l21.15-12.14c.69-.39.69-1.38 0-1.78l-27.5-15.7c-.64-.37-1.44-.37-2.08 0l-21.48 12.33a.883.883 0 0 0 0 1.53" style="fill:url(#M);stroke-width:0"/><path d="m1477.98 1634.12 27.6 15.76c.72.41 1.6.42 2.31 0l21.15-12.14c.69-.39.69-1.38 0-1.78l-27.5-15.7c-.64-.37-1.44-.37-2.08 0l-21.48 12.33a.883.883 0 0 0 0 1.53" style="fill:url(#N);stroke-width:0"/><path d="m1519.52 1658.16 27.6 15.76c.71.41 1.6.41 2.31 0l21.15-12.14c.69-.39.69-1.38 0-1.78l-27.5-15.7c-.64-.37-1.44-.37-2.08 0l-21.48 12.33a.883.883 0 0 0 0 1.53" style="fill:url(#O);stroke-width:0"/><path d="m1561.06 1682.21 27.6 15.76c.71.41 1.6.42 2.31 0l21.15-12.14c.68-.39.69-1.38 0-1.78l-27.5-15.7c-.64-.37-1.44-.37-2.08 0l-21.48 12.33a.883.883 0 0 0 0 1.53" style="fill:url(#P);stroke-width:0"/><path d="m1602.6 1706.26 27.6 15.76c.72.41 1.6.41 2.31 0l21.15-12.14c.69-.39.69-1.38 0-1.78l-27.5-15.7c-.64-.37-1.44-.37-2.08 0l-21.48 12.33a.883.883 0 0 0 0 1.53" style="fill:url(#Q);stroke-width:0"/><path d="m1644.14 1730.31 27.6 15.76c.71.41 1.6.42 2.31 0l21.15-12.14c.69-.39.69-1.38 0-1.78l-27.5-15.7c-.64-.37-1.44-.37-2.08 0l-21.48 12.33a.883.883 0 0 0 0 1.53" style="fill:url(#R);stroke-width:0"/><path d="m1685.68 1754.36 27.6 15.76c.72.41 1.6.42 2.31 0l21.15-12.14c.69-.39.69-1.38 0-1.78l-27.5-15.7c-.64-.37-1.44-.37-2.08 0l-21.48 12.33a.883.883 0 0 0 0 1.53" style="fill:url(#S);stroke-width:0"/><path d="m1727.22 1778.41 27.6 15.76c.71.41 1.6.42 2.31 0l21.15-12.14c.69-.39.69-1.38 0-1.78l-27.5-15.7c-.64-.37-1.44-.37-2.08 0l-21.48 12.33a.883.883 0 0 0 0 1.53" style="fill:url(#T);stroke-width:0"/><path d="m1819.83 1804.31-27.5-15.7c-.64-.37-1.44-.37-2.08 0l-21.48 12.33a.883.883 0 0 0 0 1.53l27.6 15.76c.72.41 1.6.42 2.31 0l21.15-12.14c.69-.39.69-1.38 0-1.78" style="fill:url(#U);stroke-width:0"/><path d="M1278.67 1557.54s.03.11.08.14l15.8 9.02 2.72 1.57h.03l9.06 5.17c.72.41 1.6.41 2.31 0l21.15-12.14c.69-.39.69-1.38 0-1.78l-11.76-6.71-57.29-33.04c-.64-.37-1.44-.37-2.08 0l-21.48 12.33a.883.883 0 0 0 0 1.53z" style="fill:url(#V);stroke-width:0"/><path d="M1343.86 1567.87c-.64-.37-1.44-.37-2.08 0l-21.48 12.33a.883.883 0 0 0 0 1.53l27.6 15.76c.71.41 1.6.42 2.31 0l21.15-12.14c.69-.39.69-1.38 0-1.78z" style="fill:url(#W);stroke-width:0"/><path d="M1385.4 1591.92c-.64-.37-1.44-.37-2.08 0l-21.48 12.33a.883.883 0 0 0 0 1.53l27.6 15.76c.71.41 1.6.42 2.31 0l21.15-12.14c.68-.39.69-1.38 0-1.78z" style="fill:url(#X);stroke-width:0"/><path d="M1426.94 1615.97c-.64-.37-1.44-.37-2.08 0l-21.48 12.33a.883.883 0 0 0 0 1.53l27.6 15.76c.72.41 1.6.42 2.31 0l21.15-12.14c.69-.39.69-1.38 0-1.78z" style="fill:url(#Y);stroke-width:0"/><path d="M1468.48 1640.02c-.64-.37-1.44-.37-2.08 0l-21.48 12.33a.883.883 0 0 0 0 1.53l27.6 15.76c.71.41 1.6.42 2.31 0l21.15-12.14c.69-.39.69-1.38 0-1.78z" style="fill:url(#Z);stroke-width:0"/><path d="M1510.02 1664.07c-.64-.37-1.44-.37-2.08 0l-21.48 12.33a.883.883 0 0 0 0 1.53l27.6 15.76c.72.41 1.6.42 2.31 0l21.15-12.14c.69-.39.69-1.38 0-1.78z" style="fill:url(#aa);stroke-width:0"/><path d="M1551.56 1688.12c-.64-.37-1.44-.37-2.08 0l-21.48 12.33a.883.883 0 0 0 0 1.53l27.6 15.76c.71.41 1.6.42 2.31 0l21.15-12.14c.69-.39.69-1.38 0-1.78z" style="fill:url(#ab);stroke-width:0"/><path d="M1593.1 1712.17c-.64-.37-1.44-.37-2.08 0l-21.48 12.33a.883.883 0 0 0 0 1.53l27.6 15.76c.72.41 1.6.42 2.31 0l21.15-12.14c.69-.39.69-1.38 0-1.78z" style="fill:url(#ac);stroke-width:0"/><path d="M1634.64 1736.22c-.64-.37-1.44-.37-2.08 0l-21.48 12.33a.883.883 0 0 0 0 1.53l27.6 15.76c.71.41 1.6.42 2.31 0l21.15-12.14c.69-.39.69-1.38 0-1.78z" style="fill:url(#ad);stroke-width:0"/><path d="m1652.61 1774.12 27.6 15.76c.71.41 1.6.42 2.31 0l21.15-12.14c.68-.39.69-1.38 0-1.78l-27.5-15.7c-.64-.37-1.44-.37-2.08 0l-21.48 12.33a.883.883 0 0 0 0 1.53" style="fill:url(#ae);stroke-width:0"/><path d="m1724.07 1813.93 21.15-12.14c.69-.39.69-1.38 0-1.78l-27.5-15.7c-.64-.37-1.44-.37-2.08 0l-21.48 12.33a.883.883 0 0 0 0 1.53l27.6 15.76c.72.41 1.6.42 2.31 0" style="fill:url(#af);stroke-width:0"/><path d="M1759.26 1808.37c-.64-.37-1.44-.37-2.08 0l-21.48 12.33a.883.883 0 0 0 0 1.53l27.6 15.76c.71.41 1.6.41 2.31 0l21.15-12.14c.69-.39.69-1.38 0-1.78z" style="fill:url(#ag);stroke-width:0"/><path d="M1231.75 1569.14c.72.41 1.6.42 2.31 0l21.15-12.14c.69-.39.69-1.38 0-1.78l-27.5-15.7c-.64-.37-1.44-.37-2.08 0l-21.48 12.33a.883.883 0 0 0 0 1.53z" style="fill:url(#ah);stroke-width:0"/><path d="M1269.26 1563.58c-.64-.37-1.44-.37-2.08 0l-21.48 12.33a.883.883 0 0 0 0 1.53l27.6 15.76c.71.41 1.6.42 2.31 0l21.15-12.14c.69-.39.69-1.38 0-1.78z" style="fill:url(#ai);stroke-width:0"/><path d="m1308.71 1587.63-21.48 12.33a.883.883 0 0 0 0 1.53l27.6 15.76c.72.41 1.6.42 2.31 0l21.15-12.14c.69-.39.69-1.38 0-1.78l-27.5-15.7c-.64-.37-1.44-.37-2.08 0" style="fill:url(#aj);stroke-width:0"/><path d="M1352.34 1611.68c-.64-.37-1.44-.37-2.08 0l-21.48 12.33a.883.883 0 0 0 0 1.53l27.6 15.76c.71.41 1.6.42 2.31 0l21.15-12.14c.69-.39.69-1.38 0-1.78z" style="fill:url(#ak);stroke-width:0"/><path d="M1393.88 1635.73c-.64-.37-1.44-.37-2.08 0l-21.48 12.33a.883.883 0 0 0 0 1.53l27.6 15.76c.72.41 1.6.42 2.31 0l21.15-12.14c.69-.39.69-1.38 0-1.78z" style="fill:url(#al);stroke-width:0"/><path d="M1435.42 1659.78c-.64-.37-1.44-.37-2.08 0l-21.48 12.33a.883.883 0 0 0 0 1.53l27.6 15.76c.71.41 1.6.42 2.31 0l21.15-12.14c.69-.39.69-1.38 0-1.78z" style="fill:url(#am);stroke-width:0"/><path d="M1476.96 1683.83c-.64-.37-1.44-.37-2.08 0l-21.48 12.33a.883.883 0 0 0 0 1.53l27.6 15.76c.71.41 1.6.42 2.31 0l21.15-12.14c.68-.39.69-1.38 0-1.78z" style="fill:url(#an);stroke-width:0"/><path d="M1518.5 1707.88c-.64-.37-1.44-.37-2.08 0l-21.48 12.33a.883.883 0 0 0 0 1.53l27.6 15.76c.72.41 1.6.41 2.31 0l21.15-12.14c.69-.39.69-1.38 0-1.78z" style="fill:url(#ao);stroke-width:0"/><path d="m1536.47 1745.78 27.6 15.76c.71.41 1.6.42 2.31 0l21.15-12.14c.69-.39.69-1.38 0-1.78l-27.5-15.7c-.64-.37-1.44-.37-2.08 0l-21.48 12.33a.883.883 0 0 0 0 1.53" style="fill:url(#ap);stroke-width:0"/><path d="m1607.92 1785.59 21.15-12.14c.69-.39.69-1.38 0-1.78l-27.5-15.7c-.64-.37-1.44-.37-2.08 0l-21.48 12.33a.883.883 0 0 0 0 1.53l27.6 15.76c.72.41 1.6.42 2.31 0" style="fill:url(#aq);stroke-width:0"/><path d="m1649.46 1809.64 21.15-12.14c.69-.39.69-1.38 0-1.78l-27.5-15.7c-.64-.37-1.44-.37-2.08 0l-21.48 12.33a.883.883 0 0 0 0 1.53l27.6 15.76c.71.41 1.6.42 2.31 0" style="fill:url(#ar);stroke-width:0"/><path d="M1688.69 1833.69c.72.41 1.6.42 2.31 0l21.15-12.14c.69-.39.69-1.38 0-1.78l-27.5-15.7c-.64-.37-1.44-.37-2.08 0l-21.48 12.33a.883.883 0 0 0 0 1.53z" style="fill:url(#as);stroke-width:0"/><path d="M1726.2 1828.13c-.64-.37-1.44-.37-2.08 0l-21.48 12.33a.883.883 0 0 0 0 1.53l27.6 15.76c.71.41 1.6.42 2.31 0l21.15-12.14c.69-.39.69-1.38 0-1.78z" style="fill:url(#at);stroke-width:0"/><path d="M1198.68 1588.9c.72.41 1.6.41 2.31 0l21.15-12.14c.69-.39.69-1.38 0-1.78l-27.5-15.7c-.64-.37-1.44-.37-2.08 0l-21.48 12.33a.883.883 0 0 0 0 1.53z" style="fill:url(#au);stroke-width:0"/><path d="m1234.11 1583.34-21.48 12.33a.883.883 0 0 0 0 1.53l27.6 15.76c.71.41 1.6.42 2.31 0l21.15-12.14c.69-.39.69-1.38 0-1.78l-27.5-15.7c-.64-.37-1.44-.37-2.08 0" style="fill:url(#av);stroke-width:0"/><path d="m1305.23 1623.09-27.5-15.7c-.64-.37-1.44-.37-2.08 0l-21.48 12.33a.883.883 0 0 0 0 1.53l27.6 15.76c.71.41 1.6.41 2.31 0l21.15-12.14c.68-.39.69-1.38 0-1.78" style="fill:url(#aw);stroke-width:0"/><path d="M1323.3 1661.05c.71.41 1.6.42 2.31 0l21.15-12.14c.69-.39.69-1.38 0-1.78l-27.5-15.7c-.64-.37-1.44-.37-2.08 0l-21.48 12.33a.883.883 0 0 0 0 1.53z" style="fill:url(#ax);stroke-width:0"/><path d="M1364.84 1685.1c.71.41 1.6.42 2.31 0l21.15-12.14c.69-.39.69-1.38 0-1.78l-27.5-15.7c-.64-.37-1.44-.37-2.08 0l-21.48 12.33a.883.883 0 0 0 0 1.53z" style="fill:url(#ay);stroke-width:0"/><path d="M1406.38 1709.15c.72.41 1.6.42 2.31 0l21.15-12.14c.69-.39.69-1.38 0-1.78l-27.5-15.7c-.64-.37-1.44-.37-2.08 0l-21.48 12.33a.883.883 0 0 0 0 1.53z" style="fill:url(#az);stroke-width:0"/><path d="M1447.92 1733.2c.71.41 1.6.42 2.31 0l21.15-12.14c.69-.39.69-1.38 0-1.78l-27.5-15.7c-.64-.37-1.44-.37-2.08 0l-21.48 12.33a.883.883 0 0 0 0 1.53z" style="fill:url(#aA);stroke-width:0"/><path d="M1489.46 1757.25c.72.41 1.6.42 2.31 0l21.15-12.14c.69-.39.69-1.38 0-1.78l-27.5-15.7c-.64-.37-1.44-.37-2.08 0l-21.48 12.33a.883.883 0 0 0 0 1.53z" style="fill:url(#aB);stroke-width:0"/><path d="M1531 1781.3c.71.41 1.6.42 2.31 0l21.15-12.14c.69-.39.69-1.38 0-1.78l-27.5-15.7c-.64-.37-1.44-.37-2.08 0l-21.48 12.33a.883.883 0 0 0 0 1.53z" style="fill:url(#aC);stroke-width:0"/><path d="M1572.54 1805.35c.71.41 1.6.42 2.31 0l21.15-12.14c.68-.39.69-1.38 0-1.78l-27.5-15.7c-.64-.37-1.44-.37-2.08 0l-21.48 12.33a.883.883 0 0 0 0 1.53z" style="fill:url(#aD);stroke-width:0"/><path d="m1637.55 1815.49-27.5-15.7c-.64-.37-1.44-.37-2.08 0l-21.48 12.33a.883.883 0 0 0 0 1.53l27.6 15.76c.71.41 1.6.42 2.31 0l21.15-12.14c.69-.39.69-1.38 0-1.78" style="fill:url(#aE);stroke-width:0"/><path d="M1679.47 1840.19c-.07-.25-.13-.51-.38-.66l-27.5-15.7c-.64-.37-1.44-.37-2.08 0l-21.48 12.33a.883.883 0 0 0 0 1.53l12.17 6.95c.02.28.14.56.41.72l56.55 32.14c.72.41 1.6.42 2.31 0l21.15-12.14c.69-.39.69-1.38 0-1.78l-41.16-23.39Z" style="fill:url(#aF);stroke-width:0"/><path d="M1165.62 1608.66c.71.41 1.6.42 2.31 0l21.15-12.14c.69-.39.69-1.38 0-1.78l-27.5-15.7c-.64-.37-1.44-.37-2.08 0l-21.48 12.33a.883.883 0 0 0 0 1.53z" style="fill:url(#aG);stroke-width:0"/><path d="m1201.04 1603.09-21.48 12.33a.883.883 0 0 0 0 1.53l27.6 15.76c.72.41 1.6.42 2.31 0l21.15-12.14c.69-.39.69-1.38 0-1.78l-27.5-15.7c-.64-.37-1.44-.37-2.08 0" style="fill:url(#aH);stroke-width:0"/><path d="M1248.7 1656.76c.71.41 1.6.42 2.31 0l21.15-12.14c.69-.39.69-1.38 0-1.78l-27.5-15.7c-.64-.37-1.44-.37-2.08 0l-21.48 12.33a.883.883 0 0 0 0 1.53z" style="fill:url(#aI);stroke-width:0"/><path d="M1290.24 1680.81c.72.41 1.6.42 2.31 0l21.15-12.14c.69-.39.69-1.38 0-1.78l-27.5-15.7c-.64-.37-1.44-.37-2.08 0l-21.48 12.33a.883.883 0 0 0 0 1.53z" style="fill:url(#aJ);stroke-width:0"/><path d="M1331.78 1704.86c.71.41 1.6.42 2.31 0l21.15-12.14c.69-.39.69-1.38 0-1.78l-27.5-15.7c-.64-.37-1.44-.37-2.08 0l-21.48 12.33a.883.883 0 0 0 0 1.53z" style="fill:url(#aK);stroke-width:0"/><path d="M1373.32 1728.91c.71.41 1.6.42 2.31 0l21.15-12.14c.68-.39.69-1.38 0-1.78l-27.5-15.7c-.64-.37-1.44-.37-2.08 0l-21.48 12.33a.883.883 0 0 0 0 1.53z" style="fill:url(#aL);stroke-width:0"/><path d="M1414.86 1752.96c.71.41 1.6.42 2.31 0l21.15-12.14c.69-.39.69-1.38 0-1.78l-27.5-15.7c-.64-.37-1.44-.37-2.08 0l-21.48 12.33a.883.883 0 0 0 0 1.53z" style="fill:url(#bf);stroke-width:0"/><path d="M1456.4 1777.01c.71.41 1.6.42 2.31 0l21.15-12.14c.69-.39.69-1.38 0-1.78l-27.5-15.7c-.64-.37-1.44-.37-2.08 0l-21.48 12.33a.883.883 0 0 0 0 1.53z" style="fill:url(#bg);stroke-width:0"/><path d="M1497.94 1801.06c.72.41 1.6.41 2.31 0l21.15-12.14c.69-.39.69-1.38 0-1.78l-27.5-15.7c-.64-.37-1.44-.37-2.08 0l-21.48 12.33a.883.883 0 0 0 0 1.53z" style="fill:url(#bh);stroke-width:0"/><path d="M1539.48 1825.11c.71.41 1.6.42 2.31 0l21.15-12.14c.69-.39.69-1.38 0-1.78l-27.5-15.7c-.64-.37-1.44-.37-2.08 0l-21.48 12.33a.883.883 0 0 0 0 1.53z" style="fill:url(#bi);stroke-width:0"/><path d="M1581.02 1849.16c.72.41 1.6.42 2.31 0l21.15-12.14c.69-.39.69-1.38 0-1.78l-27.5-15.7c-.64-.37-1.44-.37-2.08 0l-21.48 12.33a.883.883 0 0 0 0 1.53z" style="fill:url(#bj);stroke-width:0"/><path d="M1622.56 1873.2c.71.41 1.6.42 2.31 0l21.15-12.14c.69-.39.69-1.38 0-1.78l-27.5-15.7c-.64-.37-1.44-.37-2.08 0l-21.48 12.33a.883.883 0 0 0 0 1.53z" style="fill:url(#bk);stroke-width:0"/><path d="M1660.07 1867.64c-.64-.37-1.44-.37-2.08 0l-21.48 12.33a.883.883 0 0 0 0 1.53l27.6 15.76c.71.41 1.6.42 2.31 0l21.15-12.14c.68-.39.69-1.38 0-1.78z" style="fill:url(#bl);stroke-width:0"/><path d="m1156.02 1614.51-27.5-15.7c-.64-.37-1.44-.37-2.08 0l-21.48 12.33a.883.883 0 0 0 0 1.53l27.6 15.76c.71.41 1.6.42 2.31 0l21.15-12.14c.69-.39.69-1.38 0-1.78" style="fill:url(#bm);stroke-width:0"/><path d="m1197.56 1638.56-27.5-15.7c-.64-.37-1.44-.37-2.08 0l-21.48 12.33a.883.883 0 0 0 0 1.53l27.6 15.76c.71.41 1.6.41 2.31 0l21.15-12.14c.68-.39.69-1.38 0-1.78" style="fill:url(#bn);stroke-width:0"/><path d="m1239.1 1662.61-27.5-15.7c-.64-.37-1.44-.37-2.08 0l-21.48 12.33a.883.883 0 0 0 0 1.53l27.6 15.76c.71.41 1.6.42 2.31 0l21.15-12.14c.69-.39.69-1.38 0-1.78" style="fill:url(#bo);stroke-width:0"/><path d="m1446.8 1782.85-41.5-23.98s-.01-.06-.04-.07l-6.89-3.93-34.57-19.97s-.03-.11-.08-.14l-13.75-7.85-27.67-15.98c-.06-.06-.04-.17-.12-.21l-20.56-11.73-48.49-28.02c-.64-.37-1.44-.37-2.08 0l-21.48 12.33a.883.883 0 0 0 0 1.53l41.5 23.98s.01.06.04.07l6.97 3.98 34.49 19.93s.03.11.08.14l13.8 7.88 27.62 15.96c.06.06.04.17.12.21l20.71 11.82 20.67 11.94c.07.09.05.22.16.29l27.6 15.76c.71.41 1.6.42 2.31 0l21.15-12.14c.69-.39.69-1.38 0-1.78Z" style="fill:url(#bp);stroke-width:0"/><path d="m1488.34 1806.9-27.5-15.7c-.64-.37-1.44-.37-2.08 0l-21.48 12.33a.883.883 0 0 0 0 1.53l27.6 15.76c.71.41 1.6.42 2.31 0l21.15-12.14c.68-.39.69-1.38 0-1.78" style="fill:url(#bq);stroke-width:0"/><path d="m1529.88 1830.95-27.5-15.7c-.64-.37-1.44-.37-2.08 0l-21.48 12.33a.883.883 0 0 0 0 1.53l27.6 15.76c.71.41 1.6.42 2.31 0l21.15-12.14c.69-.39.69-1.38 0-1.78" style="fill:url(#br);stroke-width:0"/><path d="m1571.42 1855-27.5-15.7c-.64-.37-1.44-.37-2.08 0l-21.48 12.33a.883.883 0 0 0 0 1.53l27.6 15.76c.71.41 1.6.42 2.31 0l21.15-12.14c.69-.39.69-1.38 0-1.78" style="fill:url(#bs);stroke-width:0"/><path d="m1612.96 1879.05-27.5-15.7c-.64-.37-1.44-.37-2.08 0l-21.48 12.33a.883.883 0 0 0 0 1.53l27.6 15.76c.72.41 1.6.42 2.31 0l21.15-12.14c.69-.39.69-1.38 0-1.78" style="fill:url(#bt);stroke-width:0"/><path d="M1627 1887.4c-.64-.37-1.44-.37-2.08 0l-21.48 12.33a.883.883 0 0 0 0 1.53l27.6 15.76c.71.41 1.6.42 2.31 0l21.15-12.14c.69-.39.69-1.38 0-1.78z" style="fill:url(#bu);stroke-width:0"/><path d="M964.29 1157.36c-12.65-7.27-20.52-20.85-20.52-35.45l-24.44-368.26c0-3.57 27.71-11.02 29.21-11.02.77 0 1.53.22 2.31.67l378.18 217.08c16.83 9.66 27.29 27.72 27.29 47.13v338.48c0 16.2-37.68 38.02-51.73 29.95l-340.3-218.59Z" style="fill:url(#bv);stroke-width:0"/><path d="M939.01 1166.2c-12.66-7.27-20.52-20.85-20.52-35.45V756.24c0-3.57 3.27-4.77 4.77-4.77.77 0 1.53.22 2.31.67l378.18 217.08c16.83 9.66 27.29 27.72 27.29 47.13v338.48c0 16.2-17.52 26.34-31.56 18.28z" style="fill:url(#bw);stroke-width:0"/><ellipse cx="1112.61" cy="1063.99" rx="110.07" ry="205.35" style="fill:#fff;opacity:.22;stroke-width:0" transform="rotate(-36.21 1112.548 1063.96)"/><path d="M1112.6 1148.8c-.94-.59-1.88-1.21-2.81-1.83l-.61 18.29c1.14.76 2.27 1.5 3.42 2.22v-18.69Z" style="fill:url(#bx);stroke-width:0"/><path d="m1028.9 997.23-18.43-14.75c-.37 1.99-.66 4.05-.88 6.17l18.6 13.6c.18-1.73.41-3.41.71-5.03Z" style="fill:url(#by);stroke-width:0"/><path d="m1046.97 968.68-14.45-21.01q-2.145 1.26-4.11 2.76l15.18 20.52c1.08-.82 2.21-1.58 3.38-2.27" style="fill:url(#bz);stroke-width:0"/><path d="m1040.52 973.6-15.88-19.92c-1.19 1.16-2.32 2.4-3.39 3.73l16.5 19.24c.87-1.08 1.79-2.1 2.77-3.05" style="fill:url(#bA);stroke-width:0"/><path d="M1027.8 1010.24c0-.9.02-1.79.04-2.68l-18.67-12.41c-.04 1.06-.05 2.14-.05 3.24 0 1.17.02 2.34.06 3.53l18.67 11.19c-.03-.97-.05-1.93-.05-2.88Z" style="fill:url(#bB);stroke-width:0"/><path d="m1031.39 988.01-17.87-16.76c-.66 1.74-1.25 3.56-1.76 5.46l18.21 15.73c.41-1.53.89-3.01 1.42-4.43" style="fill:url(#bC);stroke-width:0"/><path d="m1054.53 965.38-12.76-21.74c-1.66.5-3.25 1.09-4.8 1.77l13.66 21.41a35 35 0 0 1 3.9-1.44" style="fill:url(#bD);stroke-width:0"/><path d="m1104.1 974.21-1.84-19.76a145 145 0 0 0-6.72-3.37l3.07 20.37c1.81.85 3.64 1.76 5.49 2.75Z" style="fill:url(#bE);stroke-width:0"/><path d="m1063.09 963.74-10.88-22.08c-1.84.15-3.64.4-5.38.73l11.89 21.95c1.42-.27 2.88-.47 4.37-.6" style="fill:url(#bF);stroke-width:0"/><path d="m1093.16 969.1-4.27-20.9c-2.21-.88-4.39-1.68-6.54-2.38l5.46 21.33c1.76.58 3.54 1.22 5.35 1.95" style="fill:url(#bG);stroke-width:0"/><path d="m1072.5 963.83-8.84-22.07c-2-.19-3.95-.29-5.86-.31l9.91 22.12c1.56.01 3.16.1 4.79.26" style="fill:url(#bH);stroke-width:0"/><path d="m1082.56 965.61-6.61-21.66c-2.12-.54-4.2-.99-6.25-1.36l7.75 21.91c1.67.3 3.38.66 5.1 1.11Z" style="fill:url(#bI);stroke-width:0"/><path d="m1035.28 980.08-17.02-18.5c-.93 1.47-1.79 3.01-2.59 4.63l17.49 17.64c.65-1.32 1.36-2.58 2.12-3.77" style="fill:url(#bJ);stroke-width:0"/><path d="m1058.79 1095.44-11.85 6.94c1.74 2.53 3.53 5.03 5.35 7.5l10.91-8.25a240 240 0 0 1-4.42-6.19Z" style="fill:url(#bK);stroke-width:0"/><path d="m1067.8 1107.61-9.85 9.64c1.92 2.4 3.86 4.76 5.84 7.08l8.84-10.86a212 212 0 0 1-4.83-5.86" style="fill:url(#bL);stroke-width:0"/><path d="M1082.56 1144.02c2.15 2.02 4.33 3.98 6.53 5.89l4.22-15.53c-1.81-1.57-3.6-3.18-5.36-4.83z" style="fill:url(#bM);stroke-width:0"/><path d="m1077.59 1119.07-7.72 12.12c2.05 2.23 4.14 4.42 6.26 6.57l6.59-13.31a202 202 0 0 1-5.13-5.38" style="fill:url(#bN);stroke-width:0"/><path d="M1095.74 1155.43c2.2 1.75 4.44 3.47 6.7 5.12l1.81-17.45c-1.85-1.35-3.69-2.76-5.5-4.21l-3.02 16.53Z" style="fill:url(#bO);stroke-width:0"/><path d="m1028.2 1018.9-18.6-9.97c.23 2.41.52 4.83.89 7.29l18.43 8.61c-.3-2-.54-3.98-.72-5.93" style="fill:url(#bP);stroke-width:0"/><path d="m1050.7 1082.73-13.64 4.14c1.54 2.62 3.14 5.22 4.78 7.8l12.79-5.52c-1.35-2.13-2.66-4.27-3.93-6.43Z" style="fill:url(#bQ);stroke-width:0"/><path d="m1037.8 1056.57-16.46-1.58c1.07 2.66 2.2 5.33 3.39 7.99l15.85.16c-.97-2.19-1.9-4.38-2.78-6.57" style="fill:url(#bR);stroke-width:0"/><path d="m1030 1030.97-18.2-7.29c.52 2.54 1.1 5.09 1.76 7.66l17.87 5.88c-.54-2.1-1.01-4.18-1.43-6.25" style="fill:url(#bS);stroke-width:0"/><path d="m1033.22 1043.58-17.47-4.44c.8 2.62 1.66 5.24 2.59 7.87l17.01 3.05c-.76-2.16-1.47-4.33-2.13-6.48" style="fill:url(#bT);stroke-width:0"/><path d="m1043.67 1069.71-15.18 1.27c1.32 2.67 2.69 5.33 4.12 7.98l14.44-2.71a184 184 0 0 1-3.38-6.54" style="fill:url(#bU);stroke-width:0"/><path d="M1112.6 979.18v-18.69c-1.14-.72-2.28-1.42-3.42-2.11l.61 19.06c.93.56 1.87 1.14 2.81 1.74" style="fill:url(#bV);stroke-width:0"/><ellipse cx="1112.61" cy="1063.99" rx="44.3" ry="82.64" style="fill:url(#g);stroke-width:0" transform="rotate(-36.21 1112.548 1063.96)"/><path d="M1233.09 1140.35c0-66.44-54.05-154.74-120.49-196.85v-14.03c-74.17-47.01-134.51-24.91-134.51 49.26l14.03 8.89c0 66.44 54.05 154.74 120.48 196.84v14.03c74.17 47.01 134.51 24.91 134.51-49.26l-14.03-8.89ZM998.35 991.58c0-63 51.25-81.78 114.25-41.85s114.26 123.67 114.26 186.67-51.26 81.77-114.26 41.84-114.25-123.66-114.25-186.67Z" style="fill:#fff;stroke-width:0"/><path d="M1195.89 1116.77c0 43.07-35.04 55.9-78.11 28.6v18.69c53.37 33.82 96.79 17.92 96.79-35.45s-43.42-124.31-96.79-158.13v18.69c43.07 27.3 78.11 84.54 78.11 127.61Z" style="fill:#fff;stroke-width:0"/><path d="m1503.98 753.37 261.1 172.13c9.74 5.59 45.71-19.56 45.71-30.79V266.25c0-19.19-10.26-36.91-26.9-46.46L1520.4 68.54c-12.67-7.27-51.93 8.4-51.93 23.01l13.33 623.5a44.16 44.16 0 0 0 22.19 38.32Z" style="fill:url(#bW);stroke-width:0"/><path d="m1484.89 765.8 274.79 157.74c9.74 5.59 21.88-1.44 21.88-12.67V282.41c0-19.19-10.26-36.91-26.9-46.46L1491.17 84.7c-12.67-7.27-28.47 1.87-28.47 16.49v626.3a44.16 44.16 0 0 0 22.19 38.32Z" style="fill:url(#bX);stroke-width:0"/><path d="M1492.71 752.18c-8.82-5.06-14.3-14.53-14.3-24.7v-626.3c0-2.49 2.28-3.32 3.32-3.32.54 0 1.07.15 1.61.46l263.49 151.25c11.73 6.73 19.01 19.31 19.01 32.84v626.55L1492.7 752.18Z" style="fill:url(#bY);stroke-width:0"/><path d="M1754.66 235.95 1491.17 84.7c-5.26-3.02-11-3.09-15.98-1.24 4.58-1.24 9.67-.81 14.34 1.87l263.49 151.25a53.56 53.56 0 0 1 26.9 46.46V911.5c0 6.44-4.04 11.39-9.28 13.48 6.04-1.61 10.91-7.01 10.91-14.11V282.41c0-19.19-10.26-36.91-26.9-46.46Z" style="fill:#fff;stroke-width:0"/><g style="opacity:.3"><path d="M1495.61 282.8a10.1 10.1 0 0 1-5.06-8.74v-92.33c0-.88.81-1.18 1.18-1.18.19 0 .38.05.57.16l93.23 53.52c4.15 2.38 6.73 6.83 6.73 11.62v83.44c0 3.99-4.32 6.49-7.78 4.51l-88.87-51.01Z" style="fill:url(#bZ);stroke-width:0"/><path d="M1640.43 359.77a10.1 10.1 0 0 1-5.06-8.74V258.7c0-.88.81-1.18 1.18-1.18.19 0 .38.05.57.16l93.23 53.52c4.15 2.38 6.73 6.83 6.73 11.62v83.44c0 3.99-4.32 6.49-7.78 4.51l-88.87-51.01Z" style="fill:url(#cA);stroke-width:0"/><path d="M1495.61 416.45a10.1 10.1 0 0 1-5.06-8.74v-92.33c0-.88.81-1.18 1.18-1.18.19 0 .38.05.57.16l93.23 53.52c4.15 2.38 6.73 6.83 6.73 11.62v83.44c0 3.99-4.32 6.49-7.78 4.51l-88.87-51.01Z" style="fill:url(#cB);stroke-width:0"/><path d="M1640.43 493.43a10.1 10.1 0 0 1-5.06-8.74v-92.33c0-.88.81-1.18 1.18-1.18.19 0 .38.05.57.16l93.23 53.52c4.15 2.38 6.73 6.83 6.73 11.62v83.44c0 3.99-4.32 6.49-7.78 4.51l-88.87-51.01Z" style="fill:url(#cC);stroke-width:0"/><path d="M1495.61 550.11a10.1 10.1 0 0 1-5.06-8.74v-92.33c0-.88.81-1.18 1.18-1.18.19 0 .38.05.57.16l93.23 53.52c4.15 2.38 6.73 6.83 6.73 11.62v83.44c0 3.99-4.32 6.49-7.78 4.51l-88.87-51.01Z" style="fill:url(#cD);stroke-width:0"/><path d="M1640.43 627.08a10.1 10.1 0 0 1-5.06-8.74v-92.33c0-.88.81-1.18 1.18-1.18.19 0 .38.05.57.16l93.23 53.52c4.15 2.38 6.73 6.83 6.73 11.62v83.44c0 3.99-4.32 6.49-7.78 4.51l-88.87-51.01Z" style="fill:url(#cE);stroke-width:0"/><path d="M1495.61 683.77a10.1 10.1 0 0 1-5.06-8.74V582.7c0-.88.81-1.18 1.18-1.18.19 0 .38.05.57.16l93.23 53.52c4.15 2.38 6.73 6.83 6.73 11.62v83.44c0 3.99-4.32 6.49-7.78 4.51l-88.87-51.01Z" style="fill:url(#cF);stroke-width:0"/><path d="M1640.43 760.74a10.1 10.1 0 0 1-5.06-8.74v-92.33c0-.88.81-1.18 1.18-1.18.19 0 .38.05.57.16l93.23 53.52c4.15 2.38 6.73 6.83 6.73 11.62v83.44c0 3.99-4.32 6.49-7.78 4.51l-88.87-51.01Z" style="fill:url(#cG);stroke-width:0"/></g><path d="M1356.35 452.22c-9.66-5.55-15.67-15.92-15.67-27.06L1322.02 144c0-2.72 21.16-8.41 22.3-8.41.59 0 1.17.17 1.77.51l288.74 165.74c12.85 7.38 20.83 21.17 20.83 35.98v258.43c0 12.37-28.77 29.03-39.5 22.87l-259.82-166.89Z" style="fill:url(#cH);stroke-width:0"/><path d="M1337.05 458.98c-9.66-5.55-15.67-15.92-15.67-27.06V145.98c0-2.72 2.5-3.64 3.64-3.64.59 0 1.17.17 1.77.51l288.74 165.74c12.85 7.38 20.83 21.17 20.83 35.98V603c0 12.37-13.37 20.11-24.1 13.95l-275.22-157.98Z" style="fill:url(#l);stroke-width:0"/><path d="M1561.35 378.24c-18.41-38.56-49.93-75.35-85.79-96.33-56.76-33.21-102.75-14.12-102.75 42.63 0 56.76 46 129.67 102.75 162.87 28.34 16.58 54.07 20.12 72.69 12.46 18.55-7.77 30.07-26.68 30.07-55.09 0-20.96-6.28-44.08-16.96-66.54Zm-28.27 97.59c-14.76 6.05-35.1 3.25-57.51-9.86-44.89-26.27-81.24-83.94-81.24-128.84 0-44.89 36.34-59.97 81.24-33.71 28.34 16.58 53.31 45.67 67.86 76.18 8.48 17.79 13.45 36.07 13.45 52.62 0 22.48-9.1 37.43-23.79 43.59Z" style="fill:#fff;stroke-width:0"/><path d="M509.59 1839.93s-6.52 42.32-4.33 47.81c2.19 5.48 45.52 27.97 58.14 24.13 12.61-3.84 91.6-96.53 91.05-104.21s-10.74-27.96-37.3-19.2c-26.55 8.76-35.1 8.78-35.1 8.78z" style="fill:#20233a;stroke-width:0"/><path d="M676.9 1900.74s-10.25 37.08-6.62 45.9c3.63 8.83 38.05 25.6 42.47 24.72 4.41-.88 112.11-59.15 115.64-66.21s-21.19-34.43-45.02-24.72-65.32 11.48-65.32 11.48l-41.14 8.83Zm-189.44-663.23s-17.26 66.25 0 115.62 15.76 58.35 15.76 58.35l20.95 164.58s-26.43 68.82-22.19 151.11 0 104.73 0 104.73 10.22 17.95 46.13 22.44 42.68-14.96 42.68-14.96-5.27-124.18 23.15-198.99c28.43-74.81 50.87-372.54 50.87-372.54z" style="fill:#2d2f4f;stroke-width:0"/><path d="M572.3 1305.48s-16.93 41.43 13.28 90.22c30.2 48.79 79.24 70.86 79.24 70.86l9.05 149.86s-11.13 77.83-9.05 149.86c2.08 72.02 9.05 127.78 9.05 127.78s4.65 17.42 31.37 19.75c26.72 2.32 36.01-9.29 36.01-9.29s13.94-167.28 31.37-242.79-14.52-402.66-14.52-402.66-84.05 60.76-185.78 46.42Z" style="fill:#444866;stroke-width:0"/><path d="M718.56 537.41s7.27 61.93 5.14 71.07-6.66 12.07-6.66 12.07 9.85 20.18 6.32 37.86c-3.54 17.68-18.49 67.01-25.73 73.71S655 739.74 655 739.74l-3.11 35.71-96.08-44.33s7.32-76.54 6.81-78.3 71.88-144.7 71.88-144.7l84.06 29.3Z" style="fill:url(#j);stroke-width:0"/><path d="M453.93 744.41s-28.78 21.2-34.96 101.88c-6.18 80.69-.88 210.26 17.48 222.09 18.36 11.84 132.06 4.35 132.06 4.35L453.93 744.4Z" style="fill:url(#i);stroke-width:0"/><path d="M723.47 846.3s-53.78-37.46-60.61-46.56-5.69-39.88-5.69-39.88-91.04-42.06-103.56-40.92-31.86 17.07-31.86 17.07-72.83-19.24-79.66 32.49 36.42 229.82 47.8 295.54c11.38 65.73-10.09 190.03-10.09 190.03s22.61 64.61 130.72 64.61 150.22-48.93 150.22-48.93-8.41-386.06-15.24-400.86-22.02-22.59-22.02-22.59Z" style="fill:#efefef;stroke-width:0"/><path d="M663.3 860.48c-27.29 42.76-5.8 87.96 29.48 141.04s87.3 124.84 108.92 129.39 197.89-5.48 197.89-5.48 11.56-29.12 5.62-49.4l-5.94-20.28s-157.74-6.01-165.7-12.09c-7.97-6.08-58.94-165.7-104.76-188.46s-65.5 5.27-65.5 5.27Z" style="fill:url(#cI);stroke-width:0"/><path d="M740.48 537.99c-26.99 26.97-51.22 37.52-52.14 63.42s3.39 44.03-4.24 48.15-.39-17.91-20.28-18.97-11.2 32.34-7.84 41.96-13.06 14.85-51.61 17.5c-38.55 2.64-45.59-15.96-49.96-27s-21.62-57.84-14.08-83.17c7.53-25.33 21.32-30.61 21.32-30.61s-2.08-44.98 48.74-47.23c50.83-2.25 90.56 15.88 113.07 9.84S740.5 538 740.5 538Z" style="fill:#2d2f4f;stroke-width:0"/><path d="M1002.7 1067.48s33.92-24.76 48.36-28.2c14.45-3.44 38.74-7.38 38.74-7.38s3.94 10.15-11.16 14.27 11.16 14.09 48.59 3.52-1.97 30.22-28.89 45.61-96.16 22.42-96.16 22.42 9.94-38.27.51-50.24Z" style="fill:url(#cJ);stroke-width:0"/><ellipse cx="672.83" cy="1891.91" rx="262.3" ry="107.71" style="fill:#2d2f4f;opacity:.16;stroke-width:0"/><path d="m2213.64 1732.34 45.38-48.46 169.66 99.49v477.22l-476.46-271.22v-409.26z" style="fill:#d3782d;stroke-width:0"/><path d="m2188.95 1748.34 45.39-48.46 169.65 99.5v477.22l-476.46-271.23v-409.26z" style="fill:url(#cK);stroke-width:0"/><path d="m2428.68 1783.37-24.69 16.01v477.22l24.69-16.01z" style="fill:#b75e1c;stroke-width:0"/><path d="m2259.02 1683.88-24.68 16 169.65 99.5 24.69-16.01zm-306.8-103.77-24.69 16 261.42 152.23 18.41-19.66z" style="fill:#f7c684;stroke-width:0"/><path d="M2378.25 2199.97v-278.39c0-10.34-5.5-19.89-14.44-25.08l-399.47-231.86c-9.54-5.54-21.49 1.35-21.49 12.37v217.51z" style="fill:#fffeff;stroke-width:0"/><path d="m2160.05 1845.48 163.41 94.94c2.89 1.68 5.26.69 5.26-2.2s-2.37-6.63-5.26-8.31l-163.41-94.94c-2.89-1.68-5.26-.69-5.26 2.2s2.37 6.63 5.26 8.31m-183.07-77.08 346.48 201.29c2.89 1.68 5.26.69 5.26-2.2s-2.37-6.63-5.26-8.31l-346.48-201.29c-2.89-1.68-5.26-.69-5.26 2.2s2.37 6.63 5.26 8.31m0 29.27 346.48 201.29c2.89 1.68 5.26.69 5.26-2.2s-2.37-6.63-5.26-8.31l-346.48-201.29c-2.89-1.68-5.26-.69-5.26 2.2s2.37 6.63 5.26 8.31m0 29.27 346.48 201.29c2.89 1.68 5.26.69 5.26-2.2s-2.37-6.63-5.26-8.31l-346.48-201.29c-2.89-1.68-5.26-.69-5.26 2.2s2.37 6.63 5.26 8.31m0 29.27 346.48 201.29c2.89 1.68 5.26.69 5.26-2.2s-2.37-6.63-5.26-8.31l-346.48-201.29c-2.89-1.68-5.26-.69-5.26 2.2s2.37 6.63 5.26 8.31" style="fill:#cecac8;stroke-width:0"/><path d="m2403.99 2276.6-161.9-287.85-476.46-271.28 161.9 287.85z" style="fill:url(#cL);stroke-width:0"/><path d="m2403.99 2276.6-161.9-287.85 14.11-9.55 147.79 267.34z" style="fill:#b75e1c;stroke-width:0"/><path d="m2256.2 1979.2-14.11 9.55-476.46-271.28 13.39-9.37z" style="fill:#f7c684;stroke-width:0"/><path d="m1389.66 2369.29 375.14 214.16c9.72 5.62 21.7 5.65 31.43.06l287.52-164.97c9.32-5.35 9.34-18.78.04-24.16l-373.8-213.39a28.35 28.35 0 0 0-28.3-.05l-292 167.54c-8.02 4.6-8.04 16.17-.04 20.8Z" style="fill:#2d2f4f;opacity:.16;stroke-width:0"/><path d="M2090.76 2294.13h-32.9l-347.85-198.37a28.35 28.35 0 0 0-28.3-.05l-268.64 154.14h-29.4v49.53l.19.1c.43 3.51 2.31 6.87 5.8 8.9l375.14 214.16c9.72 5.62 21.7 5.65 31.43.06l287.52-164.97c5.25-3.01 7.44-8.58 6.78-13.84l.22-.12v-49.54Z" style="fill:url(#cM);stroke-width:0"/><path d="M2090.76 2291.95h-32.9l-347.85-198.37a28.35 28.35 0 0 0-28.3-.05l-268.64 154.14h-29.4v49.53l.19.1c.43 3.51 2.31 6.87 5.8 8.9l375.14 214.16c9.72 5.62 21.7 5.65 31.43.06l287.52-164.97c5.25-3.01 7.44-8.58 6.78-13.84l.22-.12v-49.54Z" style="fill:url(#cN);stroke-width:0"/><path d="m1389.66 2256.66 375.14 214.16c9.72 5.62 21.7 5.65 31.43.06l287.52-164.97c9.32-5.35 9.34-18.78.04-24.16l-373.8-213.39a28.35 28.35 0 0 0-28.3-.05l-292 167.54c-8.02 4.6-8.04 16.17-.04 20.8Z" style="fill:url(#cO);stroke-width:0"/><path d="m2083.75 2302.75-287.52 164.97a31.45 31.45 0 0 1-31.43-.06l-375.14-214.16c-3.47-2.01-5.34-5.33-5.79-8.81-.59 4.53 1.27 9.35 5.79 11.96l375.14 214.16c9.72 5.62 21.7 5.65 31.43.06l287.52-164.97c5.19-2.98 7.39-8.46 6.81-13.67-.47 4.15-2.66 8.14-6.81 10.51Z" style="fill:#fff;stroke-width:0"/><path d="m1528.87 2115.93 62.42-35.67 60.33 35.67-61.38 34.49z" style="fill:url(#n);stroke-width:0"/><path d="M1651.62 2115.93v88.03l-61.38 34.5v-88.04z" style="fill:url(#cP);stroke-width:0"/><path d="m1528.87 2115.93 61.37 34.49v88.04l-61.37-34.5z" style="fill:url(#cQ);stroke-width:0"/><path d="m1620.93 2123.35 62.42-35.67 60.32 35.67-61.37 34.5z" style="fill:url(#cR);stroke-width:0"/><path d="M1743.67 2123.35v134.19l-61.37 34.5v-134.19z" style="fill:url(#cS);stroke-width:0"/><path d="m1620.93 2123.35 61.37 34.5v134.19l-61.37-34.5z" style="fill:url(#cT);stroke-width:0"/><path d="m1712.99 2088.27 62.42-35.67 60.32 35.67-61.37 34.5z" style="fill:url(#cU);stroke-width:0"/><path d="M1835.73 2088.27v222.84l-61.37 34.5v-222.84z" style="fill:url(#cV);stroke-width:0"/><path d="m1712.99 2088.27 61.37 34.5v222.84l-61.37-34.5z" style="fill:url(#cW);stroke-width:0"/><path d="m1805.05 2200.94 62.42-35.66 60.32 35.66-61.37 34.5z" style="fill:url(#cX);stroke-width:0"/><path d="M1927.79 2200.94v163.75l-61.37 34.5v-163.75z" style="fill:url(#cY);stroke-width:0"/><path d="m1805.05 2200.94 61.37 34.5v163.75l-61.37-34.5z" style="fill:url(#cZ);stroke-width:0"/><path d="M2065.93 1464.52c-9.57-5.5-15.52-15.77-15.52-26.81l-18.48-278.51c0-2.7 20.96-8.33 22.09-8.33.58 0 1.16.17 1.75.5l286.01 164.18c12.73 7.31 20.64 20.97 20.64 35.64v255.99c0 12.25-28.5 28.75-39.12 22.65z" style="fill:url(#dA);stroke-width:0"/><path d="M2046.81 1471.21c-9.57-5.5-15.52-15.77-15.52-26.81v-283.23c0-2.7 2.47-3.61 3.61-3.61.58 0 1.16.17 1.75.5l286.01 164.18c12.73 7.31 20.64 20.97 20.64 35.64v255.99c0 12.25-13.25 19.92-23.87 13.82z" style="fill:url(#dB);stroke-width:0"/><g style="opacity:.49"><path d="M2099.07 1277.03c-6.01-3.45-9.75-9.9-9.75-16.84v-7.37c0-1.69 1.55-2.27 2.27-2.27.37 0 .73.1 1.1.32l179.62 103.11c7.99 4.59 12.96 13.17 12.96 22.38v-9.74c0 7.69-8.32 12.51-14.99 8.68l-171.21-98.28Zm0 53.75c-6.01-3.45-9.75-9.9-9.75-16.84v-7.37c0-1.69 1.55-2.27 2.27-2.27.37 0 .73.1 1.1.32l179.62 103.11c7.99 4.59 12.96 13.17 12.96 22.38v-9.74c0 7.69-8.32 12.51-14.99 8.68l-171.21-98.28Zm0 53.74c-6.01-3.45-9.75-9.9-9.75-16.84v-7.37c0-1.69 1.55-2.27 2.27-2.27.37 0 .73.1 1.1.32l179.62 103.11c7.99 4.59 12.96 13.17 12.96 22.38v-9.74c0 7.69-8.32 12.51-14.99 8.68l-171.21-98.28Zm0 53.75c-6.01-3.45-9.75-9.9-9.75-16.84v-7.37c0-1.69 1.55-2.27 2.27-2.27.37 0 .73.1 1.1.32l96.64 57.35c7.99 4.59 12.96 13.17 12.96 22.38v-9.74c0 7.69-8.32 12.51-14.99 8.68l-88.23-52.52Z" style="fill:#fff;stroke-width:0"/></g></svg>