<svg xmlns="http://www.w3.org/2000/svg" xml:space="preserve" viewBox="0 0 283.6 86.5"><path fill="#1D2233" d="m192.7 12.5-7.8-7.8H0v81.8h16.3V21h267.3v-8.5z"/><linearGradient id="a" x1="2.54" x2="189.54" y1="46.915" y2="46.915" gradientUnits="userSpaceOnUse"><stop offset="0" style="stop-color:#01c4fd"/><stop offset="1" style="stop-color:#6531ef"/></linearGradient><path fill="url(#a)" d="M10.5 86.5v-71H101l5.6 5.5 5.7 5.8h77.2l-5.7-5.8-5.8-5.8h-33.8l-7.9-7.9H2.5v79.2z"/><linearGradient id="b" x1="31.1" x2="90.97" y1="453.285" y2="454.775" gradientTransform="translate(0 -427.61)" gradientUnits="userSpaceOnUse"><stop offset="0" style="stop-color:#01c4fd"/><stop offset="1" style="stop-color:#6531ef"/></linearGradient><path fill="url(#b)" d="m38.8 28.4-5.4-5.3h-3.2l5.4 5.3z"/><linearGradient id="c" x1="31.11" x2="90.98" y1="453.113" y2="454.593" gradientTransform="translate(0 -427.61)" gradientUnits="userSpaceOnUse"><stop offset="0" style="stop-color:#01c4fd"/><stop offset="1" style="stop-color:#6531ef"/></linearGradient><path fill="url(#c)" d="m45.8 28.4-5.4-5.3h-3.2l5.4 5.3z"/><linearGradient id="d" x1="31.11" x2="90.98" y1="452.937" y2="454.426" gradientTransform="translate(0 -427.61)" gradientUnits="userSpaceOnUse"><stop offset="0" style="stop-color:#01c4fd"/><stop offset="1" style="stop-color:#6531ef"/></linearGradient><path fill="url(#d)" d="m52.8 28.4-5.3-5.3h-3.2l5.3 5.3z"/><linearGradient id="e" x1="31.12" x2="90.98" y1="452.762" y2="454.252" gradientTransform="translate(0 -427.61)" gradientUnits="userSpaceOnUse"><stop offset="0" style="stop-color:#01c4fd"/><stop offset="1" style="stop-color:#6531ef"/></linearGradient><path fill="url(#e)" d="m59.8 28.4-5.3-5.3h-3.2l5.3 5.3z"/><linearGradient id="f" x1="31.12" x2="90.99" y1="452.588" y2="454.078" gradientTransform="translate(0 -427.61)" gradientUnits="userSpaceOnUse"><stop offset="0" style="stop-color:#01c4fd"/><stop offset="1" style="stop-color:#6531ef"/></linearGradient><path fill="url(#f)" d="m66.8 28.4-5.3-5.3h-3.2l5.3 5.3z"/><linearGradient id="g" x1="31.12" x2="90.99" y1="452.413" y2="453.903" gradientTransform="translate(0 -427.61)" gradientUnits="userSpaceOnUse"><stop offset="0" style="stop-color:#01c4fd"/><stop offset="1" style="stop-color:#6531ef"/></linearGradient><path fill="url(#g)" d="m73.8 28.4-5.3-5.3h-3.2l5.3 5.3z"/><linearGradient id="h" x1="31.13" x2="91" y1="452.239" y2="453.729" gradientTransform="translate(0 -427.61)" gradientUnits="userSpaceOnUse"><stop offset="0" style="stop-color:#01c4fd"/><stop offset="1" style="stop-color:#6531ef"/></linearGradient><path fill="url(#h)" d="m80.8 28.4-5.3-5.3h-3.2l5.3 5.3z"/><linearGradient id="i" x1="31.13" x2="91" y1="452.065" y2="453.555" gradientTransform="translate(0 -427.61)" gradientUnits="userSpaceOnUse"><stop offset="0" style="stop-color:#01c4fd"/><stop offset="1" style="stop-color:#6531ef"/></linearGradient><path fill="url(#i)" d="m87.8 28.4-5.3-5.3h-3.2l5.3 5.3z"/><linearGradient id="j" x1="31.14" x2="91.01" y1="451.901" y2="453.381" gradientTransform="translate(0 -427.61)" gradientUnits="userSpaceOnUse"><stop offset="0" style="stop-color:#01c4fd"/><stop offset="1" style="stop-color:#6531ef"/></linearGradient><path fill="url(#j)" d="m94.8 28.4-5.3-5.3h-3.2l5.4 5.3z"/><path fill="#FFF" d="m151.7 11.7-5.3-5.3h-3.2l5.3 5.3zm7 0-5.3-5.3h-3.2l5.4 5.3zm7.1 0-5.4-5.3h-3.2l5.4 5.3zm7 0-5.4-5.3h-3.2l5.4 5.3z"/><path fill="#FFF" d="M192.6 22.6 170 0H64.8l-4.7 4.7-2.7 2.6-3.2 3.3H5.1v75.9h1.3V11.9h48.3L65.3 1.3h104.2l3.3 3.4L189.2 21l2.8 2.9h91.6v-1.3z"/><linearGradient id="k" x1="-2783.86" x2="-2780.88" y1="3399.445" y2="3399.445" gradientTransform="matrix(0 1 1 0 -3169 2799.23)" gradientUnits="userSpaceOnUse"><stop offset="0" style="stop-color:#01c4fd"/><stop offset="1" style="stop-color:#6531ef"/></linearGradient><path fill="url(#k)" d="M230.3 18.4h3.2l-2.9-3h-3.2z"/><linearGradient id="l" x1="-2783.86" x2="-2780.88" y1="3406.45" y2="3406.45" gradientTransform="matrix(0 1 1 0 -3169 2799.23)" gradientUnits="userSpaceOnUse"><stop offset="0" style="stop-color:#01c4fd"/><stop offset="1" style="stop-color:#6531ef"/></linearGradient><path fill="url(#l)" d="M237.3 18.4h3.2l-2.9-3h-3.2z"/><linearGradient id="m" x1="-2783.86" x2="-2780.88" y1="3413.465" y2="3413.465" gradientTransform="matrix(0 1 1 0 -3169 2799.23)" gradientUnits="userSpaceOnUse"><stop offset="0" style="stop-color:#01c4fd"/><stop offset="1" style="stop-color:#6531ef"/></linearGradient><path fill="url(#m)" d="M244.4 18.4h3.2l-3-3h-3.2z"/><linearGradient id="n" x1="-2783.86" x2="-2780.88" y1="3420.47" y2="3420.47" gradientTransform="matrix(0 1 1 0 -3169 2799.23)" gradientUnits="userSpaceOnUse"><stop offset="0" style="stop-color:#01c4fd"/><stop offset="1" style="stop-color:#6531ef"/></linearGradient><path fill="url(#n)" d="M251.4 18.4h3.2l-3-3h-3.2z"/></svg>