<svg xmlns="http://www.w3.org/2000/svg" xmlns:xlink="http://www.w3.org/1999/xlink" xml:space="preserve" id="Layer_1" x="0" y="0" version="1.1" viewBox="0 0 200 200"><style>.st3{fill-rule:evenodd;clip-rule:evenodd;fill:#ccb9be}.st4{fill:#c9c9c9}.st12{fill:#8e8e8e}.st12,.st15,.st16,.st17,.st25{fill-rule:evenodd;clip-rule:evenodd}.st15{fill:#666}.st16{fill:#999}.st17{fill:#fff}.st25{fill:#b5b5b5}.st32,.st33{fill:#ef4923}.st33,.st34,.st35,.st36,.st37{fill-rule:evenodd;clip-rule:evenodd}.st34{fill:#ee4823}.st35{fill:#ed4822}.st36{fill:#ec4722}.st37{fill:#eb4721}.st38{fill:#ea4621}.st38,.st39,.st40,.st41,.st42,.st43{fill-rule:evenodd;clip-rule:evenodd}.st39{fill:#e94620}.st40{fill:#e84520}.st41{fill:#e7441f}.st42{fill:#e6441f}.st43{fill:#e5431e}.st44{fill:#e4431e}.st44,.st45,.st46,.st47,.st48,.st49{fill-rule:evenodd;clip-rule:evenodd}.st45{fill:#e3421d}.st46{fill:#e2421d}.st47{fill:#e1411c}.st48{fill:#e0401c}.st49{fill:#df401c}.st50{fill:#de3f1b}.st50,.st51,.st52,.st53,.st54,.st55{fill-rule:evenodd;clip-rule:evenodd}.st51{fill:#dd3f1b}.st52{fill:#dc3e1a}.st53{fill:#db3e1a}.st54{fill:#da3d19}.st55{fill:#d93c19}.st56{fill:#d83c18}.st56,.st57,.st58,.st59,.st60,.st61{fill-rule:evenodd;clip-rule:evenodd}.st57{fill:#d73b18}.st58{fill:#d63b17}.st59{fill:#d53a17}.st60{fill:#d43a16}.st61{fill:#d33916}.st62{fill:#d23815}.st62,.st63,.st64,.st65,.st66,.st67{fill-rule:evenodd;clip-rule:evenodd}.st63{fill:#d13815}.st64{fill:#d03715}.st65{fill:#cf3714}.st66{fill:#ce3614}.st67{fill:#cd3613}.st68{fill:#cc3513}.st68,.st69,.st70,.st71,.st72,.st73{fill-rule:evenodd;clip-rule:evenodd}.st69{fill:#cb3412}.st70{fill:#ca3412}.st71{fill:#c83311}.st72{fill:#c73311}.st73{fill:#c63210}.st74{fill:#c53110}.st74,.st75,.st76,.st77,.st78,.st79{fill-rule:evenodd;clip-rule:evenodd}.st75{fill:#c4310f}.st76{fill:#c3300f}.st77{fill:#c2300e}.st78{fill:#c12f0e}.st79{fill:#c02f0e}.st80{fill:#bf2e0d}.st80,.st81,.st82,.st83,.st84,.st85{fill-rule:evenodd;clip-rule:evenodd}.st81{fill:#be2d0d}.st82{fill:#bd2d0c}.st83{fill:#bc2c0c}.st84{fill:#bb2c0b}.st85{fill:#ba2b0b}.st86{fill:#b92b0a}.st86,.st87,.st88,.st89,.st90,.st91{fill-rule:evenodd;clip-rule:evenodd}.st87{fill:#b82a0a}.st88{fill:#b72909}.st89{fill:#b62909}.st90{fill:#b52808}.st91{fill:#b42808}.st92{fill:#b32707}.st92,.st93,.st94,.st95,.st96,.st97{fill-rule:evenodd;clip-rule:evenodd}.st93{fill:#b22707}.st94{fill:#b12607}.st95{fill:#b02506}.st96{fill:#af2506}.st97{fill:#ae2405}.st100,.st101,.st102,.st103,.st98,.st99{fill-rule:evenodd;clip-rule:evenodd}.st98{fill:#ad2405}.st99{fill:#ac2304}.st100{fill:#ab2304}.st101{fill:#aa2203}.st102{fill:#a92103}.st103{fill:#a82102}.st104{fill:#a72002}.st104,.st105,.st106,.st107,.st108,.st111{fill-rule:evenodd;clip-rule:evenodd}.st105{fill:#a62001}.st106{fill:#a51f01}.st107{fill:#a41f00}.st108{fill:#a31e00}.st111{fill:#727272}.st147{fill:#fc0}</style><path d="M99.7 160.2 0 102.6l100.2-58 99.7 57.6z" style="fill-rule:evenodd;clip-rule:evenodd;fill:#f0e7e8"/><path d="M200 102.2v9.5L99.7 169.5v-9.4z" style="fill-rule:evenodd;clip-rule:evenodd;fill:#868082"/><path d="M99.7 169.5.1 111.9v-9.4L99.7 160zm1.7-20-.9.7-1 .2-3.6-.3V147l.8-.8 1.8-.8 2.6.3.8.7.2 1zM86 141.2l1.2-.3 1.2.3.6 1.3-.2.9-1.2.4-2.2-.2.1-1.8zm14.5-2.2-.3 1.1-2.2-.1-1.2-.7v-1.6l3.5-.1zM114 63.2l-1.2.2-4.6-.4v-2.3l1.5-1.1 3-.1 1.5 1.1.1 1.9zm-11.7-8.9-.2 1.3-2.8.2-.2-.2-.2-1.3.3-.8 2.9-.3zm-9.4 6.5v-.7l1.6-.1 1.6.6-.1.8-1.5.3zm31.4 6-1.9 1.7-2.2-.1-.2-2.7 4-.2z" style="fill-rule:evenodd;clip-rule:evenodd;fill:#c1b8bb"/><path d="m75.8 73.5 19.4 11.6L66.3 102 46.8 90.4z" class="st3"/><path d="m155.4 112.4-1.3-.8-.1-1.1 2.7-2.5.4-.8-1-1.3-67-38.5-1.8-.9-3.8-.8-3.8.8-2.6 1.1-.7-.2-.6-.6v-1.5l2.8-1.7 2.3-.7H86l2.3.7 2.2 1.1 65.5 37.6 3.1 2.5.8 2.5-.8 2.3-1.2 1.2z" class="st4"/><path d="m155.4 118.8-1-.3-.4-.8v-.9l2.7-2.3.4-.8-1-1.3-67-38.5-1.8-.9-3.8-.8-3.8.8-2.3 1-1-.2-.6-1 .2-1.1 2.7-1.5 2.3-.7h5l2.3.7 2.2 1.1 65.5 37.5 3.1 2.6.8 2.3-.8 2.3-1.2 1.2z" class="st4"/><path d="m68.4 59.4 11.4 6.8-22.5 12.9-11.4-6.8z" style="fill-rule:evenodd;clip-rule:evenodd;fill:#fff7ee"/><path d="m45.8 72.3 11.5 6.9v17.6L45.8 90z" style="fill-rule:evenodd;clip-rule:evenodd;fill:#c3b5b4"/><path d="M79.7 66.1 57.3 79v17.7l22.4-12.9z" style="fill-rule:evenodd;clip-rule:evenodd;fill:#a28c8e"/><path d="m68.5 60.7 8.8 5.2-20 11.7-8.9-5.2z" style="fill-rule:evenodd;clip-rule:evenodd;fill:#706753"/><path d="M55.4 84.1v6.5L52.7 89v-6.5zm-5.2 3.4-2.7-1.6v-6.5l2.7 1.6z" style="fill-rule:evenodd;clip-rule:evenodd;fill:#836d70"/><path d="m68.5 63.7 6.3 3.7-17.5 10.2-6.3-3.8z" style="fill-rule:evenodd;clip-rule:evenodd;fill:#c0b5a1"/><path d="M59.2 84.1v6.5l2.7-1.6v-6.5zm10.7-6.4v6.5l2.7-1.6v-6.5zm5.4-3.2V81l2.7-1.6V73zm-8.2 4.8L64.6 81v6.5l2.6-1.6z" style="fill-rule:evenodd;clip-rule:evenodd;fill:#3c292b"/><path d="m113.8 92.4-25.6 15.3 31.5 18.3 25.6-15.3z" class="st3"/><path d="m129.1 77.1-6.6 3.9v21.2l6.6-3.9z" class="st12"/><linearGradient id="SVGID_1_" x1="-1677.105" x2="-1564.584" y1="625.618" y2="625.618" gradientTransform="matrix(17.5 0 0 -29.4 14265.7 18479)" gradientUnits="userSpaceOnUse"><stop offset="0" style="stop-color:#d9d9d9"/><stop offset="1" style="stop-color:#afafaf"/></linearGradient><path d="M103 69.4 122.5 81v21.2L103 90.6z" style="fill-rule:evenodd;clip-rule:evenodd;fill:url(#SVGID_1_)"/><linearGradient id="SVGID_00000074418366039712331920000004665777303303031951_" x1="-821.431" x2="-821.431" y1="609.676" y2="608.559" gradientTransform="matrix(23.5 0 0 -13.9 19419.7 8540.001)" gradientUnits="userSpaceOnUse"><stop offset="0" style="stop-color:#f0f0f0"/><stop offset="1" style="stop-color:#e0e0e0"/></linearGradient><path d="m109.7 65.5 19.5 11.6-6.7 3.9L103 69.4z" style="fill-rule:evenodd;clip-rule:evenodd;fill:url(#SVGID_00000074418366039712331920000004665777303303031951_)"/><path d="m120.3 79.7 1 .6v21.2l-1-.6z" class="st15"/><path d="m127 75.9.9.6-6.7 3.9-.9-.6z" class="st16"/><path d="M127 76.9v-1.1l.9.6z" class="st17"/><path d="m118.4 78.7.9.6v21.2l-.9-.6z" class="st15"/><path d="m124.9 74.8.9.6-6.7 3.8-.9-.4z" class="st16"/><path d="M125.2 75.8v-1.1l.9.6z" class="st17"/><path d="m116.7 77.5 1 .6v21.2l-1-.6z" class="st15"/><path d="m123.4 73.7.9.6-6.7 3.9-.9-.6z" class="st16"/><path d="M123.4 74.8v-1.1l.9.6z" class="st17"/><path d="m114.9 76.4.9.6v21.2l-.9-.6z" class="st15"/><path d="m121.5 72.7.9.4-6.7 3.9-.9-.4z" class="st16"/><path d="M121.5 73.7v-1.1l.9.6z" class="st17"/><path d="m113 75.4.9.6v21.2l-.9-.6z" class="st15"/><path d="m119.7 71.5.9.6-6.7 3.9-.9-.6z" class="st16"/><path d="M119.8 72.5v-1.1l.9.6z" class="st17"/><path d="m111.2 74.4.9.4V96l-.9-.4z" class="st15"/><path d="m117.9 70.3.9.6-6.7 3.9-.9-.6z" class="st16"/><path d="M117.9 71.4v-1.1l.9.6z" class="st17"/><path d="m109.4 73.3.9.6v21.2l-.9-.6z" class="st15"/><path d="m116.1 69.4.9.6-6.7 3.9-.9-.6z" class="st16"/><path d="M116.1 70.5v-1.1l1 .6z" class="st17"/><path d="m107.6 72.1.9.6v21.2l-.9-.6z" class="st15"/><path d="m114.2 68.3 1 .6-6.7 3.9-.9-.6z" class="st16"/><path d="M114.5 69.3v-1.1l.9.6z" class="st17"/><path d="m105.9 71.1.9.6v21.2l-.9-.6z" class="st15"/><path d="m112.4 67.2.9.6-6.7 3.9-.9-.6z" class="st16"/><path d="M112.6 68.2v-1l.9.4z" class="st17"/><path d="m104 70 .9.6v21.2l-.9-.6z" class="st15"/><path d="m110.7 66.1.9.6-6.7 3.8-.9-.5z" class="st16"/><path d="M110.7 67.1v-1l.9.6z" class="st17"/><path d="m126.7 80.2-16.3 9.5V115l16.3-9.5z" style="fill-rule:evenodd;clip-rule:evenodd;fill:#acacac"/><path d="m84.7 74.4 25.8 15.4V115L84.7 99.7z" style="fill-rule:evenodd;clip-rule:evenodd;fill:#cacaca"/><linearGradient id="SVGID_00000168092006515867536110000013261695283859066508_" x1="-835.422" x2="-835.422" y1="-2761.536" y2="-2894.697" gradientTransform="matrix(37.7 0 0 -22.4 31601.098 13987.901)" gradientUnits="userSpaceOnUse"><stop offset="0" style="stop-color:#f0f0f0"/><stop offset="1" style="stop-color:#e0e0e0"/></linearGradient><path d="m100.9 64.8 25.8 15.5-16.3 9.5-25.7-15.4z" style="fill-rule:evenodd;clip-rule:evenodd;fill:url(#SVGID_00000168092006515867536110000013261695283859066508_)"/><linearGradient id="SVGID_00000112620458228004222800000017634679338652111488_" x1="2514.605" x2="2594.095" y1="607.743" y2="607.743" gradientTransform="matrix(15.9 0 0 -13.3 12874.302 8150.997)" gradientUnits="userSpaceOnUse"><stop offset="0" style="stop-color:#e1e1e1"/><stop offset="1" style="stop-color:#8e8e8e"/></linearGradient><path d="m84 68.5 13.7-7.9 4 6.8-13.7 8z" style="fill:url(#SVGID_00000112620458228004222800000017634679338652111488_)"/><linearGradient id="SVGID_00000104677304965020120910000005782179574280126612_" x1="2605.301" x2="2684.345" y1="575.537" y2="575.537" gradientTransform="matrix(5.3 0 0 -6.7 3780.296 3920.103)" gradientUnits="userSpaceOnUse"><stop offset="0" style="stop-color:#e1e1e1"/><stop offset="1" style="stop-color:#8e8e8e"/></linearGradient><path d="m97.4 65.3 2.1 2 1 .4 1.1-.3.8-.8.2-1.1-.8-2.8-2-2.1-1.1-.3-1.1.2-.8.9-.1 1.1z" style="fill-rule:evenodd;clip-rule:evenodd;fill:url(#SVGID_00000104677304965020120910000005782179574280126612_)"/><path d="m84.1 73.1 2 2 1.1.4 1.1-.2.8-.9v-2.6l-1.5-2.6-2.2-1.2-1 .2-.8.9-.1 2.6zm22.8 18.5-6.7 3.9v21.2l6.7-3.9z" class="st12"/><linearGradient id="SVGID_00000075864170896949123370000005501740175303172238_" x1="-1707.622" x2="-1595.09" y1="625.618" y2="625.618" gradientTransform="matrix(17.5 0 0 -29.5 14245.8 18556)" gradientUnits="userSpaceOnUse"><stop offset="0" style="stop-color:#d9d9d9"/><stop offset="1" style="stop-color:#afafaf"/></linearGradient><path d="m80.7 83.8 19.5 11.7v21.2L80.7 105z" style="fill-rule:evenodd;clip-rule:evenodd;fill:url(#SVGID_00000075864170896949123370000005501740175303172238_)"/><linearGradient id="SVGID_00000017504761366669527000000008126366055492656036_" x1="-821.529" x2="-821.529" y1="609.568" y2="608.452" gradientTransform="matrix(23.5 0 0 -13.9 19399.8 8552.901)" gradientUnits="userSpaceOnUse"><stop offset="0" style="stop-color:#f0f0f0"/><stop offset="1" style="stop-color:#e0e0e0"/></linearGradient><path d="M87.3 79.9 107 91.6l-6.7 3.8-19.6-11.6z" style="fill-rule:evenodd;clip-rule:evenodd;fill:url(#SVGID_00000017504761366669527000000008126366055492656036_)"/><path d="m97.9 94.2.9.6V116l-.9-.6z" class="st15"/><path d="m104.7 90.3.9.6-6.6 3.9-1-.6z" class="st16"/><path d="M104.7 91.3v-1l.9.6z" class="st25"/><path d="m96.3 93.1.9.6v21.2l-.9-.6z" class="st15"/><path d="m102.8 89.2.9.6-6.7 3.8-.9-.6z" class="st16"/><path d="M102.8 90.2v-1.1l.9.6z" class="st25"/><path d="m94.5 92.1.9.4v21.2l-.9-.6z" class="st15"/><path d="m101.2 88.1.9.6-6.7 3.9-.9-.6z" class="st16"/><path d="M101.2 89.2v-1.1l.9.6z" class="st25"/><path d="m92.7 91 .9.6v21.2l-.9-.6z" class="st15"/><path d="m99.3 87.1.9.6-6.7 3.9-.9-.6z" class="st16"/><path d="M99.3 88.1v-1l.9.6z" class="st25"/><path d="m90.8 90 .9.6v21.2l-.9-.6z" class="st15"/><path d="m97.5 86 .9.4-6.6 3.9-1-.6z" class="st16"/><path d="M97.5 87.1V86l.9.6z" class="st25"/><path d="m89 88.7.9.6v21.2l-.9-.6z" class="st15"/><path d="m95.7 84.9.9.6-6.7 3.9-.9-.6z" class="st16"/><path d="M95.7 85.9v-1.1l.9.6z" class="st25"/><path d="m87.2 87.8.9.4v21.2l-.9-.6z" class="st15"/><path d="m94 83.9.9.4-6.7 3.9-.9-.6z" class="st16"/><path d="M93.9 84.9v-1.1l.9.6z" class="st25"/><path d="m85.4 86.6.9.6v21.2l-.9-.6z" class="st15"/><path d="m92 82.7.9.6-6.7 3.9-.9-.6z" class="st16"/><path d="M92 83.8v-1l.9.6z" class="st25"/><path d="m83.5 85.5 1 .6v21.2l-1-.6z" class="st15"/><path d="m90.2 81.6.9.6-6.7 3.8-.9-.6z" class="st16"/><path d="M90.2 82.7v-1.1l.9.6z" class="st25"/><path d="m81.6 84.4 1 .6v21.2l-1-.6z" class="st15"/><path d="m88.4 80.5.9.6-6.7 3.9-.9-.6z" class="st16"/><path d="M88.4 81.6v-1.1l.9.6z" class="st25"/><path d="m112.6 92.4 6.7 3.9v21.2l-6.7-3.9z" class="st12"/><linearGradient id="SVGID_00000001661920796574574990000004053198409171911613_" x1="-378.742" x2="-266.233" y1="623.405" y2="623.405" gradientTransform="matrix(11.1 0 0 -25.7 8782.698 16124.798)" gradientUnits="userSpaceOnUse"><stop offset="0" style="stop-color:#d9d9d9"/><stop offset="1" style="stop-color:#afafaf"/></linearGradient><path d="m131.6 88.9-12.4 7.5v21.2l12.4-7.5z" style="fill-rule:evenodd;clip-rule:evenodd;fill:url(#SVGID_00000001661920796574574990000004053198409171911613_)"/><linearGradient id="SVGID_00000067204252903712383100000002871146372461040017_" x1="-807.521" x2="-807.521" y1="597.688" y2="596.572" gradientTransform="matrix(17.1 0 0 -10.1 13930.599 6121.799)" gradientUnits="userSpaceOnUse"><stop offset="0" style="stop-color:#f0f0f0"/><stop offset="1" style="stop-color:#e0e0e0"/></linearGradient><path d="m124.8 85.2-12.4 7.4 6.7 3.9 12.4-7.5z" style="fill-rule:evenodd;clip-rule:evenodd;fill:url(#SVGID_00000067204252903712383100000002871146372461040017_)"/><path d="m121.4 95.1-.9.6v21.2l.9-.6z" class="st15"/><path d="m114.9 91.3-1 .6 6.7 3.9.9-.6z" class="st16"/><path d="M114.7 92.3v-1.1l-.9.6z" class="st25"/><path d="m123.3 94-.9.6v21.1l.9-.4z" class="st15"/><path d="m116.6 90.1-.9.6 6.7 3.9.9-.6z" class="st16"/><path d="M116.6 91.1v-1l-.9.6z" class="st25"/><path d="m124.9 92.9-.9.6v21.2l.9-.6z" class="st15"/><path d="m118.3 89.1-.9.6 6.7 3.9.9-.6z" class="st16"/><path d="M118.4 90.1V89l-.9.6z" class="st25"/><path d="m126.8 91.9-.9.4v21.2l.9-.4z" class="st15"/><path d="m120.1 87.9-.9.6 6.7 3.9.9-.6z" class="st16"/><path d="M120.1 88.9v-1l-.9.6z" class="st25"/><path d="m128.6 90.7-1 .6v21.2l1-.6z" class="st15"/><path d="m121.9 86.8-1 .6 6.7 3.9.9-.6z" class="st16"/><path d="M121.9 88.1V87l-.9.6z" class="st25"/><path d="m130.4 89.6-.9.6v21.2l.9-.6z" class="st15"/><path d="m123.6 85.7-.9.6 6.7 3.9.9-.6z" class="st16"/><path d="M123.7 86.8v-1.1l-.9.6z" class="st25"/><linearGradient id="SVGID_00000000180926224061335750000002603316867118036376_" x1="-1364.321" x2="-1362.926" y1="411.366" y2="411.366" gradientTransform="matrix(1.3 0 0 -1.9 349.396 846.601)" gradientUnits="userSpaceOnUse"><stop offset="0" style="stop-color:#e26666"/><stop offset="1" style="stop-color:#6b0000"/></linearGradient><path d="m103.2 63.9.1 1.5.6.2-.7.4-.8-1.1.2-.7z" style="fill-rule:evenodd;clip-rule:evenodd;fill:url(#SVGID_00000000180926224061335750000002603316867118036376_)"/><path d="m101.5 69.2 20.4 12.2-8.7 5-20.3-12.2z" class="st15"/><linearGradient id="SVGID_00000139992750958178749160000007398545046000791218_" x1="-657.237" x2="-658.186" y1="529.963" y2="523.779" gradientTransform="matrix(4.2 0 0 -6 2839.297 3456.9)" gradientUnits="userSpaceOnUse"><stop offset="0" style="stop-color:#a31e00"/><stop offset=".29" style="stop-color:#ef4923"/></linearGradient><path d="m103.4 44.1-.1.4.8.4.9-.1.1-.6.6.9-.3 2.9.4 1.2-.9 1.1-.8.3-1.7-.3-1.2-1.1-.1-.7.8-.6.7-3.5z" style="fill-rule:evenodd;clip-rule:evenodd;fill:url(#SVGID_00000139992750958178749160000007398545046000791218_)"/><linearGradient id="SVGID_00000074412916915157067670000000518447302349127579_" x1="-697.304" x2="-698.041" y1="526.645" y2="520.829" gradientTransform="matrix(5.2 0 0 -6.6 3696.99 3846.8)" gradientUnits="userSpaceOnUse"><stop offset="0" style="stop-color:#a31e00"/><stop offset=".29" style="stop-color:#ef4923"/></linearGradient><path d="m104 57.1-1.9.2-.8-.2-1.4-1.1-.3-.7.2-1.2.8-.4.6-.9.4-2.8 1.6.9 1.8-.4-.3 2.8.8 2.2-1.1 1.5z" style="fill-rule:evenodd;clip-rule:evenodd;fill:url(#SVGID_00000074412916915157067670000000518447302349127579_)"/><defs><path id="SVGID_00000148639730941510436450000004108148155864887466_" d="M105 44.3v.6l-.9.1-.7-.5.2-2.1.9-.7.7.3.1.6z"/></defs><clipPath id="SVGID_00000013181675361673379570000006923426483005147265_"><use xlink:href="#SVGID_00000148639730941510436450000004108148155864887466_" style="overflow:visible"/></clipPath><g style="clip-path:url(#SVGID_00000013181675361673379570000006923426483005147265_)"><path d="M103.3 41.6h2.1v3.5h-2.1z" class="st32"/><path d="m106.8 41.8-1 1.6-1.3.3-1.7-.9-.4-1.2.8-1.8 1.8-.4 1.5.8z" class="st33"/><path d="m106.8 41.8-.3.8-1.3 1-1.7-.3-.9-1.2.2-1.7 1.3-1 1.7.2.9 1.3z" class="st34"/><path d="m106.6 41.8-.2.8-1.3.9-1.6-.2-1-1.2.2-1.7 1.3-1 1.6.3 1 1.2z" class="st35"/><path d="m106.6 41.8-.4 1.1-1.1.6h-1.2l-1-.8-.3-1.1.2-1.2.9-.8 1.2-.2 1.5.9z" class="st36"/><path d="m106.6 41.8-.6 1-1 .7h-1.2l-.9-.8-.4-1.1.2-1.2.9-.8 1.2-.2 1.5.9z" class="st37"/><path d="m106.6 41.8-.6 1-1 .7-1.2-.1-.9-.7-.4-1.1.3-1.2.9-.8 1.1-.1 1.3.8z" class="st38"/><path d="m106.6 41.8-.9 1.3-1.5.3-1.3-.8-.4-1.6.9-1.3 1.5-.3 1.3.8z" class="st39"/><path d="m106.5 41.8-.8 1.2-1.5.4-1.3-.8-.3-1.6.8-1.3 1.5-.3 1.3.8z" class="st40"/><path d="m106.5 41.8-.4 1-1 .6H104l-1-.7-.3-1.1.2-1.1.9-.8 1.1-.1 1.3.7z" class="st41"/><path d="m106.5 41.8-.3.7-1.1.8-1.6-.2-.8-1.1.3-1.7.8-.7 1-.1 1 .4.6.8z" class="st42"/><path d="m106.5 41.7-.8 1.3-1.5.3-1.2-.8-.4-1.5.8-1.2 1.5-.4 1.3.8z" class="st43"/><path d="m106.5 41.7-.8 1.2-1.5.3-1.2-.7-.3-1.5.7-1.2 1.5-.4 1.2.8z" class="st44"/><path d="m106.4 41.7-.4 1-.9.6H104l-.9-.7-.3-1 .2-1.1.8-.7 1.1-.2 1.2.8z" class="st45"/><path d="m106.4 41.7-.2.8-1.1.8-.8.1-1.2-.8-.3-1.5.2-.7 1.1-.8.8-.1 1.2.8z" class="st46"/><path d="m106.4 41.7-.2.8-1.1.8h-.8l-1.2-.7-.3-1.3.2-.8 1.1-.8.8-.1 1.2.8z" class="st47"/><path d="m106.4 41.7-.2.8-1.1.8-1.5-.2-.9-1.1.2-1.5 1.1-.8 1.5.2.8 1.1z" class="st48"/><path d="m106.4 41.7-.3.7-1 .9-1.5-.2-.8-1.1.2-1.3 1.1-.9 1.3.2.8 1.1z" class="st49"/><path d="m106.3 41.7-.7 1.2-1.3.3-.7-.2-.8-1.1.2-1.3 1.1-.9 1.3.2.8 1.1v.7z" class="st50"/><path d="m106.3 41.7-.7 1.1-1.3.3-1.1-.7-.3-1.3.7-1.1 1.3-.3 1.1.7z" class="st51"/><path d="m106.3 41.7-.4.9-.9.6h-1l-.8-.7-.3-.9.2-1 .8-.7 1-.2 1.1.8z" class="st52"/><path d="m106.3 41.7-.3 1-.7.6-1 .2-.9-.4-.6-.9.3-1.5 1-.7 1.2.2z" class="st53"/><path d="m106.3 41.7-.4.9-.9.6-1-.1-.8-.6-.3-.9.2-1 .8-.7 1-.1 1.1.7z" class="st54"/><path d="m106.2 41.7-.3.9-.9.4h-1l-.8-.6-.3-.9.3-1 .7-.7 1-.1 1.1.7z" class="st55"/><path d="m106.2 41.7-.4.9-.8.4h-1l-.7-.6-.3-.9.2-1 .7-.6 1-.2 1 .7z" class="st56"/><path d="m106.2 41.7-.4.9-.8.4h-.9l-.8-.6-.3-.9.2-1 .7-.6 1-.1 1 .6z" class="st57"/><path d="m106.2 41.7-.4.9-.8.4h-.9l-.8-.6-.3-.9.2-.9.7-.7 1-.1 1 .6z" class="st58"/><path d="m106.2 41.7-.4.8-.8.6-.9-.1-.8-.6-.3-.8.2-.9.7-.7 1-.1 1 .6z" class="st59"/><path d="m106.1 41.7-.6 1-1.2.3-1-.7-.3-1.1.7-1 1.1-.3 1 .7z" class="st60"/><path d="m106.1 41.7-.2.6-.9.7-1.2-.1-.7-1 .2-1.1.9-.7.6-.1 1 .7z" class="st61"/><path d="m106.1 41.7-.6 1-1.1.2-1.2-1.1.1-1.1 1.6-.7.9.6z" class="st62"/><path d="m106.1 41.7-.2.6-.9.7-1.1-.2-.7-.9.2-1.1 1.5-.7.9.6z" class="st63"/><path d="m106.1 41.7-.6.9-1.1.3-.9-.6-.3-1.1.6-1 1.1-.2 1 .6z" class="st64"/><path d="m106 41.7-1 1.1-1.1-.1-.7-.9.2-1.1 1.3-.7 1 .6z" class="st65"/><path d="m106 41.7-.6.9-1 .2-1-.6-.2-1 .6-.9 1-.3 1 .6z" class="st66"/><path d="m106 41.7-1 1.1-1.1-.1-.7-.9.2-1.1 1.3-.6 1 .4z" class="st67"/><path d="m106 41.7-.6.9-1 .2-.9-.6-.3-1 .6-.9 1-.2.9.6z" class="st68"/><path d="m106 41.7-.4.7-.7.4-.8-.1-.6-.4-.3-.8.2-.8.7-.4.8-.1.8.6z" class="st69"/><path d="m105.9 41.7-.4.8-1 .3-1-1 .1-1 1.2-.7.9.6z" class="st70"/><path d="m105.9 41.7-.9 1-1.1-.1-.6-.8.1-1 1.3-.7.9.6z" class="st71"/><path d="m105.9 41.7-.6.8-.9.2-.9-.4-.2-1 .4-.8 1-.2.9.4z" class="st72"/><path d="m105.9 41.7-.6.8-.9.2-.8-.4-.3-.9.4-.9 1-.2.8.4z" class="st73"/><path d="m105.7 41.7-.4.8-.9.2-.8-.6-.2-.9.4-.8.9-.2.8.4z" class="st74"/><path d="m105.7 41.6-.2.7-1.3.3-.8-1.1.1-.7 1.2-.6.8.4z" class="st75"/><path d="m105.7 41.6-.9 1-1.2-.4-.2-.7.7-1.1.7-.1.8.6z" class="st76"/><path d="m105.7 41.6-.4.8-.9.2-.8-.4-.2-.9.4-.7.9-.2.8.4z" class="st77"/><path d="m105.7 41.6-.4.8-.9.2-.7-.4-.2-.9.4-.7.8-.2.8.4z" class="st78"/><path d="m105.6 41.6-.8 1-.7-.1-.7-1 .1-.6 1.1-.6.8.4z" class="st79"/><path d="m105.6 41.6-.4.7-.8.1-.7-.3-.2-.8.4-.6.8-.1.7.3z" class="st80"/><path d="m105.6 41.6-.4.6-.8.1-.6-.3-.3-.6.4-.6.8-.1.6.3z" class="st81"/><path d="m105.6 41.6-.3.6-1.1.3-.7-1 .1-.6 1.1-.4.7.3z" class="st82"/><path d="m105.6 41.6-.4.7-.8.2-.7-.4-.2-.7.4-.7.8-.2.7.3z" class="st83"/><path d="m105.5 41.6-.3.7-.8.2-.8-.8v-.6l.9-.7.6.1z" class="st84"/><path d="m105.5 41.6-.7.8h-.6l-.7-.9.1-.6 1-.4.7.4z" class="st85"/><path d="m105.5 41.6-.3.7-.8.1-.6-.3-.2-.7.4-.7.7-.1.6.3z" class="st86"/><path d="m105.5 41.6-.4.6-.7.2-.6-.4-.2-.7.4-.6.7-.2.6.4z" class="st87"/><path d="m105.5 41.6-.4.6-.7.1-.6-.3-.2-.6.4-.7.7-.1.6.3z" class="st88"/><path d="m105.4 41.6-.3.6-.7.2-.6-.3-.1-.7.3-.6.7-.2.6.3z" class="st89"/><path d="m105.4 41.6-.7.7h-.4l-.6-.8.1-.4.9-.4.6.3z" class="st90"/><path d="m105.4 41.6-.3.6-.7.1-.6-.3-.1-.6.3-.6.7-.2.6.3z" class="st91"/><path d="m105.4 41.6-.7.7h-.4l-.6-.8.4-.8h.6l.4.2z" class="st92"/><path d="m105.4 41.6-.3.6-.7.1-.6-.6v-.4l.7-.6.4.1z" class="st93"/><path d="m105.3 41.6-.6.7-.7-.3-.1-.4.1-.4.7-.3.6.3z" class="st94"/><path d="m105.3 41.6-.3.4-1-.1.1-1 1.1.1z" class="st95"/><path d="m105.3 41.6-.3.4-1-.1-.1-.6.3-.4.4-.1z" class="st96"/><path d="m105.3 41.6-.3.4-1-.1-.1-.6.8-.6.6.8z" class="st97"/><path d="m105.3 41.6-1 .6-.4-.7.8-.7z" class="st98"/><path d="m105.2 41.6-.7.6-.4-.3.1-.8.4-.1z" class="st99"/><path d="m105.2 41.6-.2.4-.9-.1.1-.8.4-.1z" class="st100"/><path d="m105.2 41.6-.4.4-.8-.6.7-.6z" class="st101"/><path d="m105.2 41.6-.3.6-.9-.4.7-.7z" class="st102"/><path d="m105.2 41.6-.8.4-.4-.6.7-.6z" class="st103"/><path d="m105.1 41.6-.6.4-.3-.2.1-.8.3-.1.6.7z" class="st104"/><path d="m105.1 41.6-.2.3-.7-.1-.1-.4.6-.4z" class="st105"/><path d="m105.1 41.6-.2.2h-.7l.1-.8h.3z" class="st106"/><path d="m105.1 41.6-.6.3-.3-.2.1-.6z" class="st107"/><path d="m105.1 41.6-.6.3-.3-.6.4-.3z" class="st108"/></g><linearGradient id="SVGID_00000048464989870989275000000004118819088648730556_" x1="-742.556" x2="-743.493" y1="534.995" y2="526.98" gradientTransform="matrix(7.1 0 0 -8.8 5327.092 5262.902)" gradientUnits="userSpaceOnUse"><stop offset="0" style="stop-color:#a31e00"/><stop offset=".29" style="stop-color:#ef4923"/></linearGradient><path d="m101.7 66.4-2.4-.4-1.2-1-.7-1.1.1-1.8 1.3-.7.8-1 .8-1.7.2-2.1 1.5.8 1.9-.4-.1 4 1.5 2.8-.4 1-1.1 1.1z" style="fill-rule:evenodd;clip-rule:evenodd;fill:url(#SVGID_00000048464989870989275000000004118819088648730556_)"/><linearGradient id="SVGID_00000120550447921409105500000013887217883671699084_" x1="-290.896" x2="-292.615" y1="488.6" y2="488.846" gradientTransform="matrix(1.9 0 0 -3.2 862.195 1682.998)" gradientUnits="userSpaceOnUse"><stop offset="0" style="stop-color:#7e7e7e"/><stop offset="1" style="stop-color:#d6d6d6"/></linearGradient><path d="m99.8 67.4 1.8.2-.6 2.8-.8.6-.7-.4-.1-.7z" style="fill-rule:evenodd;clip-rule:evenodd;fill:url(#SVGID_00000120550447921409105500000013887217883671699084_)"/><path d="m100.1 66.2 1.7.2-.1 1.2-1.8-.2z" class="st111"/><radialGradient id="SVGID_00000061469336237190780580000012429898641289071010_" cx="-643.564" cy="314.963" r="2.3" gradientTransform="matrix(2.2 0 0 -2.8 1103.597 1408.802)" gradientUnits="userSpaceOnUse"><stop offset=".18" style="stop-color:#a31e00"/><stop offset=".94" style="stop-color:#ef4923"/></radialGradient><path d="m83.5 49.4.2.6-.6.6-.9.1-.2-.6-.7-2.1.3-.4h.8l.4.4z" style="fill-rule:evenodd;clip-rule:evenodd;fill:url(#SVGID_00000061469336237190780580000012429898641289071010_)"/><linearGradient id="SVGID_00000015343050551673505740000012748889972829061522_" x1="-636.976" x2="-634.386" y1="486.914" y2="481.21" gradientTransform="matrix(4.7 0 0 -6 3251.41 3461.7)" gradientUnits="userSpaceOnUse"><stop offset="0" style="stop-color:#a31e00"/><stop offset=".29" style="stop-color:#ef4923"/></linearGradient><path d="m86.8 54.7-1.2 1.2-1.8.2-.7-.3-.3-.4.1-1.5-1.2-2.8.3-1 .3.6.9-.1.6-.6-.2-.6 1 .4 1.3 2.8 1 .7z" style="fill-rule:evenodd;clip-rule:evenodd;fill:url(#SVGID_00000015343050551673505740000012748889972829061522_)"/><linearGradient id="SVGID_00000026132212211423873540000015349373106114208416_" x1="-660.98" x2="-658.424" y1="488.912" y2="483.643" gradientTransform="matrix(5.6 0 0 -6.8 4026.399 3979.2)" gradientUnits="userSpaceOnUse"><stop offset="0" style="stop-color:#a31e00"/><stop offset=".29" style="stop-color:#ef4923"/></linearGradient><path d="M89.7 60.8 88.2 62l-.8.2-1.6-.1-.8-.4-.6-1 .6-2-1.3-2.6 1.7-.2 1.3-1.2 1.7 3.1 1.5.9.1.8z" style="fill-rule:evenodd;clip-rule:evenodd;fill:url(#SVGID_00000026132212211423873540000015349373106114208416_)"/><linearGradient id="SVGID_00000029739418378705312070000008396241392704312234_" x1="-688.315" x2="-684.754" y1="497.784" y2="490.551" gradientTransform="matrix(7 0 0 -8.9 5231.606 5330.8)" gradientUnits="userSpaceOnUse"><stop offset="0" style="stop-color:#a31e00"/><stop offset=".29" style="stop-color:#ef4923"/></linearGradient><path d="m92.9 69.9-2.5.9-1.6-.1-1.1-.6-.7-1.6.7-1.3.1-1.2-.3-1.9-.8-1.8 1.6-.2 1.5-1.2 2 3.3.9.8 1.3.3.6.6-.1 2.2z" style="fill-rule:evenodd;clip-rule:evenodd;fill:url(#SVGID_00000029739418378705312070000008396241392704312234_)"/><linearGradient id="SVGID_00000057106659817432312750000016647502384163215258_" x1="-451.186" x2="-452.76" y1="520.623" y2="519.898" gradientTransform="matrix(2.4 0 0 -3.1 1284.801 1622.099)" gradientUnits="userSpaceOnUse"><stop offset="0" style="stop-color:#7e7e7e"/><stop offset="1" style="stop-color:#d6d6d6"/></linearGradient><path d="m91.8 71.8 1.6-.8 1.1 2.2-.5 1.2-1.2-.4z" style="fill-rule:evenodd;clip-rule:evenodd;fill:url(#SVGID_00000057106659817432312750000016647502384163215258_)"/><path d="m93.4 71-1.6.8-.6-1.1 1.7-.8z" class="st111"/><defs><path id="SVGID_00000047030835440660287110000011866971235530794634_" d="m112.9 47.9-.1.5-.9.1-.8-.3.7-2.8.4-.2.7.4.1.7z"/></defs><clipPath id="SVGID_00000147198506671792794220000001725988843689785757_"><use xlink:href="#SVGID_00000047030835440660287110000011866971235530794634_" style="overflow:visible"/></clipPath><g style="clip-path:url(#SVGID_00000147198506671792794220000001725988843689785757_)"><path d="M111.1 45.2h1.9v3.5h-1.9z" class="st32"/><path d="m114.5 45.4-1 1.6-1.2.3-1.8-.9-.4-1.2.8-1.8 1.9-.4 1.3.8z" class="st33"/><path d="m114.5 45.4-.3.8-1.2 1-1.7-.3-1-1.2.3-1.7 1.2-1 1.7.3 1 1.2z" class="st34"/><path d="m114.5 45.4-.3.8-1.2.9-1.7-.2-.9-1.2.2-1.7 1.2-.9 1.7.2.9 1.2z" class="st35"/><path d="m114.5 45.4-.6 1.1-1 .6h-1.2l-1-.8-.4-1.1.3-1.2.9-.8 1.2-.2 1.3.9z" class="st36"/><path d="m114.5 45.4-.6 1.1-1 .7-1.2-.1-1-.7-.4-1.1.3-1.2.9-.8 1.2-.2 1.3.8z" class="st37"/><path d="m114.3 45.4-.4 1-1 .7-1.2-.1-1-.7-.3-1.1.2-1.1.9-.9 1.2-.1 1.3.8z" class="st38"/><path d="m114.3 45.4-.4 1-1.1.7-1.1-.1-1-.7-.3-1.1.2-1.1.9-.8 1.2-.2 1.3.8z" class="st39"/><path d="m114.3 45.4-.3.7-1.1.9-1.6-.2-.9-1.1.2-1.6 1.1-.9 1.6.2.9 1.1z" class="st40"/><path d="m114.3 45.4-.6 1-1 .6h-1.1l-.9-.7-.4-1.1.3-1.1.8-.8 1.2-.1 1.2.7z" class="st41"/><path d="m114.2 45.4-.4 1-1 .6h-1.1l-.9-.8-.4-1 .3-1.1.8-.8 1.2-.1 1.2.8z" class="st42"/><path d="m114.2 45.4-.8 1.2-1.4.4-1.2-.8-.3-1.5.8-1.2 1.5-.3 1.2.7z" class="st43"/><path d="m114.2 45.4-.4 1-1 .6-1.1-.1-.9-.7-.3-1 .2-1.1.9-.8 1.1-.1 1.2.8z" class="st44"/><path d="m114.2 45.4-.4.9-1 .7-1.1-.1-.9-.7-.3-1 .2-1.1.9-.7 1.1-.2 1.2.8z" class="st45"/><path d="m114.2 45.3-.6 1-.9.6-1.1-.1-.8-.6-.4-1 .3-1.1.8-.8 1-.1 1.2.8z" class="st46"/><path d="m114.1 45.3-.4 1-.9.6-1.1-.1-.8-.6-.4-1.1.3-1 .8-.7 1-.2 1.2.8z" class="st47"/><path d="m114.1 45.3-.4 1-.9.6-1.1-.1-.8-.7-.3-1 .2-1 .8-.7 1-.2 1.2.8z" class="st48"/><path d="m114.1 45.3-.4 1-.9.4h-1.1l-.8-.7-.3-1 .2-1 .8-.7 1-.1 1.2.7z" class="st49"/><path d="m114.1 45.3-.4.9-.9.6h-1l-.9-.7-.3-.9.2-1 .8-.8 1-.1 1.2.7z" class="st50"/><path d="m114.1 45.3-.4.9-.9.6h-1l-.9-.7-.3-.9.2-1 .8-.8 1-.1 1.2.7z" class="st51"/><path d="m114 45.3-.3.9-.9.6-1-.1-.9-.6-.3-1 .3-.9.7-.7 1-.2 1.2.7z" class="st52"/><path d="m114 45.3-.4.9-.8.6-1-.1-.8-.6-.3-.9.2-1 .7-.7 1-.1 1.1.7z" class="st53"/><path d="m114 45.3-.4.9-.8.6-1-.1-.8-.6-.3-.9.2-1 .7-.7 1-.1 1.1.7z" class="st54"/><path d="m114 45.3-.4.9-.8.4h-1l-.8-.6-.3-.9.2-1 .8-.7.9-.1 1.1.7z" class="st55"/><path d="m114 45.3-.4.9-.8.4h-1l-.8-.6-.3-.9.2-1 .8-.6.9-.2 1.1.7z" class="st56"/><path d="m113.9 45.3-.4.9-.8.4h-.9l-.8-.6-.3-.9.2-1 .7-.6 1-.1 1 .6z" class="st57"/><path d="m113.9 45.3-.4.9-.8.4h-.9l-.8-.6-.3-.9.2-.9.8-.7.9-.1 1 .6z" class="st58"/><path d="m113.9 45.3-.4.8-.8.6-.9-.1-.7-.6-.3-.8.2-.9.7-.7.9-.1 1 .6z" class="st59"/><path d="m113.9 45.3-.2.6-.9.7-1.2-.1-.7-1 .1-1.1 1-.8 1.2.2.7.9z" class="st60"/><path d="m113.9 45.3-.6 1-1.1.3-1-.7-.3-1.1.6-1 1.2-.2 1 .6z" class="st61"/><path d="m113.8 45.3-.3.8-.8.4h-.9l-.7-.6-.3-.8.2-.9.7-.6.9-.1 1 .6z" class="st62"/><path d="m113.8 45.3-.3.8-.8.4h-.8l-.8-.6-.2-.8.2-.9.6-.6.9-.1 1 .6z" class="st63"/><path d="m113.8 45.3-1.1 1.2-1.1-.2-.7-.9.2-1.1.9-.6 1.1.1z" class="st64"/><path d="m113.8 45.3-.6.9-1.1.3-.9-.6-.3-1.1.6-.9 1.1-.3.9.6z" class="st65"/><path d="m113.8 45.3-.4.8-.7.3h-.8l-.7-.4-.3-.8.2-.8.7-.6.8-.1.9.6z" class="st66"/><path d="m113.7 45.3-.6.9-1 .2-.9-.6-.2-1 .6-.8 1-.3.9.6z" class="st67"/><path d="m113.7 45.3-.6.9-1 .2-.9-.6-.2-1 .6-.9 1-.2.9.6z" class="st68"/><path d="m113.7 45.3-.6.9-1 .2-.9-.6-.2-1 .6-.9 1-.2.9.6z" class="st69"/><path d="m113.7 45.3-1 1.1-1.2-.3-.4-.7.1-.8.4-.6.7-.3.7.3.6.6z" class="st70"/><path d="m113.6 45.3-.9 1.1-1-.2-.6-.8.1-1 .8-.6 1 .1z" class="st71"/><path d="m113.6 45.3-.4.8-1 .3-.8-.6-.2-.9.4-.9.9-.2.9.4z" class="st72"/><path d="m113.6 45.3-.4.8-1 .2-.8-.4-.2-.9.4-.9 1-.2.8.6z" class="st73"/><path d="m113.6 45.3-.4.8-1 .2-.8-.4-.2-.9.4-.8 1-.2.8.4z" class="st74"/><path d="m113.6 45.3-.9 1-1-.1-.4-.8.1-.9.6-.5 1 .1z" class="st75"/><path d="m113.6 45.3-.6.8-.9.2-.8-.4v-1.3l.7-.6 1.3.4z" class="st76"/><path d="m113.5 45.3-.5.7-.8.2-.8-.4-.1-.8.3-.8.9-.2.7.4z" class="st77"/><path d="m113.5 45.3-.4.8-.8.2-.8-.4-.2-.9.4-.8.9-.1.7.3z" class="st78"/><path d="m113.5 45.3-.4.8-.8.1-.8-.4-.2-.8.4-.8.9-.1.7.4z" class="st79"/><path d="m113.5 45.2-.3.7-1.2.3-.7-1 .7-1.1.6-.1.8.4z" class="st80"/><path d="m113.3 45.2-.3.8-.8.2-.6-.6-.1-.7.3-.7.6-.2.8.3z" class="st81"/><path d="m113.3 45.2-.4.7-.7.2-.8-.3-.1-.8.3-.8.8-.1.8.3z" class="st82"/><path d="m113.3 45.2-.4.7-.7.2-.7-.4-.2-.7.4-.7.7-.2.7.4z" class="st83"/><path d="m113.3 45.2-.8.9h-.5l-.7-.9.1-.6 1-.6.7.4z" class="st84"/><path d="m113.3 45.2-.8.9-.5-.1-.7-.9.1-.6 1-.4.7.4z" class="st85"/><path d="m113.3 45.2-.4.7-.7.1-.7-.3-.1-.8.3-.6.7-.2.7.4z" class="st86"/><path d="m113.2 45.2-.3.7-.8.1-.6-.3-.1-.7.3-.7.7-.1.7.3z" class="st87"/><path d="m113.2 45.2-.1.4-.9.4-.8-.7.3-1 .7-.2.6.3z" class="st88"/><path d="m113.2 45.2-.7.8h-.5l-.6-.9.1-.4.9-.4.6.3z" class="st89"/><path d="m113.2 45.2-.6.8-.9-.2-.2-.3.2-1 .7-.1.6.3z" class="st90"/><path d="m113.1 45.2-.3.6-.6.1-.6-.3-.2-.6.4-.6.6-.2.6.3z" class="st91"/><path d="m113.1 45.2-.3.6-.6.1-.4-.3.1-1.1.6-.1.6.3z" class="st92"/><path d="m113.1 45.2-.2.4-.8.2-.6-.8.1-.4.8-.3.6.3z" class="st93"/><path d="m113.1 45.2-.2.4-.8.2-.6-.8.1-.4.8-.3.6.3z" class="st94"/><path d="m113.1 45.2-.9.7-.4-.3-.1-.6.8-.7.4.3z" class="st95"/><path d="m113 45.2-.4.6h-.4l-.6-.7.1-.3.8-.3z" class="st96"/><path d="m113 45.2-.1.3-.8.2-.4-.7.3-.7h.4z" class="st97"/><path d="m113 45.2-.6.6-.8-.7.8-.7z" class="st98"/><path d="m113 45.2-.8.7-.6-.6.3-.7.4-.1z" class="st99"/><path d="m113 45.2-.8.6-.6-.6.7-.8z" class="st100"/><path d="m112.9 45.2-.7.4-.4-.4.6-.8z" class="st101"/><path d="m112.9 45.2-.2.3-.7-.1.4-.9z" class="st102"/><path d="m112.9 45.2-.2.3-.8-.1-.1-.4.7-.4z" class="st103"/><path d="m112.9 45.2-.2.3-.8-.1.1-.8.8.1z" class="st104"/><path d="m112.9 45.2-.7.4-.3-.2.1-.8.4-.1z" class="st105"/><path d="m112.8 45.2-.6.3-.3-.1.1-.8h.3z" class="st106"/><path d="m112.8 45.2-.2.2h-.7l.1-.7h.7z" class="st107"/><path d="m112.8 45.2-.2.2-.6-.1-.1-.3.6-.3z" class="st108"/></g><linearGradient id="SVGID_00000135665401089610868450000016330138722490948796_" x1="-652.343" x2="-653.292" y1="527.566" y2="521.382" gradientTransform="matrix(4.1 0 0 -6 2760.499 3460.098)" gradientUnits="userSpaceOnUse"><stop offset="0" style="stop-color:#a31e00"/><stop offset=".29" style="stop-color:#ef4923"/></linearGradient><path d="m112.8 54-1.9.3-.8-.2-1.1-1.2v-.6l.7-.7.4-2.8.8-1.2h.3l-.1.6.8.3.9-.1.1-.6.6.9-.3 3 .4 1.1z" style="fill-rule:evenodd;clip-rule:evenodd;fill:url(#SVGID_00000135665401089610868450000016330138722490948796_)"/><linearGradient id="SVGID_00000063606563267751646900000010234261035569762736_" x1="-697.473" x2="-698.21" y1="524.019" y2="518.203" gradientTransform="matrix(5.2 0 0 -6.6 3704.004 3850.001)" gradientUnits="userSpaceOnUse"><stop offset="0" style="stop-color:#a31e00"/><stop offset=".29" style="stop-color:#ef4923"/></linearGradient><path d="m111.8 60.6-1 .3-1.7-.2-1.3-.9-.3-.9.1-1.1.9-.6.7-1 .3-2.7 1.5.8 1.9-.4-.4 2.8.9 2.3-.3.7z" style="fill-rule:evenodd;clip-rule:evenodd;fill:url(#SVGID_00000063606563267751646900000010234261035569762736_)"/><linearGradient id="SVGID_00000039849896744842317850000016395600199308999103_" x1="-744.441" x2="-745.379" y1="531.811" y2="523.796" gradientTransform="matrix(7.2 0 0 -8.7 5419.884 5202.103)" gradientUnits="userSpaceOnUse"><stop offset="0" style="stop-color:#a31e00"/><stop offset=".29" style="stop-color:#ef4923"/></linearGradient><path d="m109.4 70-2.5-.4-1.3-1.1-.6-1 .2-1.7 1.3-.8.8-.9.8-1.8.2-2 1.5.7 1.9-.3-.2 2 .2 2.7 1.3 2.2-.4 1-1 .9z" style="fill-rule:evenodd;clip-rule:evenodd;fill:url(#SVGID_00000039849896744842317850000016395600199308999103_)"/><path d="m109.2 71.2-1.7-.2.2-1.2 1.7.2z" class="st111"/><linearGradient id="SVGID_00000077322563719525761080000006336743986371994005_" x1="-256.615" x2="-258.334" y1="486.516" y2="486.773" gradientTransform="matrix(1.8 0 0 -3.2 783.196 1686.198)" gradientUnits="userSpaceOnUse"><stop offset="0" style="stop-color:#7e7e7e"/><stop offset="1" style="stop-color:#d6d6d6"/></linearGradient><path d="m107.5 71 1.7.2-.2 2.5-1 .9-.7-.4-.1-.7z" style="fill-rule:evenodd;clip-rule:evenodd;fill:url(#SVGID_00000077322563719525761080000006336743986371994005_)"/><linearGradient id="SVGID_00000125581991405190824330000001857305252212268937_" x1="-658.103" x2="-655.546" y1="482.942" y2="477.662" gradientTransform="matrix(5.6 0 0 -6.8 4032.492 3982.795)" gradientUnits="userSpaceOnUse"><stop offset="0" style="stop-color:#a31e00"/><stop offset=".29" style="stop-color:#ef4923"/></linearGradient><path d="m90.6 60.1 1.7-.1 1.3-1.3 1.2 2.6 1.9 1.5.1.8-.4 1.3-1.6 1.2-1.5.2h-.8l-1.2-1 .4-2.6z" style="fill-rule:evenodd;clip-rule:evenodd;fill:url(#SVGID_00000125581991405190824330000001857305252212268937_)"/><linearGradient id="SVGID_00000090294222533704639310000004133610500343044524_" x1="-688.587" x2="-685.015" y1="492.314" y2="485.081" gradientTransform="matrix(7.2 0 0 -9 5409.404 5398.49)" gradientUnits="userSpaceOnUse"><stop offset="0" style="stop-color:#a31e00"/><stop offset=".29" style="stop-color:#ef4923"/></linearGradient><path d="m99.5 74-2.2.9-1.6-.1-1.2-.7-.8-1.5.7-1.3.2-1.2-.3-1.9-.9-1.9 1.5-.2 1.6-1.2 2.1 3.5 2.7 1.6.2 1.1-.4 1.5z" style="fill-rule:evenodd;clip-rule:evenodd;fill:url(#SVGID_00000090294222533704639310000004133610500343044524_)"/><path d="m98 74.7 1.5-.7.6 1-1.6.8z" class="st111"/><linearGradient id="SVGID_00000163787994175376063820000017191001363220395706_" x1="-446.9" x2="-448.474" y1="526.733" y2="526.007" gradientTransform="matrix(2.4 0 0 -3.2 1290.801 1689.798)" gradientUnits="userSpaceOnUse"><stop offset="0" style="stop-color:#7e7e7e"/><stop offset="1" style="stop-color:#d6d6d6"/></linearGradient><path d="m98.5 75.8 1.6-.8 1.1 2.3-.4 1.2h-.7l-.5-.5z" style="fill-rule:evenodd;clip-rule:evenodd;fill:url(#SVGID_00000163787994175376063820000017191001363220395706_)"/><radialGradient id="SVGID_00000124128667641400305010000011644385887840206755_" cx="-655.939" cy="308.35" r="2.3" gradientTransform="matrix(2.3 0 0 -2.8 1195.496 1412.402)" gradientUnits="userSpaceOnUse"><stop offset=".18" style="stop-color:#a31e00"/><stop offset=".94" style="stop-color:#ef4923"/></radialGradient><path d="m90.3 53.6.2.4-.7.7H89l-.3-.4-.7-2.2 1.1-.6.4.4z" style="fill-rule:evenodd;clip-rule:evenodd;fill:url(#SVGID_00000124128667641400305010000011644385887840206755_)"/><linearGradient id="SVGID_00000083079494879749571140000005426841208183702451_" x1="-630.017" x2="-627.416" y1="480.911" y2="475.196" gradientTransform="matrix(4.6 0 0 -6 3171.612 3465.402)" gradientUnits="userSpaceOnUse"><stop offset="0" style="stop-color:#a31e00"/><stop offset=".29" style="stop-color:#ef4923"/></linearGradient><path d="M93.6 58.8 92.2 60l-.8.2-1.7-.4-.2-.4V58l-1.1-2.8.3-1 .3.4h.8l.7-.7-.2-.4h.4l.9 1 1 2.2.9.7v1.1z" style="fill-rule:evenodd;clip-rule:evenodd;fill:url(#SVGID_00000083079494879749571140000005426841208183702451_)"/><defs><path id="SVGID_00000019646708616885768940000003310781172693507985_" d="m125.3 55.2-.1.6-.8.1-.8-.3.3-2.3.8-.6.7.3.1.7z"/></defs><clipPath id="SVGID_00000154415556637093577920000017631504351567292350_"><use xlink:href="#SVGID_00000019646708616885768940000003310781172693507985_" style="overflow:visible"/></clipPath><g style="clip-path:url(#SVGID_00000154415556637093577920000017631504351567292350_)"><path d="M123.6 52.7h2v3.5h-2z" class="st32"/><path d="m127 52.8-1 1.7-1.3.3-1.7-.9-.4-1.2.8-1.8 1.8-.6 1.5.9z" class="st33"/><path d="m127 52.8-.9 1.5-1.6.3-1.5-.8-.4-1.6.9-1.5 1.6-.4 1.5.9z" class="st34"/><path d="m126.8 52.8-.8 1.5-1.6.3-1.5-.8-.4-1.6.9-1.5 1.6-.4 1.5.9z" class="st35"/><path d="m126.8 52.8-.8 1.3-1.6.4-1.5-.8-.3-1.6.8-1.5 1.6-.3 1.5.8z" class="st36"/><path d="m126.8 52.8-.8 1.3-1.6.4-1.5-.8-.3-1.6.8-1.5 1.6-.3 1.3.8z" class="st37"/><path d="m126.8 52.8-.6 1.1-1 .6H124l-.9-.8-.4-1.1.2-1.1.9-.8 1.2-.2 1.3.8z" class="st38"/><path d="m126.8 52.8-.3.8-1.2.9-1.6-.2-.9-1.2.2-1.6 1.2-1 1.6.3.9 1.2z" class="st39"/><path d="m126.7 52.8-.4 1.1-1 .6h-1.1l-1-.7-.4-1.1.3-1.1.9-.9 1.1-.1 1.3.8z" class="st40"/><path d="m126.7 52.8-.4 1-1 .7-1.1-.1-1-.7-.4-1.1.3-1.1.9-.8 1.1-.1 1.3.8z" class="st41"/><path d="m126.7 52.8-.4 1-1 .6h-1.2l-.9-.7-.3-1.1.2-1.1.9-.8 1.1-.1 1.3.8z" class="st42"/><path d="M126.7 52.8 126 54l-1.5.3-1.2-.8-.4-1.5.8-1.2 1.5-.3 1.3.8z" class="st43"/><path d="M126.7 52.8 126 54l-1.5.3-1.2-.8-.3-1.5.7-1.2 1.5-.3 1.2.8z" class="st44"/><path d="m126.6 52.8-.4 1-.9.6-1.1-.1-.9-.7-.3-1 .2-1.1.8-.7 1.1-.2 1.2.8z" class="st45"/><path d="m126.6 52.8-.4.9-.9.7-1.1-.1-.9-.7-.3-1 .2-1 .8-.8 1.1-.1 1.2.7z" class="st46"/><path d="m126.6 52.8-.4.9-1 .6h-1l-.9-.7-.3-1 .2-1 .8-.8 1.1-.1 1.2.7z" class="st47"/><path d="m126.6 52.8-.8 1.1-1.3.3-1.1-.8-.4-1.2.8-1.2 1.3-.3 1.2.7z" class="st48"/><path d="m126.5 52.8-.4.9-.9.6-1-.1-.9-.6-.3-1 .3-1 .8-.8 1-.1 1.2.8z" class="st49"/><path d="m126.5 52.8-.4.9-.9.6-1-.1-.9-.6-.3-1 .3-1 .8-.7 1-.2 1.1.8z" class="st50"/><path d="m126.5 52.8-.4.9-.9.6-1-.1-.8-.7-.3-.9.2-1 .8-.7 1-.1 1.1.7z" class="st51"/><path d="m126.5 52.8-.4.9-.9.4h-1l-.8-.7-.3-.9.2-1 .8-.7 1-.1 1.1.7z" class="st52"/><path d="m126.5 52.7-.4 1-.9.4h-1l-.8-.7-.3-.9.2-1 .8-.7 1-.1 1.1.7z" class="st53"/><path d="m126.4 52.7-.3.9-.9.6-1-.1-.8-.6-.3-.9.2-1 .8-.7 1-.1 1.1.7z" class="st54"/><path d="m126.4 52.7-.4.9-.8.6-1-.1-.8-.6-.3-.9.3-.9.7-.7 1-.2 1 .7z" class="st55"/><path d="m126.4 52.7-.4.9-.8.6h-1l-.8-.7-.2-.9.2-.9.7-.7 1-.1 1 .7z" class="st56"/><path d="m126.4 52.7-.7 1-1.2.2-1-.6-.3-1.1.7-1 1.2-.3 1 .7z" class="st57"/><path d="m126.4 52.7-.4.9-.8.4h-1l-.7-.6-.3-.9.2-1 .8-.6.9-.1 1 .7z" class="st58"/><path d="m126.3 52.7-1.1 1.2-1.2-.2-.7-.9.2-1.1.9-.7 1.1.2z" class="st59"/><path d="m126.3 52.7-.2.6-.9.8-1.5-.3-.4-.8v-1l.6-.7.9-.3.9.2.6.7z" class="st60"/><path d="m126.3 52.7-.2.6-.9.7-1.2-.1-.7-.9.2-1.2.9-.7h.6l1 .6z" class="st61"/><path d="m126.3 52.7-.2.6-.9.7-1.2-.1-.7-.9.2-1.2.9-.7h.6l1 .6z" class="st62"/><path d="m126.3 52.7-.7 1-1.1.2-.9-.6-.3-1.1.6-1 1.1-.2 1 .6z" class="st63"/><path d="m126.2 52.7-.3.8-.8.4-.8-.1-.7-.4-.3-.8.2-.9.6-.6.9-.1 1 .6z" class="st64"/><path d="m126.2 52.7-1.1 1.2-1.1-.2-.6-.9.1-1.1 1.5-.7 1 .7z" class="st65"/><path d="m126.2 52.7-1 1.1-1.1-.1-.7-.9.2-1 1.3-.7 1 .6z" class="st66"/><path d="m126.2 52.7-.3.8-.8.3h-.8l-.7-.6-.2-.8.2-.8.7-.4.8-.1.9.6z" class="st67"/><path d="m126.2 52.7-.3.7-.7.4h-.8l-.7-.6-.2-.7.2-.8.6-.6.8-.1.9.6z" class="st68"/><path d="m126.1 52.7-.4.9-1 .2-.9-.6-.2-1 .4-.9 1-.2.9.6z" class="st69"/><path d="m126.1 52.7-.6.9-.9.2-.9-.6-.2-1 .4-.8 1-.2.9.4z" class="st70"/><path d="m126.1 52.7-.6.9H124l-.6-1.2.4-.9 1.5-.1z" class="st71"/><path d="m126.1 52.7-.6.8-.9.3-.9-.6-.2-.9.4-.9 1-.2.8.4z" class="st72"/><path d="m126.1 52.7-.6.8-.9.2-.9-.4-.2-.9.6-.9.9-.2.8.4z" class="st73"/><path d="m126 52.7-.4.8-.9.2-.8-.4-.2-.9.4-.9.9-.2.8.6z" class="st74"/><path d="m126 52.7-.4.8-.9.2-.8-.4-.2-.9.4-.8.9-.2.8.4z" class="st75"/><path d="m126 52.7-.9 1-1.1-.3-.3-.6v-.7l1.1-.8.7.1z" class="st76"/><path d="m126 52.7-.9.9-1.1-.4-.2-.8.4-.7.8-.2.8.3z" class="st77"/><path d="m126 52.7-.6.7-.8.2-.7-.4-.2-.8.4-.8.8-.2.8.4z" class="st78"/><path d="m125.8 52.7-.4.7-.8.2-.8-.4-.1-.8.3-.8.9-.2.7.4z" class="st79"/><path d="m125.8 52.7-.4.7-.8.2-.9-.8v-.7l1-.8.6.1z" class="st80"/><path d="m125.8 52.7-.4.7-.8.2-.6-.6-.1-.7.3-.6.7-.3.7.4z" class="st81"/><path d="m125.8 52.7-.4.7-.8.1-.7-.3-.2-.8.4-.7.8-.2.7.4z" class="st82"/><path d="m125.8 52.7-.4.7-.8.1-.7-.3-.2-.8.4-.7.8-.2.7.4z" class="st83"/><path d="m125.7 52.7-.3.6-.8.2-.7-.3-.1-.8.3-.7.8-.2.7.4.2.8z" class="st84"/><path d="m125.7 52.7-.3.6-.8.2-.6-.4-.2-.7.3-.7.8-.1.6.3z" class="st85"/><path d="m125.7 52.7-.4.6-.7.2-.7-.4-.1-.7.3-.7.8-.2.6.4z" class="st86"/><path d="m125.7 52.6-.4.7-.7.1-.6-.3-.2-.7.3-.6.8-.2.6.3z" class="st87"/><path d="m125.7 52.6-.4.7-.7.1-.6-.3-.2-.7.4-.6.7-.2.6.3z" class="st88"/><path d="m125.6 52.6-.3.7-.7.1-.7-.6-.1-.4.6-.7 1.1.3z" class="st89"/><path d="m125.6 52.6-.3.6-.7.2-.6-.3-.1-.7.3-.6.7-.1.6.3z" class="st90"/><path d="m125.6 52.6-.3.6-.7.2-.6-.3-.1-.7.3-.6.6-.1.6.3z" class="st91"/><path d="m125.6 52.6-.3.6-.7.2-.4-.3-.2-.7.3-.6.6-.1.6.3z" class="st92"/><path d="m125.6 52.6-.3.6-.7.1-.4-.3-.2-.6.3-.4.6-.2.6.3z" class="st93"/><path d="m125.5 52.6-.9.7-.4-.3.1-1 1.1.1z" class="st94"/><path d="m125.5 52.6-.9.7-.4-.3.2-1 .4-.1z" class="st95"/><path d="m125.5 52.6-.8.7-.7-.4.4-1 .9.2z" class="st96"/><path d="m125.5 52.6-.8.6-.6-.2.2-1 .9.1z" class="st97"/><path d="m125.5 52.6-.8.6-.7-.3.4-1 .8.3z" class="st98"/><path d="m125.4 52.6-.7.6-.7-.4.4-.9.8.3z" class="st99"/><path d="m125.4 52.6-.7.6-.6-.4.6-.9z" class="st100"/><path d="m125.4 52.6-.4.6-.8-.7.7-.6z" class="st101"/><path d="m125.4 52.6-.4.4-.8-.6.7-.6z" class="st102"/><path d="m125.3 52.6-.6.4-.6-.6.7-.6z" class="st103"/><path d="m125.3 52.6-.6.4-.6-.7.7-.4z" class="st104"/><path d="m125.3 52.6-.2.3-.7-.1-.1-.3.6-.4z" class="st105"/><path d="m125.3 52.6-.2.3-.7-.1.1-.7.3-.1z" class="st106"/><path d="m125.3 52.6-.6.3-.3-.1.1-.7.3-.1z" class="st107"/><path d="m125.2 52.6-.4.3-.3-.1.1-.7.3-.1z" class="st108"/></g><linearGradient id="SVGID_00000072960333946383445890000000535904255216230028_" x1="-657.91" x2="-658.859" y1="522.091" y2="515.907" gradientTransform="matrix(4.2 0 0 -6 2857.504 3466.698)" gradientUnits="userSpaceOnUse"><stop offset="0" style="stop-color:#a31e00"/><stop offset=".29" style="stop-color:#ef4923"/></linearGradient><path d="m125.2 61.4-1.7.3-1.7-.8-.3-.7-.1-.6.9-1.1.6-3 .9-.6-.1.4.8.4.8-.1.1-.6.3.2.3 1.3-.3 2.3.4 1.2-.8.9z" style="fill-rule:evenodd;clip-rule:evenodd;fill:url(#SVGID_00000072960333946383445890000000535904255216230028_)"/><linearGradient id="SVGID_00000131366184916451335290000010430902948827063689_" x1="-697.946" x2="-698.683" y1="517.173" y2="511.358" gradientTransform="matrix(5.2 0 0 -6.5 3715.204 3792.6)" gradientUnits="userSpaceOnUse"><stop offset="0" style="stop-color:#a31e00"/><stop offset=".29" style="stop-color:#ef4923"/></linearGradient><path d="m124.3 68.1-1 .2-1.7-.2-1.3-.9-.3-.9.1-1.1.9-.6.6-.8.3-2.8 1.7.8 1.9-.4-.6 2.9.9 2.2-.3.7z" style="fill-rule:evenodd;clip-rule:evenodd;fill:url(#SVGID_00000131366184916451335290000010430902948827063689_)"/><linearGradient id="SVGID_00000007400878427729239830000013526606826490372496_" x1="-743.308" x2="-744.257" y1="526.634" y2="518.619" gradientTransform="matrix(7.1 0 0 -8.8 5345.185 5272.802)" gradientUnits="userSpaceOnUse"><stop offset="0" style="stop-color:#a31e00"/><stop offset=".29" style="stop-color:#ef4923"/></linearGradient><path d="m122 77.5-3.2-.9-1.2-1.8.2-1.8 1.3-.7.8-.9.7-1.8.3-2 1.5.7 1.9-.2-.3 1.9.2 2.7 1.3 2.2-.4 1-1.1 1z" style="fill-rule:evenodd;clip-rule:evenodd;fill:url(#SVGID_00000007400878427729239830000013526606826490372496_)"/><path d="m121.8 78.6-1.7-.2.1-1.2 1.8.3z" class="st111"/><linearGradient id="SVGID_00000101797964160585135890000014827881717852548763_" x1="-268.393" x2="-270.112" y1="485.187" y2="485.433" gradientTransform="matrix(1.9 0 0 -3.2 880.301 1692.798)" gradientUnits="userSpaceOnUse"><stop offset="0" style="stop-color:#7e7e7e"/><stop offset="1" style="stop-color:#d6d6d6"/></linearGradient><path d="m120.1 78.3 1.7.2-.4 2.6-.9.8-.6-.4-.2-.6z" style="fill-rule:evenodd;clip-rule:evenodd;fill:url(#SVGID_00000101797964160585135890000014827881717852548763_)"/><defs><path id="SVGID_00000119106024787684765020000003581522906998360219_" d="m119.4 51.7-.1.5-.9.2-.8-.4.3-2.1.9-.8.7.3.1.7z"/></defs><clipPath id="SVGID_00000106111268741024175120000013095789365211880870_"><use xlink:href="#SVGID_00000119106024787684765020000003581522906998360219_" style="overflow:visible"/></clipPath><g style="clip-path:url(#SVGID_00000106111268741024175120000013095789365211880870_)"><path d="M117.6 49.1h2v3.5h-2z" class="st32"/><path d="m121 49.2-1.1 1.6-1.2.3-1.7-.9-.4-1.2.8-1.8 1.8-.4 1.5.8z" class="st33"/><path d="m120.9 49.2-.4 1.1-1.1.7-1.2-.1-1-.7-.4-1.2.3-1.2.9-.8 1.2-.2 1.5.9z" class="st34"/><path d="m120.9 49.2-.8 1.3-1.6.4-1.5-.9-.4-1.6.9-1.3 1.6-.4 1.5.9z" class="st35"/><path d="m120.9 49.2-.6 1.1-1 .6h-1.2l-1-.8-.4-1.1.3-1.2.9-.8 1.2-.2 1.3.9z" class="st36"/><path d="m120.9 49.2-.9 1.3-1.5.3-1.5-.8-.3-1.6.8-1.3 1.6-.3 1.3.8z" class="st37"/><path d="m120.9 49.2-.9 1.3-1.5.3-1.3-.8-.4-1.6.8-1.3 1.6-.3 1.3.8z" class="st38"/><path d="m120.8 49.2-.8 1.3-1.5.3-1.3-.8-.4-1.6.8-1.3 1.6-.3 1.3.8z" class="st39"/><path d="m120.8 49.2-.4 1-1 .7h-1.1l-1-.8-.4-1 .3-1.2.9-.8 1.1-.1 1.3.8z" class="st40"/><path d="m120.8 49.2-.4 1-1 .7-1.2-.1-.9-.7-.3-1.1.2-1.1.9-.8 1.1-.1 1.3.8z" class="st41"/><path d="m120.8 49.2-.3.7-1.1.9-1.6-.2-.9-1.1.2-1.6 1.2-.9h.8l1.2.8z" class="st42"/><path d="m120.8 49.2-.8 1.2-1.5.3-1.3-.8-.3-1.5.8-1.2 1.5-.3 1.2.8z" class="st43"/><path d="m120.7 49.2-.7 1.2-1.5.3-1.2-.8-.4-1.3.8-1.3 1.5-.3 1.2.8z" class="st44"/><path d="m120.7 49.2-.7 1.2-1.5.3-1.2-.8-.3-1.3.7-1.2 1.5-.4 1.2.8z" class="st45"/><path d="m120.7 49.2-.4.9-.9.6h-1.1l-.9-.7-.3-1 .2-1 .8-.8 1.1-.1 1.2.7z" class="st46"/><path d="m120.7 49.2-.2.7-1.1.8-1.5-.2-.9-1.1.2-1.5 1.1-.8 1.5.2.8 1.1z" class="st47"/><path d="m120.7 49.2-.3.7-1 .8-1.5-.2-.8-1.1.1-1.3 1.1-.9h.8l1.1.7z" class="st48"/><path d="m120.6 49.1-.4 1-.9.6-1-.1-.9-.6-.3-1 .2-1 .8-.7 1-.2 1.2.7z" class="st49"/><path d="m120.6 49.1-.4 1-.9.6-1-.1-.9-.6-.3-1 .2-1 .8-.7 1.1-.2 1.1.8z" class="st50"/><path d="m120.6 49.1-.4 1-.9.4h-1l-.8-.6-.3-1 .2-1 .8-.7 1-.1 1.1.7z" class="st51"/><path d="m120.6 49.1-.4 1-.9.4h-1l-.8-.7-.3-.9.2-1 .8-.7 1-.1 1.1.7z" class="st52"/><path d="m120.6 49.1-.2 1-.8.7-1 .1-.9-.4-.4-.8.3-1.6.9-.6 1.2.1z" class="st53"/><path d="m120.5 49.1-.3.9-.9.6-1-.1-.8-.6-.3-.9.2-1 .8-.7 1-.1 1.1.7z" class="st54"/><path d="m120.5 49.1-.7 1.1-1.2.3-1.1-.7-.3-1.2.7-1.1 1.3-.3 1 .7z" class="st55"/><path d="m120.5 49.1-.2.7-1 .7-1.2-.1-.8-1 .2-1.3 1-.7.7-.1 1 .7z" class="st56"/><path d="m120.5 49.1-.7 1.1-1.2.2-1-.6-.3-1.2.7-1.1 1.2-.2 1 .7z" class="st57"/><path d="m120.4 49.1-.1.7-1 .7-1.2-.2-.7-.9.1-1.2 1-.8h.7l1 .7z" class="st58"/><path d="m120.4 49.1-.4.9-.8.4-.9-.1-.8-.6-.3-.8.2-.9.7-.7.9-.1 1.1.7z" class="st59"/><path d="m120.4 49.1-.6 1-1.2.3-1-.7-.2-1.1.6-1 1.1-.3 1.1.7z" class="st60"/><path d="m120.4 49.1-.2.6-.9.7-1.2-.1-.7-1 .2-1.1.9-.7 1.2.1.7 1z" class="st61"/><path d="m120.4 49.1-.7 1-1.1.2-.9-.6-.3-1.1.6-1 1.1-.2 1 .6z" class="st62"/><path d="m120.4 49.1-1.1 1.2-1.2-.2-.7-.9.2-1.1 1.5-.7 1 .6z" class="st63"/><path d="m120.3 49.1-.6 1-1.1.2-.9-.6-.3-1.1.6-.9 1.1-.3 1 .6z" class="st64"/><path d="m120.3 49.1-.6.9-1.1.3-.9-.6-.2-1.1.6-.9 1-.3 1 .6z" class="st65"/><path d="m120.3 49.1-.3.8-.7.4h-.9l-.7-.6-.2-.8.1-.8.7-.6.8-.1.9.6z" class="st66"/><path d="m120.3 49.1-.3.8-.7.3h-.9l-.7-.4-.2-.8.2-.8.6-.6.8-.1.9.6z" class="st67"/><path d="m120.3 49.1-.4.7-.7.4h-.8l-.7-.6-.2-.8.2-.8.6-.4.9-.1.8.6z" class="st68"/><path d="m120.1 49.1-.3.7-.7.4-.8-.1-.6-.4-.3-.7.2-.8.6-.6.8-.1.9.6z" class="st69"/><path d="m120.1 49.1-.3.7-.7.4-.8-.1-.6-.4-.3-.7.2-.8.6-.6.8-.1.9.6z" class="st70"/><path d="m120.1 49.1-.6.9-.9.2-.9-.6-.2-.9.4-.9 1-.2.9.4z" class="st71"/><path d="m120.1 49.1-.6.8-1 .2-.8-.4-.2-1 .4-.9 1-.2.9.6z" class="st72"/><path d="m120.1 49.1-.8 1-.7.1-1-.9.1-1.1.8-.6.9.2z" class="st73"/><path d="m120 49.1-.4.7-.9.2-.8-.4-.3-.9.6-.7.9-.2.8.4z" class="st74"/><path d="m120 49.1-.9 1-.7-.1-.9-1 .2-.7 1.2-.7.8.6z" class="st75"/><path d="m120 49.1-.9 1-.7-.1-.8-1 .1-.7 1.2-.6.8.4z" class="st76"/><path d="m120 49.1-.4.7-.9.2-.7-.4-.2-.9.4-.7.8-.2.8.4z" class="st77"/><path d="m119.9 49.1-.4.7-.8.2-.7-.4-.2-.8.3-.8.9-.2.8.4z" class="st78"/><path d="m119.9 49.1-.4.7-.8.2-.8-.4-.2-.8.4-.8.9-.2.7.4z" class="st79"/><path d="m119.9 49.1-.2.6-1.2.3-.8-1 .2-.7 1.1-.6.7.4z" class="st80"/><path d="m119.9 49.1-.4.7-.8.2-.7-.4-.2-.8.4-.6.7-.1.7.3z" class="st81"/><path d="m119.9 49.1-.4.7-.8.1-.7-.3-.2-.8.4-.7.8-.2.7.3z" class="st82"/><path d="m119.8 49-.3.7-.8.2-.7-.4-.2-.7.4-.7.8-.2.7.4z" class="st83"/><path d="m119.8 49-.3.7-.8.2-.7-.4-.1-.7.3-.7.8-.2.6.4z" class="st84"/><path d="m119.8 49-.4.7-.7.2-.7-.4-.1-.7.1-.4 1-.4.4.2z" class="st85"/><path d="m119.8 49-.4.7-.7.1-.6-.3-.2-.8.3-.6.8-.2.6.4z" class="st86"/><path d="m119.8 49-.4.7-.7.1-.6-.3-.2-.7.3-.7.8-.1.6.3z" class="st87"/><path d="m119.7 49-.3.7-.7.1-.6-.3-.2-.7.4-.6.7-.2.6.3z" class="st88"/><path d="m119.7 49-.3.6-.7.2-.6-.3-.1-.7.3-.6.7-.2.6.3z" class="st89"/><path d="m119.7 49-.3.6-.7.2-.6-.3-.1-.7.3-.6.6-.2.7.3z" class="st90"/><path d="m119.7 49-.3.6-.7.2-.6-.3-.1-.7.3-.6.7-.1.4.3z" class="st91"/><path d="m119.7 49-.3.6-.7.1-.6-.3-.1-.6.3-.6.6-.1.6.3z" class="st92"/><path d="m119.6 49-.2.6-.7.1-.4-.3-.2-.6.3-.6.6-.1.6.3z" class="st93"/><path d="m119.6 49-.3.6-.6.1-.4-.3-.2-.6.3-.4 1.1.1z" class="st94"/><path d="m119.6 49-.9.7-.4-.3.1-1 1.1.1z" class="st95"/><path d="m119.6 49-.9.7-.4-.3.1-1 .6-.1z" class="st96"/><path d="m119.6 49-.9.6-.6-.8.8-.6z" class="st97"/><path d="m119.5 49-.4.6-.9-.3.2-.9.6-.1z" class="st98"/><path d="m119.5 49-.8.6-.6-.8.8-.6z" class="st99"/><path d="m119.5 49-.7.6-.6-.6.6-.8z" class="st100"/><path d="m119.5 49-.3.6-.9-.4.2-.7.4-.1z" class="st101"/><path d="m119.5 49-.7.4-.3-.2-.1-.4.6-.3z" class="st102"/><path d="m119.4 49-.6.4-.6-.4.6-.7z" class="st103"/><path d="m119.4 49-.6.4-.6-.7.7-.4z" class="st104"/><path d="m119.4 49-.6.4-.4-.7.6-.3z" class="st105"/><path d="m119.4 49-.6.4-.3-.2.1-.7.3-.1z" class="st106"/><path d="m119.4 49-.6.3-.4-.4.6-.4z" class="st107"/><path d="m119.3 49-.4.3-.3-.1-.1-.3.6-.4z" class="st108"/></g><linearGradient id="SVGID_00000083787539539402208700000013160820546136265109_" x1="-652.595" x2="-653.544" y1="523.543" y2="517.359" gradientTransform="matrix(4.1 0 0 -5.9 2766.292 3399.499)" gradientUnits="userSpaceOnUse"><stop offset="0" style="stop-color:#a31e00"/><stop offset=".29" style="stop-color:#ef4923"/></linearGradient><path d="m119.3 57.9-.9.2-1.7-.2-1.2-1.2v-.6l.7-.6.8-3.5.8-.6-.1.6.8.3.9-.1.1-.6.6.9-.3 3 .4 1.2z" style="fill-rule:evenodd;clip-rule:evenodd;fill:url(#SVGID_00000083787539539402208700000013160820546136265109_)"/><linearGradient id="SVGID_00000095332837374949182680000017834736287202851256_" x1="-697.713" x2="-698.449" y1="520.01" y2="514.194" gradientTransform="matrix(5.2 0 0 -6.5 3709.904 3789.4)" gradientUnits="userSpaceOnUse"><stop offset="0" style="stop-color:#a31e00"/><stop offset=".29" style="stop-color:#ef4923"/></linearGradient><path d="m118.4 64.5-2 .2-.7-.2-1.3-.8-.3-1 .1-1.1 1.5-1.5.4-2.7 1.5.8 1.9-.3-.4 2.7.9 2.3-.3.8z" style="fill-rule:evenodd;clip-rule:evenodd;fill:url(#SVGID_00000095332837374949182680000017834736287202851256_)"/><linearGradient id="SVGID_00000141424314059140227620000018298586936594755983_" x1="-743.015" x2="-743.953" y1="529.831" y2="521.827" gradientTransform="matrix(7.1 0 0 -8.9 5339.899 5333.601)" gradientUnits="userSpaceOnUse"><stop offset="0" style="stop-color:#a31e00"/><stop offset=".29" style="stop-color:#ef4923"/></linearGradient><path d="m116 73.9-2.5-.6-1.3-1-.6-1.1.1-1.7 1.3-.8.8-.9.8-1.8.3-2.1 1.3.8 2-.3-.2 4 1.5 2.8-.3 1.1-1 .9z" style="fill-rule:evenodd;clip-rule:evenodd;fill:url(#SVGID_00000141424314059140227620000018298586936594755983_)"/><path d="m114.3 73.7 1.7.2-.2 1.1-1.7-.2z" class="st111"/><linearGradient id="SVGID_00000168098568609128609610000015301136024715731609_" x1="-275.106" x2="-276.825" y1="486.215" y2="486.461" gradientTransform="matrix(1.9 0 0 -3.2 874.901 1689.598)" gradientUnits="userSpaceOnUse"><stop offset="0" style="stop-color:#7e7e7e"/><stop offset="1" style="stop-color:#d6d6d6"/></linearGradient><path d="m114.1 74.8 1.7.2-.3 2.6-1 .8-.6-.4-.2-.7z" style="fill-rule:evenodd;clip-rule:evenodd;fill:url(#SVGID_00000168098568609128609610000015301136024715731609_)"/><linearGradient id="SVGID_00000002385133164524296780000004132241525372038311_" x1="-631.253" x2="-628.653" y1="475.219" y2="469.515" gradientTransform="matrix(4.7 0 0 -6 3263.31 3468.805)" gradientUnits="userSpaceOnUse"><stop offset="0" style="stop-color:#a31e00"/><stop offset=".29" style="stop-color:#ef4923"/></linearGradient><path d="m100.2 62.6-1.3 1.3-1.9.2-.7-.3-.3-.5.1-1.5-1.2-2.8.3-1 .3.6.9-.1.6-.6-.2-.6 1 .4 1.3 2.8 1 .7z" style="fill-rule:evenodd;clip-rule:evenodd;fill:url(#SVGID_00000002385133164524296780000004132241525372038311_)"/><radialGradient id="SVGID_00000075849012444274844280000003553881090914589611_" cx="-634.218" cy="307.508" r="2.3" gradientTransform="matrix(2.2 0 0 -2.9 1115.504 1479.901)" gradientUnits="userSpaceOnUse"><stop offset=".18" style="stop-color:#a31e00"/><stop offset=".94" style="stop-color:#ef4923"/></radialGradient><path d="m96.8 57.4.2.6-.6.6-.9.1-.2-.7-.7-2.1 1.1-.6.4.6z" style="fill-rule:evenodd;clip-rule:evenodd;fill:url(#SVGID_00000075849012444274844280000003553881090914589611_)"/><linearGradient id="SVGID_00000021801951202366188040000016200822449815109249_" x1="-649.346" x2="-646.79" y1="477.194" y2="471.925" gradientTransform="matrix(5.4 0 0 -6.8 3866.501 3986.302)" gradientUnits="userSpaceOnUse"><stop offset="0" style="stop-color:#a31e00"/><stop offset=".29" style="stop-color:#ef4923"/></linearGradient><path d="m102.8 68.7-1.5 1.2-.7.2h-1.7l-.8-.6-.4-1 .4-.9v-1.1L97 64.1l1.7-.1 1.3-1.3 1.6 3.1 1.5.9z" style="fill-rule:evenodd;clip-rule:evenodd;fill:url(#SVGID_00000021801951202366188040000016200822449815109249_)"/><linearGradient id="SVGID_00000068669515077870858940000010912044577127594647_" x1="-687.316" x2="-683.744" y1="486.541" y2="479.308" gradientTransform="matrix(7.3 0 0 -9 5501.102 5401.99)" gradientUnits="userSpaceOnUse"><stop offset="0" style="stop-color:#a31e00"/><stop offset=".29" style="stop-color:#ef4923"/></linearGradient><path d="m106.1 77.8-2.3 1-1.8-.2-1-.6-.8-1.6.7-1.2.2-1.2-.3-1.9-.9-1.9 1.6-.2 1.5-1.2 2.1 3.3 2.8 1.7.2 1.1-.3 1.1-.8 1.2z" style="fill-rule:evenodd;clip-rule:evenodd;fill:url(#SVGID_00000068669515077870858940000010912044577127594647_)"/><linearGradient id="SVGID_00000112608349384170072770000005533511275224417162_" x1="-443.133" x2="-444.718" y1="528.431" y2="527.694" gradientTransform="matrix(2.4 0 0 -3.2 1296.601 1693.298)" gradientUnits="userSpaceOnUse"><stop offset="0" style="stop-color:#7e7e7e"/><stop offset="1" style="stop-color:#d6d6d6"/></linearGradient><path d="m105 79.6 1.6-.7 1.1 2.3-.4 1.2-1.2-.6z" style="fill-rule:evenodd;clip-rule:evenodd;fill:url(#SVGID_00000112608349384170072770000005533511275224417162_)"/><path d="m106.5 78.9-1.6.7-.4-1.1 1.6-.7z" class="st111"/><radialGradient id="SVGID_00000174601774032152048210000011037208191724398501_" cx="-629.558" cy="296.012" r="2.3" gradientTransform="matrix(2.2 0 0 -2.8 1121.304 1419.2)" gradientUnits="userSpaceOnUse"><stop offset=".18" style="stop-color:#a31e00"/><stop offset=".94" style="stop-color:#ef4923"/></radialGradient><path d="m103.3 61.2.2.4-.6.7h-.9l-1-2.7.3-.3.8-.1.4.4z" style="fill-rule:evenodd;clip-rule:evenodd;fill:url(#SVGID_00000174601774032152048210000011037208191724398501_)"/><linearGradient id="SVGID_00000034794211902896433070000016139110823494469544_" x1="-624.66" x2="-622.059" y1="468.389" y2="462.674" gradientTransform="matrix(4.6 0 0 -5.9 3183.312 3408.106)" gradientUnits="userSpaceOnUse"><stop offset="0" style="stop-color:#a31e00"/><stop offset=".29" style="stop-color:#ef4923"/></linearGradient><path d="m106.5 66.4-.6.7-1.6.7-1.7-.3-.2-.4.1-1.5-1.1-2.7.3-1.1.2.6h.9l.7-.7-.2-.4.9.3 1.5 2.8.9.8z" style="fill-rule:evenodd;clip-rule:evenodd;fill:url(#SVGID_00000034794211902896433070000016139110823494469544_)"/><linearGradient id="SVGID_00000167393064121885739150000009350706057403656095_" x1="-649.465" x2="-646.909" y1="470.624" y2="465.355" gradientTransform="matrix(5.5 0 0 -6.7 3958.3 3925.603)" gradientUnits="userSpaceOnUse"><stop offset="0" style="stop-color:#a31e00"/><stop offset=".29" style="stop-color:#ef4923"/></linearGradient><path d="m109.4 72.4-1.6 1.2-2.2.2-.8-.6-.6-1 .6-2-1.2-2.6 1.6-.1 1.3-1.2 1.2 2.6 2 1.5z" style="fill-rule:evenodd;clip-rule:evenodd;fill:url(#SVGID_00000167393064121885739150000009350706057403656095_)"/><linearGradient id="SVGID_00000042013093193431050260000012752382039074909369_" x1="-683.021" x2="-679.46" y1="480.99" y2="473.757" gradientTransform="matrix(7.2 0 0 -9 5421.104 5405.295)" gradientUnits="userSpaceOnUse"><stop offset="0" style="stop-color:#a31e00"/><stop offset=".29" style="stop-color:#ef4923"/></linearGradient><path d="m112.6 81.5-2.3 1-1.5-.1-1.2-.7-.8-1.5.7-1.5.1-1.2-.3-1.8-.8-1.9 1.5-.2 1.6-1.2 2 3.3.9.8 1.9.9.2 1.1-.6 1.5z" style="fill-rule:evenodd;clip-rule:evenodd;fill:url(#SVGID_00000042013093193431050260000012752382039074909369_)"/><path d="m113 82.6-1.5.8-.6-1.1 1.6-.8z" class="st111"/><linearGradient id="SVGID_00000030452257875328661040000004771117391227254674_" x1="-422.679" x2="-424.253" y1="525.71" y2="524.984" gradientTransform="matrix(2.3 0 0 -3.1 1216.603 1632.499)" gradientUnits="userSpaceOnUse"><stop offset="0" style="stop-color:#7e7e7e"/><stop offset="1" style="stop-color:#d6d6d6"/></linearGradient><path d="m111.6 83.4 1.5-.8 1.1 2.2-.4 1.2h-.8l-.4-.4z" style="fill-rule:evenodd;clip-rule:evenodd;fill:url(#SVGID_00000030452257875328661040000004771117391227254674_)"/><path d="m116.5 139.3-2.5-.2-4.6-1.8L42 98.4 40.2 96v-2.3l.6-1.2 3.1-2.6 6.8-3.8 1.5.8-.1 1.7-8.1 4.9-1 1.3 1 1.5 67 38.5 3.7 1.5h3.8l1.9-.6 34.4-19.6h1.6l.8 1.3-.9 1.2-32.6 18.8-2.2 1.1z" class="st4"/><path d="m116.5 132.9-4.8-.9-2.2-1.1L42 92l-1.8-2.3v-2.5l.6-1.1 3.1-2.6 6.8-3.8 1.5.8-.1 1.5-8.1 5-1 1.3 1 1.5 67 38.5 3.7 1.5h3.8l1.9-.6 34.4-19.6h1.6l.8 1.3-.9 1.2-32.6 18.8-2.2 1.1z" class="st4"/><path d="m56.1 112.1-1-.4-.4-1V98.8l.9-1.3h1.1l.9 1.3v11.8l-.4 1zm-14.6-10.6-1-.4-.5-1.2V88.2l.9-1.3H42l.9 1.3v11.7l-.4 1.1zm31.1 19.8-1-.4-.4-1v-11.7l.9-1.3h1.1l.9 1.3v11.7l-.4 1zm21.9 13.8-1-.4-.4-1V122l.1-.8 1.3-.8.8.2.7 1.3v11.7l-.4 1zm20.7 9.6-1-.4-.4-1v-11.7l.4-1.1 1-.3 1.1.3.4 1.1v11.7l-.4 1zm16.4-6.6-1.1-.4-.3-1V125l.3-1.1 1.1-.3 1 .3.4 1.1v11.7l-.4 1zm13.9-8.2-1.1-.4-.4-1.1v-11.7l.9-1.3h1.2l.9 1.3v11.7l-.4 1.1zm0-17.8-1.1-.4-.4-1V98.8l.4-1 1.1-.4 1 .4.4 1v11.8l-.4 1zM83.6 77.5l-1-.4-.4-1V64.3l.9-1.3h1.1l.9 1.3V76l-.4 1z" class="st4"/><path d="m80.9 48.9-1-.4-.4-1 2.8-6.4 2.6-4.1 2.3-2.9 2.2-2 2.2-1.1 2.1-.4H96l2.3.8 2.5 1.6 2.7 2.5 2.9 3.8v1.6l-.9.7-1.1-.2-2.9-3.6-2.2-2.1-1.9-1.7-1.8-.7h-1.7l-1.8.4-1.9 1.3-2.2 2.4-3.8 6-2 4.6-.6.6z" class="st147"/><path d="m89.2 53-1.1-.4-.3-1 3.5-7 2.9-4.6 2.7-3 2.3-1.9 2.1-1 1.9-.2 1.9.2 1.9.9 1.8 1.6 2 2.5 2 3.7-.2 1.6-1.1.6-1-.4-2.1-3.8-2.3-2.7-1.3-.8-1.5-.3-1.2.2-1.8.9-1.8 1.7-2.5 3-2.3 3.8-3 5.9-.7.3z" class="st147"/><path d="m95.8 57.8-1.3-.7v-1.5l3.7-6.8 3.2-4.8 2.8-3.1 2.5-1.9 2.2-.9 2-.2 1.9.3 1.8.9 1.8 1.7 1.9 2.6 1.8 3.8v1l-.8.8-1.6-.2-2-3.9-2.2-2.8-1.3-.9-1.3-.3-1.5.2-1.9 1-1.9 1.7-2.6 3.1-2.6 3.9-3.4 6.1-.4.7z" class="st147"/><path d="m102.3 60.1-1.1-.6-.3-1 3.7-6.7 3.1-4.2 2.7-2.9 2.3-1.8 2.1-1 2.2-.2 1.9.3 1.9.9 1.8 1.7 1.9 2.5 1.9 3.7-.3 1.6-1 .4-1-.4-2.3-4-1.7-2.2-1.6-1.1-1.5-.3-1.5.2-1.9.9-1.8 1.6-2.6 2.9-5.7 9.2z" class="st147"/></svg>