<svg xmlns="http://www.w3.org/2000/svg" viewBox="0 0 1024 1024"><path d="M455.911 287.315a18.267 18.267 0 0 0-23.783-10.042 213.72 213.72 0 0 0-126.15 144.12 18.267 18.267 0 0 0 35.344 9.116 177.02 177.02 0 0 1 104.514-119.411 18.267 18.267 0 0 0 10.075-23.783m177.78 510.81c0 13.445-10.9 24.345-24.345 24.345H414.654a24.279 24.279 0 1 1-1.387-48.557C398.072 636.994 256.429 635.87 256.429 474.64a255.57 255.57 0 0 1 511.142 0c0 161.23-141.676 162.353-156.805 299.272 12.784.76 22.925 11.23 22.925 24.212zm119.246-552.299a24.25 24.25 0 0 0 17.21-7.102l68.872-68.872a24.345 24.345 0 1 0-34.386-34.387l-68.872 68.84a24.345 24.345 0 0 0 17.21 41.521zm197.203 192.28h-97.38a24.345 24.345 0 0 0 0 48.69h97.347a24.345 24.345 0 0 0 0-48.69zM770.147 686.18a24.345 24.345 0 1 0-34.42 34.42l68.873 68.839a24.246 24.246 0 0 0 34.386 0 24.345 24.345 0 0 0 0-34.387zm-516.294 0-68.872 68.872a24.345 24.345 0 0 0 34.42 34.387l68.872-68.84a24.345 24.345 0 1 0-34.42-34.419M195.55 462.452a24.345 24.345 0 0 0-24.345-24.345H73.893a24.345 24.345 0 0 0 0 48.69h97.346c13.444 0 24.345-10.901 24.345-24.345zm58.269-223.728a24.213 24.213 0 0 0 34.42 0 24.345 24.345 0 0 0 0-34.42l-68.84-68.872a24.345 24.345 0 1 0-34.42 34.42l68.873 68.872zM512 146.003c13.444 0 24.345-10.901 24.345-24.345V24.345a24.345 24.345 0 0 0-48.69 0v97.346c0 13.444 10.9 24.345 24.345 24.345zm97.346 766.843H414.654a24.444 24.444 0 0 0-23.123 32.273c3.238 10.14 13.51 16.384 24.114 16.384h.396c14.039 0 26.889 7.96 33.198 20.546l.23.496a50.05 50.05 0 0 0 44.76 27.648h35.542c18.96 0 36.27-10.703 44.726-27.648l.264-.496c6.276-12.585 19.159-20.546 33.198-20.546h.363c10.636 0 20.91-6.276 24.114-16.384a24.41 24.41 0 0 0-23.09-32.273m24.345-45.881c0 13.444-10.9 24.344-24.345 24.344H414.654a24.345 24.345 0 0 1 0-48.69h194.692c13.444 0 24.345 10.902 24.345 24.346"/></svg>