<svg xmlns="http://www.w3.org/2000/svg" xmlns:xlink="http://www.w3.org/1999/xlink" width="260" height="221.705"><defs><linearGradient id="e" x1="100%" x2="0%" y1="50%" y2="50%"><stop offset="0%" stop-color="#F09421"/><stop offset="55.489%" stop-color="#F05421"/><stop offset="100%" stop-color="#F09421"/></linearGradient><linearGradient id="f" x1="37.149%" x2="37.149%" y1="10.538%" y2="113.554%"><stop offset="0%" stop-color="#F09421" stop-opacity=".5"/><stop offset="100%" stop-color="#F09421" stop-opacity="0"/></linearGradient><linearGradient id="h" x1="50%" x2="50%" y1="0%" y2="100%"><stop offset="0%" stop-color="#E3364C" stop-opacity="0"/><stop offset="100%" stop-color="#F0C421"/></linearGradient><linearGradient id="k" x1="37.149%" x2="37.149%" y1="10.538%" y2="113.554%"><stop offset="0%" stop-color="#F09421" stop-opacity=".5"/><stop offset="100%" stop-color="#F09421" stop-opacity="0"/></linearGradient><linearGradient id="m" x1="50%" x2="50%" y1="27.926%" y2="100%"><stop offset="0%" stop-color="#F07600" stop-opacity="0"/><stop offset="100%" stop-color="#FFE60C"/></linearGradient><linearGradient id="n" x1="100%" x2="3.817%" y1="50%" y2="50%"><stop offset="0%" stop-color="#F59A06" stop-opacity=".6"/><stop offset="49.577%" stop-color="#FFB558" stop-opacity=".8"/><stop offset="100%" stop-color="#E4910A" stop-opacity=".6"/></linearGradient><linearGradient id="o" x1="37.149%" x2="37.149%" y1="10.538%" y2="115.415%"><stop offset="0%" stop-color="#F09421" stop-opacity=".5"/><stop offset="100%" stop-color="#FFB353" stop-opacity="0"/></linearGradient><linearGradient id="p" x1="50%" x2="50%" y1="0%" y2="100%"><stop offset="0%" stop-color="#FFB353" stop-opacity="0"/><stop offset="100%" stop-color="#FFE553"/></linearGradient><linearGradient id="r" x1="37.149%" x2="37.149%" y1="10.538%" y2="115.699%"><stop offset="0%" stop-color="#FFB353" stop-opacity=".5"/><stop offset="100%" stop-color="#FFB353" stop-opacity="0"/></linearGradient><linearGradient id="s" x1="50%" x2="50%" y1="0%" y2="99.189%"><stop offset="0%" stop-color="#FFB353" stop-opacity="0"/><stop offset="100%" stop-color="#FFD353"/></linearGradient><linearGradient id="w" x1="50%" x2="50%" y1="0%" y2="100%"><stop offset="0%" stop-color="#E3AE36" stop-opacity="0"/><stop offset="100%" stop-color="#FFDD2C"/></linearGradient><linearGradient id="A" x1="50%" x2="50%" y1="0%" y2="100%"><stop offset="0%" stop-color="#E87F25"/><stop offset="100%" stop-color="#B04608"/></linearGradient><linearGradient id="B" x1="50%" x2="50%" y1="0%" y2="100%"><stop offset="0%" stop-color="#E87F25"/><stop offset="100%" stop-color="#B04608"/></linearGradient><linearGradient id="C" x1="50%" x2="50%" y1="0%" y2="100%"><stop offset="0%" stop-color="#E87F25"/><stop offset="100%" stop-color="#B04608"/></linearGradient><radialGradient id="g" cx="50%" cy="50%" r="50%" fx="50%" fy="50%" gradientTransform="matrix(0 1 -1.00348 0 1.002 0)"><stop offset="0%" stop-color="#F09421" stop-opacity="0"/><stop offset="86.69%" stop-color="#F09421" stop-opacity="0"/><stop offset="100%" stop-color="#F09421" stop-opacity=".188"/></radialGradient><radialGradient id="u" cx="50%" cy="100%" r="27.544%" fx="50%" fy="100%" gradientTransform="matrix(0 -1 2.1958 0 -1.696 1.5)"><stop offset="0%" stop-color="#FFE0A2" stop-opacity=".951"/><stop offset="100%" stop-color="#775528" stop-opacity="0"/></radialGradient><radialGradient id="v" cx="50%" cy="100%" r="106.306%" fx="50%" fy="100%" gradientTransform="matrix(0 -1 1.07442 0 -.574 1.5)"><stop offset="0%" stop-color="#FFAF0F" stop-opacity=".3"/><stop offset="100%" stop-color="#775528" stop-opacity="0"/></radialGradient><radialGradient id="z" cx="50%" cy="100%" r="43.678%" fx="50%" fy="100%" gradientTransform="matrix(0 1 -1.06954 0 1.57 .5)"><stop offset="0%" stop-color="#FFF"/><stop offset="100%" stop-color="#FFF" stop-opacity="0"/></radialGradient><radialGradient id="E" cx="22.698%" cy="13.242%" r="98.03%" fx="22.698%" fy="13.242%" gradientTransform="matrix(.57659 .80535 -.81704 .56834 .204 -.126)"><stop offset="0%" stop-color="#FFEA17" stop-opacity=".795"/><stop offset="100%" stop-color="#FFA617" stop-opacity=".773"/></radialGradient><radialGradient id="F" cx="18.588%" cy="15.786%" r="77.92%" fx="18.588%" fy="15.786%" gradientTransform="matrix(.6649 .73625 -.54571 .47883 .148 -.055)"><stop offset="0%" stop-color="#FFD217" stop-opacity=".5"/><stop offset="100%" stop-color="#FFB417" stop-opacity="0"/></radialGradient><radialGradient id="G" cx="90.774%" cy="84.762%" r="47.614%" fx="90.774%" fy="84.762%" gradientTransform="matrix(-.2969 -.94125 1.55468 -.47648 -.14 2.106)"><stop offset="0%" stop-color="#FFC855"/><stop offset="100%" stop-color="#FFB417" stop-opacity="0"/></radialGradient><radialGradient id="H" cx="28.416%" cy="10.239%" r="77.92%" fx="28.416%" fy="10.239%" gradientTransform="matrix(.6649 .73625 -.77741 .68213 .175 -.177)"><stop offset=".155%" stop-color="#FFFAE2"/><stop offset="100%" stop-color="#FFB417" stop-opacity="0"/></radialGradient><path id="a" d="M220.193 13.476c51.668 18.804 53.174 50.314 3.336 70.407-49.838 20.094-132.15 21.068-183.785 2.264-51.636-18.804-53.174-50.325-3.347-70.407C86.224-4.343 168.514-5.328 220.193 13.476"/><path id="b" d="M97.486 75.118c53.713 0 97.255-16.68 97.255-37.254C194.741 17.289 151.2.61 97.486.61S.232 17.29.232 37.864c0 20.575 43.542 37.254 97.254 37.254"/><path id="c" d="M97.486 61.87c36.259 0 65.653-11.26 65.653-25.15 0-13.888-29.394-25.147-65.653-25.147S31.834 22.832 31.834 36.72s29.393 25.148 65.652 25.148"/><path id="d" d="m227.114 12 .003 113.354q.106.85.112 1.709c.128 20.496-43.247 37.384-96.881 37.721S33.129 148.779 33 128.284q-.006-.955.113-1.9L33.114 12z"/><path id="D" d="M116.78 82.5c6.862 10.158 2.397 20.258-9.986 22.427l-84.326 14.88c-12.34 2.168-17.961-6.135-12.483-18.504l37.348-84.34c2.725-6.178 6.62-9.702 10.686-10.415s8.302 1.427 11.74 6.448zM67.306 64.127l-1.427-23.61a5.08 5.08 0 0 0-5.963-4.936 6.634 6.634 0 0 0-5.221 6.89l1.426 23.639a5.08 5.08 0 0 0 5.978 4.907 6.65 6.65 0 0 0 5.235-6.89m-3.752 30.53a6.68 6.68 0 0 0 5.236-6.92 5.08 5.08 0 0 0-6.049-4.907 6.634 6.634 0 0 0-5.193 6.89 5.08 5.08 0 0 0 5.978 4.936"/><mask id="i" width="259.947" height="99.627" x="0" y="0" fill="#fff" maskContentUnits="userSpaceOnUse" maskUnits="objectBoundingBox"><use xlink:href="#a"/></mask><mask id="q" width="194.509" height="74.507" x="0" y="0" fill="#fff" maskContentUnits="userSpaceOnUse" maskUnits="objectBoundingBox"><use xlink:href="#b"/></mask><mask id="t" width="131.305" height="50.296" x="0" y="0" fill="#fff" maskContentUnits="userSpaceOnUse" maskUnits="objectBoundingBox"><use xlink:href="#c"/></mask><mask id="y" width="194.229" height="152.789" x="0" y="0" fill="#fff" maskContentUnits="userSpaceOnUse" maskUnits="objectBoundingBox"><use xlink:href="#d"/></mask><filter id="l" width="111.2%" height="129.3%" x="-5.6%" y="-14.6%" filterUnits="objectBoundingBox"><feGaussianBlur in="SourceGraphic" stdDeviation="4"/></filter><filter id="I" width="101.8%" height="101.8%" x="-.9%" y="-.9%" filterUnits="objectBoundingBox"><feGaussianBlur in="SourceAlpha" result="shadowBlurInner1" stdDeviation=".5"/><feOffset dx="1" dy="1" in="shadowBlurInner1" result="shadowOffsetInner1"/><feComposite in="shadowOffsetInner1" in2="SourceAlpha" k2="-1" k3="1" operator="arithmetic" result="shadowInnerInner1"/><feColorMatrix in="shadowInnerInner1" result="shadowMatrixInner1" values="0 0 0 0 1 0 0 0 0 0.909847124 0 0 0 0 0.681340511 0 0 0 1 0"/><feOffset dx="-1" dy="-1" in="SourceAlpha" result="shadowOffsetInner2"/><feComposite in="shadowOffsetInner2" in2="SourceAlpha" k2="-1" k3="1" operator="arithmetic" result="shadowInnerInner2"/><feColorMatrix in="shadowInnerInner2" result="shadowMatrixInner2" values="0 0 0 0 1 0 0 0 0 1 0 0 0 0 1 0 0 0 1 0"/><feMerge><feMergeNode in="shadowMatrixInner1"/><feMergeNode in="shadowMatrixInner2"/></feMerge></filter></defs><g fill="none" fill-rule="evenodd"><path fill="url(#e)" fill-rule="nonzero" d="M259.913 60.963c0-.477.076-.964.087-1.44v-.531l-.065-10.009v.53c0 .488 0 .965-.087 1.452q.009.12 0 .239a19 19 0 0 1-.238 1.603c0 .13-.054.249-.087.379-.086.455-.205.899-.325 1.354l-.065.216a31 31 0 0 1-.509 1.517c-.054.13-.108.26-.151.39-.163.4-.336.812-.531 1.213 0 .097-.087.206-.14.303-.228.488-.488.975-.76 1.463l-.194.346c-.228.39-.466.77-.704 1.148-.087.13-.173.26-.25.39-.324.477-.66.954-1.017 1.43a.8.8 0 0 1-.12.152c-.325.433-.671.866-1.029 1.289-.108.13-.216.27-.335.4-.347.412-.715.824-1.084 1.225l-.195.216c-.455.477-.931.953-1.419 1.42-.13.118-.26.237-.379.367-.422.39-.845.78-1.289 1.17l-.336.293a59 59 0 0 1-1.743 1.44l-.423.325c-.53.423-1.083.834-1.657 1.246l-.336.25c-.704.508-1.44 1.007-2.166 1.505l-.488.325c-.78.498-1.57.996-2.394 1.495l-.184.108a97 97 0 0 1-3.022 1.733l-.173.097c-1.03.564-2.112 1.084-3.25 1.669l-.487.249-1.203.585-.888.422-1.31.596-.856.39-1.495.65-.747.325-2.318.964c-.759.303-1.56.595-2.34.888-1.083.4-2.058.79-3.109 1.17-.704.26-1.43.498-2.166.747l-3.076 1.083-2.297.715-3.12.943-2.404.671-3.196.867-2.448.617-3.455.823c-.801.185-1.603.38-2.415.553-1.224.27-2.448.52-3.683.769l-2.34.477c-1.159.227-2.318.433-3.488.65l-2.47.444c-1.245.216-2.513.411-3.78.606-.758.12-1.505.25-2.264.358-1.527.227-3.054.433-4.592.628l-1.56.216c-2.058.26-4.138.51-6.229.726l-1.44.141c-1.625.162-3.25.325-4.885.466l-2.34.173c-1.343.108-2.686.217-4.03.303-1.343.087-3 .185-4.495.26l-1.278.076c-1.96.098-3.91.173-5.87.238h-1.084l-4.582.098h-7.582c-1.874 0-3.737 0-5.6-.087a383 383 0 0 1-7.908-.292l-2.166-.12a291 291 0 0 1-6.196-.39l-1.636-.118a272 272 0 0 1-7.452-.683l-1.711-.184a250 250 0 0 1-5.893-.704l-2.101-.27a472 472 0 0 1-7.442-1.084 198 198 0 0 1-5.167-.91l-1.473-.27-3.693-.737-1.712-.358a243 243 0 0 1-4.04-.91l-1.083-.238a211 211 0 0 1-5.156-1.289c-.282-.076-.542-.162-.824-.227-1.397-.38-2.783-.77-4.148-1.17-1.192-.347-2.35-.715-3.52-1.083-.585-.185-1.181-.358-1.766-.553a166 166 0 0 1-5.102-1.755l-1.44-.541-1.17-.444-1.214-.477-1.083-.444-1.17-.487-1.083-.455-1.083-.51-1.083-.454-1.083-.51-1.019-.476c-.357-.163-.693-.336-1.083-.51l-1.007-.487-.997-.509-.964-.498-.975-.53-.91-.5-.931-.53-.888-.509-.878-.53-.855-.531-.845-.542-.813-.52-.812-.563-.77-.52-.768-.563-.737-.531-.736-.574-.694-.531-.693-.585a15 15 0 0 1-.66-.542c-.217-.184-.434-.379-.661-.574l-.618-.552-.606-.574c-.195-.184-.401-.368-.585-.563l-.585-.585-.542-.553c-.184-.206-.368-.4-.541-.606l-.542-.564-.498-.606c-.152-.184-.314-.369-.466-.563-.152-.195-.314-.401-.466-.607-.151-.206-.292-.368-.422-.563l-.433-.607-.39-.563-.39-.628-.347-.564c-.13-.216-.238-.422-.357-.639l-.304-.552c-.108-.206-.206-.423-.314-.64l-.27-.552a16 16 0 0 1-.271-.639l-.239-.563c-.086-.217-.162-.444-.238-.66l-.195-.542-.195-.672c0-.173-.108-.357-.152-.542-.043-.184-.119-.465-.162-.704s-.087-.335-.12-.498a13 13 0 0 1-.118-.736c-.033-.25-.065-.315-.087-.477-.022-.163 0-.498-.076-.747-.076-.25 0-.315 0-.466v-1.224l.065 10.008v1.679c0 .152 0 .499.076.748s0 .325.087.487c.086.163.065.488.119.726s.076.336.108.51l.162.703.163.542c.065.227.12.444.195.671s.13.358.195.542.152.433.238.66c.087.228.163.369.239.564s.173.422.27.639.174.368.271.552.206.423.314.64c.109.216.195.368.304.541s.227.433.357.65.227.368.347.552.249.423.39.629c.14.205.26.379.39.563l.422.617.433.564.466.606c.152.195.314.38.466.563l.498.607.498.552.553.596.53.553.585.595.585.553.618.585.606.541.672.585c.206.184.433.358.65.542l.704.574.693.542c.238.184.477.379.737.563l.736.541.77.553c.248.184.508.357.768.53l.813.553.801.52.856.552.845.51c.292.184.585.368.888.541l.878.51.942.54.92.5.965.519.953.498 1.007.52.986.477 1.083.52 1.018.476 1.084.499 1.083.476 1.083.488c.357.162.737.314 1.083.465l1.16.477c.378.162.768.303 1.147.455.38.152.791.325 1.203.477l1.17.444 1.083.39.39.151c1.668.607 3.38 1.192 5.101 1.755l1.755.542c1.17.368 2.34.747 3.531 1.083l.315.097c1.256.369 2.523.715 3.802 1.083l.855.228c1.614.433 3.25.845 4.918 1.246l.238.054 1.083.238c1.333.314 2.676.618 4.04.9.564.13 1.084.248 1.712.357l1.83.39 1.853.346 1.484.282c1.711.314 3.423.617 5.156.91 2.448.4 4.94.758 7.442 1.083l.888.13 1.202.14c1.96.25 3.921.488 5.904.705l1.213.14h.498c2.47.26 4.95.477 7.452.683h.434l1.202.076c2.058.151 4.127.292 6.196.4l1.202.076h.964c2.621.13 5.264.239 7.907.304 1.853 0 3.716.065 5.579.075h7.593c1.527 0 3.055-.054 4.571-.097h1.397c1.874-.065 3.737-.14 5.611-.227l1.268-.076q1.992-.097 3.997-.228h.509c1.343-.086 2.686-.195 4.03-.303.78-.065 1.57-.108 2.339-.184 1.625-.13 3.25-.293 4.83-.455l1.41-.13h.086c2.09-.228 4.16-.466 6.228-.726l1.592-.216 4.55-.629 2.166-.379q1.918-.292 3.802-.617l2.459-.434c1.17-.216 2.34-.422 3.488-.65l.617-.108 1.733-.368 3.683-.77 2.405-.552 3.466-.823 1.083-.27 1.311-.358c1.083-.27 2.166-.563 3.25-.856.801-.227 1.603-.444 2.404-.682l3.109-.932 2.307-.725a41 41 0 0 0 3.066-1.084l2.166-.747c1.083-.38 2.069-.77 3.098-1.17.52-.195 1.083-.379 1.57-.585l.78-.314c.791-.314 1.56-.628 2.318-.953l.77-.336 1.473-.639.877-.4 1.29-.586.887-.433 1.203-.574.227-.108.26-.141c1.083-.553 2.166-1.083 3.25-1.68l.173-.086a64 64 0 0 0 3.022-1.733l.13-.076h.054a83 83 0 0 0 2.394-1.505l.487-.315a63 63 0 0 0 2.167-1.505l.097-.065.239-.184c.574-.412 1.083-.834 1.657-1.246l.422-.325a82 82 0 0 0 1.744-1.44l.098-.087.238-.217c.433-.379.867-.769 1.278-1.159l.39-.368a60 60 0 0 0 1.42-1.43l.15-.162c.38-.412.748-.813 1.084-1.224l.336-.401a36 36 0 0 0 1.029-1.278l.097-.13a25 25 0 0 0 1.257-1.82c.249-.38.487-.77.704-1.148l.152-.239s0-.075.054-.108c.27-.487.53-.975.758-1.462.054-.098.097-.206.14-.304.185-.411.37-.812.52-1.224l.109-.227v-.152q.292-.757.52-1.527v-.217c.13-.444.238-.899.336-1.343q.033-.106.054-.216a1 1 0 0 0 0-.163c.108-.53.195-1.083.249-1.603.228-.097.228-.173.238-.26" opacity=".2" transform="translate(0 112.248)"/><g stroke-dasharray="0,0" stroke-linejoin="round" opacity=".5" transform="translate(0 112.248)"><use xlink:href="#a" fill="url(#f)"/><use xlink:href="#a" fill="url(#g)" stroke="url(#h)" stroke-width="2" mask="url(#i)"/></g><path fill="url(#k)" d="M204.23 19.905c42.527 15.477 43.766 41.412 2.746 57.95S98.208 95.195 55.708 79.72c-42.5-15.477-43.765-41.421-2.754-57.95 41.01-16.53 108.74-17.34 151.276-1.864" filter="url(#l)" opacity=".6" transform="translate(0 112.248)"/><path fill="url(#m)" fill-rule="nonzero" d="M1.484 38.083A19.6 19.6 0 0 0 .065 43.54l21.822.447c.162-1.54.552-3.048 1.157-4.473zM0 46.288a18.6 18.6 0 0 0 1.146 5.456l21.603-1.091a15.3 15.3 0 0 1-.927-4.42H0m91.5 35.625c3.774.447 7.571.818 11.412 1.091l-3.764 8.216a280 280 0 0 1-13.966-1.342zm-16.313-2.619c3.503.71 7.092 1.331 10.748 1.866l-7.55 7.801a234 234 0 0 1-13.149-2.28zm-14.86-3.677c3.175.939 6.382 1.79 9.721 2.575L58.93 85.262c-4.08-.95-8.063-2.04-11.893-3.131l13.279-6.547zm-12.974-4.615 1.954.786a146 146 0 0 0 6.47 2.378l-14.294 6.241q-4.08-1.374-7.888-2.902l-2.368-.982zm-10.649-5.456a74 74 0 0 0 6.82 3.721l-16.967 5.172a89 89 0 0 1-8.336-4.528zm-7.954-6.044a41.6 41.6 0 0 0 4.998 4.091l-19.16 3.907a51.4 51.4 0 0 1-6.11-5.02zm-4.997-6.492a23 23 0 0 0 3 4.364l-20.73 2.51a28.5 28.5 0 0 1-3.677-5.336zm191.89-14.96a18.2 18.2 0 0 1 1.965 4.442l21.701-.786a22.2 22.2 0 0 0-2.41-5.455l-21.255 1.767M108.717 83.287l-2.488 8.293q7.135.338 14.326.37l-.098-8.357c-3.917 0-7.845-.12-11.74-.306m109.338-38.624a14.5 14.5 0 0 1-.12 4.495l21.767.698c.337-1.8.388-3.64.153-5.455l-21.822.294m-91.695 38.876 1.396 8.347c4.768-.088 9.526-.284 14.24-.6L138 83.08q-5.793.37-11.663.49m91.019-32.154a19 19 0 0 1-2.182 4.365l21.145 2.182a23.3 23.3 0 0 0 2.706-5.38l-21.647-1.2m-62.444 29.962 7.769 7.856A272 272 0 0 1 149 90.772l-5.26-8.14h-.01c3.797-.338 7.54-.763 11.205-1.287m15.843-2.87 11.304 7.18a222 222 0 0 1-12.733 2.498l-8.958-7.637c3.535-.6 7.005-1.277 10.387-2.04m14.14-3.862 14.447 6.34c-3.656 1.156-7.398 2.269-11.293 3.273l-12.34-6.903 1.296-.343a144 144 0 0 0 6.609-1.948zm12.123-4.877 17.108 5.28q-4.408 2.118-9.558 4.049l-15.385-6.012a87 87 0 0 0 7.835-3.274zm9.667-5.587 19.257 4.037a71 71 0 0 1-7.495 4.649l-17.894-4.889a58 58 0 0 0 6.132-3.797m6.863-6.175 20.73 2.651a39.5 39.5 0 0 1-5.171 5.096l-19.804-3.58a33.4 33.4 0 0 0 4.234-4.167zM6.754 30.129l20.589 2.88a25 25 0 0 0-3.208 4.3l-21.31-1.92a30.6 30.6 0 0 1 3.929-5.26m8.947-7.452 18.941 4.244a44.6 44.6 0 0 0-5.182 4.005l-20.12-3.35a54 54 0 0 1 6.36-4.899m12.286-6.7.032.012 16.716 5.455a78 78 0 0 0-7.038 3.568l-18.265-4.67a95 95 0 0 1 8.555-4.364m15.231-5.782 13.977 6.546a135 135 0 0 0-5.357 1.823c-1.113.403-2.182.807-3.219 1.222l-15.853-5.838a134 134 0 0 1 3.917-1.484l-.011-.087a493 493 0 0 1 6.546-2.182m17.687-4.54 10.725 7.333c-3.35.71-6.634 1.517-9.82 2.4L48.86 8.591h.043q5.804-1.626 12.002-2.935m19.618-3.294 7.168 7.987c-3.677.48-7.3 1.036-10.845 1.68L67.255 4.39a266 266 0 0 1 13.268-2.03M101.406.484l3.339 8.27c-3.83.219-7.638.513-11.446.895l-5.913-8.074q6.95-.71 14.02-1.09m7.136-.305 2.062 8.325a248 248 0 0 1 11.74-.088l.535-8.39c-4.79-.066-9.58 0-14.337.12m21.494.098-1.822 8.325c3.906.142 7.79.382 11.631.698l4.365-8.16q-7.05-.59-14.184-.863m100.195 28.15a38 38 0 0 1 4.844 5.15l-20.916 2.259a32 32 0 0 0-3.452-3.764l-.484-.439zm-10.344-7.365a68 68 0 0 1 7.245 4.79l-19.476 3.666a57 57 0 0 0-5.914-3.895v-.01zm-13.673-6.543.176.073q5.031 2.04 9.318 4.223l-17.38 4.953a85 85 0 0 0-7.639-3.458l-.152-.066zm-16.266-5.47a160 160 0 0 1 11.129 3.525l-14.752 6.077a134 134 0 0 0-9.121-2.891zm-18.55-4.298q6.46 1.21 12.592 2.673l-11.642 7.016a227 227 0 0 0-10.278-2.183zm-20.173-2.946v.032c4.604.502 9.154 1.102 13.606 1.812l-8.13 7.714a241 241 0 0 0-11.14-1.484z" transform="translate(10 114)"/><path fill="url(#n)" fill-rule="nonzero" d="M194.823 58.61v-.24l-.137-21.124a12 12 0 0 1-.092 1.692v.331c-.057.423-.126.846-.228 1.28 0 .16-.08.32-.115.47-.103.4-.217.788-.354 1.142 0 .137-.092.286-.149.423a15 15 0 0 1-.651 1.532 2 2 0 0 1-.149.286c-.217.434-.446.857-.697 1.28-.092.149-.183.286-.263.434-.297.469-.617.938-.96 1.395l-.092.137a28 28 0 0 1-1.223 1.509l-.366.4c-.354.4-.731.789-1.143 1.143l-.366.377a34 34 0 0 1-1.611 1.464l-.378.308c-.457.389-.948.778-1.451 1.143l-.606.469-1.429 1.017-.709.48c-.617.412-1.257.823-1.909 1.224l-.354.217c-.823.503-1.68.983-2.572 1.474l-.663.343-2.092 1.143-2.115.995-1.063.491c-1.143.492-2.286.972-3.429 1.452-.572.229-1.143.446-1.749.663-.777.297-1.543.595-2.286.88l-1.612.56-2.286.766-1.726.549-2.286.697-1.84.572c-.79.228-1.59.434-2.401.651l-1.818.458a95 95 0 0 1-2.595.617c-.594.137-1.2.286-1.806.411-.914.206-1.829.39-2.755.583l-1.749.355q-1.302.251-2.606.48l-1.852.331-2.835.458-1.691.274-3.43.469-1.143.16c-1.543.194-3.098.377-4.664.537l-1.051.103c-1.223.126-2.447.251-3.681.354l-1.749.137c-1.006.08-2.012.16-3.018.218s-2.286.137-3.43.205h-.936q-2.16.103-4.321.172a248 248 0 0 1-6.516.114h-1.52c-2.035 0-4.081 0-6.116-.068-1.978 0-3.955-.126-5.921-.218l-1.623-.091c-1.544-.08-3.087-.183-4.63-.297l-1.223-.08a213 213 0 0 1-5.578-.515c-.435 0-.858-.091-1.28-.137-1.475-.16-2.95-.331-4.413-.526l-1.566-.205a203 203 0 0 1-5.567-.824c-1.898-.308-3.76-.651-5.601-1.005l-1.383-.275q-2.96-.594-5.842-1.28c-1.28-.309-2.549-.629-3.795-.96l-.651-.172-3.075-.869-2.618-.811c-.446-.137-.892-.263-1.326-.412a107 107 0 0 1-3.818-1.314l-2-.766c-.572-.217-1.143-.434-1.715-.663-.571-.229-1.143-.492-1.737-.743-.595-.252-1.144-.446-1.6-.686-.458-.24-1.087-.503-1.624-.766l-1.486-.709c-.526-.262-1.017-.537-1.509-.8-.491-.263-.937-.48-1.372-.731-.434-.252-.937-.549-1.406-.823-.468-.275-.846-.492-1.246-.743-.4-.252-.868-.56-1.291-.846s-.778-.503-1.143-.766l-1.144-.857c-.342-.263-.708-.526-1.04-.79-.331-.262-.697-.582-1.04-.88l-.926-.788c-.331-.309-.617-.617-.926-.915-.308-.297-.56-.537-.811-.8-.252-.263-.538-.617-.812-.926-.274-.308-.48-.537-.697-.811-.217-.275-.469-.64-.698-.96s-.4-.526-.571-.79c-.172-.262-.4-.662-.595-.994s-.32-.526-.457-.788c-.137-.263-.32-.675-.468-1.018-.15-.343-.252-.514-.355-.777s-.24-.72-.354-1.143c-.115-.423-.172-.48-.229-.709a23 23 0 0 1-.24-1.212c0-.194-.091-.4-.126-.605a16 16 0 0 1-.125-1.818l.137 21.113q.003.913.126 1.818c0 .205.08.411.125.617.069.4.126.8.229 1.2s.16.48.24.709.206.731.354 1.143c.149.411.24.514.355.777s.285.675.457 1.018c.171.343.32.525.469.788s.365.652.583.983c.217.332.388.538.583.8.194.264.445.64.697.96s.469.538.697.812c.229.275.526.618.812.915s.537.537.811.811c.275.275.595.606.926.904.332.297.618.525.926.8.309.274.675.583 1.04.88.366.297.698.526 1.04.777.344.252.755.583 1.144.869l1.143.754c.423.286.834.572 1.28.858s.835.491 1.258.743l1.394.823c.446.251.926.491 1.383.731s.983.538 1.498.79l1.497.72c.537.25 1.063.514 1.623.765l1.6.686 1.738.743 1.715.663 1.703.652.286.114a166 166 0 0 0 3.818 1.314l1.337.412c.869.274 1.726.549 2.618.812l.24.068c.926.274 1.886.537 2.835.789l.651.183q1.818.48 3.67.926h.126c1.909.457 3.863.88 5.84 1.28l.664.149.709.125c1.851.355 3.715.709 5.6 1.018 1.841.308 3.704.571 5.568.834l.674.092.892.114 4.423.526.904.103h.365c1.852.183 3.715.354 5.579.503h.331l.903.057c1.532.114 3.075.205 4.63.297l.903.057h.72c1.966.092 3.932.172 5.91.217h7.635c2.173 0 4.344 0 6.505-.114h.137c1.395 0 2.8-.103 4.195-.171h.938l3.006-.172h.377l3.04-.126 1.738-.137c1.235-.103 2.458-.228 3.681-.343l.983-.103h.069c1.554-.171 3.109-.343 4.652-.548l1.143-.16c1.143-.149 2.287-.298 3.43-.47l1.691-.262 2.835-.457 1.84-.332 2.607-.48.469-.091c.434-.08.857-.183 1.291-.275l2.744-.571 1.817-.412 2.584-.617.846-.206 1.017-.251 2.39-.64 1.805-.515 2.286-.697 1.715-.537 2.286-.778 1.612-.56 2.286-.868 1.143-.446.583-.229c1.143-.469 2.286-.96 3.43-1.44l1.063-.503c.72-.332 1.44-.663 2.114-.995l.183-.08 1.91-.994c.216-.114.457-.229.674-.355a72 72 0 0 0 2.503-1.428l.354-.229c.663-.4 1.304-.8 1.91-1.212.25-.16.48-.331.708-.491l.88-.595.549-.423.617-.457c.503-.389.983-.777 1.452-1.143l.377-.32.115-.091a35 35 0 0 0 1.486-1.372l.377-.366.651-.663.47-.514.365-.412q.64-.732 1.143-1.475.05-.06.091-.125c.343-.469.652-.938.95-1.406l.262-.423.263-.423c.16-.286.297-.583.446-.869l.148-.274c.218-.446.412-.903.583-1.35l.069-.193c0-.138.091-.275.137-.412.137-.4.263-.8.366-1.143 0-.16.08-.32.114-.48.035-.16.057-.206.08-.309.057-.331.103-.651.149-.971v-.32q.221-.773.343-1.567" transform="translate(32.497 91)"/><use xlink:href="#b" fill="url(#o)" stroke="url(#p)" stroke-dasharray="0,0" stroke-linejoin="round" stroke-width="2" mask="url(#q)" opacity=".4" transform="rotate(-.36 14596.787 -5088.63)"/><use xlink:href="#c" fill="url(#r)" stroke="url(#s)" stroke-dasharray="0,0" stroke-linejoin="round" stroke-width="2" mask="url(#t)" transform="rotate(-.36 14596.787 -5089.773)"/><g stroke-dasharray="0,0" stroke-linejoin="round"><use xlink:href="#d" fill="url(#u)"/><use xlink:href="#d" fill="url(#v)" stroke="url(#w)" stroke-width="2" mask="url(#y)"/><use xlink:href="#d" stroke="url(#z)" stroke-width="2"/></g><g fill-rule="nonzero"><path fill="url(#A)" d="m68.327 84.74-9.467-7.404a5.4 5.4 0 0 1 2.04 3.824q.055.556 0 1.112.012.171 0 .343-.056.382-.157.756c0 .114 0 .242-.114.37-.114.13-.185.457-.285.685l-.157.314a9 9 0 0 1-.485.785l-.1.128q-.316.423-.699.785l-.157.143q-.369.337-.784.613l-.129.071q-.405.25-.842.443h-.142q-.527.209-1.084.313a6 6 0 0 1-1.013 0h-.257a4.4 4.4 0 0 1-.87-.128h-.1a6 6 0 0 1-.842-.328l-.328-.185a7 7 0 0 1-.67-.443L60 94.161q4.572 2.23 8.021-2.276c1.973-2.576.94-6.597.306-7.145" transform="translate(70)"/><path fill="url(#B)" d="m67.588 63.969-1.603-23.733c0-1.606-1.135-3.278-1.678-3.74l-8.257-6.409a5.5 5.5 0 0 1 1.897 3.88l1.427 23.625q.052.556 0 1.113v.342q-.065.37-.171.728-.045.19-.114.37a5 5 0 0 1-.286.685l-.157.329a7 7 0 0 1-.499.798v.1q-.321.417-.7.785a.7.7 0 0 0-.156.143q-.375.337-.799.613l-.128.071q-.405.25-.842.443h-.143q-.526.211-1.084.313a6 6 0 0 1-1.013 0h-.257a6 6 0 0 1-.87-.128h-.1a4 4 0 0 1-.856-.328l-.313-.171a5.5 5.5 0 0 1-.67-.443l7.535 6.85q2.439 2.167 6.556 0c4.117-2.169 3.316-5.866 3.28-6.236" transform="translate(70)"/><path fill="url(#C)" d="m49.545 12.854.17-.257c.3-.414.586-.813.885-1.184s.471-.557.714-.828c.242-.27.442-.485.67-.713s.328-.314.5-.47c.17-.158.556-.486.841-.714l.428-.314q.515-.372 1.07-.685l.243-.142a8.6 8.6 0 0 1 1.34-.57l.728-.215c.3-.085.585-.171.885-.228q.6-.106 1.212-.129h1.655q.498.07.984.2h.257q.62.176 1.213.428l.585.3.385.185.699.442.285.172q.504.345.97.741L58.39 2.468c-.313-.257-.641-.5-.955-.713l-.271-.186-.728-.442-.385-.185-.514-.271h-.085Q54.843.4 54.21.2h-.257a8 8 0 0 0-.97-.2h-1.627a9 9 0 0 0-1.227.128L49.93 0c-.228 0-.456.143-.684.2s-.485.114-.713.2l-.029.028A10 10 0 0 0 47.32.97l-.242.143c-.272.142-.528.3-.8.47-.27.172-.17.143-.27.2l-.428.328-.414.314c-.143.114-.285.271-.428.4l-.5.47a2 2 0 0 0-.242.229c-.143.142-.285.328-.428.485s-.47.528-.699.827l-.242.271a25 25 0 0 0-.642.913c0 .086-.129.157-.186.257q-.47.685-.899 1.427c0 .085-.1.185-.157.285l-.328.414a32 32 0 0 0-.97 1.968L2.081 94.77c-3.266 7.419-2.553 13.368 1.199 16.478l7.875 6.533c-3.752-3.11-4.466-9.058-1.17-16.477l37.348-84.34q.435-1.01.97-1.97.081-.184.186-.356.478-.92 1.056-1.783" transform="translate(70)"/><g transform="translate(70)"><use xlink:href="#D" fill="url(#E)"/><use xlink:href="#D" fill="url(#F)"/><use xlink:href="#D" fill="url(#G)"/><use xlink:href="#D" fill="url(#H)"/><use xlink:href="#D" fill="#000" filter="url(#I)"/></g></g><g fill="#FFF40D" fill-rule="nonzero" transform="translate(50 12)"><ellipse cx="42.066" cy="126.569" rx="2.675" ry="1.687"/><circle cx="139.734" cy="21.278" r="1"/><circle cx="26.146" cy="10.201" r="1"/><circle cx="8.907" cy="108.801" r="1"/><ellipse cx="133.798" cy="43.344" rx="2.048" ry="1.277"/><ellipse cx="52.942" cy="29.841" opacity=".5" rx="2.482" ry="1.566"/><ellipse cx="76.534" cy="128.376" rx="2.482" ry="1.566"/><ellipse cx="61.867" cy="111.998" rx="2.482" ry="1.566"/><ellipse cx="7.639" cy="78.422" opacity=".8" rx="2.482" ry="1.566"/><ellipse cx="18.346" cy="34.604" opacity=".4" rx="2.482" ry="1.566"/><ellipse cx="128.143" cy="106.11" opacity=".2" rx="2.482" ry="1.566"/><ellipse cx="1.711" cy="29.688" rx="1.711" ry="1.084"/><ellipse cx="123.765" cy="68.341" rx="2" ry="1.277"/><ellipse cx="39.705" cy="105.363" opacity=".4" rx="1.856" ry="1.181"/><ellipse cx="152.032" cy="8.788" rx="1.518" ry="1"/><ellipse cx="92.856" cy="109.178" rx="1.856" ry="1.181"/><ellipse cx="119.492" cy="119.918" opacity=".5" rx="1.856" ry="1.181"/><ellipse cx="111.901" cy="100.929" opacity=".8" rx="1.856" ry="1.181"/><ellipse cx="49.978" cy="62.3" opacity=".8" rx="1.856" ry="1.181"/><ellipse cx="73.956" cy="51.384" opacity=".4" rx="1.856" ry="1.181"/><ellipse cx="158.144" cy="61.12" rx="1.856" ry="1.181"/><ellipse cx="8.265" cy="58.372" opacity=".2" rx="1.856" ry="1.181"/><ellipse cx="131.806" cy=".795" rx="1.277" ry="1"/></g></g></svg>