<svg xmlns="http://www.w3.org/2000/svg" xml:space="preserve" width="548" height="560"><circle cx="274" cy="280" r="260.9" style="fill:#1f3045"/><path d="M189.6 72.2c11.5-3.8 23-8.2 35.1-9.8-.1 5.2-.1 10.4.6 15.6-16.7 4-33.3 9.4-48.4 17.8-9.2 4.8-18 10.2-26 16.8-3.9-3.9-7.6-8.1-11.4-12.1 15.4-11.6 32.3-21 50.1-28.3m133.2-9.1c.2-.2.6-.8.9-1 19 4.1 37.6 10.4 54.8 19.6 10.5 5.3 20.4 11.8 29.7 19-3.8 3.7-7.5 7.5-11.2 11.3-22.3-16.1-47.8-27.8-74.5-34.2.2-5 .2-9.8.3-14.7" style="fill:#fff"/><path d="M320 91.4c31.1 8 59.8 24 84 45 1.8-11.7 13.9-20.2 25.5-17 10.6 4.2 16.6 14.6 23.8 22.8 18.9 25.5 34.1 54.8 38.6 86.5-5.3.1-10.6.1-15.8.1-5.6-26.3-16.6-51.5-32.8-73-18.2 8.8-36.3 17.6-54.3 26.8-6.2-7.2-12.9-14-20.3-20-17.9-14.8-39.4-25.3-61.9-30.9 0-3 .1-5.9.2-8.9 30.2 6.1 57.3 22.6 80 43 4.3-3.6 8.8-6.8 13.2-10.3-10.6-9.2-20.8-19.1-33.1-26-16.8-9.8-34.7-18.3-53.8-22.5 2.9-5 4.9-10.2 6.7-15.6m102.3 43.5c-5.7 2.1-6.7 10.7-2 14.4 4.6 3.8 12.3.9 13.8-4.8 1.9-6.4-6-12.4-11.8-9.6m-229.1 6.5c14.6-9 31.1-14.5 47.7-18.7v8.6c-19.6 5.6-38.8 13.4-55.2 25.7-29.7 23.2-54.8 56.5-58.3 95.1-2.8-.2-5.6-.2-8.3-.2.2-1.7.3-3.4.4-5.2 2.4-16.8 9.3-32.6 17.3-47.5 13-23.9 33.5-43.2 56.4-57.8" style="fill:#fff"/><path d="M227.4 91.7c-7.3 2-14.6 4.1-21.8 6.7-22.9 8.6-44.2 21.8-61.8 38.8-1.7-10.6-11.8-19.8-22.8-18-8.5.9-14.2 7.9-19.2 14-7.5 8.9-13.9 18.7-20 28.6-11 17.9-19.5 37.4-24.3 57.9-.5 3.1-1 6.1-1.4 9.2 5.5-.1 11 0 16.6-.2.9-6 2.6-11.8 4.2-17.7 6.5-20.2 16-39.3 28.9-56.2 4.2 3.8 8.9 7.1 14 9.4-3.1 4.1-6.1 8.2-9 12.4-10.7 16.1-17.8 34.7-20.7 53.8 4.9 1 9.7 2.4 14.3 4.1 2.3-9.5 4.9-19 8.9-28 12.7-28.7 33.9-53 59-71.6 17.9-14.1 39.5-22.4 61.3-28.2-2.3-4.8-4.6-9.8-6.2-15m-98.8 56.5c-3.6 4.6-11.1 3.5-13.6-1.7-3.4-5.2 1.3-12.6 7.3-12.5 7-.2 11.5 9.3 6.3 14.2m298.2 42.2c4.3-2.9 9.1-5.1 14-6.9 8.4 14.6 14.9 30.6 17 47.4-4.9 1-9.8 2.1-14.6 3.5-3.6-15.3-8.1-30.6-16.4-44m-28.5 4.2c2.5-1 5.1-2 7.6-3 12.3 17.8 20.6 38.8 22.4 60.4h-7.4c-2.6-20.8-11.3-40.1-22.6-57.4" style="fill:#fff"/><path d="M392.4 213.2c-8.4-15.7-20.3-29.4-34.1-40.6-21.9-17.7-49.2-28.6-77.4-30 .3-11.2.2-22.4.2-33.5 17.6-4.2 28.1-24.8 20.8-41.4-7.3-16-28.9-23.1-44.2-14.4-8.5 5.8-15.5 15.5-14.8 26.3 0 13.4 9.8 25.6 22.6 29.2 0 11.2.1 22.4.3 33.5-19.5 1.7-38.7 7-56 16.1-21.4 11.3-38.6 29.3-51.4 49.6-8.4 13.4-14 28.5-16.1 44.2 5.1-.2 10.2-.2 15.3-.2 1.8-9.4 5.6-18.2 9.5-26.9 3.9-7.5 8.7-14.5 14.7-20.5 5.4 5.6 11.5 10.6 16.6 16.5-2.1 8.2 5.1 17 13.7 15.1 10.4-.7 13.2-15.5 5.7-21.5-3.4-3.4-9.2-.9-12.2-4.8-5.1-5.4-10.5-10.5-15.8-15.8 17.9-19 42.5-31 68.2-34.7 36.5-5.8 73.6 9.4 99.7 34.6-1.8 1.9-3.6 3.9-5.5 5.8-4 4.2-8 8.4-12.1 12.5-7.3-1.1-14.8 4.6-14.9 12.1-.5 8.7 10 15.2 17.6 10.8 5.4-2.3 6.8-8.5 5.9-13.8 1.2-1.3 2.4-2.6 3.7-3.9 4.5-4.5 9.1-8.8 13.5-13.2 4.7 4.8 8.8 10.2 11.9 16.2 5.4 10 9.4 20.6 11.7 31.7 5.3.1 10.7.1 16 0-1.9-13.7-6.3-27-13.1-39M259.8 79.5c1-5.5 4.8-11.1 10.5-12.5 6.4-1.7 14.1 2 15.7 8.6 1.7 7.3-2.2 16.7-10.4 17.6-8.1 1.7-15.7-5.8-15.8-13.7m-61.1 195.4c-3.1-7.9-14.8-10.5-20.9-4.5-1.5 1.1-2.7 3.2-4.9 2.8-22.3 0-44.6-.1-66.9 0-2.8-13.2-14.3-24.2-28-24.8-15.2-1.3-29.3 10.4-32.5 25-4 14.7 5.4 30.9 19.3 36.3 14.1 5.6 31.7-.9 38.1-14.8.9-2.1 1.8-4.2 2.7-6.2 23.1-.1 46.2-.2 69.2-.1 3.6 5.5 10.8 8.1 16.9 5.6 7.5-2.7 10.6-12.4 7-19.3M62.5 286.3c-3.6-8.4 2.2-19.1 11.5-19.8 10.6-1.6 20 10.9 14.5 20.5-5.3 10.4-20.9 9.6-26-.7m437-20.2c-4.7-10.2-15.1-17-26.2-17.7-11.1-.6-21.9 5.5-27.7 14.8-1.6 3.1-2.7 6.5-3.7 9.8-23.1.1-46.2.3-69.3.1-4.2-6.4-13.4-8.4-19.5-3.6-7 4.9-8.1 16.6-1.4 22.3 6.1 5.3 16.6 3.8 20.9-3.2 23.3-.2 46.5 0 69.8 0 1.2 4.3 3 8.6 5.8 12.2 12.5 16.1 40.2 13.3 50.1-4.2 5.2-9.1 6-20.9 1.2-30.5m-32.2 1c7.7-3 17.4 2.3 18.9 10.5 1.3 7.7-4.5 15.6-12.2 16.9-5.8 1.2-12-2.4-14.2-7.9-3.7-7-.1-16.9 7.5-19.5" style="fill:#fff"/><path d="M285.8 263.3c3.7-28 7.2-56.1 11.7-84-18.3 24.5-67.5 107.1-77.1 121.8-.6.8-1.1 1.6-1.6 2.5 14.1.1 28.2 0 42.3 0-1 10.3-3 20.5-4.4 30.7-2.5 17.7-5.7 35.4-8 53.1 10-14.4 18.7-29.6 28.7-44 8.9-14.2 44.1-66.7 52-79.4-14.5-1-29.1 0-43.6-.7m-97.7 228.6c11.5 3.8 23 8.2 35.1 9.8-.1-5.2-.1-10.4.6-15.6-16.7-4-33.3-9.4-48.4-17.8-9.2-4.8-18-10.2-26-16.8-3.9 3.9-7.6 8.1-11.4 12.1 15.4 11.6 32.3 20.9 50.1 28.3m133.2 9.1c.2.2.6.8.9 1 19-4.1 37.6-10.4 54.8-19.6 10.5-5.3 20.4-11.8 29.7-19-3.8-3.7-7.5-7.5-11.2-11.3-22.3 16.1-47.8 27.8-74.5 34.2.2 4.9.2 9.8.3 14.7" style="fill:#fff"/><path d="M311.8 457.1c19.1-4.3 37-12.7 53.8-22.5 12.3-7 22.5-16.8 33.1-26-4.4-3.4-9-6.6-13.2-10.3-22.7 20.4-49.8 36.9-80 43-.1-3-.2-5.9-.2-8.9 22.5-5.6 44-16.1 61.9-31 7.3-6.1 14-12.8 20.3-20 18 9.1 36.1 18 54.3 26.8 16.1-21.5 27.2-46.7 32.8-73 5.3 0 10.6 0 15.8.1-4.6 31.7-19.7 61-38.6 86.5-7.2 8.2-13.2 18.6-23.9 22.8-11.6 3.1-23.7-5.3-25.5-17-24.1 21.1-52.9 37-84 45-1.7-5.3-3.7-10.6-6.6-15.5m120.8-37.5c-1.5-5.6-9.2-8.6-13.8-4.8-4.8 3.7-3.7 12.2 2 14.4 5.8 2.7 13.7-3.2 11.8-9.6m-240.9 3c14.6 9 31.1 14.5 47.7 18.7v-8.6c-19.6-5.6-38.8-13.4-55.2-25.7-29.7-23.2-54.8-56.5-58.3-95.1-2.8.2-5.5.2-8.3.2.2 1.7.3 3.5.5 5.2 2.4 16.8 9.3 32.6 17.3 47.5 13 24 33.4 43.2 56.3 57.8" style="fill:#fff"/><path d="M232.1 457.1c-21.8-5.8-43.4-14.1-61.3-28.2-25.1-18.6-46.3-42.9-59-71.6-4-9-6.6-18.5-8.9-28-4.7 1.8-9.4 3.2-14.3 4.1 3 19.1 10 37.7 20.7 53.8 2.8 4.2 5.9 8.3 9 12.4-5.2 2.3-9.9 5.6-14 9.4-12.9-16.9-22.4-36-28.9-56.2-1.7-5.8-3.3-11.7-4.2-17.7-5.5-.1-11.1-.1-16.6-.2.5 3.1 1 6.1 1.4 9.2 4.8 20.5 13.3 40 24.3 57.9 6.1 9.9 12.4 19.7 20 28.6 5.1 6.1 10.8 13.1 19.2 14 11 1.8 21.2-7.5 22.8-18 17.6 17 38.9 30.2 61.8 38.8 7.1 2.7 14.4 4.7 21.8 6.7 1.7-5 3.9-10 6.2-15m-111.2-27c-6 .1-10.7-7.3-7.3-12.5 2.5-5.1 10-6.3 13.6-1.7 5.2 4.9.6 14.4-6.3 14.2m304.4-56.4c4.3 2.9 9.1 5 13.9 6.9 8.4-14.6 14.9-30.6 17-47.5-4.9-1-9.8-2.1-14.6-3.5-3.5 15.3-8 30.7-16.3 44.1m-28.4-4.2c2.5 1 5.1 2 7.6 3 12.3-17.8 20.6-38.8 22.4-60.4h-7.4c-2.6 20.7-11.4 40-22.6 57.4" style="fill:#fff"/><path d="M404.1 311.9c-5.3-.1-10.7-.1-16 0-2.3 11.1-6.4 21.7-11.7 31.7-3.2 5.9-7.2 11.4-11.9 16.2-4.4-4.5-9.1-8.8-13.5-13.2-1.2-1.3-2.5-2.6-3.7-3.9.9-5.3-.6-11.5-5.9-13.8-7.6-4.4-18.1 2.1-17.6 10.8.1 7.6 7.6 13.2 14.9 12.1 4.1 4.1 8.1 8.3 12.1 12.5 1.8 2 3.6 3.9 5.5 5.8-26.1 25.2-63.2 40.4-99.7 34.6-25.7-3.7-50.3-15.7-68.2-34.7 5.3-5.2 10.6-10.4 15.8-15.8 3-3.9 8.8-1.4 12.2-4.8 7.4-6.1 4.7-20.9-5.7-21.5-8.6-1.9-15.9 6.9-13.7 15.1-5.1 5.9-11.1 10.9-16.6 16.5-6-6-10.8-13-14.7-20.5-3.9-8.7-7.7-17.5-9.5-26.9-5.1 0-10.2 0-15.3-.2 2.2 15.7 7.8 30.8 16.1 44.2 12.8 20.3 30 38.3 51.4 49.6 17.3 9.2 36.5 14.4 56 16.1-.2 11.2-.3 22.4-.3 33.5-12.8 3.6-22.6 15.8-22.6 29.2-.7 10.8 6.3 20.5 14.8 26.3 15.3 8.7 36.9 1.6 44.2-14.4 7.4-16.7-3.1-37.3-20.8-41.4-.1-11.2.1-22.4-.2-33.5 28.2-1.3 55.5-12.2 77.4-30 13.8-11.2 25.7-24.9 34.1-40.6 6.7-12.1 11.1-25.3 13.1-39m-129.9 159c8.2.8 12.2 10.3 10.4 17.6-1.6 6.6-9.4 10.3-15.7 8.6-5.7-1.4-9.5-7-10.5-12.5 0-7.9 7.7-15.5 15.8-13.7" style="fill:#fff"/></svg>